<?xml version="1.0" encoding="utf-8"?>
<!-- Generator: Adobe Illustrator 16.0.0, SVG Export Plug-In . SVG Version: 6.00 Build 0)  -->
<!DOCTYPE svg PUBLIC "-//W3C//DTD SVG 1.1//EN" "http://www.w3.org/Graphics/SVG/1.1/DTD/svg11.dtd" [
	<!ENTITY ns_flows "http://ns.adobe.com/Flows/1.0/">
	<!ENTITY ns_extend "http://ns.adobe.com/Extensibility/1.0/">
	<!ENTITY ns_ai "http://ns.adobe.com/AdobeIllustrator/10.0/">
	<!ENTITY ns_graphs "http://ns.adobe.com/Graphs/1.0/">
]>
<svg version="1.1" id="Layer_1" xmlns:x="&ns_extend;" xmlns:i="&ns_ai;" xmlns:graph="&ns_graphs;"
	 xmlns="http://www.w3.org/2000/svg" xmlns:xlink="http://www.w3.org/1999/xlink" xmlns:a="http://ns.adobe.com/AdobeSVGViewerExtensions/3.0/"
	 x="0px" y="0px" width="1280.208px" height="715.643px" viewBox="0 0 1280.208 715.643"
	 enable-background="new 0 0 1280.208 715.643" xml:space="preserve">
<g>
	<path fill-rule="evenodd" clip-rule="evenodd" fill="#252423" d="M640.183,720.131c-211.808,0-423.614-0.018-635.421,0.124
		c-4.268,0.003-4.748-1.129-4.746-4.974C0.124,478.478,0.126,241.674,0,4.87c-0.002-4.076,0.84-4.85,4.872-4.848
		C428.319,0.138,851.767,0.141,1275.214,0c4.502-0.002,4.99,1.268,4.988,5.23c-0.101,236.805-0.101,473.608,0.006,710.412
		c0.002,3.775-0.884,4.582-4.605,4.58C1063.796,720.119,851.989,720.131,640.183,720.131z"/>
	<path fill-rule="evenodd" clip-rule="evenodd" fill="#F5F3F1" d="M482.181,371.038c0,15.323-0.149,30.648,0.104,45.967
		c0.064,3.895-1.139,4.614-4.754,4.588c-22.483-0.168-44.969-0.075-67.454-0.089c-10.254-0.007-15.873-4.292-17.729-14.504
		c-2.209-12.151-2.859-24.464-1.838-36.81c0.438-5.303,0.782-10.645,1.719-15.87c1.835-10.246,6.783-14.16,17.144-14.163
		c15.988-0.004,31.979-0.132,47.966,0.095c3.831,0.054,5.004-1.06,4.6-4.763c-0.54-4.943,0.982-11.243-1.545-14.517
		c-2.478-3.209-9.045-0.949-13.802-0.985c-17.32-0.134-34.645-0.184-51.963,0.047c-3.855,0.052-4.886-1.061-4.592-4.74
		c0.331-4.138,0.319-8.341-0.001-12.479c-0.254-3.29,1.052-3.761,3.955-3.746c23.483,0.11,46.968,0.036,70.452,0.076
		c8.015,0.014,13.103,3.848,15.391,11.633c1.605,5.464,2.146,11.125,2.182,16.792c0.091,14.489,0.03,28.979,0.03,43.469
		C482.09,371.038,482.135,371.038,482.181,371.038z"/>
	<path fill-rule="evenodd" clip-rule="evenodd" fill="#F5F3F1" d="M850.604,421.508c-11.325,0-22.65,0.022-33.976-0.007
		c-9.53-0.025-14.343-3.842-16.637-13.193c-1.356-5.527-1.83-11.175-1.842-16.843c-0.046-20.818-0.043-41.637,0.009-62.455
		c0.014-5.668,0.486-11.318,1.885-16.836c2.33-9.195,7.303-13.034,16.796-13.04c17.821-0.012,35.642-0.007,53.463-0.003
		c10.422,0.003,15.911,4.197,17.67,14.432c2.092,12.171,2.718,24.484,1.768,36.824c-0.421,5.47-0.778,10.983-1.783,16.361
		c-1.916,10.26-6.835,14.075-17.241,14.078c-15.989,0.005-31.979,0.091-47.966-0.071c-3.401-0.034-4.858,0.782-4.468,4.395
		c0.41,3.8,0.629,7.648,0.537,11.466c-0.086,3.57,1.421,4.346,4.76,4.323c20.651-0.146,41.306,0.029,61.956-0.166
		c3.75-0.036,5.028,0.912,4.635,4.679c-0.549,5.249,2.189,12.33-1.104,15.303c-2.876,2.596-9.827,0.72-14.978,0.744
		C866.261,421.535,858.433,421.508,850.604,421.508z"/>
	<path fill-rule="evenodd" clip-rule="evenodd" fill="#F5F3F1" d="M768.121,420.987c-1.529-1.546-0.695-3.473-0.703-5.188
		c-0.134-29.823-0.28-59.646-0.175-89.47c0.019-5.126-1.546-6.564-6.773-6.528c-36.487,0.252-72.977,0.218-109.465,0.019
		c-4.187-0.022-5.524,1.218-5.515,5.166c0.021,8.661-0.279,17.322-0.299,25.983c-0.05,21.993-0.116,43.987,0.079,65.979
		c0.033,3.783-0.957,4.945-4.698,4.634c-4.796-0.398-9.635-0.268-14.456-0.365c-0.948-1.721-0.476-3.588-0.479-5.379
		c-0.035-26.096-0.015-52.191-0.044-78.286c-0.002-1.803,0.395-3.659-0.411-5.409c-0.423-6.846,0.052-13.632,1.791-20.267
		c2.362-9.013,7.254-12.737,16.47-12.74c41.575-0.011,83.15-0.006,124.726-0.004c10.806,0,15.853,4.093,17.999,14.625
		c0.629,3.092,1.286,6.188,0.915,9.382c-1.195,3.125,0.112,6.239,0.099,9.364c-0.12,27.479-0.059,54.96-0.09,82.439
		c-0.002,2.122,0.481,4.366-0.983,6.277c-5.664,0.472-11.327,0.474-16.99-0.001c-0.822-1.21-0.488-2.583-0.489-3.885
		c-0.02-28.122-0.024-56.244,0.023-84.366c0.002-1.033-0.74-2.31-0.027-2.78c-0.097,0.68-0.009,1.875-0.009,3.041
		c-0.007,27.457,0.005,54.913-0.029,82.369C768.585,417.393,769.047,419.26,768.121,420.987z"/>
	<path fill-rule="evenodd" clip-rule="evenodd" fill="#F5F3F1" d="M563.958,331.444c-0.147-0.812-0.365-1.616-0.431-2.435
		c-0.718-9.075-0.712-9.075-10.048-9.075c-11.476,0-22.957,0.22-34.423-0.11c-4.494-0.129-6.048,1.101-6.034,5.686
		c0.077,26.607-0.021,53.216-0.229,79.822c-0.041,5.213,0.982,10.506-0.688,15.657c-0.928-1.728-0.465-3.595-0.467-5.39
		c-0.033-28.92-0.025-57.84-0.022-86.323c0.133,0.433-0.014,1.315-0.014,2.19c0.011,28.955,0.012,57.91,0.003,86.866
		c0,0.983,0.164,2.011-0.497,2.887c-5.664,0.47-11.327,0.473-16.99-0.002c-1.378-1.745-0.987-3.813-0.989-5.777
		c-0.023-27.813,0.029-55.627-0.081-83.44c-0.012-2.958,1.32-5.905,0.095-8.864c-0.305-2.854,0.194-5.631,0.738-8.416
		c2.275-11.649,6.992-15.589,18.744-15.59c17.659,0,35.319-0.013,52.979,0.006c9.074,0.009,14.228,3.998,16.438,12.891
		c1.533,6.173,1.956,12.506,1.971,18.842c0.064,28.822,0.016,57.645,0.143,86.467c0.014,3.142-0.646,4.489-4.08,4.24
		c-4.968-0.358-9.97-0.258-14.956-0.354c-0.414-0.563-0.5-1.204-0.5-1.883c-0.013-30.469,0.002-60.938-0.008-91.095
		C564.275,329.052,565.09,330.474,563.958,331.444z"/>
	<path fill-rule="evenodd" clip-rule="evenodd" fill="#F5F3F1" d="M613.106,421.215c-5.313,0.097-10.63,0.104-15.937,0.329
		c-2.571,0.109-2.979-1.107-2.975-3.307c0.052-24.956,0.026-49.913,0.052-74.87c0.002-1.21-0.513-3.159,1.46-3.086
		c6.168,0.228,12.417-1.225,18.502,0.804c-0.225,24.62-0.021,49.241-0.116,73.861C614.084,417.065,614.576,419.308,613.106,421.215z
		"/>
	<path fill-rule="evenodd" clip-rule="evenodd" fill="#F3F2F0" d="M594.223,309.365c0-9.954,0-9.954,10.193-9.954
		c10.264,0,10.264,0,10.264,10.41c0,10.409,0,10.409-9.727,10.409C594.223,320.23,594.223,320.23,594.223,309.365z"/>
	<path fill-rule="evenodd" clip-rule="evenodd" fill="#FCFAF8" d="M493.142,323.136c1.569,1.889,0.943,4.146,0.946,6.248
		c0.04,30.611,0.028,61.223,0.029,91.834c-1.342,0.222-1.769-0.51-1.753-1.69C492.789,387.398,491.4,355.254,493.142,323.136z"/>
	<path fill-rule="evenodd" clip-rule="evenodd" fill="#FCFAF8" d="M786.108,421.219c0-30.611-0.012-61.223,0.028-91.833
		c0.003-2.102-0.624-4.359,0.946-6.248c0.259,4.146,0.73,8.293,0.742,12.44c0.072,27.15,0.071,54.302-0.02,81.452
		C787.801,418.439,789.278,420.913,786.108,421.219z"/>
	<path fill-rule="evenodd" clip-rule="evenodd" fill="#FEFEFB" d="M613.106,421.215c0.002-24.644-0.012-49.287,0.033-73.93
		c0.004-2.095-0.654-4.373,1.069-6.2c0.921,3.262,0.378,6.594,0.387,9.885c0.061,21.937,0.063,43.872-0.038,65.809
		C614.55,418.247,615.917,420.525,613.106,421.215z"/>
	<path fill-rule="evenodd" clip-rule="evenodd" fill="#FCFBF8" d="M563.958,331.444c0.126-2.62,0.253-5.241,0.379-7.861
		c0.26,0.007,0.521,0.014,0.781,0.021c0,32.539,0,65.078,0,97.618c-1.467-0.11-1.314-1.245-1.313-2.189
		C563.846,389.836,563.903,360.641,563.958,331.444z"/>
	<path fill-rule="evenodd" clip-rule="evenodd" fill="#FCFAF8" d="M511.107,421.22c0-31.126,0-62.253,0-93.379
		c0.332-0.002,0.664-0.003,0.997-0.005c0,31.051,0,62.103,0,93.153C511.771,421.066,511.439,421.143,511.107,421.22z"/>
	<path fill-rule="evenodd" clip-rule="evenodd" fill="#FDFBF9" d="M768.121,420.987c0-30.777,0-61.554,0-92.33
		c0.332-0.001,0.664-0.001,0.997-0.002c0,30.854,0,61.708,0,92.563C768.785,421.141,768.453,421.063,768.121,420.987z"/>
	<path fill-rule="evenodd" clip-rule="evenodd" fill="#FBF9F7" d="M625.183,332.142c1.426,1.742,0.906,3.82,0.909,5.766
		c0.031,27.77,0.023,55.539,0.024,83.309c-1.123-0.117-1.186-0.953-1.184-1.795C625.013,390.328,625.098,361.235,625.183,332.142z"
		/>
	<path fill-rule="evenodd" clip-rule="evenodd" fill="#252423" d="M436.67,360.512c6.986,0,13.976,0.104,20.959-0.049
		c2.988-0.066,4.458,0.409,4.372,4.013c-0.258,10.806-0.188,21.624-0.031,32.435c0.044,2.992-0.76,4.054-3.889,4.021
		c-14.138-0.146-28.279-0.144-42.418,0c-2.968,0.03-4.206-0.894-4.343-3.854c-0.508-10.977-0.454-21.947-0.038-32.924
		c0.103-2.692,1.095-3.769,3.93-3.7C422.36,360.629,429.517,360.512,436.67,360.512z"/>
	<path fill-rule="evenodd" clip-rule="evenodd" fill="#252423" d="M843.477,360.502c-7.149,0-14.3-0.033-21.449,0.021
		c-2.203,0.017-3.833-0.084-3.759-3.089c0.281-11.298-0.299-22.606,0.583-33.904c0.208-2.67,0.905-3.688,3.763-3.659
		c14.132,0.139,28.267,0.134,42.398,0.003c2.806-0.025,3.825,0.921,3.93,3.642c0.428,11.139,0.437,22.271-0.009,33.409
		c-0.11,2.751-1.252,3.693-4.009,3.632C857.778,360.396,850.626,360.502,843.477,360.502z"/>
	<path fill-rule="evenodd" clip-rule="evenodd" fill="#FDFDFB" d="M866.493,361.97c-15.579,0-31.158,0-46.738,0
		c-0.001-0.149-0.003-0.299-0.004-0.448c15.574,0,31.148,0,46.722,0C866.479,361.671,866.486,361.82,866.493,361.97z"/>
</g>
</svg>
