<?xml version="1.0" encoding="utf-8"?>
<!-- Generator: Adobe Illustrator 16.0.0, SVG Export Plug-In . SVG Version: 6.00 Build 0)  -->
<!DOCTYPE svg PUBLIC "-//W3C//DTD SVG 1.1//EN" "http://www.w3.org/Graphics/SVG/1.1/DTD/svg11.dtd" [
	<!ENTITY ns_flows "http://ns.adobe.com/Flows/1.0/">
	<!ENTITY ns_extend "http://ns.adobe.com/Extensibility/1.0/">
	<!ENTITY ns_ai "http://ns.adobe.com/AdobeIllustrator/10.0/">
	<!ENTITY ns_graphs "http://ns.adobe.com/Graphs/1.0/">
]>
<svg version="1.1" id="Layer_1" xmlns:x="&ns_extend;" xmlns:i="&ns_ai;" xmlns:graph="&ns_graphs;"
	 xmlns="http://www.w3.org/2000/svg" xmlns:xlink="http://www.w3.org/1999/xlink" xmlns:a="http://ns.adobe.com/AdobeSVGViewerExtensions/3.0/"
	 x="0px" y="0px" width="400.055px" height="335.149px" viewBox="0 0 400.055 335.149" enable-background="new 0 0 400.055 335.149"
	 xml:space="preserve">
<g>
	<path fill-rule="evenodd" clip-rule="evenodd" fill="#487FE4" d="M199.984,335.053c-65.325,0-130.65-0.034-195.975,0.097
		c-3.424,0.007-4.099-0.672-4.095-4.096c0.116-108.987,0.116-217.973,0-326.959C-0.09,0.672,0.584-0.003,4.009,0
		c130.65,0.112,261.3,0.112,391.95,0c3.423-0.003,4.1,0.669,4.097,4.094c-0.116,108.986-0.116,217.972,0,326.959
		c0.003,3.423-0.671,4.103-4.096,4.096C330.635,335.019,265.309,335.053,199.984,335.053z"/>
	<path fill-rule="evenodd" clip-rule="evenodd" fill="#FEFEFE" d="M200.539,217.906c-20.157,0-40.314,0.014-60.472-0.005
		c-13.596-0.013-20.938-7.351-20.948-21.046c-0.03-40.148-0.029-80.297-0.001-120.445c0.01-13.959,7.304-21.154,21.339-21.157
		c40.148-0.009,80.296-0.013,120.444,0.002c13.621,0.005,20.904,7.34,20.908,21.045c0.012,40.148,0.011,80.297,0,120.445
		c-0.003,13.958-7.252,21.15-21.297,21.158C240.52,217.914,220.529,217.906,200.539,217.906z"/>
	<path fill-rule="evenodd" clip-rule="evenodd" fill="#FDFDFE" d="M301.163,251.577c-0.388,4.64-0.844,9.274-1.133,13.921
		c-0.126,2.016-0.935,4.478,2.153,5.251c0.153,0.039,0.338,0.138,0.416,0.265c0.36,0.585,0.585,1.521-0.091,1.676
		c-2.937,0.672-5.938,0.572-8.892,0.073c-0.794-0.134-0.705-1.385-0.3-1.605c4.683-2.553,2.739-7.286,3.656-11.034
		c0.589-2.41,0.71-4.94,0.947-7.427c0.093-0.968,0.241-2.121-0.168-2.917c-1.927-3.746-1.958-3.363,2.603-3.814
		c4.877-0.482,7.249,1.163,7.99,6.075c0.515,3.409,1.916,6.685,3.068,10.509c2.072-3.979,2.738-7.924,3.387-11.727
		c0.683-4.005,2.487-5.371,6.322-4.797c1.467,0.22,2.994-0.003,4.49,0.066c0.757,0.035,1.77-0.247,2.059,0.854
		c0.254,0.969-0.277,1.687-1.181,1.836c-1.974,0.327-2.224,1.381-1.919,3.184c0.887,5.25,1.585,10.531,2.358,15.801
		c0.048,0.329,0.043,0.683,0.167,0.98c1.803,4.326,1.807,4.328-3.485,4.315c-1.331-0.003-2.665-0.004-3.995-0.063
		c-1.34-0.059-1.991-1.447-1.106-1.847c4.258-1.925,1.797-5.108,1.647-7.733c-0.228-3.975-0.829-7.929-1.976-12.047
		c-1.44,5.567-2.843,11.145-4.343,16.697c-0.481,1.779-0.278,4.075-3.328,4.041c-2.688-0.03-2.729-2.044-3.266-3.658
		c-1.88-5.645-3.657-11.323-5.474-16.988C301.569,251.502,301.366,251.539,301.163,251.577z"/>
	<path fill-rule="evenodd" clip-rule="evenodd" fill="#FDFDFE" d="M221.972,248.711c-2.102,0.727-2.289,2.7-2.79,4.41
		c-1.637,5.589-3.24,11.188-4.782,16.803c-0.527,1.921-1.179,3.208-3.616,3.217c-2.377,0.009-3.166-1.116-3.702-3.089
		c-0.997-3.676-2.136-7.313-3.597-12.257c-1.239,4.228-2.002,7.317-3.068,10.3c-0.744,2.082-0.166,5.146-4.134,5.056
		c-3.869-0.088-3.391-3.118-4.12-5.198c-1.65-4.704-2.989-9.516-4.466-14.281c-0.345-1.11-0.774-2.195-1.101-3.312
		c-0.404-1.378-3.219-1.411-2.192-3.364c0.946-1.801,2.977-0.732,4.518-0.904c1.316-0.146,2.664-0.082,3.992-0.007
		c0.922,0.053,2.122-0.33,2.557,0.922c0.416,1.194-0.294,1.728-1.374,2.161c-1.92,0.771-0.825,2.194-0.511,3.368
		c1.201,4.489,2.448,8.966,3.994,14.597c1.465-5.135,2.565-9.245,3.836-13.304c0.451-1.443,0.02-2.607-0.526-3.813
		c-0.529-1.17-3.274-1.383-1.772-3.333c0.977-1.268,2.805-0.508,4.251-0.603c1.326-0.086,2.665-0.071,3.993,0.006
		c0.93,0.054,2.131-0.377,2.647,0.79c0.675,1.527-0.418,1.838-1.59,2.386c-1.736,0.812-0.617,2.395-0.355,3.523
		c0.937,4.047,2.076,8.046,3.14,12.064c0.495,1.067,1.066,0.881,1.674,0.102c0.836-3.521,1.73-7.028,2.485-10.566
		c0.436-2.033,2.036-4.119-1.07-5.888c-1.466-0.835-0.47-2.375,1.308-2.378c2.125-0.004,4.249,0.19,6.374,0.299
		C222.861,247.182,222.701,247.946,221.972,248.711z"/>
	<path fill-rule="evenodd" clip-rule="evenodd" fill="#FBFCFE" d="M117.116,262.81c0-3.646,0.025-7.293-0.02-10.938
		c-0.01-0.809,0.008-1.9-0.47-2.36c-0.979-0.943-3.935-1.563-1.551-3.045c1.995-1.238,5.148-0.79,7.727,0.071
		c0.188,0.063,0.349,1.012,0.154,1.295c-4.667,6.784-1.019,14.405-2.209,21.526c-0.224,1.336,0.66,3.262-1.572,3.607
		c-1.809,0.279-3.686,0.388-4.758-1.689c-0.455-0.882-1.058-1.688-1.601-2.523c-3.044-4.69-6.09-9.38-10.152-13.978
		c0,4.512-0.013,9.021,0.02,13.532c0.003,0.468,0.247,0.948,0.435,1.399c0.51,1.226,4.517,1.057,2.161,2.829
		c-2.098,1.577-5.743,0.824-8.673,0.078c-0.128-0.033-0.236-1.175-0.043-1.293c4.524-2.762,2.413-7.207,2.298-10.766
		c-0.137-4.234,2.4-9.227-2.36-12.716c-0.452-0.331-0.248-1.142,0.5-1.585c2.081-1.232,8.365,0.194,9.805,2.377
		c3.173,4.805,6.286,9.65,9.422,14.479C116.524,263.01,116.82,262.91,117.116,262.81z"/>
	<path fill-rule="evenodd" clip-rule="evenodd" fill="#FCFDFE" d="M93.236,259.749c-0.236,8.296-5.193,13.432-12.852,13.313
		c-7.617-0.117-11.69-5.229-11.383-14.29c0.268-7.922,5.254-12.85,12.862-12.711C89.563,246.202,93.487,250.926,93.236,259.749z"/>
	<path fill-rule="evenodd" clip-rule="evenodd" fill="#FCFDFE" d="M292.216,259.253c-0.069,8.604-5.028,13.932-12.857,13.81
		c-7.494-0.115-11.523-4.998-11.385-13.794c0.132-8.279,5.071-13.351,12.866-13.207C288.406,246.2,292.286,250.7,292.216,259.253z"
		/>
	<path fill-rule="evenodd" clip-rule="evenodd" fill="#FCFDFE" d="M179.534,273.053c-1.162,0-2.324,0.024-3.484-0.006
		c-2.165-0.057-2.573-0.637-1.199-2.62c1.767-2.55,0.948-4.26-2.337-4.347c-1.493-0.04-2.988,0.02-4.48-0.003
		c-2.468-0.038-2.435,1.82-2.463,3.425c-0.023,1.276,3.711,1.789,1.495,3.089c-2.269,1.331-5.494,0.73-8.261,0.132
		c-0.676-0.146-0.66-1.115-0.202-1.653c5.144-6.043,5.399-14.05,8.415-20.948c0.928-2.123,1.191-4.202,4.475-4.192
		c3.138,0.009,3.651,1.731,4.603,3.989c2.928,6.943,3.427,14.845,8.303,21.022c0.748,0.948,0.542,1.929-0.884,2.039
		c-1.319,0.103-2.652,0.022-3.979,0.022C179.534,273.019,179.534,273.035,179.534,273.053z"/>
	<path fill-rule="evenodd" clip-rule="evenodd" fill="#FCFCFE" d="M221.972,248.711c0-0.765,0.001-1.529,0.001-2.294
		c5.979-0.118,11.957-0.306,17.937-0.32c2.458-0.006,4.416,3.751,2.934,5.622c-1.199,1.512-2.272,0.707-2.942-0.744
		c-1.687-3.655-5.299-3.131-7.02-1.491c-1.878,1.788-1.398,5.486-0.171,7.958c0.613,1.234,3.05,1.176,4-0.825
		c0.492-1.036,1.051-1.742,2.228-1.298c1.229,0.464,0.821,1.658,0.885,2.578c0.079,1.159,0.066,2.33-0.001,3.489
		c-0.053,0.927,0.267,2.108-1.045,2.473c-1.328,0.367-1.656-0.619-2.017-1.595c-0.591-1.601-1.961-1.737-3.302-1.393
		c-1.788,0.462-1.479,2.131-1.297,3.32c0.319,2.082-1.493,5.225,1.623,5.998c2.665,0.661,6.129,1.427,7.498-2.661
		c0.336-1.003,1.101-1.713,2.296-1.354c1.811,0.545,1.397,2.054,1.231,3.312c-0.206,1.567-0.013,3.547-2.499,3.549
		c-6.222,0.004-12.444,0.001-19.005-0.473c3.674-2.714,2.656-6.306,2.713-9.602c0.06-3.49-0.181-6.997,0.068-10.471
		C226.322,249.225,224.826,248.355,221.972,248.711z"/>
	<path fill-rule="evenodd" clip-rule="evenodd" fill="#FCFCFE" d="M331.067,271.787c3.167-1.215,3.001-3.702,2.967-6.199
		c-0.056-4.152-0.009-8.306-0.021-12.459c-0.003-0.994,0.177-2.08-0.15-2.967c-1.521-4.119-1.574-4.102,3.073-4.104
		c3.488-0.003,6.998,0.239,10.459-0.064c3.585-0.314,3.695,1.786,3.631,4.287c-0.021,0.808,0.15,1.736-0.881,2.058
		c-0.889,0.276-1.733-0.007-2.036-0.905c-1.311-3.884-4.743-3.525-6.902-2.225c-2.424,1.462-1.485,5.025-0.861,7.334
		c0.729,2.698,2.937,2.03,4.319,0.078c0.625-0.883,1.036-1.738,2.231-1.314c1.257,0.444,0.846,1.641,0.911,2.557
		c0.083,1.157,0.073,2.328,0.001,3.485c-0.058,0.923,0.289,2.11-1.008,2.496c-1.297,0.388-1.687-0.53-2.038-1.54
		c-0.559-1.607-1.911-1.763-3.272-1.443c-1.829,0.431-1.521,2.096-1.341,3.28c0.318,2.092-1.489,5.243,1.569,6.032
		c2.629,0.679,6.111,1.496,7.52-2.584c0.427-1.238,1.355-1.935,2.721-1.255c1.366,0.681,1.002,1.983,0.846,3.078
		c-0.223,1.551,0.042,3.595-2.427,3.608c-6.244,0.035-12.487,0.012-18.731,0.012C331.453,272.617,331.26,272.202,331.067,271.787z"
		/>
	<path fill-rule="evenodd" clip-rule="evenodd" fill="#FCFDFE" d="M136.763,246.06c1.661-0.001,3.322-0.001,4.983,0
		c7.206,0.001,7.781,0.646,7.166,7.923c-0.096,1.139,0.165,2.468-1.595,2.503c-1.194,0.024-1.68-0.756-2.065-1.772
		c-0.833-2.194,0.427-6.496-3.592-5.706c-3.455,0.68-1.345,4.464-1.576,6.814c-0.34,3.456-0.012,6.971-0.113,10.456
		c-0.068,2.366,0.041,4.372,3.205,4.281c0.864-0.024,1.675,0.378,1.532,1.47c-0.151,1.153-1.163,0.995-1.924,1.003
		c-3.654,0.04-7.309,0.042-10.962,0.012c-0.932-0.008-2.216,0.217-2.263-1.198c-0.032-0.949,0.919-1.313,1.789-1.346
		c2.283-0.089,2.565-1.536,2.544-3.397c-0.058-5.149-0.015-10.299-0.033-15.447c-0.004-1.345,0.037-2.74-1.887-2.886
		c-1.801-0.137-2.601,0.604-3.058,2.418c-0.49,1.946,0.426,5.687-2.984,5.014c-2.634-0.52-0.718-3.708-1.026-5.675
		c-0.61-3.883,1.359-4.899,4.887-4.514C132.09,246.264,134.438,246.06,136.763,246.06z"/>
	<path fill-rule="evenodd" clip-rule="evenodd" fill="#FCFCFE" d="M254.692,273.129c-1.099,0.081-3.163-0.579-5.287-0.979
		c-2.636-0.495-2.488-2.247-2.36-4.112c0.074-1.09-0.332-2.49,1.286-2.845c2.516-0.552,2.4,1.504,2.98,2.993
		c0.914,2.347,3.028,2.301,5.05,2.148c1.62-0.122,2.864-0.931,3.265-2.603c0.529-2.218-0.943-3.424-2.533-4.393
		c-2.125-1.294-4.458-2.268-6.509-3.661c-2.858-1.943-4.221-4.744-3.289-8.218c0.89-3.315,3.554-4.738,6.658-5.24
		c2.633-0.427,5.306-0.3,7.896,0.561c3.653,1.213,2.413,4.211,1.525,6.071c-0.745,1.564-2.806,0.756-3.158-1.076
		c-0.496-2.576-2.054-3.238-4.292-3.005c-1.611,0.168-2.862,0.901-2.998,2.749c-0.182,2.46,1.606,3.47,3.362,4.466
		c1.155,0.655,2.362,1.219,3.538,1.84c3.715,1.961,7.101,4.316,5.747,9.226C264.242,271.886,260.249,273,254.692,273.129z"/>
	<path fill-rule="evenodd" clip-rule="evenodd" fill="#FCFCFE" d="M57.392,246.066c2.159-0.008,4.336,0.167,6.474-0.05
		c2.909-0.296,3.897,1.032,3.775,3.698c-0.044,0.965,0.347,2.104-0.843,2.601c-1.26,0.525-2.271,0.116-2.804-1.204
		c-1.538-3.809-5.234-3.229-7.002-1.741c-2.049,1.726-1.386,5.452-0.423,7.959c0.69,1.796,3.051,1.713,4.324-0.162
		c0.648-0.955,0.86-2.419,2.37-1.817c1.35,0.538,0.717,2.006,0.833,3.081c0.089,0.821,0.133,1.679-0.005,2.484
		c-0.23,1.342,0.859,3.338-1.042,3.873c-1.901,0.535-1.719-1.483-2.162-2.624c-0.582-1.499-1.901-1.012-2.985-1.032
		c-1.642-0.03-1.908,1.185-1.735,2.386c0.404,2.818-1.966,7.18,3.84,7.169c0.619-0.001,1.142,0.64,0.991,1.428
		c-0.162,0.842-0.876,0.889-1.524,0.9c-2.159,0.039-4.318,0.049-6.477,0.05c-4.532,0.002-3.319-0.007-3.33-3.875
		c-0.02-6.938,2.889-14.304-1.729-20.894c-1.382-1.972,0.04-2.181,1.482-2.208C52.076,246.036,54.734,246.073,57.392,246.066z"/>
	<path fill-rule="evenodd" clip-rule="evenodd" fill="#B3C6F2" d="M212.876,264.95c0.041,0.766,0.377,1.899-0.766,1.868
		c-0.933-0.025-0.994-1.115-0.908-1.97C211.76,264.883,212.319,264.917,212.876,264.95z"/>
	<path fill-rule="evenodd" clip-rule="evenodd" fill="#4880E4" d="M158.512,144.501c-0.003-11.983-0.04-23.967,0.026-35.95
		c0.014-2.576-0.48-4.678-2.18-6.844c-4.047-5.157-3.233-11.975,1.484-16.175c4.523-4.026,11.414-4.034,15.969-0.018
		c4.761,4.197,5.463,10.952,1.659,16.234c-0.581,0.807-1.507,1.427-1.885,2.301c-0.809,1.871-1.137,4.183,0.01,5.713
		c1.004,1.339,2.747-0.288,4.024-0.801c13.115-5.269,26.245-5.658,39.323-0.081c6.72,2.866,13.019,1.381,19.328-1.148
		c2.005-0.804,3.933-1.848,5.99-2.462c2.717-0.811,4.706,0.019,4.713,3.231c0.035,16.311,0.003,32.622,0.038,48.932
		c0.005,1.993-1.056,2.994-2.703,3.728c-10.313,4.596-20.65,7.239-31.709,2.098c-12.952-6.022-25.335-2.363-37.564,2.794
		c-2.008,0.848-2.103,2.271-2.088,4c0.031,3.828,0.034,7.656,0.001,11.484c-0.049,5.776-2.521,8.991-6.952,9.112
		c-4.564,0.125-7.424-3.262-7.459-9.201C158.464,169.134,158.515,156.818,158.512,144.501z"/>
	<path fill-rule="evenodd" clip-rule="evenodd" fill="#4980E4" d="M86.836,258.349c-0.286,3.445-0.325,6.281-1.565,8.915
		c-0.837,1.777-2.05,3.067-4.135,3.079c-2.07,0.011-3.512-1.175-4.188-2.996c-1.918-5.171-1.919-10.417,0.01-15.585
		c0.681-1.824,2.134-2.987,4.199-2.989c2.287-0.003,3.852,1.328,4.479,3.346C86.321,254.315,86.529,256.662,86.836,258.349z"/>
	<path fill-rule="evenodd" clip-rule="evenodd" fill="#4980E4" d="M285.811,258.349c-0.286,3.445-0.325,6.281-1.564,8.915
		c-0.837,1.777-2.05,3.067-4.135,3.079c-2.069,0.011-3.513-1.175-4.188-2.996c-1.919-5.171-1.919-10.417,0.011-15.585
		c0.681-1.824,2.134-2.987,4.198-2.989c2.287-0.003,3.852,1.328,4.479,3.346C285.295,254.315,285.504,256.662,285.811,258.349z"/>
	<path fill-rule="evenodd" clip-rule="evenodd" fill="#4D83E5" d="M167.155,262.811c1.01-3.725,1.962-7.234,3.29-12.129
		c1.449,4.783,2.507,8.28,3.672,12.129C171.636,262.811,169.541,262.811,167.155,262.811z"/>
</g>
</svg>
