<?xml version="1.0" encoding="utf-8"?>
<!-- Generator: Adobe Illustrator 16.0.0, SVG Export Plug-In . SVG Version: 6.00 Build 0)  -->
<!DOCTYPE svg PUBLIC "-//W3C//DTD SVG 1.1//EN" "http://www.w3.org/Graphics/SVG/1.1/DTD/svg11.dtd" [
	<!ENTITY ns_flows "http://ns.adobe.com/Flows/1.0/">
	<!ENTITY ns_extend "http://ns.adobe.com/Extensibility/1.0/">
	<!ENTITY ns_ai "http://ns.adobe.com/AdobeIllustrator/10.0/">
	<!ENTITY ns_graphs "http://ns.adobe.com/Graphs/1.0/">
]>
<svg version="1.1" id="Layer_1" xmlns:x="&ns_extend;" xmlns:i="&ns_ai;" xmlns:graph="&ns_graphs;"
	 xmlns="http://www.w3.org/2000/svg" xmlns:xlink="http://www.w3.org/1999/xlink" xmlns:a="http://ns.adobe.com/AdobeSVGViewerExtensions/3.0/"
	 x="0px" y="0px" width="612px" height="88.08px" viewBox="0 0 612 88.08" enable-background="new 0 0 612 88.08"
	 xml:space="preserve">
<g>
	<path fill-rule="evenodd" clip-rule="evenodd" fill="#F9FAFA" d="M0.24,88.32c0-29,0.004-58-0.023-87
		C0.216,0.42,0.42,0.218,1.32,0.218C204.96,0.241,408.601,0.24,612.24,0.24c0.222,0.416,0.111,0.864,0.111,1.296
		c0.006,28.479,0.007,56.957,0.004,85.437c-0.001,1.628,0.188,1.463-1.483,1.463c-203.11,0.002-406.221,0.002-609.332-0.004
		C1.107,88.432,0.657,88.54,0.24,88.32z"/>
	<path fill-rule="evenodd" clip-rule="evenodd" fill="#FEFEFE" d="M0.24,88.32c203.295,0,406.59,0,609.886,0
		c0.359,0,0.726-0.04,1.079,0.008c0.882,0.119,1.14-0.299,1.041-1.1c-0.034-0.275-0.006-0.56-0.006-0.839
		c0-28.717,0-57.433,0-86.149c0.502,0.266,0.225,0.728,0.226,1.08c0.017,16.517,0.015,33.035,0.015,49.551
		c0,12.198-0.01,24.396,0.021,36.594c0.002,0.873-0.151,1.121-1.086,1.12c-36.754-0.029-73.508-0.024-110.262-0.024
		c-166.611,0-333.223,0-499.835-0.016C0.968,88.545,0.506,88.822,0.24,88.32z"/>
	<path fill-rule="evenodd" clip-rule="evenodd" fill="#139948" d="M360.026,45.858c-0.487,0.728-0.881,1.521-1.513,2.149
		c-0.493,0.493-1.017,0.996-1.768,0.703c-0.688-0.268-0.771-0.958-0.844-1.602c-0.027-0.237-0.027-0.478-0.051-0.928
		c-0.498,0.563-0.889,1.015-1.292,1.455c-0.188,0.206-0.391,0.403-0.608,0.577c-2.213,1.774-3.52,1.285-3.998-1.505
		c-0.115-0.667-0.153-1.348-0.25-2.019c-0.048-0.34,0.084-0.801-0.317-0.964c-0.44-0.179-0.736,0.215-1.022,0.472
		c-1.049,0.938-1.934,2.024-2.731,3.175c-0.749,1.082-1.431,2.212-2.136,3.324c-0.184,0.289-0.267,0.742-0.762,0.536
		c-0.399-0.167-0.44-0.546-0.367-0.918c0.175-0.895,0.372-1.784,0.576-2.753c-0.487,0.124-0.605,0.53-0.818,0.818
		c-3.016,4.073-6.432,7.752-10.594,10.682c-2.251,1.584-4.711,2.655-7.483,2.979c-5.413,0.633-8.812-3.25-7.321-8.489
		c1.26-4.43,4.058-7.926,7.112-11.229c1.736-1.877,3.654-3.561,5.816-5.082c-1.153,0.053-2.307,0.126-3.46,0.153
		c-0.962,0.022-1.918-0.075-2.825-0.425c-1.435-0.554-1.96-1.441-1.838-2.973c0.112-1.393,0.596-2.668,1.371-3.79
		c2.768-4.007,6.155-7.349,10.63-9.432c2.091-0.973,4.271-1.543,6.62-1.156c2.227,0.368,3.393,1.614,3.526,3.85
		c0.07,1.173-0.164,2.3-0.432,3.434c-0.771,3.271-2.343,6.181-4.011,9.051c-0.257,0.442-0.624,0.871-1.138,0.505
		c-0.466-0.333,0.027-0.714,0.203-1.024c1.874-3.318,3.49-6.739,4.043-10.556c0.424-2.93-1.276-4.719-4.224-4.485
		c-1.577,0.125-3.022,0.705-4.412,1.43c-4.09,2.134-7.424,5.103-9.89,9.017c-0.468,0.743-0.856,1.53-1.054,2.4
		c-0.361,1.592,0.045,2.219,1.607,2.572c1.274,0.288,2.547,0.197,3.817,0.052c1.278-0.146,2.556-0.103,3.834-0.08
		c0.364,0.006,0.729,0.122,0.833,0.547c0.089,0.367-0.103,0.636-0.417,0.777c-4.252,1.92-7.041,5.438-9.739,9.017
		c-1.95,2.588-3.687,5.314-4.336,8.585c-0.776,3.903,1.784,6.684,5.707,6.115c4.323-0.625,7.626-3.144,10.715-5.971
		c2.628-2.405,4.96-5.097,7.148-7.912c1.401-1.803,2.724-3.64,3.409-5.863c0.14-0.454,0.322-1.145,1.028-0.841
		c0.714,0.308,0.271,0.896,0.106,1.347c-0.596,1.628-1.222,3.245-1.859,4.927c0.697,0.047,0.841-0.447,1.095-0.754
		c0.767-0.925,1.535-1.843,2.465-2.612c0.563-0.465,1.19-0.664,1.894-0.413c0.744,0.265,0.779,0.939,0.84,1.582
		c0.079,0.836,0.138,1.673,0.235,2.506c0.069,0.589,0.041,1.33,0.648,1.584c0.666,0.278,1.189-0.299,1.681-0.695
		c0.907-0.734,1.629-1.646,2.342-2.562c0.417-0.536,0.789-1.109,1.229-1.625c0.803-0.942,1.837-1.51,3.069-1.184
		c0.761,0.201,0.966-0.019,1.162-0.667c1.646-5.437,4.77-9.981,8.582-14.102c0.491-0.531,1.049-0.976,1.762-1.196
		c1.149-0.355,1.873,0.068,2.071,1.257c0.279,1.673-0.304,3.164-1.102,4.564c-2.348,4.119-5.44,7.603-9.271,10.386
		c-0.889,0.645-1.34,1.333-1.531,2.38c-0.288,1.582-0.52,3.158-0.339,4.763c0.25,2.221,1.557,2.805,3.393,1.518
		c1.881-1.319,3.007-3.282,4.299-5.104c0.646-0.91,1.081-1.984,2.011-2.861c0.078,0.305,0.166,0.448,0.126,0.52
		c-1.443,2.619-2.753,5.331-5.014,7.396c-0.147,0.135-0.297,0.268-0.451,0.395c-1.057,0.867-2.24,1.595-3.61,1.053
		c-1.403-0.557-1.66-1.929-1.763-3.294c-0.044-0.597-0.114-1.191-0.173-1.787c0.122-0.595,0.194-1.188-0.044-1.772
		c-0.004-0.011-0.071-0.004-0.104,0.009C360.087,45.807,360.059,45.836,360.026,45.858z"/>
	<path fill-rule="evenodd" clip-rule="evenodd" fill="#139948" d="M244.615,55.911c-0.286,1.623-0.536,2.997-0.766,4.373
		c-0.067,0.399-0.116,0.806-0.402,1.106c-0.234,0.246-0.568,0.314-0.891,0.209c-0.443-0.146-0.414-0.538-0.392-0.898
		c0.123-1.998,0.429-3.969,0.931-5.905c0.174-0.674,0.168-1.277-0.065-1.962c-0.782-2.288-0.143-4.143,1.815-5.553
		c0.328-0.236,0.582-0.471,0.726-0.893c2.272-6.65,4.908-13.148,8.209-19.363c0.047-0.09,0.038-0.211,0.072-0.421
		c-1.102,0.901-1.953,1.898-2.824,2.877c-0.23,0.259-0.391,0.911-0.857,0.561c-0.448-0.337-0.048-0.8,0.205-1.153
		c0.75-1.044,1.598-2.025,2.618-2.788c1.829-1.369,3.171-3.109,4.307-5.053c0.229-0.393,0.418-1.157,1.113-0.647
		c0.601,0.441-0.081,0.826-0.234,1.22c-0.084,0.217-0.247,0.404-0.384,0.62c0.513,0.196,0.87-0.153,1.262-0.295
		c2.003-0.729,4.036-0.971,6.113-0.389c3.492,0.979,5.231,4.166,4.191,7.791c-1.084,3.782-3.446,6.705-6.41,9.191
		c-0.396,0.333-0.819,0.634-1.299,1.003c0.632,0.395,1.252,0.741,1.828,1.148c3.364,2.384,4.744,6.508,3.219,11.019
		c-1.618,4.787-4.809,8.245-10.029,9.075c-4.348,0.69-8.081-0.88-11.215-3.914C245.206,56.627,244.994,56.346,244.615,55.911z"/>
	<path fill-rule="evenodd" clip-rule="evenodd" fill="#139A48" d="M292.441,46.648c-1.646,1.338-2.975,2.882-4.632,4.074
		c-0.748,0.539-1.51,1.055-2.383,1.365c-2.393,0.85-4.496-0.541-4.661-3.071c-0.067-1.038,0.115-2.058,0.359-3.173
		c-0.78,0.151-1.057,0.723-1.456,1.105c-0.781,0.749-1.535,1.526-2.55,1.959c-1.873,0.797-3.188-0.104-3.145-2.146
		c0.007-0.344,0.055-0.687,0.108-1.323c-0.885,0.975-1.501,1.856-2.406,2.43c-0.527,0.334-1.072,0.617-1.668,0.256
		c-0.622-0.378-0.718-1.004-0.642-1.683c0.281-2.503,2.397-4.374,4.503-3.954c0.642,0.128,1.153,0.554,1.959,0.127
		c0.52-0.275,0.757,0.435,0.512,1.044c-0.386,0.961-0.743,1.936-1.09,2.913c-0.217,0.611-0.439,1.29,0.161,1.778
		c0.61,0.496,1.255,0.126,1.765-0.239c2.09-1.499,3.942-3.262,5.311-5.451c1.199-1.918,2.537-3.679,4.396-5.006
		c0.709-0.505,1.472-0.796,2.17-0.143c0.704,0.658,0.328,1.389-0.144,2.043c-0.561,0.779-1.124,1.558-1.861,2.184
		c-0.267,0.227-0.586,0.533-0.914,0.106c-0.261-0.341-0.133-0.646,0.172-0.94c0.661-0.637,1.306-1.292,1.924-1.97
		c0.197-0.216,0.511-0.519,0.242-0.836c-0.311-0.368-0.605,0.014-0.801,0.192c-3.209,2.916-5.369,6.436-5.836,10.804
		c-0.199,1.862,1.279,2.889,3.078,2.332c1.694-0.523,3.003-1.648,4.224-2.862c1.332-1.323,2.591-2.719,3.885-4.081
		c0.448-0.471,0.72-1.039,0.981-1.628c2.386-5.383,5.078-10.586,8.992-15.057c0.445-0.509,0.894-1.025,1.607-1.189
		c0.794-0.182,1.229,0.067,1.271,0.929c0.049,1.031-0.223,1.978-0.682,2.882c-1.746,3.44-4.265,6.289-7.104,8.822
		c-1.728,1.542-2.487,3.503-3.38,5.712c2.69-1.011,4.78-2.57,6.769-4.29c0.121-0.104,0.211-0.251,0.345-0.331
		c0.365-0.217,0.623-0.958,1.16-0.445c0.597,0.569,0.033,1.004-0.378,1.373c-2.253,2.019-4.721,3.683-7.658,4.555
		c-0.227,0.067-0.48,0.075-0.727,0.526c0.709,0.65,1.427,1.398,2.237,2.029c1.063,0.829,2.272,0.854,3.521,0.416
		c2.616-0.917,4.567-2.725,6.401-4.705c0.232-0.251,0.416-0.904,0.872-0.528c0.421,0.346-0.101,0.706-0.329,0.986
		c-1.685,2.067-3.61,3.855-6.096,4.918c-2.517,1.075-4.57,0.571-6.349-1.476c-0.182-0.21-0.358-0.424-0.635-0.753
		c-1.008,2.704-1.973,5.291-2.241,8.08c-0.027,0.278-0.013,0.563-0.06,0.837c-0.075,0.44-0.338,0.765-0.799,0.74
		c-0.52-0.027-0.614-0.441-0.575-0.877c0.165-1.876,0.544-3.712,1.076-5.517C291.621,49.205,292.04,47.93,292.441,46.648z"/>
	<path fill-rule="evenodd" clip-rule="evenodd" fill="#B8DFC8" d="M360.026,45.858c0.057-0.215,0.113-0.43,0.451-0.604
		c-0.04,0.818,0.084,1.57-0.207,2.304C360.068,47.008,360.444,46.377,360.026,45.858z"/>
	<path fill-rule="evenodd" clip-rule="evenodd" fill="#FAFBFB" d="M362.656,41.704c1.899-5.035,4.441-9.675,7.85-13.832
		c0.025-0.031,0.05-0.064,0.081-0.088c0.589-0.447,1.159-1.235,1.964-0.78c0.861,0.486,0.739,1.417,0.5,2.264
		c-0.658,2.321-2.078,4.221-3.529,6.064c-1.731,2.197-3.712,4.179-5.872,5.968C363.402,41.504,363.206,41.9,362.656,41.704z"/>
	<path fill-rule="evenodd" clip-rule="evenodd" fill="#F8FAF9" d="M356.752,47.105c0.172-1.407,0.509-2.732,1.691-3.68
		c0.461-0.369,0.955-0.581,1.541-0.418c0.436,0.122,0.69,0.324,0.372,0.845c-0.765,1.254-1.459,2.553-2.437,3.662
		c-0.227,0.257-0.471,0.647-0.873,0.451C356.749,47.82,356.782,47.421,356.752,47.105z"/>
	<path fill-rule="evenodd" clip-rule="evenodd" fill="#FAFBFB" d="M250.417,46.46c-0.986-0.571-1.975-0.222-3.117-0.147
		c0.8-2.24,1.536-4.332,2.292-6.416c1.702-4.688,3.625-9.281,5.913-13.716c1.475-2.858,6.356-4.642,9.345-3.412
		c2.208,0.908,3.541,3.105,3.147,5.475c-0.784,4.727-3.736,7.998-7.431,10.729c-0.507,0.375-1.091,0.11-1.632,0.081
		c-1.572-0.084-3.016,0.203-4.219,1.289c-0.436,0.394-0.778,0.883-0.528,1.478c0.268,0.637,0.913,0.602,1.46,0.526
		c1.452-0.201,2.772-0.808,3.934-1.657c0.713-0.521,1.239-0.43,1.922-0.037c2.389,1.375,3.726,3.388,4.015,6.147
		c0.584,5.562-3.965,12.429-10.192,12.832c-4.147,0.268-7.428-1.423-10-4.618c-0.349-0.434-0.304-0.857-0.163-1.344
		c0.51-1.761,1.063-3.514,1.463-5.301c0.234-1.046,0.842-1.289,1.765-1.375C249.05,46.933,249.831,47.19,250.417,46.46z"/>
	<path fill-rule="evenodd" clip-rule="evenodd" fill="#F2F7F5" d="M258.777,40.092c-1.113,0.769-2.298,1.341-3.813,1.48
		c0.553-1.234,1.577-1.308,2.526-1.512C257.923,39.928,258.354,39.884,258.777,40.092z"/>
	<path fill-rule="evenodd" clip-rule="evenodd" fill="#DBEEE3" d="M244.583,48.641c-0.011,1.131-0.353,1.963-0.823,3.113
		C243.557,50.422,243.737,49.546,244.583,48.641z"/>
	<path fill-rule="evenodd" clip-rule="evenodd" fill="#BCE1CB" d="M258.777,40.092c-0.429-0.011-0.858-0.021-1.287-0.032
		c0.432-0.284,0.912-0.231,1.389-0.199c0.032,0.002,0.083,0.033,0.09,0.06C259.02,40.1,258.872,40.068,258.777,40.092z"/>
	<path fill-rule="evenodd" clip-rule="evenodd" fill="#F8FAF9" d="M304.893,27.232c-0.712,4.416-3.759,7.35-6.647,10.387
		C300.133,33.956,301.777,30.139,304.893,27.232z"/>
	<path fill-rule="evenodd" clip-rule="evenodd" fill="#F7FAF9" d="M273.435,43.195c0.351-0.042,0.761,0.062,0.926,0.36
		c0.185,0.334-0.253,0.532-0.447,0.756c-0.855,0.993-1.717,1.982-2.612,2.938c-0.306,0.326-0.762,0.642-0.927-0.138
		C270.079,45.724,272.048,43.201,273.435,43.195z"/>
</g>
</svg>
