<?xml version="1.0" encoding="utf-8"?>
<!-- Generator: Adobe Illustrator 16.0.0, SVG Export Plug-In . SVG Version: 6.00 Build 0)  -->
<!DOCTYPE svg PUBLIC "-//W3C//DTD SVG 1.1//EN" "http://www.w3.org/Graphics/SVG/1.1/DTD/svg11.dtd" [
	<!ENTITY ns_flows "http://ns.adobe.com/Flows/1.0/">
	<!ENTITY ns_extend "http://ns.adobe.com/Extensibility/1.0/">
	<!ENTITY ns_ai "http://ns.adobe.com/AdobeIllustrator/10.0/">
	<!ENTITY ns_graphs "http://ns.adobe.com/Graphs/1.0/">
]>
<svg version="1.1" id="Layer_1" xmlns:x="&ns_extend;" xmlns:i="&ns_ai;" xmlns:graph="&ns_graphs;"
	 xmlns="http://www.w3.org/2000/svg" xmlns:xlink="http://www.w3.org/1999/xlink" xmlns:a="http://ns.adobe.com/AdobeSVGViewerExtensions/3.0/"
	 x="0px" y="0px" width="612px" height="88.08px" viewBox="0 0 612 88.08" enable-background="new 0 0 612 88.08"
	 xml:space="preserve">
<g>
	<path fill-rule="evenodd" clip-rule="evenodd" fill="#F9FAFA" d="M0.24,88.32c0-29,0.004-58-0.023-87
		C0.216,0.42,0.42,0.218,1.32,0.218C204.96,0.241,408.601,0.24,612.24,0.24c0.222,0.416,0.111,0.864,0.111,1.296
		c0.006,28.479,0.007,56.957,0.004,85.437c-0.001,1.628,0.188,1.463-1.483,1.463c-203.11,0.002-406.221,0.002-609.332-0.004
		C1.107,88.432,0.657,88.54,0.24,88.32z"/>
	<path fill-rule="evenodd" clip-rule="evenodd" fill="#FEFEFE" d="M0.24,88.32c203.295,0,406.59,0,609.886,0
		c0.359,0,0.726-0.04,1.079,0.008c0.882,0.119,1.14-0.299,1.041-1.1c-0.034-0.275-0.006-0.56-0.006-0.839
		c0-28.717,0-57.433,0-86.149c0.502,0.266,0.225,0.728,0.226,1.08c0.017,16.517,0.015,33.035,0.015,49.551
		c0,12.198-0.01,24.396,0.021,36.594c0.002,0.873-0.151,1.121-1.086,1.12c-36.754-0.029-73.508-0.024-110.262-0.024
		c-166.611,0-333.223,0-499.835-0.016C0.968,88.545,0.506,88.822,0.24,88.32z"/>
	<path fill-rule="evenodd" clip-rule="evenodd" fill="#139A48" d="M315.831,46.65c-0.96,0.916-1.793,1.767-2.886,2.313
		c-1.215,0.607-2.102,0.26-2.533-1.028c-0.345-1.028-0.438-2.106-0.555-3.179c-0.041-0.372,0.109-0.895-0.373-1.044
		c-0.424-0.13-0.734,0.253-1.016,0.523c-1.889,1.814-3.386,3.925-4.677,6.193c-0.195,0.342-0.241,1-0.839,0.822
		c-0.692-0.205-0.485-0.808-0.361-1.314c0.328-1.343,0.663-2.684,0.995-4.026c-0.101-0.084-0.202-0.169-0.302-0.254
		c-0.589,0.685-1.123,1.43-1.782,2.037c-0.794,0.731-1.726,1.294-2.79,1.583c-1.391,0.377-2.402-0.361-2.415-1.803
		c-0.015-1.779,0.77-3.32,1.543-4.857c0.199-0.396,0.548-0.479,0.908-0.298c0.413,0.207,0.341,0.585,0.197,0.939
		c-0.482,1.182-0.995,2.352-1.442,3.547c-0.204,0.542-0.514,1.192,0.012,1.683c0.597,0.556,1.272,0.124,1.755-0.214
		c2.489-1.743,4.969-3.503,5.994-6.606c0.194-0.586,0.255-1.773,1.204-1.405c1.004,0.39,0.136,1.253-0.082,1.833
		c-0.562,1.489-1.106,2.979-1.369,4.642c0.562-0.659,1.101-1.34,1.69-1.973c0.571-0.612,1.139-1.251,1.808-1.742
		c1.226-0.898,2.367-0.348,2.534,1.163c0.109,0.993,0.146,1.995,0.288,2.983c0.207,1.431,0.801,1.719,1.893,0.827
		c1.742-1.425,3.268-3.081,4.196-5.162c2.385-5.342,5.077-10.494,8.914-14.968c0.471-0.549,0.952-1.083,1.702-1.256
		c0.78-0.18,1.224,0.046,1.273,0.923c0.064,1.125-0.294,2.131-0.8,3.091c-1.814,3.443-4.371,6.311-7.249,8.862
		c-1.656,1.467-2.219,3.399-3.17,5.475c2.898-1.092,5.087-2.781,7.183-4.621c0.34-0.298,0.661-1.034,1.225-0.365
		c0.485,0.576-0.107,0.95-0.472,1.278c-2.397,2.161-5.052,3.89-8.217,4.728c1.284,2.762,3.585,3.686,6.254,2.543
		c2.296-0.981,4.08-2.618,5.724-4.444c0.225-0.249,0.421-0.9,0.87-0.517c0.398,0.338-0.101,0.723-0.334,1.001
		c-1.498,1.789-3.166,3.385-5.24,4.505c-2.937,1.586-5.131,1.201-7.368-1.29c-0.124-0.137-0.249-0.271-0.482-0.525
		c-0.87,2.49-1.797,4.813-2.127,7.315c-0.063,0.475-0.139,0.949-0.171,1.427c-0.034,0.496-0.188,0.896-0.75,0.881
		c-0.647-0.017-0.584-0.521-0.565-0.967c0.057-1.324,0.306-2.621,0.647-3.894C314.757,50.218,315.309,48.438,315.831,46.65z"/>
	<path fill-rule="evenodd" clip-rule="evenodd" fill="#139A48" d="M283.447,53.262c0.333-3.104,1.12-6.405,1.93-9.694
		c1.97-7.996,4.529-15.786,8.388-23.1c0.112-0.212,0.218-0.427,0.338-0.633c0.248-0.427,0.55-0.913,1.106-0.629
		c0.518,0.264,0.229,0.769,0.083,1.164c-1.438,3.888-3.044,7.722-4.294,11.668c-2.117,6.685-4.645,13.245-6.203,20.103
		c-0.642,2.828-0.17,3.385,2.752,3.069c3.017-0.324,6.027-0.729,9.072-0.59c0.304,0.015,0.845-0.205,0.835,0.333
		c-0.007,0.401-0.501,0.277-0.795,0.281c-3.012,0.04-5.948,0.612-8.878,1.235c-0.35,0.074-0.705,0.144-1.06,0.171
		C284.339,56.827,283.397,55.933,283.447,53.262z"/>
	<path fill-rule="evenodd" clip-rule="evenodd" fill="#1C9D4F" d="M299.068,39.255c0.159-0.559,0.278-1.207,1.047-1.2
		c0.538,0.005,0.887,0.362,0.837,0.933c-0.061,0.703-0.472,1.226-1.166,1.286C299.174,40.328,299.072,39.785,299.068,39.255z"/>
	<path fill-rule="evenodd" clip-rule="evenodd" fill="#F7FAF9" d="M321.673,37.581c1.123-2.456,2.389-4.823,3.826-7.097
		c0.616-0.975,1.189-1.985,2.006-2.816c0.211-0.215,0.452-0.56,0.784-0.413c0.417,0.184,0.122,0.559,0.073,0.845
		c-0.253,1.497-1.078,2.727-1.899,3.947C325.096,34.08,323.55,35.965,321.673,37.581z"/>
</g>
</svg>
