<?xml version="1.0" encoding="utf-8"?>
<!-- Generator: Adobe Illustrator 16.0.0, SVG Export Plug-In . SVG Version: 6.00 Build 0)  -->
<!DOCTYPE svg PUBLIC "-//W3C//DTD SVG 1.1//EN" "http://www.w3.org/Graphics/SVG/1.1/DTD/svg11.dtd" [
	<!ENTITY ns_flows "http://ns.adobe.com/Flows/1.0/">
	<!ENTITY ns_extend "http://ns.adobe.com/Extensibility/1.0/">
	<!ENTITY ns_ai "http://ns.adobe.com/AdobeIllustrator/10.0/">
	<!ENTITY ns_graphs "http://ns.adobe.com/Graphs/1.0/">
]>
<svg version="1.1" id="Layer_1" xmlns:x="&ns_extend;" xmlns:i="&ns_ai;" xmlns:graph="&ns_graphs;"
	 xmlns="http://www.w3.org/2000/svg" xmlns:xlink="http://www.w3.org/1999/xlink" xmlns:a="http://ns.adobe.com/AdobeSVGViewerExtensions/3.0/"
	 x="0px" y="0px" width="612px" height="88.08px" viewBox="0 0 612 88.08" enable-background="new 0 0 612 88.08"
	 xml:space="preserve">
<g>
	<path fill-rule="evenodd" clip-rule="evenodd" fill="#F9FAFA" d="M0.24,88.32c0-29,0.004-58-0.023-87
		C0.216,0.42,0.42,0.218,1.32,0.218C204.96,0.241,408.601,0.24,612.24,0.24c0.222,0.416,0.111,0.864,0.111,1.296
		c0.006,28.479,0.007,56.957,0.004,85.437c-0.001,1.628,0.188,1.463-1.483,1.463c-203.11,0.002-406.221,0.002-609.331-0.004
		C1.107,88.432,0.657,88.54,0.24,88.32z"/>
	<path fill-rule="evenodd" clip-rule="evenodd" fill="#FEFEFE" d="M0.24,88.32c203.295,0,406.59,0,609.886,0
		c0.359,0,0.726-0.04,1.079,0.008c0.882,0.119,1.14-0.299,1.041-1.1c-0.034-0.275-0.006-0.56-0.006-0.839
		c0-28.717,0-57.433,0-86.149c0.502,0.266,0.225,0.728,0.226,1.08c0.017,16.517,0.015,33.035,0.015,49.551
		c0,12.198-0.01,24.396,0.021,36.594c0.002,0.873-0.151,1.121-1.086,1.12c-36.754-0.029-73.508-0.024-110.262-0.024
		c-166.611,0-333.223,0-499.835-0.016C0.968,88.545,0.506,88.822,0.24,88.32z"/>
	<path fill-rule="evenodd" clip-rule="evenodd" fill="#139948" d="M262.113,45.386c-1.592,1.902-3.233,3.755-5.228,5.258
		c-0.801,0.604-1.633,1.15-2.591,1.47c-2.277,0.757-4.213-0.473-4.522-2.848c-0.157-1.204,0.117-2.371,0.386-3.682
		c-1.366,1.04-2.569,2.008-3.828,2.898c-1.079,0.763-2.236,1.388-3.613,1.461c-1.909,0.103-3.1-0.969-3.199-2.888
		c-0.042-0.797,0.087-1.577,0.339-2.566c-1.942,1.006-3.532,2.13-5.166,3.182c-0.376,0.241-0.38,0.678-0.495,1.056
		c-1.362,4.45-3.186,8.688-5.796,12.564c-0.97,1.441-2.131,2.705-3.585,3.661c-1.134,0.745-2.417,1.326-3.694,0.52
		c-1.264-0.799-1.351-2.139-1.132-3.532c0.514-3.287,2.594-5.599,4.82-7.808c2.108-2.093,4.536-3.798,7.033-5.383
		c1.096-0.695,1.776-1.524,1.878-2.829c0.042-0.547,0.177-1.086,0.292-1.758c-1.495,0.337-2.899,0.354-4.265-0.181
		c-0.546-0.214-0.588,0.281-0.713,0.568c-0.628,1.442-1.433,2.764-2.546,3.886c-0.112,0.113-0.228,0.227-0.355,0.321
		c-0.964,0.716-2.003,1.666-3.222,1.072c-1.152-0.561-1.17-1.884-1.111-3.074c0.006-0.115-0.034-0.232-0.055-0.363
		c-0.554-0.045-0.733,0.43-1.019,0.724c-1.033,1.067-2.112,2.081-3.462,2.732c-0.731,0.353-1.533,0.583-2.281,0.06
		c-0.768-0.538-0.736-1.385-0.631-2.184c0.13-0.989,0.381-1.956,0.817-2.867c0.147-0.307,0.32-0.575-0.046-0.949
		c-0.641-0.655-0.502-1.546,0.214-2.094c0.268-0.204,0.552-0.335,0.885-0.182c0.354,0.163,0.257,0.51,0.347,0.802
		c0.571,1.865-0.424,3.387-0.979,5.019c-0.205,0.602-0.622,1.378,0.103,1.877c0.671,0.463,1.34-0.052,1.861-0.434
		c2.207-1.616,4.086-3.564,5.642-5.821c1.108-1.607,2.419-2.896,4.577-2.774c1.475,0.083,1.95,0.494,1.829,1.98
		c-0.072,0.884,0.307,1.16,0.99,1.29c0.507,0.096,1.03,0.137,1.546,0.143c1.901,0.02,2.021-0.102,2.116-1.982
		c0.008-0.16,0.024-0.319,0.026-0.479c0.006-0.517,0.072-1.014,0.759-0.955c0.676,0.059,0.675,0.6,0.632,1.083
		c-0.144,1.628-0.342,3.249-0.875,4.815c0.048,0.029,0.141,0.12,0.174,0.102c2.089-1.159,4.445-1.911,5.995-3.898
		c0.862-1.105,1.667-2.287,3.257-2.403c1.098-0.081,1.668,0.488,1.568,1.563c-0.122,1.307-1.711,3.15-2.97,3.498
		c-0.676,0.188-1.215-0.131-1.774-0.438c-0.343,0.721-0.542,1.408-0.541,2.138c0.001,1.768,1.12,2.669,2.822,2.24
		c2.331-0.588,4.057-2.174,5.831-3.655c1.074-0.897,1.964-1.938,2.654-3.2c0.964-1.766,2.311-3.255,3.964-4.438
		c0.719-0.514,1.533-0.922,2.257-0.164c0.691,0.723,0.229,1.483-0.263,2.158c-0.542,0.743-1.085,1.483-1.8,2.077
		c-0.3,0.249-0.589,0.453-0.904,0.028c-0.281-0.379-0.131-0.634,0.203-0.9c0.752-0.6,1.43-1.279,1.997-2.061
		c0.159-0.218,0.427-0.458,0.189-0.737c-0.319-0.372-0.589,0-0.81,0.167c-0.9,0.679-1.645,1.517-2.297,2.432
		c-1.659,2.328-3.072,4.768-3.479,7.666c-0.153,1.083-0.082,2.125,0.851,2.83c0.958,0.726,1.983,0.391,2.947-0.071
		c1.351-0.647,2.472-1.611,3.533-2.648c0.429-0.42,0.842-0.855,1.275-1.271c2.072-1.982,3.748-4.121,4.254-7.125
		c0.333-1.977,1.249-3.862,1.962-5.766c0.268-0.714,0.148-0.896-0.615-0.845c-2.669,0.179-5.341,0.316-8.013,0.447
		c-0.392,0.02-0.988,0.255-1.048-0.423c-0.069-0.783,0.606-0.592,1.03-0.608c2.675-0.099,5.351-0.198,8.028-0.236
		c0.878-0.012,1.452-0.18,1.782-1.127c0.378-1.084,0.967-2.099,1.512-3.118c0.192-0.358,0.383-0.899,0.942-0.743
		c0.492,0.138,0.522,0.651,0.604,1.085c0.119,0.634-0.144,1.179-0.418,1.709c-0.344,0.665-0.726,1.31-1.191,2.14
		c1.989,0,3.807-0.001,5.624,0.001c0.32,0,0.64,0.012,0.959,0.035c0.312,0.022,0.718,0.009,0.658,0.469
		c-0.052,0.399-0.435,0.244-0.688,0.246c-2.079,0.021-4.158,0.056-6.236,0.03c-0.619-0.008-0.921,0.207-1.155,0.768
		c-1.9,4.546-3.41,9.201-4.081,14.103c-0.083,0.608-0.012,1.188,0.083,1.783c0.313,1.963,1.554,2.517,3.226,1.373
		c1.374-0.94,2.375-2.255,3.32-3.595c0.92-1.304,1.754-2.669,2.627-4.006c0.133-0.203,0.305-0.459,0.561-0.311
		c0.279,0.161,0.089,0.412-0.03,0.619c-1.418,2.451-2.682,5.009-4.764,7.01c-0.7,0.672-1.474,1.213-2.425,1.484
		c-1.559,0.444-2.657-0.102-3.201-1.635c-0.534-1.504-0.49-3.064-0.426-4.625C262.513,45.609,262.497,45.547,262.113,45.386z"/>
	<path fill-rule="evenodd" clip-rule="evenodd" fill="#139948" d="M407.54,43.709c-0.823,1.932-1.914,3.678-3.528,5.058
		c-0.666,0.568-1.399,1.004-2.29,0.627c-0.903-0.383-0.728-1.247-0.709-1.987c0.017-0.653,0.125-1.304,0.206-2.08
		c-0.725,0.724-1.359,1.369-2.007,2.001c-0.688,0.674-1.42,1.292-2.34,1.637c-1.71,0.641-2.946-0.18-3.035-1.998
		c-0.017-0.343,0.148-0.7-0.108-1.125c-0.636,0.622-1.216,1.261-1.872,1.811c-0.549,0.461-1.181,0.906-1.954,0.458
		s-0.677-1.223-0.59-1.93c0.067-0.546,0.278-1.073,0.456-1.722c-0.766-0.076-1.553-0.079-2.277-0.354
		c-0.726-0.277-1.355-0.679-1.726-1.788c-0.414,2.144-0.852,3.964-1.537,5.71c-0.453,1.153-0.904,2.307-1.65,3.311
		c-0.467,0.629-1.016,1.193-1.892,0.979c-0.826-0.204-1.058-0.964-1.18-1.661c-0.207-1.174-0.171-2.373-0.071-3.86
		c-0.693,0.83-1.182,1.484-1.744,2.067c-0.494,0.512-1.046,1.105-1.853,0.854c-0.773-0.241-0.845-1.037-0.935-1.687
		c-0.317-2.295,0.397-4.334,1.691-6.203c0.26-0.375,0.621-0.557,1.023-0.283c0.379,0.258,0.219,0.638,0.062,0.972
		c-0.75,1.596-1.392,3.229-1.578,4.999c-0.048,0.445-0.31,1.096,0.229,1.275c0.438,0.147,0.816-0.395,1.125-0.76
		c0.984-1.168,1.714-2.501,2.467-3.819c0.118-0.208,0.21-0.432,0.335-0.635c0.315-0.511,0.799-0.526,1.257-0.3
		c0.458,0.226,0.343,0.631,0.193,1.04c-0.645,1.772-1.089,3.596-1.18,5.483c-0.03,0.645-0.264,1.598,0.502,1.802
		c0.793,0.213,1.023-0.758,1.294-1.33c1.235-2.612,1.881-5.42,2.628-8.194c0.103-0.38,0.195-0.788,0.407-1.106
		c0.194-0.29,0.564-0.489,0.947-0.36c0.345,0.116,0.408,0.446,0.438,0.783c0.19,2.126,2.311,3.12,4.184,1.874
		c1.2-0.798,2.364-1.137,3.688-0.447c0.308,0.161,0.504,0.121,0.735-0.104c0.284-0.276,0.577-0.196,0.852,0.041
		c0.312,0.27,0.184,0.557,0.062,0.867c-0.396,1.002-0.816,1.997-1.136,3.024c-0.185,0.59-0.393,1.314,0.254,1.763
		c0.576,0.4,1.201,0.087,1.667-0.275c2.172-1.691,4.354-3.387,5.43-6.065c0.074-0.185,0.162-0.365,0.242-0.548
		c0.214-0.495,0.471-1.037,1.12-0.739c0.614,0.281,0.321,0.801,0.125,1.24c-0.685,1.53-1.37,3.064-1.818,4.682
		c-0.179,0.648-0.688,1.532,0.045,1.975c0.759,0.459,1.276-0.415,1.738-0.913c1.765-1.899,2.858-4.215,3.943-6.533
		c0.212-0.453,0.284-1.088,1.017-0.926c0.733,0.163,0.563,0.793,0.535,1.278c-0.091,1.632-0.481,3.222-0.839,4.961
		c1.84-1.051,3.547-2.037,5.267-3.001c0.342-0.192,0.324-0.504,0.417-0.803c0.419-1.352,1.213-2.422,2.464-3.112
		c0.597-0.329,1.173-0.322,1.513,0.37c0.091,0.185,0.08,0.505-0.024,0.679c-0.137,0.229-0.39,0.192-0.583-0.033
		c-0.39-0.451-0.527,0.077-0.672,0.229c-1.356,1.435-1.814,3.052-0.874,5.004c2.014-1.086,4.117-1.92,6.347-2.406
		c0.137-0.03,0.293,0.028,0.451,0.047c-0.031,0.567-0.496,0.513-0.787,0.623c-1.642,0.623-3.291,1.219-4.877,1.983
		c-0.714,0.345-0.846,0.696-0.572,1.461c0.828,2.314-0.363,4.62-2.652,5.316c-1.675,0.51-2.682-0.368-2.391-2.104
		c0.271-1.615,1.387-2.646,2.545-3.654c0.272-0.237,0.837-0.337,0.693-0.836c-0.185-0.644-0.468-1.265-0.772-1.863
		c-0.079-0.155-0.366-0.012-0.539,0.095c-1.666,1.024-3.333,2.047-4.997,3.075c-0.42,0.26-0.443,0.726-0.573,1.142
		c-1.486,4.749-3.397,9.301-6.396,13.316c-1.13,1.514-2.441,2.868-4.308,3.492c-2.076,0.695-3.477-0.311-3.538-2.502
		c-0.09-3.183,1.641-5.511,3.643-7.689c2.232-2.43,4.842-4.434,7.612-6.186c1.543-0.976,2.501-2.127,2.589-3.965
		c0.021-0.436,0.145-0.866,0.221-1.299c0.049-0.096,0.083-0.206,0-0.286C407.693,43.546,407.617,43.657,407.54,43.709z"/>
	<path fill-rule="evenodd" clip-rule="evenodd" fill="#139948" d="M200.434,30.43c0.677,0.131,0.681-0.416,0.855-0.706
		c1.343-2.229,2.723-4.436,4.637-6.228c1.264-1.184,2.64-2.198,4.516-2.182c1.667,0.013,2.832,0.743,3.429,2.298
		c1.08,2.815,0.743,5.668,0.064,8.485c-0.391,1.624-0.975,3.204-1.53,4.783c-0.204,0.579-0.296,0.965,0.452,1.136
		c0.29,0.066,0.67,0.222,0.47,0.657c-0.149,0.323-0.501,0.288-0.732,0.156c-0.813-0.464-1.076,0.023-1.416,0.654
		c-1.663,3.088-3.693,5.894-6.559,7.991c-1.38,1.011-2.87,1.743-4.679,1.281c-2.091-0.532-3.121-2.364-2.421-4.415
		c0.694-2.031,2.222-3.397,3.91-4.558c2.561-1.761,5.37-2.806,8.554-2.452c0.398,0.044,0.675,0.021,0.833-0.429
		c1.353-3.858,2.542-7.757,2.057-11.914c-0.277-2.377-1.847-3.161-4.054-2.189c-1.706,0.751-2.913,2.088-4.018,3.514
		c-3.662,4.728-6,10.149-8.087,15.688c-2.016,5.35-3.625,10.814-4.347,16.508c-0.105,0.829-0.128,1.671-0.163,2.509
		c-0.026,0.62-0.175,1.158-0.907,1.159c-0.857,0.003-0.747-0.681-0.729-1.224c0.179-5.31,1.314-10.452,2.886-15.492
		c2.698-8.649,5.674-17.198,10.033-25.188c0.264-0.484,0.394-1.532,1.207-1.128c0.891,0.443,0.018,1.123-0.215,1.606
		C202.962,23.899,201.816,27.193,200.434,30.43z"/>
	<path fill-rule="evenodd" clip-rule="evenodd" fill="#139948" d="M353.283,45.059c-2.25,0.453-4.335,1.221-6.445,1.895
		c-0.759,0.243-1.502,0.534-2.263,0.771c-0.306,0.096-0.727,0.391-0.88-0.171c-0.102-0.373-0.174-0.816,0.26-1.073
		c0.272-0.161,0.576-0.271,0.869-0.394c2.696-1.122,5.509-1.89,8.324-2.622c1.026-0.267,1.604-0.805,2.11-1.692
		c3.564-6.257,7.576-12.217,12.231-17.719c1.339-1.582,2.842-3.043,4.765-3.95c1.866-0.88,3.018-0.247,3.264,1.813
		c0.14,1.175-0.15,2.302-0.57,3.391c-1.728,4.473-2.949,9.101-4.232,13.711c-0.212,0.762-0.157,0.987,0.701,0.883
		c1.107-0.134,2.231-0.128,3.349-0.167c0.266-0.009,0.628-0.053,0.642,0.343c0.016,0.44-0.33,0.427-0.67,0.454
		c-1.231,0.1-2.46,0.238-3.69,0.358c-0.573,0.056-0.873,0.275-1.002,0.929c-1.025,5.21-2.149,10.405-1.69,15.773
		c0.04,0.47-0.028,0.972-0.613,0.958c-0.575-0.014-0.457-0.602-0.472-0.944c-0.155-3.686,0.168-7.342,0.775-10.974
		c0.294-1.756,0.636-3.503,0.977-5.363c-2.471,0.354-4.822,0.936-7.177,1.49c-1.825,0.43-3.63,0.943-5.453,1.378
		c-0.585,0.14-0.971,0.38-1.249,0.953c-2.703,5.558-5.57,11.044-7.134,17.077c-0.157,0.609-0.465,1.07-1.159,0.915
		c-0.793-0.176-0.471-0.768-0.373-1.257c1.08-5.391,3.572-10.211,6.044-15.043C352.786,46.265,353.18,45.796,353.283,45.059z"/>
	<path fill-rule="evenodd" clip-rule="evenodd" fill="#139A48" d="M323.481,45.698c-0.701,0.634-1.198,1.135-1.749,1.566
		c-0.691,0.541-1.4,1.067-2.146,1.525c-3.251,1.997-5.489,1.604-8.298-1.512c-0.955,2.592-1.896,5.101-2.218,7.808
		c-0.079,0.664,0.238,1.876-0.881,1.73c-1.084-0.142-0.51-1.277-0.428-1.917c0.41-3.171,1.422-6.193,2.303-9.354
		c-0.665,0.72-1.317,1.452-2.001,2.153c-0.276,0.283-0.602,0.532-0.939,0.74c-0.894,0.552-1.829,1.104-2.904,0.556
		c-1.111-0.566-1.149-1.63-1.08-2.705c0.007-0.113-0.021-0.229-0.287-0.59c-0.558,0.646-1.067,1.343-1.688,1.921
		c-0.522,0.486-1.17,0.915-1.951,0.528c-0.821-0.406-0.684-1.198-0.643-1.903c0.138-2.342,2.996-4.826,5.314-3.426
		c0.235,0.142,0.433,0.183,0.641-0.022c0.301-0.298,0.616-0.356,0.941-0.042c0.341,0.328,0.135,0.678,0,0.995
		c-0.438,1.027-0.907,2.045-1.134,3.143c-0.111,0.536-0.257,1.159,0.319,1.534c0.497,0.323,1.04,0.129,1.464-0.179
		c2.272-1.646,4.427-3.414,5.632-6.052c2.313-5.063,4.873-9.976,8.551-14.215c0.704-0.812,1.542-1.968,2.644-1.216
		c0.923,0.63,0.418,1.936,0.034,2.882c-1.177,2.901-3.188,5.237-5.276,7.505c-0.703,0.764-1.41,1.546-2.224,2.183
		c-1.769,1.386-2.413,3.382-3.252,5.519c1.133-0.251,1.955-0.781,2.785-1.274c1.551-0.921,2.961-2.031,4.294-3.248
		c0.304-0.277,0.614-0.961,1.15-0.438c0.587,0.573,0.013,0.997-0.384,1.375c-2.121,2.027-4.557,3.435-8.207,4.76
		c1.354,2.806,3.733,3.723,6.469,2.395c2.561-1.243,4.668-3.029,6.208-5.466c0.66-1.042,1.367-2.094,2.538-2.648
		c0.774-0.367,1.629-0.628,2.339,0.091c0.697,0.706,0.305,1.487-0.037,2.216c-0.346,0.736-0.877,1.342-1.498,1.851
		c-0.568,0.466-1.339,0.945-1.971,0.565c-1.199-0.719-1.218,0.156-1.358,0.84c-0.207,1.01-0.169,2.022,0.651,2.785
		c0.833,0.773,1.798,0.513,2.706,0.155c2.548-1.003,4.499-2.843,6.473-4.655c0.284-0.261,0.546-0.979,0.972-0.595
		c0.378,0.342-0.242,0.753-0.5,1.04c-1.728,1.913-3.732,3.49-5.995,4.727c-0.448,0.245-0.957,0.416-1.458,0.525
		c-2.418,0.529-3.887-0.659-3.92-3.138C323.479,46.477,323.481,46.236,323.481,45.698z"/>
	<path fill-rule="evenodd" clip-rule="evenodd" fill="#139948" d="M310.149,22.042c3.523,0,6.683-0.007,9.843,0.01
		c0.35,0.001,0.949-0.2,0.927,0.413c-0.022,0.588-0.598,0.364-0.961,0.371c-5.793,0.118-11.579,0.378-17.36,0.776
		c-0.855,0.059-1.326,0.389-1.727,1.151c-5.366,10.207-9.074,21.005-11.546,32.244c-0.188,0.855-0.252,1.738-0.378,2.607
		c-0.091,0.635-0.285,1.233-1.073,1.177c-0.796-0.058-0.599-0.729-0.585-1.208c0.105-3.797,1.167-7.396,2.286-10.985
		c1.46-4.683,3.615-9.129,4.753-13.923c0.361-1.521,0.662-3.046,0.629-4.616c-0.042-2.021-0.959-3-2.965-3.194
		c-2.376-0.23-4.799,0.011-7.129-0.703c-0.112-0.034-0.249-0.002-0.354-0.047c-0.352-0.151-0.904-0.138-0.947-0.595
		c-0.043-0.461,0.479-0.614,0.829-0.747c2.559-0.972,5.241-1.401,7.942-1.709C298.373,22.375,304.442,22.197,310.149,22.042z"/>
	<path fill-rule="evenodd" clip-rule="evenodd" fill="#199C4C" d="M234.109,38.114c0.179-0.565,0.267-1.26,1.063-1.213
		c0.541,0.032,0.835,0.43,0.779,1.007c-0.073,0.744-0.487,1.2-1.232,1.191C234.114,39.092,234.142,38.556,234.109,38.114z"/>
	<path fill-rule="evenodd" clip-rule="evenodd" fill="#ABDABE" d="M262.113,45.386c0.086-0.124,0.172-0.248,0.259-0.373
		c0.066,0.075,0.19,0.151,0.188,0.224c-0.013,0.38,0.036,0.778-0.208,1.116C262.2,46.049,262.462,45.642,262.113,45.386z"/>
	<path fill-rule="evenodd" clip-rule="evenodd" fill="#65BC87" d="M407.54,43.709c0.02-0.237,0.239-0.567,0.314-0.511
		c0.292,0.216,0.144,0.497-0.062,0.73C407.709,43.855,407.624,43.782,407.54,43.709z"/>
	<path fill-rule="evenodd" clip-rule="evenodd" fill="#FAFBFB" d="M232.85,49.014c-1.546,5.216-3.471,9.946-6.99,13.873
		c-0.727,0.813-1.607,1.438-2.633,1.836c-1.705,0.661-2.876-0.286-2.583-2.119c0.288-1.801,0.957-3.438,2.097-4.893
		c2.07-2.641,4.597-4.768,7.317-6.691C230.927,50.405,231.787,49.778,232.85,49.014z"/>
	<path fill-rule="evenodd" clip-rule="evenodd" fill="#F9FBFB" d="M222.73,47.33c0.358-2.315,1.537-4.499,3.841-5.957
		c0.483-0.306,0.917-0.798,1.296,0.521c0.958,3.339-1.32,4.918-3.103,6.83c-0.368,0.396-0.938,0.691-1.519,0.333
		C222.745,48.749,222.706,48.209,222.73,47.33z"/>
	<path fill-rule="evenodd" clip-rule="evenodd" fill="#F6F9F8" d="M242.457,44.418c-0.422,0.027-0.802-0.081-1.03-0.451
		c-0.213-0.345,0.104-0.592,0.258-0.84c0.567-0.918,1.234-1.739,2.281-2.162c0.367-0.148,0.717-0.138,0.992,0.134
		c0.261,0.258,0.135,0.594,0.038,0.896C244.615,43.184,243.351,44.387,242.457,44.418z"/>
	<path fill-rule="evenodd" clip-rule="evenodd" fill="#FAFBFB" d="M406.351,49.433c-1.381,5.101-3.324,9.894-7.033,13.776
		c-0.613,0.642-1.356,1.117-2.176,1.46c-0.671,0.282-1.377,0.568-2.041,0.042c-0.703-0.558-0.764-1.36-0.655-2.182
		c0.301-2.264,1.422-4.104,2.891-5.803C399.896,53.767,403.054,51.557,406.351,49.433z"/>
	<path fill-rule="evenodd" clip-rule="evenodd" fill="#F8FAF9" d="M416.119,48.895c-0.002,1.336-1.595,3.195-2.74,3.389
		c-0.866,0.146-1.313-0.386-1.062-1.331c0.416-1.565,1.582-2.547,2.793-3.485c0.259-0.201,0.439-0.139,0.548,0.143
		C415.842,48.09,416.006,48.578,416.119,48.895z"/>
	<path fill-rule="evenodd" clip-rule="evenodd" fill="#F6F9F8" d="M390.254,46.779c0.338-1.313,0.887-2.609,2.24-3.379
		c0.555-0.316,1.247-0.405,1.663,0.087c0.452,0.535-0.321,0.773-0.569,1.082c-0.772,0.958-1.627,1.85-2.466,2.753
		c-0.152,0.164-0.363,0.344-0.626,0.218C390.225,47.41,390.303,47.134,390.254,46.779z"/>
	<path fill-rule="evenodd" clip-rule="evenodd" fill="#FAFBFB" d="M210.274,38.265c-1.74,3.523-3.807,6.556-6.983,8.701
		c-0.63,0.426-1.33,0.721-2.106,0.806c-2.217,0.239-3.415-1.361-2.524-3.406c0.868-1.992,2.455-3.327,4.235-4.442
		C205.085,38.552,207.458,37.863,210.274,38.265z"/>
	<path fill-rule="evenodd" clip-rule="evenodd" fill="#FAFBFB" d="M356.52,42.554c3.634-6.36,7.023-12.562,11.787-17.859
		c1.1-1.223,2.356-2.276,3.714-3.199c0.592-0.402,1.25-0.845,1.989-0.405c0.781,0.464,0.774,1.287,0.625,2.037
		c-0.194,0.973-0.434,1.953-0.8,2.871c-1.714,4.304-3.172,8.688-4.23,13.198c-0.186,0.79-0.533,1.057-1.347,1.154
		c-3.568,0.43-7.069,1.245-10.574,2.022C357.38,42.44,357.068,42.47,356.52,42.554z"/>
	<path fill-rule="evenodd" clip-rule="evenodd" fill="#F8FAF9" d="M315.648,37.438c1.668-3.192,3.335-6.385,5.477-9.303
		c0.047-0.063,0.099-0.127,0.159-0.178c0.324-0.27,0.613-0.882,1.016-0.679c0.559,0.282,0.113,0.889-0.01,1.275
		c-0.841,2.637-2.596,4.715-4.32,6.798c-0.654,0.79-1.388,1.515-2.085,2.269C315.806,37.561,315.727,37.5,315.648,37.438z"/>
	<path fill-rule="evenodd" clip-rule="evenodd" fill="#F7FAF8" d="M302.577,43.194c0.38-0.03,0.795,0.056,0.961,0.36
		c0.181,0.333-0.251,0.537-0.445,0.761c-0.831,0.963-1.681,1.91-2.54,2.849c-0.206,0.226-0.447,0.537-0.803,0.339
		c-0.337-0.188-0.234-0.559-0.19-0.865C299.8,44.937,301.334,43.192,302.577,43.194z"/>
	<path fill-rule="evenodd" clip-rule="evenodd" fill="#F7FAF9" d="M326.413,44.424c-0.426,0.027-0.796-0.104-1.035-0.459
		c-0.235-0.349,0.11-0.58,0.257-0.822c0.561-0.927,1.235-1.742,2.276-2.176c0.369-0.154,0.72-0.144,0.996,0.122
		c0.265,0.253,0.145,0.587,0.044,0.893C328.568,43.145,327.276,44.389,326.413,44.424z"/>
	<path fill-rule="evenodd" clip-rule="evenodd" fill="#F9FBFA" d="M300.007,23.999c-1.486,2.895-2.959,5.795-4.391,8.756
		c0.104-2.076,0.415-4.167-1.35-5.75c-1.687-1.514-3.919-1.106-6.241-1.675c3.859-0.738,7.424-1.091,10.998-1.372
		C299.356,23.864,299.687,23.811,300.007,23.999z"/>
	<path fill-rule="evenodd" clip-rule="evenodd" fill="#71C190" d="M300.007,23.999c-0.328-0.014-0.656-0.028-0.984-0.042
		c0.308-0.222,0.649-0.227,1-0.146c0.024,0.005,0.054,0.063,0.05,0.092C300.069,23.938,300.031,23.967,300.007,23.999z"/>
</g>
</svg>
