<?xml version="1.0" encoding="utf-8"?>
<!-- Generator: Adobe Illustrator 16.0.0, SVG Export Plug-In . SVG Version: 6.00 Build 0)  -->
<!DOCTYPE svg PUBLIC "-//W3C//DTD SVG 1.1//EN" "http://www.w3.org/Graphics/SVG/1.1/DTD/svg11.dtd" [
	<!ENTITY ns_flows "http://ns.adobe.com/Flows/1.0/">
	<!ENTITY ns_extend "http://ns.adobe.com/Extensibility/1.0/">
	<!ENTITY ns_ai "http://ns.adobe.com/AdobeIllustrator/10.0/">
	<!ENTITY ns_graphs "http://ns.adobe.com/Graphs/1.0/">
]>
<svg version="1.1" id="Layer_1" xmlns:x="&ns_extend;" xmlns:i="&ns_ai;" xmlns:graph="&ns_graphs;"
	 xmlns="http://www.w3.org/2000/svg" xmlns:xlink="http://www.w3.org/1999/xlink" xmlns:a="http://ns.adobe.com/AdobeSVGViewerExtensions/3.0/"
	 x="0px" y="0px" width="612px" height="88.08px" viewBox="0 0 612 88.08" enable-background="new 0 0 612 88.08"
	 xml:space="preserve">
<g>
	<path fill-rule="evenodd" clip-rule="evenodd" fill="#F6ED22" d="M0.24,88.32c0-29,0.004-58-0.023-87
		C0.216,0.42,0.42,0.218,1.32,0.218C204.96,0.241,408.601,0.24,612.24,0.24c0.224,0.415,0.113,0.864,0.113,1.295
		c0.006,28.479,0.007,56.958,0.004,85.436c-0.001,1.634,0.182,1.466-1.482,1.466c-203.11,0.001-406.221,0.001-609.332-0.004
		C1.109,88.434,0.658,88.541,0.24,88.32z"/>
	<path fill-rule="evenodd" clip-rule="evenodd" fill="#FEFEFE" d="M0.24,88.32c0.599-0.013,1.198-0.036,1.797-0.036
		c202.769-0.002,405.537-0.002,608.305-0.002c1.897,0,1.897,0,1.897-1.896c0-28.716,0-57.431,0-86.146
		c0.502,0.266,0.225,0.729,0.226,1.08c0.017,16.6,0.015,33.2,0.015,49.8c0,12.16-0.011,24.32,0.023,36.479
		c0.002,0.822-0.162,0.983-0.983,0.983C408.08,88.56,204.64,88.561,1.2,88.546C0.889,88.546,0.456,88.816,0.24,88.32z"/>
	<path fill-rule="evenodd" clip-rule="evenodd" fill="#139948" d="M299.866,46.632c0.911-1.006,1.746-1.955,2.614-2.873
		c0.326-0.344,0.694-0.681,1.107-0.902c1.079-0.578,2.016-0.14,2.212,1.055c0.188,1.142,0.224,2.307,0.409,3.448
		c0.196,1.205,0.788,1.492,1.716,0.702c2.036-1.733,3.974-3.554,4.575-6.369c0.536-2.502,1.476-4.89,2.409-7.268
		c0.286-0.729,0.23-1.002-0.642-0.944c-2.59,0.173-5.183,0.301-7.775,0.417c-0.45,0.021-1.179,0.363-1.202-0.485
		c-0.02-0.755,0.693-0.504,1.106-0.52c2.756-0.109,5.512-0.2,8.269-0.253c0.686-0.013,1.067-0.226,1.345-0.889
		c0.493-1.175,1.096-2.306,1.689-3.435c0.175-0.333,0.395-0.804,0.881-0.65c0.403,0.127,0.54,0.558,0.599,0.971
		c0.09,0.622-0.082,1.185-0.376,1.725c-0.375,0.689-0.741,1.385-1.197,2.239c1.926,0,3.671-0.001,5.416,0.001
		c0.359,0,0.719,0.013,1.078,0.03c0.321,0.015,0.749,0.026,0.745,0.42c-0.006,0.489-0.472,0.292-0.751,0.295
		c-2.079,0.026-4.157,0.045-6.236,0.042c-0.476,0-0.828,0.06-1.043,0.569c-1.918,4.541-3.464,9.189-4.11,14.098
		c-0.077,0.585-0.047,1.194,0.009,1.786c0.203,2.154,1.468,2.741,3.286,1.538c1.259-0.832,2.148-2.031,3.025-3.216
		c1.139-1.541,2.213-3.128,3.073-4.854c0.484-0.972,1.192-1.794,1.991-2.532c0.587-0.541,1.296-0.811,2.079-0.786
		c0.896,0.028,1.429,0.506,1.369,1.448c-0.082,1.28-1.66,3.188-2.903,3.566c-0.351,0.106-0.747,0.219-1.053,0.021
		c-1.104-0.713-1.134,0.158-1.259,0.834c-0.196,1.058-0.193,2.111,0.731,2.861c0.866,0.702,1.832,0.42,2.726,0.04
		c2.664-1.133,4.811-2.994,6.733-5.094c0.534-0.583,0.658-1.526,1.038-2.27c0.257-0.504,0.287-1.509,1.169-1.135
		c0.794,0.337,0.195,1.067-0.009,1.562c-0.683,1.657-1.279,3.339-1.854,5.396c0.783-0.948,1.355-1.638,1.924-2.331
		c0.585-0.715,1.205-1.401,1.976-1.913c1.173-0.778,2.227-0.348,2.458,1.031c0.185,1.101,0.212,2.227,0.374,3.331
		c0.178,1.203,0.785,1.519,1.697,0.734c2.055-1.767,4.035-3.594,4.624-6.474c0.504-2.467,1.449-4.816,2.38-7.154
		c0.348-0.874,0.113-1.015-0.741-0.955c-2.629,0.184-5.263,0.306-7.896,0.431c-0.397,0.019-0.982,0.196-1.009-0.489
		c-0.028-0.709,0.592-0.531,0.975-0.545c2.795-0.104,5.591-0.197,8.388-0.247c0.733-0.013,1.13-0.253,1.421-0.959
		c0.485-1.177,1.099-2.303,1.692-3.432c0.157-0.298,0.363-0.72,0.795-0.601c0.41,0.113,0.578,0.502,0.641,0.927
		c0.168,1.131-0.471,1.988-0.968,2.891c-0.619,1.123-0.626,1.121,0.607,1.128c1.72,0.009,3.439,0.008,5.158,0.028
		c0.347,0.004,0.877-0.035,0.88,0.403c0.004,0.548-0.537,0.305-0.851,0.309c-2.038,0.03-4.077,0.063-6.116,0.042
		c-0.619-0.006-0.905,0.217-1.146,0.778c-1.832,4.276-3.213,8.687-3.973,13.279c-0.135,0.818-0.118,1.68-0.05,2.511
		c0.166,1.993,1.483,2.609,3.18,1.504c1.4-0.913,2.387-2.239,3.337-3.573c0.927-1.3,1.759-2.668,2.639-4.001
		c0.126-0.191,0.263-0.509,0.526-0.376c0.355,0.18,0.126,0.477-0.009,0.708c-1.319,2.281-2.513,4.646-4.367,6.572
		c-0.701,0.729-1.464,1.37-2.416,1.732c-1.814,0.69-3.127-0.006-3.661-1.89c-0.366-1.293-0.345-2.608-0.285-3.928
		c0.021-0.471,0.063-0.939-0.117-1.537c-0.447,0.566-0.916,1.118-1.338,1.703c-0.671,0.931-1.524,1.639-2.546,2.137
		c-1.113,0.542-1.956,0.201-2.383-0.953c-0.405-1.099-0.46-2.262-0.596-3.413c-0.138-1.172-0.405-1.28-1.298-0.469
		c-1.942,1.764-3.402,3.908-4.725,6.157c-0.222,0.377-0.274,1.105-0.909,0.904c-0.746-0.237-0.436-0.952-0.322-1.45
		c0.307-1.354,0.691-2.69,1.128-4.344c-0.726,0.606-1.241,1.049-1.77,1.476c-1.09,0.88-2.204,1.729-3.458,2.365
		c-3.061,1.552-4.869,0.728-5.632-2.679c-1.046,1.65-2.048,3.215-3.396,4.514c-0.643,0.619-1.344,1.137-2.187,1.436
		c-1.728,0.612-2.981-0.03-3.521-1.786c-0.567-1.84-0.406-3.712-0.379-5.7c-0.468,0.601-0.952,1.188-1.398,1.805
		c-0.621,0.86-1.396,1.535-2.329,2.029c-1.341,0.711-2.177,0.356-2.67-1.075c-0.357-1.036-0.372-2.12-0.533-3.184
		c-0.172-1.141-0.435-1.262-1.299-0.469c-1.933,1.772-3.391,3.923-4.721,6.165c-0.225,0.38-0.271,1.098-0.909,0.902
		c-0.671-0.205-0.418-0.877-0.333-1.353c0.342-1.889,0.981-3.697,1.636-5.608c-1.375,0.182-2.676,0.233-3.917-0.265
		c-0.598-0.24-0.667,0.221-0.823,0.564c-0.617,1.353-1.331,2.641-2.397,3.702c-0.142,0.141-0.272,0.297-0.429,0.419
		c-0.951,0.739-1.962,1.657-3.215,1.169c-1.208-0.471-1.11-1.811-1.286-3.124c-0.491,0.626-0.885,1.142-1.293,1.648
		c-2.247,2.791-4.716,5.34-7.982,6.949c-1.789,0.882-3.682,1.33-5.692,0.95c-3.417-0.646-5.986-3.369-6.795-7.216
		c-1.181-5.608,0.204-10.782,2.773-15.72c2.033-3.905,4.729-7.327,8.073-10.185c2.305-1.97,4.893-3.486,8.069-3.521
		c2.729-0.029,4.141,1.282,4.359,4.021c0.206,2.573-0.543,4.987-1.344,7.375c-0.968,2.888-2.406,5.565-3.832,8.245
		c-0.232,0.436-0.531,0.979-1.064,0.693c-0.616-0.33-0.123-0.86,0.078-1.241c1.77-3.365,3.333-6.816,4.375-10.481
		c0.504-1.775,0.871-3.575,0.389-5.433c-0.359-1.383-1.297-2.15-2.737-2.227c-1.68-0.089-3.132,0.558-4.502,1.413
		c-3.828,2.389-6.577,5.811-8.877,9.597c-2.639,4.344-4.613,8.943-4.715,14.15c-0.026,1.326,0.095,2.639,0.457,3.912
		c1.38,4.852,5.767,6.814,10.385,4.683c3.313-1.529,5.857-3.982,8.17-6.722c1.242-1.47,2.217-3.127,3.302-4.708
		c1.023-1.491,2.308-2.68,4.3-2.636c1.61,0.036,2.112,0.482,1.998,2.072c-0.055,0.765,0.233,0.996,0.838,1.164
		c0.865,0.24,1.739,0.228,2.617,0.141c0.683-0.067,1.189-0.337,1.387-1.086c0.151-0.574,0.427-1.117,0.662-1.667
		c0.173-0.407,0.373-0.915,0.924-0.692c0.624,0.252,0.371,0.77,0.194,1.229c-0.46,1.191-0.93,2.379-1.353,3.583
		C299.971,45.496,299.687,45.959,299.866,46.632z"/>
	<path fill-rule="evenodd" clip-rule="evenodd" fill="#F6EE22" d="M288.004,47.267c0.402-2.305,1.569-4.498,3.905-5.934
		c0.576-0.355,0.896-0.586,1.23,0.574c0.941,3.271-1.295,4.873-3.047,6.776c-0.367,0.398-0.927,0.704-1.52,0.402
		C287.976,48.781,287.995,48.183,288.004,47.267z"/>
	<path fill-rule="evenodd" clip-rule="evenodd" fill="#F3ED23" d="M324.123,44.426c-0.384,0.02-0.718-0.115-0.963-0.397
		c-0.296-0.342,0.044-0.607,0.192-0.849c0.567-0.926,1.222-1.775,2.284-2.203c0.372-0.149,0.699-0.149,0.997,0.127
		c0.293,0.272,0.156,0.573,0.051,0.883C326.266,43.22,325.021,44.413,324.123,44.426z"/>
</g>
</svg>
