<?xml version="1.0" encoding="utf-8"?>
<!-- Generator: Adobe Illustrator 16.0.0, SVG Export Plug-In . SVG Version: 6.00 Build 0)  -->
<!DOCTYPE svg PUBLIC "-//W3C//DTD SVG 1.1//EN" "http://www.w3.org/Graphics/SVG/1.1/DTD/svg11.dtd" [
	<!ENTITY ns_flows "http://ns.adobe.com/Flows/1.0/">
	<!ENTITY ns_extend "http://ns.adobe.com/Extensibility/1.0/">
	<!ENTITY ns_ai "http://ns.adobe.com/AdobeIllustrator/10.0/">
	<!ENTITY ns_graphs "http://ns.adobe.com/Graphs/1.0/">
]>
<svg version="1.1" id="Layer_1" xmlns:x="&ns_extend;" xmlns:i="&ns_ai;" xmlns:graph="&ns_graphs;"
	 xmlns="http://www.w3.org/2000/svg" xmlns:xlink="http://www.w3.org/1999/xlink" xmlns:a="http://ns.adobe.com/AdobeSVGViewerExtensions/3.0/"
	 x="0px" y="0px" width="612px" height="88.08px" viewBox="0 0 612 88.08" enable-background="new 0 0 612 88.08"
	 xml:space="preserve">
<g>
	<path fill-rule="evenodd" clip-rule="evenodd" fill="#F9FAFA" d="M0.24,88.32c0-29,0.004-58-0.023-87
		C0.216,0.42,0.42,0.218,1.32,0.218C204.96,0.241,408.601,0.24,612.24,0.24c0.222,0.416,0.111,0.864,0.111,1.296
		c0.006,28.479,0.007,56.957,0.004,85.437c-0.001,1.628,0.188,1.463-1.483,1.463c-203.11,0.002-406.221,0.002-609.331-0.004
		C1.107,88.432,0.657,88.54,0.24,88.32z"/>
	<path fill-rule="evenodd" clip-rule="evenodd" fill="#FEFEFE" d="M0.24,88.32c203.295,0,406.59,0,609.886,0
		c0.359,0,0.726-0.04,1.079,0.008c0.882,0.119,1.14-0.299,1.041-1.1c-0.034-0.275-0.006-0.56-0.006-0.839
		c0-28.717,0-57.433,0-86.149c0.502,0.266,0.225,0.728,0.226,1.08c0.017,16.517,0.015,33.035,0.015,49.551
		c0,12.198-0.01,24.396,0.021,36.594c0.002,0.873-0.151,1.121-1.086,1.12c-36.754-0.029-73.508-0.024-110.262-0.024
		c-166.611,0-333.223,0-499.835-0.016C0.968,88.545,0.506,88.822,0.24,88.32z"/>
	<path fill-rule="evenodd" clip-rule="evenodd" fill="#139948" d="M254.113,47.734c0.949-1.487,2.015-2.878,3.354-4.043
		c0.457-0.397,0.95-0.729,1.502-0.971c1.343-0.59,2.224-0.179,2.651,1.235c0.092,0.303,0.166,0.612,0.262,0.969
		c1.064-0.447,2.106-0.899,3.16-1.321c0.386-0.154,0.346-0.474,0.428-0.776c0.14-0.514,0.402-0.971,0.932-1.176
		c0.418-0.162,0.965-0.101,0.921,0.385c-0.111,1.25,0.616,2.526-0.308,3.781c-0.52,0.707-0.796,1.655-0.864,2.588
		c-0.067,0.927,0.359,1.265,1.241,0.974c0.612-0.202,1.146-0.561,1.638-0.977c1.498-1.269,2.896-2.627,4.064-4.22
		c1.231-1.679,2.552-2.068,4.482-1.369c0.305,0.111,0.496,0.155,0.733-0.08c0.271-0.268,0.58-0.249,0.857-0.003
		c0.291,0.258,0.199,0.559,0.08,0.875c-0.41,1.082-0.818,2.164-1.198,3.255c-0.192,0.551-0.247,1.144,0.292,1.531
		c0.483,0.348,1.009,0.142,1.468-0.125c1.936-1.127,3.314-2.865,4.796-4.478c0.254-0.275,0.16-0.844,0.32-1.239
		c0.234-0.577,0.621-1.113,1.338-0.928c0.666,0.172,0.196,0.85,0.341,1.139c0.921,1.838-0.584,3.127-0.909,4.667
		c-0.066,0.313-0.168,0.621-0.198,0.937c-0.091,0.972,0.384,1.331,1.319,0.983c0.759-0.281,1.418-0.749,1.99-1.311
		c1.674-1.645,3.565-3.108,4.546-5.346c0.195-0.444,0.568-0.581,0.984-0.377c0.406,0.198,0.336,0.549,0.189,0.925
		c-0.509,1.299-1.224,2.516-1.554,3.887c-0.112,0.465-0.328,0.934,0.089,1.348c0.479,0.477,1.023,0.215,1.444-0.029
		c2.272-1.316,4.241-2.992,5.661-5.229c0.518-0.816,1.088-1.578,1.756-2.267c0.61-0.631,1.377-0.962,2.252-0.967
		c0.955-0.005,1.545,0.621,1.345,1.549c-0.347,1.613-1.281,2.819-2.837,3.459c-0.278,0.114-0.707,0.202-0.925,0.069
		c-1.405-0.85-1.343,0.35-1.466,1.077c-0.38,2.256,1.07,3.545,3.204,2.75c2.832-1.056,5.02-3.071,7.076-5.214
		c0.249-0.26,0.294-0.722,0.417-1.096c0.446-1.353,1.263-2.394,2.563-3.011c0.665-0.315,1.187-0.138,1.397,0.596
		c0.138,0.478-0.13,0.707-0.587,0.425c-0.315-0.195-0.415-0.035-0.569,0.081c-1.268,0.946-1.828,3.028-1.33,4.562
		c0.202,0.621,0.428,0.62,0.92,0.347c1.649-0.915,3.414-1.54,5.245-1.986c0.307-0.075,0.605-0.228,0.937-0.03
		c-0.015,0.504-0.468,0.469-0.763,0.579c-1.567,0.588-3.14,1.154-4.66,1.87c-0.85,0.4-1.154,0.732-0.775,1.764
		c0.81,2.204-0.512,4.502-2.769,5.15c-1.672,0.48-2.657-0.459-2.319-2.175c0.254-1.288,1.02-2.232,1.944-3.085
		c1.324-1.222,1.325-1.22,0.5-3.046c-1.384,1.341-2.788,2.606-4.357,3.67c-1.096,0.744-2.208,1.447-3.559,1.623
		c-2.214,0.286-3.542-0.873-3.562-3.098c-0.003-0.357,0-0.714,0-1.161c-0.515,0.221-0.772,0.677-1.103,1.034
		c-0.933,1.013-1.987,1.853-3.266,2.385c-1.904,0.793-3.062,0.007-3.022-2.042c0.004-0.198,0-0.396,0-0.614
		c-0.586-0.065-0.734,0.452-1.016,0.725c-0.979,0.946-1.942,1.907-3.155,2.558c-0.831,0.446-1.73,0.811-2.593,0.191
		c-0.832-0.597-0.716-1.539-0.582-2.42c0.133-0.87,0.369-1.715,0.727-2.521c0.121-0.271,0.364-0.524,0.103-1.006
		c-0.934,1.014-1.808,1.965-2.685,2.915c-0.764,0.827-1.588,1.59-2.63,2.046c-1.861,0.813-3.204-0.096-3.17-2.123
		c0.006-0.345,0.057-0.688,0.07-0.842c-0.543,0.45-1.174,0.97-1.802,1.494c-1.642,1.369-2.375,1.173-3.065-0.878
		c-0.97,0.98-1.89,1.991-3.035,2.727c-0.973,0.624-2.045,1.391-3.198,0.635c-1.209-0.794-0.711-2.079-0.498-3.191
		c0.126-0.66,0.408-1.29,0.636-1.929c0.091-0.255,0.328-0.499,0.05-0.758c-0.213-0.198-0.452-0.077-0.666,0.03
		c-1.069,0.536-2.134,1.082-3.205,1.615c-0.546,0.271-0.451,0.799-0.507,1.255c-0.258,2.063-1.001,3.938-2.205,5.625
		c-0.664,0.931-1.522,1.646-2.612,2.027c-0.734,0.257-1.532,0.387-2.155-0.195c-0.614-0.574-0.618-1.365-0.375-2.127
		c0.563-1.77,1.678-3.173,3.095-4.32c0.928-0.752,1.93-1.422,2.943-2.059c0.987-0.621,0.569-1.401,0.244-2.081
		c-0.36-0.751-1.01-0.778-1.724-0.364c-0.816,0.473-1.435,1.139-2,1.87c-1.376,1.778-2.461,3.729-3.401,5.766
		c-0.133,0.289-0.251,0.587-0.401,0.868c-0.214,0.399-0.494,0.811-1.008,0.657c-0.532-0.157-0.472-0.655-0.435-1.103
		c0.151-1.838,0.565-3.628,0.995-5.414c0.046-0.19,0.088-0.381,0.17-0.732c-0.701,0.353-1.019,0.896-1.419,1.33
		c-0.99,1.075-2.116,1.959-3.486,2.479c-1.757,0.667-2.973-0.261-2.8-2.133c0.142-1.537,0.812-2.908,1.458-4.282
		c0.201-0.428,0.524-0.637,0.959-0.461c0.496,0.201,0.388,0.594,0.227,1.004c-0.511,1.298-1.222,2.516-1.54,3.892
		c-0.109,0.472-0.301,0.94,0.147,1.334c0.454,0.399,0.966,0.188,1.342-0.056c2.585-1.675,5.218-3.342,6.161-6.543
		c1.641-5.578,4.819-10.219,8.685-14.453c0.027-0.03,0.055-0.058,0.083-0.087c1.009-1.024,2.244-1.471,2.973-0.98
		c1.048,0.705,0.864,1.804,0.724,2.828c-0.182,1.328-0.761,2.521-1.47,3.64c-2.508,3.96-5.633,7.352-9.433,10.104
		c-0.413,0.299-0.687,0.595-0.782,1.122c-0.192,1.058-0.463,2.103-0.701,3.152C253.815,47.476,253.646,47.747,254.113,47.734z"/>
	<path fill-rule="evenodd" clip-rule="evenodd" fill="#139948" d="M427.992,44.256c-1.373,0.241-2.541,0.236-3.635-0.17
		c-0.634-0.235-0.816-0.049-1.05,0.485c-0.726,1.659-1.621,3.225-3.099,4.341c-0.89,0.671-1.916,1.526-3.034,0.911
		c-1.188-0.653-1.167-2.012-1.003-3.227c0.1-0.743,0.369-1.464,0.583-2.268c-1.289,0.102-2.584,0.161-3.824-0.339
		c-0.614-0.248-0.633,0.333-0.775,0.648c-0.651,1.429-1.421,2.775-2.589,3.852c-0.321,0.296-0.659,0.588-1.032,0.811
		c-0.79,0.473-1.67,1.068-2.56,0.514c-0.919-0.573-1.145-1.689-1.017-2.674c0.3-2.309,1.134-4.4,3.061-5.9
		c0.926-0.721,1.939-0.989,3.124-0.951c1.222,0.039,1.707,0.68,1.591,1.731c-0.146,1.314,0.601,1.571,1.608,1.651
		c1.5,0.121,2.826,0.113,3.832-1.455c0.853-1.329,2.277-2.092,4.021-1.912c1.345,0.139,1.757,0.416,1.646,1.753
		c-0.104,1.259,0.576,1.496,1.521,1.606c0.356,0.042,0.719,0.031,1.078,0.057c1.244,0.088,1.967-0.355,2.519-1.615
		c2.249-5.133,4.881-10.061,8.624-14.304c0.105-0.12,0.197-0.254,0.312-0.364c0.591-0.566,1.271-1.189,2.098-0.781
		c0.849,0.419,0.547,1.35,0.386,2.044c-0.566,2.447-2.116,4.358-3.631,6.265c-1.294,1.628-2.697,3.178-4.299,4.502
		c-1.698,1.404-2.253,3.392-3.153,5.462c2.655-0.953,4.699-2.497,6.667-4.165c0.183-0.155,0.334-0.351,0.528-0.487
		c0.346-0.242,0.622-0.932,1.153-0.349c0.437,0.48,0.048,0.868-0.322,1.209c-2.258,2.084-4.774,3.738-7.729,4.668
		c-0.22,0.069-0.488,0.029-0.636,0.27c1.962,3.163,3.944,3.719,7.193,2.002c1.977-1.043,3.54-2.579,5.001-4.235
		c0.279-0.317,0.364-0.686,0.476-1.074c0.404-1.405,1.233-2.504,2.549-3.175c0.747-0.381,1.507,0.013,1.501,0.716
		c-0.003,0.329-0.24,0.683-0.469,0.464c-0.668-0.641-0.874,0.063-1.111,0.35c-0.994,1.198-1.476,2.514-0.93,4.108
		c0.214,0.626,0.419,0.614,0.901,0.349c1.651-0.911,3.408-1.551,5.241-1.989c0.306-0.073,0.601-0.244,0.926-0.031
		c0.006,0.527-0.469,0.466-0.758,0.576c-1.603,0.608-3.213,1.188-4.766,1.928c-0.779,0.37-1.027,0.717-0.693,1.625
		c0.828,2.245-0.373,4.499-2.64,5.21c-1.672,0.523-2.69-0.339-2.414-2.071c0.205-1.285,0.875-2.371,1.909-3.081
		c1.219-0.837,1.665-1.675,0.532-2.981c-0.488,0.497-1.025,1.044-1.562,1.591c-1.129,1.151-2.409,2.105-3.84,2.839
		c-2.944,1.511-5.029,0.994-7.582-1.94c-0.942,2.56-1.879,5.019-2.191,7.67c-0.042,0.356-0.089,0.714-0.112,1.071
		c-0.033,0.495-0.217,0.899-0.765,0.882c-0.627-0.021-0.602-0.525-0.571-0.978c0.106-1.641,0.469-3.234,0.889-4.818
		C426.273,48.809,427.073,46.6,427.992,44.256z"/>
	<path fill-rule="evenodd" clip-rule="evenodd" fill="#139948" d="M390.998,38.389c3.662-0.372,7.179-0.269,10.688-0.406
		c0.731-0.029,0.829-0.5,1.023-0.953c2.008-4.659,4.334-9.16,6.762-13.609c0.288-0.528,0.527-1.591,1.325-1.127
		c0.754,0.438-0.1,1.128-0.363,1.625c-2.23,4.196-4.279,8.476-6.058,12.884c-0.132,0.326-0.252,0.657-0.429,1.119
		c1.216,0,2.32-0.004,3.425,0.002c0.271,0.001,0.613-0.041,0.616,0.371c0.003,0.373-0.313,0.431-0.594,0.443
		c-1.038,0.045-2.076,0.084-3.114,0.101c-0.475,0.008-0.798,0.113-0.983,0.631c-1.731,4.846-3.574,9.658-4.323,14.79
		c-0.063,0.435-0.09,0.875-0.126,1.313c-0.052,0.631-0.315,1.127-1.003,1.11c-0.786-0.018-0.658-0.672-0.638-1.169
		c0.124-3.061,0.934-5.983,1.808-8.895c0.768-2.557,1.768-5.029,2.83-7.68c-2.86,0.173-5.584,0.338-8.308,0.505
		c-0.199,0.012-0.403,0.075-0.597,0.048c-1.988-0.276-2.743,0.73-3.311,2.56c-1.703,5.491-3.528,10.937-4.274,16.669
		c-0.021,0.158-0.043,0.318-0.09,0.471c-0.142,0.463-0.437,0.791-0.94,0.768c-0.614-0.028-0.604-0.505-0.606-0.966
		c-0.012-2.262,0.569-4.433,1.069-6.605c0.447-1.941,1.037-3.853,1.628-5.757c0.733-2.364-0.35-3.9-2.885-3.901
		c-2.326,0-4.626-0.177-6.888-0.747c-0.406-0.103-0.971-0.054-1.014-0.635c-0.04-0.558,0.481-0.668,0.891-0.813
		c2.772-0.986,5.677-1.282,8.57-1.63c0.516-0.062,1.046-0.224,1.546-0.159c2.281,0.293,3.104-1.033,3.834-2.931
		c2.107-5.482,4.68-10.754,7.808-15.741c0.19-0.305,0.371-0.617,0.58-0.909c0.243-0.34,0.457-0.903,0.993-0.57
		c0.541,0.336,0.155,0.776-0.082,1.13c-1.495,2.227-2.773,4.573-3.903,7.003C394.118,30.488,392.427,34.271,390.998,38.389z"/>
	<path fill-rule="evenodd" clip-rule="evenodd" fill="#139A48" d="M355.401,45.397c-0.628,0.907-1.139,1.711-1.72,2.461
		c-0.446,0.576-1.015,1.114-1.823,0.875c-0.782-0.23-0.812-1.006-0.942-1.666c-0.043-0.215-0.049-0.438-0.096-0.895
		c-0.829,1.085-1.551,1.969-2.574,2.556c-1.662,0.955-2.617,0.609-3.063-1.269c-0.229-0.965-0.325-1.966-0.435-2.956
		c-0.114-1.028-0.538-1.017-1.199-0.42c-2.009,1.815-3.498,4.029-4.873,6.334c-0.216,0.363-0.241,1.093-0.933,0.798
		c-0.574-0.245-0.359-0.849-0.264-1.285c0.296-1.342,0.653-2.669,1.031-4.182c-1.006,0.441-1.389,1.242-2.018,1.762
		c-0.679,0.561-1.328,1.149-2.173,1.46c-1.733,0.638-2.946-0.177-2.984-2.027c-0.008-0.395,0.055-0.79,0.098-1.357
		c-0.854,0.696-1.349,1.581-2.162,2.123c-0.575,0.382-1.141,0.809-1.866,0.435c-0.755-0.389-0.646-1.125-0.629-1.799
		c0.06-2.428,2.964-4.93,5.323-3.521c0.245,0.146,0.426,0.158,0.63-0.046c0.306-0.305,0.654-0.323,0.949-0.017
		c0.303,0.314,0.109,0.651-0.023,0.994c-0.388,1.004-0.75,2.018-1.107,3.034c-0.193,0.55-0.287,1.146,0.213,1.557
		c0.558,0.457,1.169,0.176,1.666-0.161c0.658-0.445,1.292-0.941,1.868-1.488c1.677-1.588,3.436-3.125,4.031-5.509
		c0.038-0.152,0.136-0.288,0.201-0.434c0.175-0.388,0.396-0.745,0.895-0.531c0.5,0.215,0.386,0.648,0.243,1.029
		c-0.461,1.232-0.948,2.455-1.411,3.687c-0.191,0.507-0.417,1.012-0.387,1.689c0.677-0.428,0.98-1.055,1.441-1.529
		c0.666-0.688,1.287-1.437,2.034-2.023c1.207-0.947,2.355-0.479,2.591,1.017c0.173,1.102,0.2,2.227,0.373,3.328
		c0.177,1.123,0.724,1.356,1.661,0.711c1.541-1.061,2.611-2.574,3.694-4.058c0.974-1.334,2.124-2.171,3.864-1.658
		c0.831,0.245,0.708-0.509,0.815-0.854c1.138-3.667,2.939-6.982,5.26-10.02c0.92-1.205,1.911-2.357,2.888-3.518
		c0.308-0.365,0.644-0.723,1.021-1.011c0.706-0.537,1.489-1.082,2.405-0.62c0.979,0.495,0.98,1.503,0.893,2.418
		c-0.119,1.245-0.599,2.396-1.224,3.476c-2.438,4.21-5.635,7.741-9.591,10.566c-0.564,0.403-0.907,0.828-1.025,1.495
		c-0.342,1.923-0.85,3.825-0.387,5.807c0.423,1.814,1.474,2.255,3.076,1.237c1.954-1.241,3.086-3.206,4.374-5.026
		c0.575-0.813,1.068-1.686,1.604-2.527c0.124-0.195,0.263-0.484,0.538-0.335c0.279,0.151,0.121,0.429,0.005,0.63
		c-1.362,2.342-2.551,4.803-4.527,6.731c-0.601,0.586-1.221,1.151-1.989,1.521c-2.018,0.967-3.536,0.212-4.022-1.981
		c-0.184-0.826-0.238-1.659-0.239-2.5C355.4,47.113,355.401,46.322,355.401,45.397z"/>
	<path fill-rule="evenodd" clip-rule="evenodd" fill="#139948" d="M179.87,57.618c-0.34-3.732,0.952-7.085,1.742-10.543
		c-1.32,1.725-2.488,3.527-3.906,5.141c-1.563,1.778-3.206,3.459-5.332,4.581c-0.714,0.376-1.475,0.618-2.266,0.747
		c-1.888,0.307-3.504-0.625-4.208-2.403c-1.034-2.609-0.732-5.274-0.225-7.914c1.775-9.237,5.429-17.741,10.196-25.801
		c0.081-0.137,0.164-0.274,0.251-0.407c0.224-0.339,0.551-0.537,0.9-0.286c0.315,0.227,0.147,0.573-0.004,0.868
		c-0.748,1.454-1.533,2.891-2.232,4.368c-3.499,7.386-6.246,15.025-7.619,23.112c-0.301,1.774-0.496,3.569,0.092,5.336
		c0.595,1.789,1.723,2.396,3.525,1.845c2.226-0.683,3.836-2.271,5.382-3.885c4.065-4.243,6.777-9.35,9.163-14.652
		c2.048-4.549,4.271-9.011,6.7-13.369c0.175-0.314,0.331-0.646,0.554-0.922c0.269-0.333,0.615-0.526,1.037-0.204
		c0.357,0.272,0.338,0.588,0.139,0.95c-0.615,1.119-1.23,2.238-1.827,3.368c-4.065,7.699-7.896,15.499-10.36,23.893
		c-0.474,1.614-0.772,3.26-0.996,4.923C180.522,56.772,180.608,57.273,179.87,57.618z"/>
	<path fill-rule="evenodd" clip-rule="evenodd" fill="#139A48" d="M211.441,45.46c-0.676,0.958-1.163,1.723-1.728,2.426
		c-0.454,0.564-1.021,1.113-1.833,0.844c-0.773-0.257-0.74-1.054-0.917-1.695c-0.083-0.299,0.068-0.643-0.25-0.978
		c-0.967,0.733-1.923,1.494-2.918,2.202c-1.109,0.789-2.262,1.507-3.666,1.66c-2.252,0.247-3.701-1.144-3.505-3.41
		c0.064-0.745,0.24-1.48,0.382-2.322c-1.838,0.61-3.551,1.3-5.214,2.137c-0.785,0.396-0.319,0.856-0.185,1.28
		c0.737,2.326-0.32,4.499-2.578,5.264c-0.716,0.243-1.437,0.332-2.046-0.182c-0.676-0.569-0.577-1.352-0.397-2.111
		c0.364-1.531,1.394-2.586,2.598-3.479c0.537-0.397,0.663-0.687,0.346-1.347c-1.074-2.24-0.142-4.898,2.022-6.074
		c0.544-0.295,1.059-0.399,1.511,0.117c0.227,0.259,0.263,0.611,0.065,0.892c-0.166,0.237-0.419,0.189-0.576-0.061
		c-0.174-0.277-0.318-0.101-0.475,0.005c-1.292,0.875-1.909,3.33-1.297,4.791c0.253,0.604,0.525,0.321,0.813,0.17
		c1.667-0.882,3.412-1.549,5.247-1.979c0.407-0.096,0.686-0.302,0.908-0.685c0.463-0.796,1.068-1.491,1.741-2.125
		c0.583-0.55,1.289-0.803,2.069-0.813c0.922-0.012,1.586,0.687,1.378,1.536c-0.377,1.542-1.235,2.753-2.729,3.43
		c-0.416,0.188-0.904,0.311-1.271,0.053c-0.949-0.666-1.018,0.074-1.16,0.673c-0.261,1.097-0.274,2.215,0.629,3.009
		c0.901,0.794,1.962,0.438,2.938,0.032c0.549-0.229,1.079-0.519,1.584-0.834c1.875-1.169,3.552-2.587,5.046-4.208
		c0.991-1.075,2.09-1.75,3.594-1.258c0.74,0.242,0.688-0.378,0.791-0.718c1.573-5.195,4.5-9.579,8.088-13.57
		c0.533-0.593,1.055-1.207,1.791-1.572c1.482-0.734,2.519-0.144,2.636,1.508c0.088,1.238-0.293,2.376-0.849,3.446
		c-2.366,4.55-5.722,8.252-9.854,11.25c-0.665,0.482-1.064,0.986-1.194,1.793c-0.291,1.809-0.763,3.587-0.373,5.455
		c0.408,1.95,1.512,2.443,3.191,1.333c1.926-1.273,3.063-3.229,4.338-5.06c0.569-0.818,1.077-1.681,1.617-2.52
		c0.13-0.202,0.283-0.435,0.561-0.235c0.226,0.164,0.056,0.363-0.038,0.525c-1.593,2.761-2.974,5.674-5.577,7.707
		c-2.536,1.981-4.551,1.189-5.105-1.98C211.357,48.432,211.503,47.08,211.441,45.46z"/>
	<path fill-rule="evenodd" clip-rule="evenodd" fill="#139A48" d="M232.286,52.923c0.212-2.618,0.991-5.677,1.726-8.735
		c1.979-8.239,4.583-16.261,8.573-23.779c0.056-0.106,0.088-0.227,0.156-0.323c0.306-0.437,0.518-1.201,1.201-0.891
		c0.764,0.346,0.184,1.002,0.016,1.455c-1.991,5.338-4.123,10.623-5.726,16.102c-1.463,5.005-3.437,9.854-4.574,14.962
		c-0.75,3.37-0.447,3.818,2.943,3.468c2.9-0.3,5.79-0.683,8.713-0.562c0.314,0.014,0.864-0.207,0.89,0.276
		c0.029,0.54-0.539,0.326-0.843,0.332c-3.011,0.055-5.944,0.636-8.873,1.258c-0.195,0.042-0.388,0.101-0.584,0.128
		C233.268,56.983,232.26,56.104,232.286,52.923z"/>
	<path fill-rule="evenodd" clip-rule="evenodd" fill="#169B4A" d="M248.841,38.037c0.573,0.105,0.928,0.395,0.862,0.969
		c-0.079,0.697-0.488,1.226-1.194,1.268c-0.545,0.033-0.656-0.479-0.623-0.95C247.932,38.684,248.168,38.18,248.841,38.037z"/>
	<path fill-rule="evenodd" clip-rule="evenodd" fill="#159A4A" d="M294.682,39.365c0.042-0.632,0.226-1.226,0.948-1.295
		c0.541-0.052,0.912,0.317,0.875,0.89c-0.045,0.706-0.458,1.232-1.152,1.311C294.825,40.331,294.646,39.868,294.682,39.365z"/>
	<path fill-rule="evenodd" clip-rule="evenodd" fill="#C1E3CF" d="M254.113,47.734c-0.066,0.175-0.196,0.503-0.301,0.408
		c-0.305-0.274-0.113-0.609,0.083-0.897C253.967,47.408,254.04,47.571,254.113,47.734z"/>
	<path fill-rule="evenodd" clip-rule="evenodd" fill="#FAFBFB" d="M255.235,41.923c1.388-3.979,3.243-7.672,5.636-11.087
		c0.801-1.145,1.562-2.326,2.605-3.274c0.498-0.452,1.063-1.008,1.785-0.527c0.627,0.418,0.685,1.101,0.511,1.827
		c-0.292,1.218-0.794,2.345-1.452,3.395c-2.315,3.69-5.276,6.804-8.629,9.562C255.567,41.919,255.453,42.027,255.235,41.923z"/>
	<path fill-rule="evenodd" clip-rule="evenodd" fill="#F9FAFA" d="M260.623,46.614c-0.731,2.674-1.627,4.932-3.507,6.648
		c-0.529,0.483-1.258,1.185-1.975,0.565c-0.639-0.553-0.312-1.447,0.06-2.109C256.419,49.545,258.362,48.127,260.623,46.614z"/>
	<path fill-rule="evenodd" clip-rule="evenodd" fill="#F9FAFA" d="M312.744,49.011c0.033,1.231-1.554,3.143-2.754,3.272
		c-0.838,0.091-1.243-0.382-1.07-1.159c0.372-1.669,1.642-2.685,2.89-3.694c0.288-0.232,0.404-0.018,0.518,0.22
		C312.532,48.084,312.735,48.517,312.744,49.011z"/>
	<path fill-rule="evenodd" clip-rule="evenodd" fill="#F7FAF9" d="M273.257,46.746c0.314-1.263,0.85-2.482,2.057-3.273
		c0.485-0.317,1.039-0.396,1.596-0.165c0.348,0.144,0.523,0.323,0.183,0.695c-0.992,1.084-1.959,2.191-2.938,3.288
		c-0.167,0.187-0.398,0.349-0.625,0.263C273.224,47.438,273.264,47.108,273.257,46.746z"/>
	<path fill-rule="evenodd" clip-rule="evenodd" fill="#F7FAF9" d="M302.112,44.429c-0.88-0.011-1.169-0.499-0.723-1.246
		c0.555-0.93,1.214-1.759,2.251-2.203c0.358-0.153,0.706-0.177,1,0.089c0.323,0.292,0.182,0.644,0.059,0.985
		C304.268,43.254,302.98,44.438,302.112,44.429z"/>
	<path fill-rule="evenodd" clip-rule="evenodd" fill="#F9FBFB" d="M416.979,47.644c0.427-2.671,1.588-4.9,3.99-6.328
		c0.601-0.357,0.896-0.552,1.21,0.586c0.911,3.299-1.319,4.929-3.133,6.826c-0.367,0.385-0.928,0.687-1.519,0.325
		C417.009,48.735,417.057,48.174,416.979,47.644z"/>
	<path fill-rule="evenodd" clip-rule="evenodd" fill="#F9FBFB" d="M405.888,47.34c0.37-2.341,1.552-4.525,3.861-5.981
		c0.521-0.328,0.922-0.746,1.278,0.545c0.916,3.32-1.297,4.931-3.117,6.824c-0.373,0.388-0.938,0.694-1.52,0.323
		C405.894,48.733,405.866,48.191,405.888,47.34z"/>
	<path fill-rule="evenodd" clip-rule="evenodd" fill="#F8FAF9" d="M432.713,37.454c1.154-2.065,2.279-4.147,3.476-6.188
		c0.724-1.236,1.435-2.495,2.446-3.535c0.237-0.244,0.494-0.666,0.877-0.446c0.329,0.189,0.094,0.583,0.001,0.875
		c-0.192,0.605-0.331,1.245-0.628,1.797c-1.547,2.884-3.603,5.375-5.902,7.667C432.893,37.568,432.803,37.511,432.713,37.454z"/>
	<path fill-rule="evenodd" clip-rule="evenodd" fill="#F8FAF9" d="M439.586,51.303c0.037-1.044,2.018-3.636,2.963-3.915
		c0.348-0.103,0.388,0.145,0.503,0.337c0.959,1.592-0.555,4.434-2.44,4.578C439.938,52.354,439.562,51.987,439.586,51.303z"/>
	<path fill-rule="evenodd" clip-rule="evenodd" fill="#F8FAF9" d="M378.871,41.364c3.344-0.84,6.526-1.17,9.828-1.555
		c-0.313,1.521-0.971,2.817-1.481,4.344C385.234,40.942,381.859,42.203,378.871,41.364z"/>
	<path fill-rule="evenodd" clip-rule="evenodd" fill="#FAFBFB" d="M357.702,41.71c1.433-4.024,3.485-7.692,5.828-11.207
		c0.687-1.029,1.397-2.043,2.314-2.886c0.501-0.46,1.061-1.001,1.781-0.621c0.709,0.375,0.611,1.147,0.548,1.826
		c-0.08,0.849-0.439,1.613-0.841,2.346c-2.235,4.084-5.377,7.394-8.91,10.365C358.228,41.699,358.029,41.799,357.702,41.71z"/>
	<path fill-rule="evenodd" clip-rule="evenodd" fill="#F7FAF9" d="M351.783,47.098c0.2-1.305,0.454-2.551,1.463-3.477
		c0.45-0.413,0.939-0.757,1.601-0.648c0.611,0.1,0.947,0.302,0.501,0.992c-0.777,1.204-1.428,2.492-2.411,3.554
		c-0.209,0.226-0.41,0.576-0.771,0.473C351.71,47.86,351.899,47.391,351.783,47.098z"/>
	<path fill-rule="evenodd" clip-rule="evenodd" fill="#F7FAF8" d="M327.744,46.888c0.033-1.239,1.367-3.22,2.384-3.578
		c0.553-0.195,1.208-0.271,1.55,0.211c0.299,0.423-0.329,0.716-0.578,1.017c-0.759,0.919-1.576,1.79-2.377,2.674
		c-0.188,0.209-0.431,0.445-0.714,0.339C327.713,47.44,327.757,47.096,327.744,46.888z"/>
	<path fill-rule="evenodd" clip-rule="evenodd" fill="#FAFBFB" d="M213.746,41.76c0.373-0.938,0.676-1.778,1.035-2.595
		c1.66-3.772,3.702-7.323,6.232-10.581c0.387-0.498,0.844-0.974,1.355-1.337c1.061-0.755,1.839-0.331,1.898,0.987
		c0.033,0.732-0.155,1.431-0.469,2.08c-2.219,4.59-5.663,8.159-9.532,11.366C214.193,41.741,214.051,41.717,213.746,41.76z"/>
	<path fill-rule="evenodd" clip-rule="evenodd" fill="#F8FAF9" d="M191.037,48.868c-0.012,1.365-1.601,3.229-2.73,3.416
		c-0.861,0.142-1.326-0.405-1.075-1.341c0.419-1.562,1.61-2.524,2.794-3.482c0.25-0.202,0.435-0.136,0.545,0.154
		C190.752,48.095,190.929,48.578,191.037,48.868z"/>
	<path fill-rule="evenodd" clip-rule="evenodd" fill="#F8FAF9" d="M210.715,42.951c0.75,0.09,1.168,0.283,0.671,1.046
		c-0.801,1.231-1.45,2.567-2.495,3.628c-0.371,0.379-0.767,0.715-1.006-0.111c-0.376-1.298,0.941-3.946,2.215-4.444
		C210.317,42.986,210.563,42.979,210.715,42.951z"/>
	<path fill-rule="evenodd" clip-rule="evenodd" fill="#F6F9F8" d="M199.668,44.431c-1.037-0.005-1.346-0.519-0.885-1.267
		c0.566-0.917,1.219-1.757,2.267-2.185c0.357-0.146,0.683-0.173,0.995,0.096c0.364,0.314,0.172,0.653,0.035,0.973
		C201.577,43.218,200.859,44.165,199.668,44.431z"/>
</g>
</svg>
