<?xml version="1.0" encoding="utf-8"?>
<!-- Generator: Adobe Illustrator 16.0.0, SVG Export Plug-In . SVG Version: 6.00 Build 0)  -->
<!DOCTYPE svg PUBLIC "-//W3C//DTD SVG 1.1//EN" "http://www.w3.org/Graphics/SVG/1.1/DTD/svg11.dtd" [
	<!ENTITY ns_flows "http://ns.adobe.com/Flows/1.0/">
	<!ENTITY ns_extend "http://ns.adobe.com/Extensibility/1.0/">
	<!ENTITY ns_ai "http://ns.adobe.com/AdobeIllustrator/10.0/">
	<!ENTITY ns_graphs "http://ns.adobe.com/Graphs/1.0/">
]>
<svg version="1.1" id="Layer_1" xmlns:x="&ns_extend;" xmlns:i="&ns_ai;" xmlns:graph="&ns_graphs;"
	 xmlns="http://www.w3.org/2000/svg" xmlns:xlink="http://www.w3.org/1999/xlink" xmlns:a="http://ns.adobe.com/AdobeSVGViewerExtensions/3.0/"
	 x="0px" y="0px" width="612px" height="88.08px" viewBox="0 0 612 88.08" enable-background="new 0 0 612 88.08"
	 xml:space="preserve">
<g>
	<path fill-rule="evenodd" clip-rule="evenodd" fill="#F9FAFA" d="M306.24,88.561c-101.64,0-203.28-0.002-304.92,0.021
		C0.42,88.583,0.216,88.38,0.217,87.48c0.028-28.721,0.028-57.44,0-86.161C0.216,0.42,0.42,0.218,1.32,0.218
		c203.36,0.023,406.72,0.023,610.081,0c0.9,0,1.104,0.202,1.103,1.102c-0.027,28.72-0.027,57.44,0,86.161
		c0.001,0.899-0.202,1.103-1.103,1.102C509.681,88.559,407.96,88.561,306.24,88.561z"/>
	<path fill-rule="evenodd" clip-rule="evenodd" fill="#139948" d="M359.793,45.633c-0.445,0.804-0.88,1.612-1.512,2.294
		c-0.474,0.512-0.996,1.023-1.743,0.826c-0.795-0.21-0.845-0.977-0.952-1.647c-0.036-0.227-0.039-0.458-0.082-0.998
		c-0.913,1.233-1.734,2.172-2.87,2.772c-1.388,0.733-2.252,0.396-2.726-1.126c-0.264-0.845-0.389-1.712-0.466-2.589
		c-0.045-0.51,0.1-1.223-0.384-1.424c-0.573-0.239-0.994,0.408-1.365,0.789c-1.709,1.755-3.142,3.719-4.343,5.856
		c-0.206,0.367-0.249,1.097-0.932,0.838c-0.667-0.254-0.383-0.866-0.29-1.36c0.124-0.661,0.265-1.317,0.409-2.03
		c-0.62,0.073-0.733,0.559-0.975,0.879c-2.85,3.791-6.057,7.229-9.902,10.035c-2.393,1.744-4.988,3.047-7.986,3.285
		c-5.267,0.419-8.643-2.947-7.375-8.071c1.031-4.166,3.567-7.458,6.285-10.621c1.98-2.306,4.23-4.332,7.128-6.132
		c-1.41,0.076-2.488,0.179-3.566,0.177c-0.835-0.001-1.685-0.06-2.501-0.225c-1.912-0.386-2.727-1.688-2.384-3.608
		c0.214-1.199,0.62-2.324,1.307-3.32c2.791-4.047,6.21-7.401,10.728-9.495c1.944-0.901,3.971-1.376,6.153-1.183
		c3.137,0.277,4.167,2.385,3.911,4.958c-0.426,4.268-2.388,7.994-4.541,11.617c-0.229,0.384-0.62,0.611-1.006,0.352
		c-0.418-0.281-0.069-0.647,0.102-0.938c1.604-2.731,2.886-5.599,3.731-8.659c0.279-1.011,0.432-2.028,0.396-3.077
		c-0.066-1.965-1.204-3.191-3.166-3.411c-1.484-0.166-2.873,0.242-4.188,0.824c-4.692,2.077-8.438,5.279-11.188,9.625
		c-0.516,0.815-0.921,1.687-1.125,2.629c-0.274,1.272,0.21,1.976,1.458,2.29c1.347,0.339,2.702,0.257,4.052,0.101
		c1.278-0.147,2.556-0.103,3.834-0.083c0.388,0.006,0.722,0.155,0.832,0.558c0.103,0.373-0.132,0.619-0.437,0.762
		c-4.765,2.232-7.76,6.296-10.703,10.394c-1.305,1.817-2.429,3.758-3.048,5.941c-0.608,2.148-0.904,4.303,0.858,6.065
		c1.735,1.733,3.902,1.633,6.061,1.021c3.757-1.065,6.766-3.37,9.548-5.993c2.74-2.584,5.149-5.467,7.448-8.447
		c1.157-1.5,2.08-3.106,2.699-4.9c0.16-0.464,0.296-1.277,1.076-0.936c0.664,0.291,0.262,0.887,0.086,1.357
		c-0.634,1.7-1.272,3.399-1.941,5.185c0.66-0.042,0.818-0.569,1.093-0.894c0.828-0.976,1.589-2.011,2.628-2.782
		c1.34-0.995,2.515-0.494,2.699,1.15c0.106,0.952,0.153,1.909,0.262,2.86c0.169,1.472,0.763,1.736,1.956,0.838
		c1.39-1.047,2.423-2.436,3.426-3.83c0.994-1.381,2.15-2.237,3.952-1.704c0.722,0.214,0.638-0.46,0.741-0.8
		c1.347-4.386,3.673-8.223,6.559-11.742c0.784-0.957,1.6-1.901,2.499-2.745c0.696-0.653,1.564-1.248,2.586-0.733
		c0.947,0.477,0.869,1.453,0.83,2.328c-0.067,1.525-0.755,2.853-1.525,4.11c-2.451,4-5.559,7.407-9.407,10.108
		c-0.497,0.349-0.757,0.726-0.868,1.33c-0.35,1.884-0.82,3.74-0.457,5.691c0.363,1.955,1.48,2.481,3.168,1.389
		c1.938-1.256,3.079-3.215,4.355-5.047c0.569-0.818,1.076-1.682,1.616-2.522c0.126-0.197,0.262-0.459,0.549-0.291
		c0.227,0.132,0.103,0.35,0.005,0.523c-1.571,2.778-2.98,5.676-5.57,7.717c-0.312,0.245-0.646,0.478-1.002,0.649
		c-2.035,0.984-3.655,0.131-4.053-2.107c-0.246-1.387-0.286-2.78-0.198-4.182C360.155,45.649,360.139,45.619,359.793,45.633z"/>
	<path fill-rule="evenodd" clip-rule="evenodd" fill="#139A48" d="M295.946,45.155c-1.023,1.318-1.881,2.777-3.417,3.633
		c-1.562,0.869-2.424,0.542-2.927-1.205c-0.244-0.849-0.372-1.713-0.421-2.596c-0.026-0.453,0.079-1.083-0.429-1.266
		c-0.502-0.18-0.852,0.356-1.178,0.679c-1.803,1.781-3.25,3.834-4.517,6.022c-0.211,0.365-0.245,1.094-0.936,0.801
		c-0.57-0.242-0.359-0.817-0.274-1.278c0.354-1.916,1.023-3.746,1.639-5.698c-1.375,0.248-2.646,0.253-3.851-0.22
		c-0.688-0.271-0.738,0.234-0.9,0.603c-0.652,1.476-1.469,2.836-2.674,3.933c-0.236,0.215-0.461,0.459-0.734,0.612
		c-0.86,0.486-1.793,1.257-2.761,0.632c-1.015-0.654-1.121-1.853-1.003-3.011c0.02-0.194,0.049-0.388,0.086-0.677
		c-0.604,0.199-0.853,0.669-1.193,1.018c-1.009,1.034-2.062,2.017-3.363,2.669c-0.763,0.382-1.605,0.663-2.382,0.083
		c-0.773-0.577-0.749-1.443-0.604-2.3c0.161-0.947,0.384-1.876,0.809-2.746c0.175-0.358,0.292-0.622-0.148-1.007
		c-0.672-0.587-0.227-1.948,0.637-2.216c0.392-0.122,0.958,0.056,0.872,0.332c-0.342,1.091,0.748,2.107-0.035,3.26
		c-0.588,0.864-0.941,1.938-1.098,3.019c-0.161,1.112,0.347,1.503,1.39,1.074c1.409-0.58,2.421-1.693,3.454-2.735
		c1.148-1.159,2.235-2.377,3.148-3.758c1.029-1.557,2.41-2.669,4.461-2.506c1.374,0.109,1.827,0.455,1.723,1.825
		c-0.085,1.127,0.478,1.399,1.348,1.516c0.395,0.053,0.797,0.057,1.196,0.074c1.266,0.053,2.275-0.238,2.534-1.716
		c0.081-0.46,0.331-0.896,0.535-1.327c0.161-0.34,0.407-0.634,0.84-0.461c0.438,0.173,0.418,0.568,0.292,0.916
		c-0.274,0.749-0.618,1.472-0.889,2.221c-0.4,1.11-0.762,2.234-1.147,3.374c0.509,0.121,0.597-0.338,0.792-0.574
		c0.841-1.018,1.662-2.05,2.666-2.916c0.576-0.496,1.224-0.782,1.983-0.512c0.787,0.28,0.823,1.012,0.9,1.682
		c0.111,0.951,0.148,1.911,0.275,2.859c0.17,1.28,0.792,1.618,1.745,0.805c2.033-1.734,3.968-3.552,4.571-6.37
		c0.51-2.381,1.4-4.656,2.281-6.926c0.504-1.3,0.489-1.25-0.86-1.233c-2.559,0.03-5.107,0.206-7.657,0.39
		c-0.385,0.028-0.975,0.227-1.023-0.462c-0.049-0.708,0.56-0.56,0.95-0.574c2.674-0.1,5.349-0.219,8.024-0.228
		c1.001-0.003,1.589-0.251,1.96-1.25c0.414-1.115,1.029-2.157,1.594-3.211c0.158-0.294,0.368-0.707,0.811-0.547
		c0.35,0.126,0.521,0.466,0.572,0.852c0.094,0.699-0.031,1.35-0.377,1.961c-0.367,0.648-0.732,1.297-1.203,2.132
		c0.699,0,1.2-0.003,1.701,0c1.639,0.011,3.278,0.017,4.917,0.042c0.308,0.005,0.723,0.017,0.655,0.479
		c-0.057,0.391-0.432,0.23-0.684,0.232c-2.078,0.018-4.156,0.051-6.234,0.03c-0.591-0.006-0.93,0.138-1.176,0.719
		c-1.861,4.39-3.289,8.907-4.039,13.622c-0.157,0.984-0.139,1.989,0.136,2.974c0.29,1.037,0.938,1.418,1.983,1.197
		c1.127-0.237,1.881-1.014,2.615-1.804c1.612-1.737,2.874-3.729,4.122-5.73c0.216-0.346,0.345-0.806,0.804-0.917
		c0.235,0.213,0.211,0.408,0.107,0.59c-1.375,2.431-2.646,4.936-4.647,6.944c-0.707,0.71-1.493,1.322-2.486,1.615
		c-1.69,0.498-2.905-0.158-3.389-1.862c-0.479-1.688-0.369-3.402-0.219-5.117C296.314,45.163,296.294,45.127,295.946,45.155z"/>
	<path fill-rule="evenodd" clip-rule="evenodd" fill="#139948" d="M250.196,39.859c-1.109,0.45-2.229,0.93-3.37,1.352
		c-0.31,0.114-0.738,0.624-1.011,0.025c-0.229-0.501-0.151-1.013,0.471-1.291c1.281-0.572,2.606-1.001,3.975-1.295
		c0.36-0.077,0.678-0.106,0.81-0.559c0.842-2.911,1.894-5.777,1.886-8.866c-0.005-2.146-0.934-3.155-3.084-3.33
		c-1.831-0.148-3.666-0.24-5.498-0.371c-0.316-0.022-0.659-0.052-0.933-0.189c-0.444-0.224-1.049-0.377-1.054-1.017
		c-0.005-0.672,0.614-0.813,1.082-0.95c3.201-0.939,6.515-1.183,9.811-1.521c1.589-0.163,3.185-0.282,4.781-0.353
		c0.808-0.037,1.32-0.329,1.643-1.088c0.232-0.545,0.603-1.033,0.927-1.536c0.21-0.325,0.511-0.575,0.901-0.36
		c0.482,0.266,0.177,0.609-0.003,0.909c-0.345,0.576-0.7,1.146-1.038,1.697c2.344,0,4.629,0,6.915,0
		c3.599,0.001,7.197-0.003,10.796,0.012c0.307,0.001,0.841-0.188,0.818,0.369c-0.021,0.492-0.509,0.374-0.859,0.384
		c-5.95,0.175-11.897,0.406-17.832,0.881c-0.426,0.034-0.836-0.004-1.102,0.506c-2.476,4.743-4.643,9.62-6.493,14.813
		c2.667-0.386,5.228-0.678,7.808-0.714c0.639-0.009,1.279-0.046,1.917-0.027c0.319,0.009,0.853-0.176,0.855,0.353
		c0.003,0.601-0.555,0.413-0.922,0.426c-3.117,0.113-6.22,0.336-9.29,0.945c-0.646,0.128-0.932,0.39-1.139,0.999
		c-2.078,6.127-4.14,12.256-4.99,18.709c-0.083,0.627-0.321,1.153-1.018,1.062c-0.795-0.105-0.625-0.772-0.573-1.328
		c0.537-5.822,2.414-11.296,4.351-16.754c0.2-0.562,0.387-1.129,0.576-1.695C250.317,40.032,250.275,39.992,250.196,39.859z"/>
	<path fill-rule="evenodd" clip-rule="evenodd" fill="#71C191" d="M295.946,45.155c0.052-0.189,0.224-0.45,0.344-0.338
		c0.245,0.232,0.124,0.548-0.087,0.798C296.113,45.464,296.184,45.224,295.946,45.155z"/>
	<path fill-rule="evenodd" clip-rule="evenodd" fill="#8DCDA7" d="M359.793,45.633c0.025-0.194,0.193-0.467,0.292-0.381
		c0.289,0.25,0.158,0.574-0.042,0.854C359.96,45.948,359.876,45.79,359.793,45.633z"/>
	<path fill-rule="evenodd" clip-rule="evenodd" fill="#FAFBFB" d="M362.384,41.943c1.659-4.926,4.158-9.381,7.299-13.483
		c0.289-0.378,0.628-0.732,0.999-1.028c0.462-0.367,0.99-0.827,1.608-0.408c0.582,0.395,0.67,1.044,0.551,1.719
		c-0.132,0.753-0.361,1.472-0.719,2.147C369.766,35.346,366.304,38.834,362.384,41.943z"/>
	<path fill-rule="evenodd" clip-rule="evenodd" fill="#F7FAF9" d="M356.426,46.99c0.216-1.281,0.496-2.637,1.712-3.568
		c0.395-0.302,0.8-0.527,1.311-0.454c0.607,0.086,0.992,0.281,0.547,0.984c-0.767,1.21-1.429,2.488-2.4,3.557
		c-0.23,0.254-0.477,0.638-0.872,0.453C356.417,47.819,356.435,47.423,356.426,46.99z"/>
	<path fill-rule="evenodd" clip-rule="evenodd" fill="#F9FBFB" d="M272.419,47.653c0.389-2.582,1.546-4.821,3.914-6.295
		c0.541-0.336,1.221-0.845,1.239,0.575c0.011,0.874,0.653,1.674,0.095,2.669c-0.885,1.577-1.727,3.156-3.267,4.209
		c-0.398,0.272-0.841,0.541-1.334,0.299C272.531,48.847,272.479,48.302,272.419,47.653z"/>
	<path fill-rule="evenodd" clip-rule="evenodd" fill="#F9FBFA" d="M253.651,30.928c0.16-4.423-1.063-5.807-5.472-6.21
		c-0.629-0.058-1.252-0.172-1.876-0.329c3.849-0.754,7.722-1.207,11.869-1.448c-1.607,2.863-2.935,5.677-4.264,8.491
		C253.441,31.458,253.572,31.179,253.651,30.928z"/>
	<path fill-rule="evenodd" clip-rule="evenodd" fill="#B2DDC4" d="M253.651,30.928c0.085,0.168,0.171,0.336,0.257,0.503
		c-0.091,0.228-0.182,0.456-0.324,0.81C253.359,31.667,253.445,31.292,253.651,30.928z"/>
</g>
</svg>
