<?xml version="1.0" encoding="utf-8"?>
<!-- Generator: Adobe Illustrator 16.0.0, SVG Export Plug-In . SVG Version: 6.00 Build 0)  -->
<!DOCTYPE svg PUBLIC "-//W3C//DTD SVG 1.1//EN" "http://www.w3.org/Graphics/SVG/1.1/DTD/svg11.dtd" [
	<!ENTITY ns_flows "http://ns.adobe.com/Flows/1.0/">
	<!ENTITY ns_extend "http://ns.adobe.com/Extensibility/1.0/">
	<!ENTITY ns_ai "http://ns.adobe.com/AdobeIllustrator/10.0/">
	<!ENTITY ns_graphs "http://ns.adobe.com/Graphs/1.0/">
]>
<svg version="1.1" id="Layer_1" xmlns:x="&ns_extend;" xmlns:i="&ns_ai;" xmlns:graph="&ns_graphs;"
	 xmlns="http://www.w3.org/2000/svg" xmlns:xlink="http://www.w3.org/1999/xlink" xmlns:a="http://ns.adobe.com/AdobeSVGViewerExtensions/3.0/"
	 x="0px" y="0px" width="612px" height="88.08px" viewBox="0 0 612 88.08" enable-background="new 0 0 612 88.08"
	 xml:space="preserve">
<g>
	<path fill-rule="evenodd" clip-rule="evenodd" fill="#F6ED22" d="M0.24,88.08c0-28.92,0.004-57.84-0.023-86.76
		C0.216,0.42,0.42,0.218,1.32,0.218C204.96,0.241,408.601,0.24,612.24,0.24c0.222,0.415,0.111,0.864,0.111,1.295
		c0.007,28.419,0.006,56.839,0.003,85.258c0,0.437,0.07,0.88-0.075,1.31c-0.225,0.212-0.51,0.205-0.789,0.212
		c-0.48,0.011-0.96,0.005-1.44,0.005c-202.522,0-405.045,0.001-607.568-0.01C1.734,88.31,0.949,88.517,0.24,88.08z"/>
	<path fill-rule="evenodd" clip-rule="evenodd" fill="#FEFEFE" d="M612.206,88.067c0.012-0.52,0.033-1.039,0.033-1.559
		c0.001-28.756,0.001-57.512,0.001-86.269c0.502,0.266,0.225,0.728,0.226,1.08c0.017,16.437,0.015,32.875,0.015,49.312
		c0,12.277-0.01,24.556,0.021,36.833c0.002,0.873-0.151,1.121-1.086,1.12c-36.194-0.029-72.388-0.024-108.582-0.024
		c-167.171,0-334.343,0-501.514-0.016c-0.351,0-0.813,0.277-1.08-0.225c0.537-0.241,1.104-0.112,1.655-0.112
		c202.888-0.007,405.775-0.006,608.663-0.015C611.106,88.193,611.676,88.338,612.206,88.067z"/>
	<path fill-rule="evenodd" clip-rule="evenodd" fill="#F9F259" d="M612.206,88.067c-0.394,0.521-0.95,0.238-1.416,0.238
		C506.632,88.32,402.474,88.32,298.315,88.32c-99.358,0-198.717,0-298.075,0c0-0.08,0-0.16,0-0.24
		c203.469,0,406.938,0,610.406-0.001C611.167,88.079,611.687,88.071,612.206,88.067z"/>
	<path fill-rule="evenodd" clip-rule="evenodd" fill="#139948" d="M256.547,46.962c-0.376,0.463-0.734,0.942-1.134,1.385
		c-0.634,0.701-1.339,1.318-2.387,0.99c-0.987-0.31-1.294-1.106-1.303-2.235c-1.025,1.405-1.848,2.771-3.017,3.856
		c-0.703,0.653-1.409,1.304-2.348,1.616c-1.757,0.585-2.964-0.049-3.499-1.827c-0.256-0.854-0.275-1.736-0.317-2.611
		c-0.042-0.876-0.01-1.755-0.01-2.711c-0.549,0.794-1.059,1.594-1.634,2.344c-0.467,0.61-1.054,1.244-1.898,0.95
		c-0.907-0.314-0.887-1.23-0.948-2.029c-0.059-0.775,0.274-1.478,0.477-2.27c-1.227-0.047-2.437,0.063-3.566-0.419
		c-0.524-0.224-0.6,0.21-0.742,0.522c-0.562,1.243-1.219,2.426-2.13,3.455c-0.645,0.728-1.381,1.325-2.279,1.713
		c-1.52,0.656-2.332,0.249-2.726-1.377c-0.166-0.688-0.085-1.396-0.026-2.355c-1.158,1.07-1.982,2.095-3.028,2.877
		c-0.676,0.506-1.358,0.999-2.176,1.234c-1.457,0.418-2.359-0.271-2.358-1.784c0-1.096,0.365-2.119,0.66-3.155
		c-0.099-0.187-0.205-0.093-0.311-0.008c-1.104,1.699-2.001,3.534-3.365,5.064c-0.748,0.84-1.516,1.64-2.543,2.137
		c-2.127,1.029-3.665,0.261-4.181-2.038c-0.31-1.383-0.225-2.773-0.208-4.166c0.005-0.281,0.378-0.688-0.256-0.75
		c-1.041,1.199-1.849,2.61-3.31,3.419c-1.545,0.854-2.487,0.508-2.925-1.223c-0.224-0.886-0.302-1.808-0.466-2.709
		c-0.074-0.403,0.144-0.989-0.407-1.137c-0.465-0.125-0.787,0.322-1.095,0.622c-1.729,1.687-3.098,3.647-4.365,5.694
		c-0.277,0.447-0.312,1.421-1.083,1.159c-0.833-0.284-0.351-1.136-0.232-1.694c0.633-2.979,1.728-5.81,2.883-8.617
		c0.163-0.396,0.368-0.897,0.942-0.661c0.564,0.232,0.393,0.707,0.214,1.125c-0.714,1.673-1.344,3.376-1.851,5.168
		c0.615,0.005,0.763-0.479,1.021-0.79c0.742-0.893,1.487-1.777,2.377-2.531c0.592-0.501,1.253-0.735,1.996-0.445
		c0.724,0.283,0.741,0.967,0.804,1.61c0.096,0.993,0.146,1.996,0.317,2.978c0.213,1.231,0.775,1.521,1.702,0.749
		c2.027-1.689,3.944-3.496,4.566-6.244c0.566-2.499,1.458-4.897,2.405-7.271c0.328-0.821,0.385-1.137-0.746-1.076
		c-2.592,0.139-5.188,0.223-7.778,0.423c-0.431,0.033-1.091,0.236-1.093-0.515c-0.002-0.649,0.618-0.5,1.019-0.514
		c2.755-0.097,5.511-0.193,8.268-0.241c0.764-0.013,1.216-0.208,1.514-0.992c0.423-1.114,1.014-2.168,1.579-3.223
		c0.192-0.357,0.385-0.912,0.935-0.753c0.545,0.158,0.556,0.705,0.587,1.197c0.07,1.082-0.567,1.884-1.048,2.752
		c-0.134,0.243-0.249,0.496-0.371,0.741c0.229,0.391,0.586,0.216,0.871,0.22c1.799,0.026,3.599,0.017,5.398,0.043
		c0.327,0.005,0.843-0.06,0.791,0.463c-0.046,0.451-0.509,0.242-0.795,0.246c-1.999,0.026-3.998,0.073-5.995,0.034
		c-0.729-0.014-1.063,0.263-1.328,0.901c-1.828,4.406-3.279,8.917-3.98,13.651c-0.119,0.81-0.067,1.59,0.073,2.38
		c0.268,1.513,1.172,2.021,2.604,1.426c0.909-0.378,1.573-1.084,2.218-1.797c1.563-1.728,2.796-3.692,4.032-5.654
		c0.223-0.353,0.298-0.711,0.299-1.126c0.001-0.642,0.304-1.156,0.88-1.463c0.4-0.213,1.052-0.113,0.962,0.254
		c-0.273,1.126,0.754,2.189-0.059,3.365c-0.571,0.826-0.902,1.871-1.054,2.908c-0.165,1.123,0.341,1.512,1.394,1.075
		c1.404-0.583,2.425-1.683,3.459-2.729c1.148-1.163,2.222-2.39,3.141-3.765c1.063-1.591,2.481-2.641,4.591-2.513
		c1.226,0.074,1.696,0.685,1.573,1.735c-0.143,1.226,0.52,1.543,1.493,1.634c1.37,0.128,2.696,0.143,3.849-0.858
		c0.621-0.539,1.472-0.753,2.263-0.466c0.792,0.287,0.957-0.087,1.143-0.701c1.574-5.195,4.515-9.58,8.116-13.563
		c0.639-0.707,1.266-1.444,2.259-1.712c1.102-0.298,1.788,0.084,2.014,1.206c0.266,1.315-0.059,2.549-0.642,3.711
		c-2.342,4.67-5.769,8.418-9.96,11.476c-0.714,0.521-1.061,1.084-1.218,1.919c-0.319,1.694-0.651,3.382-0.401,5.113
		c0.314,2.182,1.542,2.718,3.354,1.479c0.798-0.546,1.501-1.203,2.076-1.979c1.477-1.987,2.983-3.958,4.024-6.228
		c0.222-0.484,0.464-1.043,1.129-0.736c0.634,0.292,0.294,0.825,0.121,1.247c-0.485,1.18-1.117,2.298-1.426,3.551
		c-0.135,0.547-0.396,1.145,0.25,1.496c0.608,0.332,1.051-0.13,1.462-0.516c0.974-0.911,1.695-2.015,2.379-3.146
		c0.331-0.546,0.667-1.09,1.003-1.633c0.209-0.338,0.494-0.547,0.899-0.371c0.51,0.222,0.402,0.636,0.238,1.016
		c-0.522,1.21-1.027,2.429-1.312,3.72c-0.119,0.538-0.256,1.122,0.329,1.523c0.539,0.371,1.016,0.072,1.442-0.203
		c2.162-1.4,3.772-3.327,4.98-5.565c1.195-2.213,2.646-4.186,4.678-5.691c0.314-0.233,0.678-0.45,1.051-0.538
		c0.466-0.11,0.974-0.078,1.314,0.36c0.353,0.455,0.398,0.955,0.101,1.455c-0.574,0.965-1.235,1.867-2.072,2.623
		c-0.285,0.257-0.614,0.641-1.004,0.18c-0.339-0.402-0.079-0.705,0.247-1.01c0.613-0.572,1.208-1.165,1.766-1.79
		c0.217-0.243,0.611-0.583,0.286-0.928c-0.349-0.371-0.65,0.081-0.896,0.274c-1.079,0.849-1.938,1.908-2.684,3.048
		c-1.451,2.218-2.732,4.508-2.98,7.232c-0.213,2.344,1.251,3.504,3.43,2.646c0.934-0.367,1.783-0.912,2.53-1.583
		c0.951-0.854,1.863-1.752,2.795-2.627c2.107-1.977,3.633-4.215,4.148-7.186c0.33-1.899,1.213-3.709,1.905-5.538
		c0.271-0.716,0.134-0.937-0.627-0.891c-2.551,0.155-5.104,0.277-7.656,0.414c-0.12,0.006-0.24,0.048-0.357,0.037
		c-0.399-0.038-0.984,0.212-1.04-0.461c-0.057-0.696,0.554-0.563,0.949-0.578c2.635-0.098,5.272-0.235,7.907-0.222
		c1.119,0.005,1.744-0.311,2.135-1.385c0.379-1.043,0.955-2.018,1.479-3.004c0.161-0.302,0.382-0.724,0.788-0.621
		c0.458,0.118,0.615,0.546,0.662,1.027c0.092,0.943-0.345,1.702-0.778,2.468c-0.818,1.447-0.82,1.445,0.882,1.446
		c1.479,0.001,2.96-0.016,4.438,0.016c0.408,0.009,1.112-0.115,1.11,0.404c-0.002,0.643-0.677,0.29-1.051,0.299
		c-1.998,0.046-3.998,0.074-5.996,0.066c-0.521-0.002-0.793,0.185-0.99,0.648c-1.886,4.426-3.346,8.979-4.068,13.745
		c-0.112,0.741-0.083,1.522,0,2.271c0.205,1.856,1.456,2.463,3.051,1.48c1.461-0.9,2.462-2.271,3.45-3.626
		c1.13-1.549,2.213-3.135,3.013-4.89c0.206-0.45,0.413-0.965,1.026-0.727c0.673,0.261,0.346,0.795,0.175,1.218
		c-0.494,1.219-1.142,2.376-1.455,3.67c-0.115,0.478-0.272,0.945,0.162,1.336c0.453,0.408,0.955,0.166,1.345-0.053
		c2.404-1.353,4.373-3.191,5.945-5.46c1.143-1.65,2.521-2.833,4.737-2.707c1.222,0.07,1.701,0.668,1.569,1.733
		c-0.153,1.235,0.533,1.529,1.501,1.636c0.357,0.04,0.719,0.035,1.078,0.059c1.295,0.083,2.263-0.278,2.523-1.731
		c0.068-0.384,0.279-0.746,0.451-1.106c0.186-0.389,0.349-0.906,0.934-0.659c0.552,0.233,0.411,0.703,0.225,1.127
		c-0.728,1.645-1.3,3.347-1.848,5.057c-0.056,0.173-0.09,0.353-0.206,0.812c1.238-1.429,2.143-2.743,3.34-3.801
		c0.67-0.592,1.38-1.034,2.27-0.658c0.803,0.339,0.745,1.143,0.805,1.859c0.066,0.797,0.124,1.596,0.239,2.386
		c0.078,0.536,0.056,1.21,0.692,1.418c0.598,0.195,1.074-0.249,1.485-0.61c1.053-0.927,1.942-2.006,2.825-3.096
		c0.356-0.438,0.548-1.488,1.244-1.098c0.37,0.208-0.456,0.93-0.784,1.371c-1.045,1.401-1.964,2.926-3.566,3.824
		c-1.482,0.831-2.449,0.485-2.869-1.166c-0.235-0.923-0.313-1.885-0.479-2.826c-0.067-0.377,0.104-0.899-0.333-1.08
		c-0.48-0.199-0.808,0.253-1.111,0.542c-1.809,1.724-3.229,3.747-4.492,5.89c-0.081,0.138-0.144,0.285-0.229,0.421
		c-0.196,0.316-0.27,0.856-0.826,0.632c-0.448-0.181-0.425-0.586-0.35-1.021c0.28-1.619,0.783-3.175,1.281-4.733
		c0.117-0.367,0.387-0.704,0.268-1.189c-1.268,0.197-2.537,0.208-3.753-0.257c-0.69-0.264-0.707,0.292-0.877,0.653
		c-0.703,1.493-1.5,2.933-2.783,4.003c-0.948,0.789-2.046,1.767-3.313,1.133c-1.214-0.606-1.117-1.999-1.037-3.221
		c0.009-0.145-0.019-0.291-0.029-0.437c-0.521-0.088-0.653,0.335-0.878,0.568c-0.84,0.869-1.75,1.635-2.844,2.168
		c-2.009,0.979-3.034,0.523-3.589-1.694c-0.772,1.233-1.577,2.367-2.514,3.4c-0.732,0.809-1.544,1.518-2.576,1.913
		c-1.82,0.697-3.124,0.018-3.668-1.871c-0.36-1.25-0.363-2.523-0.298-3.805c0.026-0.511,0.068-1.021,0.122-1.805
		c-1.494,1.589-2.694,3.106-4.136,4.39c-1.019,0.907-2.077,1.755-3.3,2.369c-2.858,1.437-5.311-0.067-5.329-3.248
		c-0.004-0.679,0.062-1.347,0.372-1.807c-0.794,0.66-1.593,1.315-2.381,1.982c-0.642,0.544-1.278,1.08-2.132,1.282
		c-1.249,0.296-1.917-0.118-2.373-1.512C256.515,48.004,256.881,47.434,256.547,46.962z"/>
	<path fill-rule="evenodd" clip-rule="evenodd" fill="#139948" d="M434.882,32.602c1.815,0,3.438-0.002,5.062,0.001
		c0.479,0.001,0.96,0.008,1.438,0.036c0.308,0.019,0.746,0.003,0.699,0.44c-0.05,0.464-0.497,0.263-0.782,0.267
		c-2.039,0.024-4.078,0.059-6.116,0.038c-0.616-0.006-0.929,0.211-1.165,0.771c-1.92,4.544-3.407,9.21-4.084,14.114
		c-0.084,0.604-0.017,1.188,0.085,1.784c0.334,1.949,1.587,2.496,3.242,1.351c1.368-0.947,2.366-2.265,3.315-3.601
		c0.879-1.236,1.661-2.541,2.501-3.806c0.158-0.238,0.276-0.708,0.682-0.456c0.343,0.214-0.002,0.505-0.125,0.718
		c-1.193,2.077-2.285,4.219-3.885,6.037c-0.774,0.881-1.607,1.679-2.698,2.145c-1.929,0.822-3.396,0.075-3.89-1.973
		c-0.352-1.455-0.35-2.93-0.193-4.409c0.032-0.301,0.063-0.601,0.122-1.156c-1.455,1.691-2.727,3.222-4.209,4.55
		c-1.075,0.963-2.204,1.848-3.528,2.454c-2.619,1.199-4.926-0.19-5.06-3.049c-0.049-1.043,0.128-2.063,0.473-3.347
		c-1.172,0.922-2.096,1.699-3.071,2.406c-1.294,0.937-2.603,1.873-4.279,2.013c-2.06,0.172-3.267-0.918-3.343-2.971
		c-0.028-0.76,0.145-1.494,0.266-2.524c-1.829,1.158-3.472,2.189-5.104,3.237c-0.373,0.238-0.373,0.682-0.489,1.06
		c-1.304,4.261-3.038,8.327-5.468,12.077c-1.008,1.557-2.184,2.964-3.731,4.014c-0.425,0.289-0.888,0.547-1.368,0.727
		c-2.148,0.805-3.771-0.354-3.731-2.669c0.03-1.724,0.625-3.276,1.545-4.721c2.017-3.166,4.838-5.508,7.83-7.675
		c0.647-0.469,1.269-1.016,1.986-1.335c1.898-0.846,2.442-2.457,2.682-4.307c0.068-0.523,0.045-0.751-0.59-0.576
		c-1.067,0.293-2.168,0.219-3.186-0.165c-0.743-0.281-0.951,0.001-1.214,0.605c-0.625,1.438-1.432,2.767-2.598,3.849
		c-0.563,0.522-1.184,0.94-1.907,1.212c-1.302,0.489-1.967,0.206-2.408-1.081c-0.128-0.374-0.204-0.773-0.25-1.168
		c-0.042-0.353-0.009-0.714-0.009-1.114c-0.619-0.04-0.822,0.475-1.126,0.779c-0.992,0.994-2.002,1.965-3.266,2.606
		c-0.765,0.389-1.587,0.646-2.391,0.119c-0.802-0.526-0.742-1.387-0.633-2.174c0.108-0.784,0.328-1.563,0.581-2.315
		c0.222-0.656,0.637-1.182-0.142-1.857c-0.547-0.474,0.321-1.947,1.09-1.983c0.315-0.015,0.677,0.135,0.629,0.406
		c-0.199,1.133,0.665,2.246-0.101,3.425c-0.508,0.781-0.688,1.776-1.003,2.681c-0.153,0.44-0.164,0.906,0.215,1.22
		c0.388,0.32,0.828,0.14,1.242-0.042c0.934-0.41,1.694-1.062,2.405-1.764c1.506-1.486,2.979-2.989,4.168-4.773
		c0.979-1.467,2.321-2.545,4.272-2.438c1.481,0.081,2.013,0.499,1.865,1.953c-0.101,0.993,0.389,1.193,1.082,1.345
		c0.426,0.093,0.872,0.113,1.311,0.124c1.999,0.048,2.185-0.125,2.274-2.07c0.01-0.2,0.027-0.399,0.037-0.599
		c0.024-0.459,0.199-0.777,0.722-0.749c0.524,0.028,0.674,0.397,0.658,0.829c-0.048,1.28-0.244,2.542-0.515,3.793
		c-0.108,0.499-0.222,0.998-0.362,1.631c1.877-1.08,3.686-2.005,5.354-3.135c0.722-0.489,1.148-1.408,1.722-2.122
		c0.633-0.786,1.45-1.252,2.467-1.299c1.022-0.047,1.56,0.548,1.455,1.568c-0.217,2.126-2.37,3.689-4.457,3.203
		c-0.257-0.06-0.317-0.007-0.44,0.18c-0.572,0.864-0.5,2.751,0.191,3.535c0.555,0.629,1.259,0.756,2.073,0.569
		c2.149-0.494,3.774-1.874,5.415-3.203c1.304-1.056,2.459-2.232,3.28-3.761c0.972-1.809,2.37-3.305,4.082-4.482
		c0.682-0.469,1.416-0.725,2.065-0.085c0.679,0.668,0.32,1.404-0.14,2.058c-0.551,0.786-1.124,1.555-1.864,2.181
		c-0.294,0.249-0.591,0.457-0.914,0.049c-0.296-0.374-0.123-0.631,0.188-0.91c0.563-0.506,1.123-1.025,1.621-1.595
		c0.288-0.33,0.933-0.772,0.519-1.17c-0.494-0.476-0.902,0.242-1.24,0.551c-1.795,1.644-3.065,3.67-4.114,5.846
		c-0.594,1.231-1.033,2.512-1.199,3.875c-0.132,1.077-0.059,2.134,0.895,2.82c0.966,0.697,1.994,0.367,2.954-0.106
		c1.827-0.9,3.201-2.365,4.638-3.756c2.15-2.081,3.909-4.309,4.438-7.433c0.328-1.94,1.23-3.788,1.925-5.658
		c0.253-0.681,0.079-0.831-0.594-0.789c-2.631,0.163-5.264,0.302-7.896,0.425c-0.464,0.021-1.215,0.32-1.223-0.479
		c-0.009-0.781,0.768-0.515,1.226-0.533c2.675-0.106,5.352-0.204,8.028-0.237c0.837-0.011,1.266-0.303,1.582-1.084
		c0.463-1.143,1.07-2.229,1.648-3.322c0.159-0.3,0.359-0.702,0.802-0.582c0.444,0.12,0.552,0.536,0.593,0.951
		c0.067,0.697-0.072,1.346-0.427,1.957C435.64,31.185,435.314,31.811,434.882,32.602z"/>
	<path fill-rule="evenodd" clip-rule="evenodd" fill="#139948" d="M367.169,30.939c1.506-2.69,3.08-5.339,5.349-7.473
		c1.264-1.188,2.652-2.191,4.531-2.149c1.609,0.037,2.747,0.751,3.355,2.246c0.974,2.396,0.76,4.864,0.355,7.323
		c-0.332,2.017-1.013,3.941-1.745,5.843c-0.235,0.612-0.431,1.141,0.481,1.333c0.275,0.059,0.541,0.247,0.372,0.606
		c-0.124,0.262-0.419,0.298-0.622,0.184c-0.934-0.524-1.207,0.094-1.585,0.777c-1.656,2.996-3.633,5.747-6.427,7.805
		c-1.452,1.07-3.018,1.824-4.907,1.291c-1.885-0.531-2.872-2.329-2.31-4.204c0.623-2.078,2.145-3.458,3.815-4.635
		c2.572-1.812,5.414-2.9,8.648-2.564c0.362,0.038,0.689,0.101,0.863-0.382c1.375-3.815,2.516-7.684,2.101-11.799
		c-0.254-2.519-1.869-3.357-4.161-2.301c-1.688,0.778-2.893,2.121-3.991,3.553c-3.593,4.681-5.918,10.022-7.981,15.492
		c-2.021,5.355-3.639,10.823-4.385,16.517c-0.108,0.83-0.128,1.673-0.162,2.51c-0.026,0.647-0.123,1.266-0.934,1.26
		c-0.862-0.006-0.718-0.714-0.703-1.245c0.131-4.747,1.087-9.362,2.421-13.892c2.643-8.974,5.789-17.761,10.086-26.099
		c0.238-0.461,0.492-0.916,0.769-1.354c0.208-0.33,0.422-0.764,0.927-0.43c0.404,0.268,0.232,0.629,0.061,0.954
		c-1.429,2.687-2.453,5.548-3.6,8.355c-0.302,0.738-0.572,1.489-0.856,2.234C366.854,30.93,366.892,31.05,367.169,30.939z"/>
	<path fill-rule="evenodd" clip-rule="evenodd" fill="#139A48" d="M194.802,56.33c-0.258,0.411-0.634,0.238-0.97,0.196
		c-1.552-0.191-3.109-0.197-4.668-0.135c-0.664,0.025-1.35-0.081-1.615,0.833c-0.107,0.37-0.648,0.519-0.775,0.005
		c-0.173-0.699-0.546-0.525-0.973-0.41c-1.309,0.353-2.619,0.703-3.927,1.06c-0.399,0.109-0.876,0.465-1.036-0.253
		c-0.133-0.597,0.087-0.984,0.762-1.083c1.422-0.208,2.833-0.496,4.257-0.676c0.742-0.094,1.049-0.345,1.169-1.15
		c0.835-5.64,2.878-10.947,4.583-16.349c0.9-2.854,1.86-5.702,1.832-8.753c-0.024-2.58-0.879-3.533-3.462-3.752
		c-2.26-0.191-4.563,0.018-6.762-0.729c-0.352-0.12-0.907-0.052-0.927-0.578c-0.021-0.525,0.462-0.688,0.887-0.836
		c2.893-1.015,5.914-1.317,8.938-1.584c5.337-0.471,10.688-0.6,16.043-0.572c0.3,0.001,0.625-0.063,0.966,0.252
		c-0.669,0.496-1.392,0.33-2.052,0.362c-1.955,0.095-3.911,0.159-5.868,0.193c-0.861,0.015-1.31,0.318-1.622,1.196
		c-1.419,3.985-2.75,8.05-4.768,11.75c-3.074,5.635-4.563,11.76-6.275,17.833c-0.644,2.287-0.57,2.29,1.801,2.433
		c1.234,0.074,2.465,0.218,3.696,0.344C194.329,55.957,194.687,55.911,194.802,56.33z"/>
	<path fill-rule="evenodd" clip-rule="evenodd" fill="#139A48" d="M331.738,32.602c2.015,0,3.813-0.002,5.609,0.001
		c0.319,0,0.64,0.015,0.959,0.036c0.316,0.021,0.721,0.032,0.67,0.468c-0.045,0.388-0.438,0.244-0.695,0.245
		c-1.559,0.009-3.117,0-4.677,0.008c-2.434,0.013-2.458,0.006-3.317,2.223c-1.604,4.142-2.96,8.354-3.479,12.794
		c-0.063,0.53,0.001,1.034,0.059,1.548c0.233,2.058,1.512,2.652,3.248,1.478c1.381-0.935,2.382-2.251,3.313-3.597
		c1.068-1.543,2.012-3.171,3.056-4.731c1.085-1.624,2.417-2.896,4.574-2.773c1.462,0.083,1.923,0.433,1.82,1.868
		c-0.083,1.162,0.548,1.354,1.38,1.483c1.147,0.178,2.287,0.012,3.609-0.318c-0.521,0.981-1.275,0.951-1.94,1.049
		c-0.391,0.058-0.854,0.125-1.188-0.026c-1.874-0.846-2.559,0.194-3.236,1.729c-0.648,1.466-1.741,2.677-3.226,3.438
		c-1.817,0.933-2.649,0.558-3.117-1.408c-0.071-0.296-0.123-0.597-0.214-1.046c-0.965,1.478-1.879,2.828-3.046,3.979
		c-0.691,0.682-1.452,1.248-2.396,1.538c-1.663,0.512-2.819-0.069-3.35-1.735c-0.795-2.497-0.359-4.988,0.108-7.468
		c0.58-3.075,1.63-6.008,2.778-8.905c0.302-0.76,0.293-1.061-0.68-0.987c-2.627,0.198-5.261,0.313-7.894,0.434
		c-0.384,0.018-0.991,0.253-1.03-0.442c-0.042-0.781,0.633-0.573,1.053-0.589c2.675-0.102,5.352-0.215,8.028-0.231
		c0.935-0.005,1.42-0.307,1.763-1.186c0.433-1.11,1.034-2.157,1.598-3.214c0.159-0.3,0.369-0.699,0.799-0.602
		c0.44,0.1,0.574,0.509,0.639,0.922c0.103,0.662-0.066,1.265-0.385,1.84C332.568,31.079,332.211,31.739,331.738,32.602z"/>
	<path fill-rule="evenodd" clip-rule="evenodd" fill="#189B47" d="M400.672,38.222c0.102-0.562,0.173-1.231,0.919-1.315
		c0.521-0.058,0.911,0.269,0.913,0.859c0.003,0.734-0.362,1.225-1.093,1.333C400.803,39.191,400.715,38.721,400.672,38.222z"/>
	<path fill-rule="evenodd" clip-rule="evenodd" fill="#179B47" d="M287.979,39.204c0.093-0.496,0.243-1.12,1.002-1.13
		c0.542-0.007,0.891,0.348,0.813,0.937c-0.091,0.691-0.457,1.242-1.188,1.262C288.072,40.288,287.944,39.799,287.979,39.204z"/>
	<path fill-rule="evenodd" clip-rule="evenodd" fill="#B0D42E" d="M256.547,46.962c0.064-0.207,0.213-0.276,0.233-0.021
		c0.04,0.512-0.007,1.031-0.018,1.548C256.416,48.019,256.583,47.476,256.547,46.962z"/>
	<path fill-rule="evenodd" clip-rule="evenodd" fill="#D5E228" d="M219.847,45.123c0.125-0.358,0.229-0.73,0.625-0.952
		c0.146,0.427-0.123,0.681-0.314,0.96C220.054,45.129,219.95,45.126,219.847,45.123z"/>
	<path fill-rule="evenodd" clip-rule="evenodd" fill="#BED92C" d="M209.294,45.37c0.088-0.127,0.159-0.341,0.268-0.363
		c0.228-0.046,0.207,0.187,0.185,0.321c-0.045,0.268-0.128,0.528-0.196,0.792C209.472,45.868,209.529,45.569,209.294,45.37z"/>
	<path fill-rule="evenodd" clip-rule="evenodd" fill="#AED32E" d="M367.169,30.939c-0.061,0.221-0.213,0.598-0.348,0.507
		c-0.333-0.225-0.076-0.516,0.113-0.752C367.013,30.776,367.091,30.858,367.169,30.939z"/>
	<path fill-rule="evenodd" clip-rule="evenodd" fill="#F7EE22" d="M244.804,41.756c0.563-1.346,1.06-2.725,1.701-4.032
		c1.511-3.082,3.22-6.052,5.302-8.791c0.507-0.667,1.039-1.327,1.763-1.771c0.938-0.576,1.646-0.23,1.779,0.857
		c0.095,0.775-0.104,1.513-0.431,2.204c-2.249,4.764-5.853,8.376-9.803,11.694C245.011,41.864,244.908,41.81,244.804,41.756z"/>
	<path fill-rule="evenodd" clip-rule="evenodd" fill="#F6EE22" d="M232.982,41.096c-0.043,0.658-0.03,1.333,0.409,1.904
		c0.166,0.215,0.138,0.448,0.046,0.677c-0.806,2.018-1.8,3.917-3.667,5.166c-1.054,0.706-1.786,0.321-1.876-0.901
		c-0.171-2.304,2.08-5.898,4.227-6.758C232.384,41.079,232.641,40.992,232.982,41.096z"/>
	<path fill-rule="evenodd" clip-rule="evenodd" fill="#F6EE22" d="M293.185,47.497c0.375-2.482,1.529-4.638,3.792-6.092
		c0.65-0.418,1.064-0.742,1.397,0.596c0.808,3.251-1.364,4.862-3.161,6.737c-0.345,0.359-0.884,0.637-1.425,0.363
		C293.199,48.804,293.203,48.204,293.185,47.497z"/>
	<path fill-rule="evenodd" clip-rule="evenodd" fill="#F5ED22" d="M238.947,46.991c0.206-1.357,0.515-2.618,1.619-3.514
		c0.38-0.309,0.78-0.561,1.291-0.509c0.641,0.064,1.118,0.205,0.611,1.015c-0.736,1.176-1.379,2.413-2.307,3.458
		c-0.224,0.252-0.448,0.67-0.846,0.539C238.837,47.823,239.032,47.311,238.947,46.991z"/>
	<path fill-rule="evenodd" clip-rule="evenodd" fill="#F7EE22" d="M387.164,62.923c0.226-1.852,0.878-3.573,2.051-5.108
		c2.538-3.323,5.856-5.748,9.232-8.111c0.151-0.106,0.396-0.242,0.522-0.188c0.279,0.118,0.16,0.407,0.093,0.622
		c-1.465,4.683-3.365,9.142-6.725,12.826c-0.731,0.803-1.624,1.42-2.657,1.797C388.164,65.313,387.162,64.596,387.164,62.923z"/>
	<path fill-rule="evenodd" clip-rule="evenodd" fill="#F6EE22" d="M389.284,47.267c0.402-2.306,1.569-4.499,3.905-5.935
		c0.577-0.355,0.897-0.586,1.229,0.579c0.932,3.268-1.286,4.875-3.047,6.772c-0.369,0.398-0.928,0.705-1.521,0.402
		C389.256,48.78,389.275,48.182,389.284,47.267z"/>
	<path fill-rule="evenodd" clip-rule="evenodd" fill="#F3ED22" d="M408.96,44.419c-0.935,0.004-1.224-0.459-0.75-1.247
		c0.562-0.934,1.223-1.773,2.284-2.197c0.368-0.147,0.73-0.142,1.006,0.127c0.26,0.254,0.141,0.597,0.038,0.904
		C411.131,43.229,409.861,44.415,408.96,44.419z"/>
	<path fill-rule="evenodd" clip-rule="evenodd" fill="#F7EE22" d="M376.844,38.21c-1.807,3.646-3.891,6.767-7.216,8.864
		c-1.567,0.988-3.28,0.977-4.119,0.09c-0.917-0.969-0.858-2.415,0.405-4.029C368.62,39.681,372.119,37.849,376.844,38.21z"/>
	<path fill-rule="evenodd" clip-rule="evenodd" fill="#F6EE22" d="M194.144,30.927c-0.134-4.437-0.917-5.317-5.367-6.024
		c-0.816-0.13-1.636-0.242-2.812-0.414c1.635-0.542,2.979-0.689,4.305-0.898c1.337-0.209,2.683-0.373,4.028-0.53
		c1.378-0.162,2.759-0.293,4.347-0.459c-1.566,3.085-3.024,6.028-4.311,9.049C193.845,31.521,194.063,31.206,194.144,30.927z"/>
	<path fill-rule="evenodd" clip-rule="evenodd" fill="#DBE427" d="M194.144,30.927c0.064,0.241,0.128,0.482,0.191,0.724
		c-0.071,0.199-0.069,0.44-0.378,0.588C193.909,31.756,193.938,31.333,194.144,30.927z"/>
	<path fill-rule="evenodd" clip-rule="evenodd" fill="#F6EE22" d="M335.983,47.53c0.371-2.466,1.539-4.683,3.882-6.162
		c0.598-0.377,1.202-0.756,1.267,0.597c0.042,0.888,0.597,1.688,0.061,2.671c-0.865,1.584-1.739,3.132-3.261,4.187
		c-0.392,0.271-0.836,0.529-1.331,0.275C336.066,48.822,336.017,48.29,335.983,47.53z"/>
</g>
</svg>
