<?xml version="1.0" encoding="utf-8"?>
<!-- Generator: Adobe Illustrator 16.0.0, SVG Export Plug-In . SVG Version: 6.00 Build 0)  -->
<!DOCTYPE svg PUBLIC "-//W3C//DTD SVG 1.1//EN" "http://www.w3.org/Graphics/SVG/1.1/DTD/svg11.dtd" [
	<!ENTITY ns_flows "http://ns.adobe.com/Flows/1.0/">
	<!ENTITY ns_extend "http://ns.adobe.com/Extensibility/1.0/">
	<!ENTITY ns_ai "http://ns.adobe.com/AdobeIllustrator/10.0/">
	<!ENTITY ns_graphs "http://ns.adobe.com/Graphs/1.0/">
]>
<svg version="1.1" id="Layer_1" xmlns:x="&ns_extend;" xmlns:i="&ns_ai;" xmlns:graph="&ns_graphs;"
	 xmlns="http://www.w3.org/2000/svg" xmlns:xlink="http://www.w3.org/1999/xlink" xmlns:a="http://ns.adobe.com/AdobeSVGViewerExtensions/3.0/"
	 x="0px" y="0px" width="612px" height="88.08px" viewBox="0 0 612 88.08" enable-background="new 0 0 612 88.08"
	 xml:space="preserve">
<g>
	<path fill="#FFFFFF" d="M0.24,88.08c0-28.92,0.004-57.84-0.023-86.76C0.216,0.42,0.42,0.218,1.32,0.218
		C204.96,0.241,408.601,0.24,612.24,0.24c0.222,0.415,0.11,0.864,0.11,1.295c0.008,28.419,0.007,56.839,0.003,85.258
		c0,0.437,0.07,0.88-0.074,1.31c-0.226,0.213-0.511,0.205-0.789,0.213c-0.48,0.011-0.96,0.004-1.44,0.004
		c-202.521,0-405.045,0.002-607.568-0.01C1.734,88.31,0.949,88.517,0.24,88.08z"/>
	<path fill="#FEFEFE" d="M612.206,88.067c0.012-0.521,0.033-1.039,0.033-1.56c0.001-28.756,0.001-57.512,0.001-86.269
		c0.502,0.266,0.225,0.728,0.226,1.08c0.018,16.437,0.016,32.875,0.016,49.312c0,12.277-0.011,24.556,0.021,36.833
		c0.002,0.873-0.151,1.121-1.086,1.12c-36.194-0.028-72.388-0.024-108.582-0.024c-167.171,0-334.343,0-501.514-0.016
		c-0.351,0-0.813,0.277-1.08-0.225c0.537-0.241,1.104-0.112,1.655-0.112c202.888-0.007,405.775-0.006,608.663-0.015
		C611.106,88.192,611.676,88.338,612.206,88.067z"/>
	<path fill="#F9F259" d="M612.206,88.067c-0.394,0.521-0.95,0.238-1.416,0.238c-104.158,0.014-208.316,0.014-312.475,0.014
		c-99.358,0-198.717,0-298.075,0c0-0.079,0-0.159,0-0.239c203.469,0,406.938,0,610.406-0.001
		C611.167,88.079,611.688,88.071,612.206,88.067z"/>
	<path fill="#139948" d="M256.547,46.962c-0.376,0.463-0.734,0.941-1.134,1.385c-0.634,0.701-1.339,1.318-2.387,0.99
		c-0.987-0.311-1.294-1.105-1.303-2.234c-1.025,1.404-1.848,2.771-3.017,3.855c-0.703,0.652-1.409,1.305-2.348,1.616
		c-1.757,0.585-2.964-0.05-3.499-1.827c-0.256-0.854-0.275-1.736-0.317-2.611c-0.042-0.876-0.01-1.755-0.01-2.711
		c-0.549,0.794-1.059,1.594-1.634,2.344c-0.467,0.61-1.054,1.244-1.898,0.95c-0.907-0.313-0.887-1.229-0.948-2.028
		c-0.059-0.775,0.274-1.479,0.477-2.271c-1.227-0.047-2.437,0.063-3.566-0.419c-0.524-0.224-0.6,0.21-0.742,0.522
		c-0.562,1.244-1.219,2.426-2.13,3.455c-0.645,0.729-1.381,1.325-2.279,1.713c-1.52,0.656-2.332,0.25-2.726-1.377
		c-0.166-0.688-0.085-1.396-0.026-2.354c-1.158,1.069-1.982,2.095-3.028,2.877c-0.676,0.506-1.358,0.999-2.176,1.233
		c-1.457,0.419-2.359-0.271-2.358-1.783c0-1.096,0.365-2.119,0.66-3.155c-0.099-0.187-0.205-0.093-0.311-0.008
		c-1.104,1.699-2.001,3.534-3.365,5.063c-0.748,0.84-1.516,1.641-2.543,2.138c-2.127,1.028-3.665,0.261-4.181-2.038
		c-0.31-1.383-0.225-2.773-0.208-4.166c0.005-0.281,0.378-0.688-0.256-0.75c-1.041,1.199-1.849,2.609-3.31,3.419
		c-1.545,0.854-2.487,0.508-2.925-1.224c-0.224-0.885-0.302-1.808-0.466-2.709c-0.074-0.402,0.144-0.988-0.407-1.136
		c-0.465-0.125-0.787,0.322-1.095,0.622c-1.729,1.687-3.098,3.647-4.365,5.694c-0.277,0.447-0.312,1.421-1.083,1.158
		c-0.833-0.283-0.351-1.135-0.232-1.693c0.633-2.979,1.728-5.81,2.883-8.617c0.163-0.396,0.368-0.897,0.942-0.661
		c0.564,0.232,0.393,0.707,0.214,1.125c-0.714,1.673-1.344,3.375-1.851,5.168c0.615,0.004,0.763-0.479,1.021-0.791
		c0.742-0.893,1.487-1.776,2.377-2.531c0.592-0.501,1.253-0.735,1.996-0.445c0.724,0.283,0.741,0.967,0.804,1.61
		c0.096,0.993,0.146,1.997,0.317,2.978c0.213,1.231,0.775,1.521,1.702,0.749c2.027-1.689,3.944-3.496,4.566-6.244
		c0.566-2.499,1.458-4.896,2.405-7.271c0.328-0.821,0.385-1.137-0.746-1.076c-2.592,0.139-5.188,0.223-7.778,0.423
		c-0.431,0.033-1.091,0.236-1.093-0.515c-0.002-0.649,0.618-0.5,1.019-0.514c2.755-0.097,5.511-0.193,8.268-0.241
		c0.764-0.013,1.216-0.208,1.514-0.992c0.423-1.114,1.014-2.168,1.579-3.223c0.192-0.357,0.385-0.912,0.935-0.753
		c0.545,0.158,0.556,0.705,0.587,1.197c0.07,1.082-0.567,1.884-1.048,2.752c-0.134,0.243-0.249,0.496-0.371,0.741
		c0.229,0.391,0.586,0.216,0.871,0.22c1.799,0.026,3.599,0.017,5.398,0.043c0.327,0.005,0.843-0.06,0.791,0.463
		c-0.046,0.451-0.509,0.242-0.795,0.246c-1.999,0.026-3.998,0.073-5.995,0.034c-0.729-0.014-1.063,0.263-1.328,0.901
		c-1.828,4.406-3.279,8.917-3.98,13.651c-0.119,0.811-0.067,1.59,0.073,2.381c0.268,1.513,1.172,2.021,2.604,1.426
		c0.909-0.379,1.573-1.084,2.218-1.797c1.563-1.729,2.796-3.692,4.032-5.654c0.223-0.353,0.298-0.711,0.299-1.126
		c0.001-0.642,0.304-1.156,0.88-1.463c0.4-0.213,1.052-0.113,0.962,0.254c-0.273,1.126,0.754,2.189-0.059,3.364
		c-0.571,0.826-0.902,1.871-1.054,2.908c-0.165,1.123,0.341,1.512,1.394,1.075c1.404-0.583,2.425-1.683,3.459-2.729
		c1.148-1.162,2.222-2.389,3.141-3.764c1.063-1.591,2.481-2.641,4.591-2.513c1.226,0.074,1.696,0.685,1.573,1.735
		c-0.143,1.226,0.52,1.543,1.493,1.634c1.37,0.128,2.696,0.143,3.849-0.858c0.621-0.539,1.472-0.753,2.263-0.466
		c0.792,0.287,0.957-0.087,1.143-0.701c1.574-5.195,4.515-9.58,8.116-13.563c0.639-0.707,1.266-1.444,2.259-1.712
		c1.102-0.298,1.788,0.084,2.014,1.206c0.266,1.315-0.059,2.549-0.642,3.711c-2.342,4.67-5.769,8.418-9.96,11.476
		c-0.714,0.521-1.061,1.084-1.218,1.919c-0.319,1.694-0.651,3.383-0.401,5.113c0.314,2.182,1.542,2.718,3.354,1.479
		c0.798-0.546,1.501-1.203,2.076-1.979c1.477-1.987,2.983-3.958,4.024-6.228c0.222-0.484,0.464-1.043,1.129-0.736
		c0.634,0.292,0.294,0.825,0.121,1.247c-0.485,1.18-1.117,2.298-1.426,3.551c-0.135,0.547-0.396,1.145,0.25,1.496
		c0.608,0.332,1.051-0.131,1.462-0.516c0.974-0.912,1.695-2.016,2.379-3.146c0.331-0.546,0.667-1.09,1.003-1.633
		c0.209-0.338,0.494-0.547,0.899-0.371c0.51,0.222,0.402,0.636,0.238,1.016c-0.522,1.21-1.027,2.43-1.312,3.721
		c-0.119,0.537-0.256,1.121,0.329,1.522c0.539,0.371,1.016,0.071,1.442-0.203c2.162-1.399,3.772-3.327,4.98-5.565
		c1.195-2.213,2.646-4.186,4.678-5.691c0.314-0.233,0.678-0.45,1.051-0.538c0.466-0.11,0.974-0.078,1.314,0.36
		c0.353,0.455,0.398,0.955,0.101,1.455c-0.574,0.965-1.235,1.867-2.072,2.623c-0.285,0.257-0.614,0.641-1.004,0.18
		c-0.339-0.402-0.079-0.705,0.247-1.01c0.613-0.572,1.208-1.165,1.766-1.79c0.217-0.243,0.611-0.583,0.286-0.928
		c-0.349-0.371-0.65,0.081-0.896,0.274c-1.079,0.849-1.938,1.908-2.684,3.048c-1.451,2.218-2.732,4.509-2.98,7.231
		c-0.213,2.345,1.251,3.505,3.43,2.646c0.934-0.367,1.783-0.912,2.53-1.583c0.951-0.854,1.863-1.752,2.795-2.627
		c2.107-1.977,3.633-4.215,4.148-7.186c0.33-1.899,1.213-3.709,1.905-5.538c0.271-0.716,0.134-0.937-0.627-0.891
		c-2.551,0.155-5.104,0.277-7.656,0.414c-0.12,0.006-0.24,0.048-0.357,0.037c-0.399-0.038-0.984,0.212-1.04-0.461
		c-0.057-0.696,0.554-0.563,0.949-0.578c2.635-0.098,5.272-0.235,7.907-0.222c1.119,0.005,1.744-0.311,2.135-1.385
		c0.379-1.043,0.955-2.018,1.479-3.004c0.161-0.302,0.382-0.724,0.788-0.621c0.458,0.118,0.615,0.546,0.662,1.027
		c0.092,0.943-0.345,1.702-0.778,2.468c-0.818,1.447-0.82,1.445,0.882,1.446c1.479,0.001,2.96-0.016,4.438,0.016
		c0.408,0.009,1.112-0.115,1.11,0.404c-0.002,0.643-0.677,0.29-1.051,0.299c-1.998,0.046-3.998,0.074-5.996,0.066
		c-0.521-0.002-0.793,0.185-0.99,0.648c-1.886,4.426-3.346,8.979-4.068,13.745c-0.112,0.74-0.083,1.521,0,2.271
		c0.205,1.856,1.456,2.463,3.051,1.479c1.461-0.899,2.462-2.271,3.45-3.625c1.13-1.549,2.213-3.135,3.013-4.891
		c0.206-0.45,0.413-0.965,1.026-0.727c0.673,0.261,0.346,0.795,0.175,1.218c-0.494,1.219-1.142,2.376-1.455,3.67
		c-0.115,0.478-0.272,0.945,0.162,1.336c0.453,0.408,0.955,0.166,1.345-0.053c2.404-1.353,4.373-3.19,5.945-5.46
		c1.143-1.65,2.521-2.833,4.737-2.707c1.222,0.07,1.701,0.668,1.569,1.733c-0.153,1.235,0.533,1.529,1.501,1.636
		c0.357,0.04,0.719,0.035,1.078,0.059c1.295,0.083,2.263-0.278,2.523-1.731c0.068-0.384,0.279-0.746,0.451-1.106
		c0.186-0.389,0.349-0.906,0.934-0.659c0.552,0.233,0.411,0.703,0.225,1.127c-0.728,1.645-1.3,3.347-1.848,5.056
		c-0.056,0.174-0.09,0.354-0.206,0.813c1.238-1.429,2.144-2.743,3.34-3.801c0.67-0.592,1.38-1.034,2.271-0.658
		c0.803,0.339,0.745,1.143,0.805,1.859c0.066,0.797,0.124,1.596,0.239,2.386c0.078,0.536,0.056,1.21,0.691,1.418
		c0.599,0.195,1.074-0.249,1.485-0.61c1.053-0.927,1.942-2.006,2.825-3.096c0.355-0.438,0.548-1.488,1.244-1.098
		c0.37,0.208-0.456,0.93-0.784,1.371c-1.045,1.4-1.964,2.926-3.566,3.824c-1.481,0.83-2.448,0.484-2.869-1.166
		c-0.234-0.924-0.313-1.886-0.479-2.826c-0.067-0.377,0.104-0.899-0.333-1.081c-0.48-0.199-0.808,0.253-1.111,0.542
		c-1.809,1.724-3.229,3.748-4.492,5.89c-0.081,0.139-0.144,0.285-0.229,0.421c-0.196,0.316-0.27,0.856-0.826,0.632
		c-0.448-0.181-0.425-0.586-0.35-1.021c0.28-1.619,0.783-3.175,1.281-4.733c0.117-0.367,0.387-0.703,0.268-1.189
		c-1.268,0.197-2.537,0.208-3.753-0.257c-0.69-0.264-0.707,0.292-0.877,0.653c-0.703,1.493-1.5,2.934-2.783,4.004
		c-0.948,0.788-2.046,1.766-3.313,1.133c-1.214-0.606-1.117-2-1.037-3.222c0.009-0.146-0.019-0.291-0.029-0.437
		c-0.521-0.088-0.653,0.335-0.878,0.568c-0.84,0.868-1.75,1.635-2.844,2.168c-2.009,0.979-3.034,0.522-3.589-1.695
		c-0.772,1.234-1.577,2.367-2.514,3.4c-0.732,0.809-1.544,1.519-2.576,1.913c-1.82,0.697-3.124,0.019-3.668-1.87
		c-0.36-1.25-0.363-2.523-0.298-3.806c0.026-0.511,0.068-1.021,0.122-1.806c-1.494,1.59-2.694,3.106-4.136,4.391
		c-1.019,0.907-2.077,1.755-3.3,2.369c-2.858,1.438-5.311-0.067-5.329-3.248c-0.004-0.68,0.062-1.348,0.372-1.807
		c-0.794,0.66-1.593,1.314-2.381,1.981c-0.642,0.544-1.278,1.08-2.132,1.282c-1.249,0.296-1.917-0.118-2.373-1.512
		C256.515,48.004,256.881,47.435,256.547,46.962z"/>
	<path fill="#139948" d="M434.882,32.602c1.815,0,3.438-0.002,5.063,0.001c0.479,0.001,0.96,0.008,1.438,0.036
		c0.309,0.019,0.746,0.003,0.699,0.44c-0.05,0.464-0.497,0.263-0.782,0.267c-2.039,0.024-4.078,0.059-6.116,0.038
		c-0.615-0.006-0.929,0.211-1.165,0.771c-1.92,4.544-3.406,9.21-4.084,14.114c-0.084,0.604-0.017,1.188,0.085,1.784
		c0.334,1.949,1.587,2.496,3.242,1.351c1.368-0.946,2.366-2.264,3.315-3.601c0.879-1.235,1.661-2.54,2.501-3.806
		c0.158-0.238,0.275-0.708,0.682-0.456c0.343,0.214-0.002,0.505-0.125,0.718c-1.192,2.077-2.285,4.219-3.885,6.037
		c-0.774,0.881-1.607,1.68-2.698,2.145c-1.929,0.822-3.396,0.076-3.89-1.973c-0.353-1.455-0.351-2.93-0.193-4.408
		c0.032-0.302,0.063-0.602,0.122-1.156c-1.455,1.69-2.727,3.222-4.209,4.55c-1.075,0.963-2.204,1.848-3.528,2.454
		c-2.618,1.199-4.926-0.19-5.06-3.049c-0.049-1.043,0.128-2.063,0.473-3.348c-1.172,0.922-2.096,1.699-3.07,2.406
		c-1.294,0.938-2.604,1.873-4.279,2.014c-2.061,0.172-3.268-0.919-3.343-2.972c-0.028-0.76,0.145-1.494,0.266-2.524
		c-1.829,1.158-3.472,2.189-5.104,3.237c-0.373,0.238-0.373,0.683-0.489,1.06c-1.304,4.262-3.038,8.328-5.468,12.078
		c-1.009,1.557-2.185,2.963-3.731,4.014c-0.425,0.289-0.888,0.547-1.368,0.727c-2.147,0.805-3.771-0.354-3.73-2.669
		c0.029-1.724,0.625-3.276,1.545-4.721c2.017-3.166,4.838-5.509,7.83-7.675c0.646-0.469,1.269-1.017,1.985-1.336
		c1.898-0.846,2.442-2.457,2.683-4.307c0.067-0.523,0.045-0.751-0.59-0.576c-1.067,0.292-2.168,0.219-3.187-0.165
		c-0.743-0.281-0.951,0.001-1.214,0.605c-0.625,1.438-1.432,2.767-2.598,3.849c-0.563,0.522-1.185,0.94-1.907,1.213
		c-1.302,0.488-1.967,0.205-2.408-1.082c-0.128-0.373-0.204-0.772-0.25-1.168c-0.042-0.353-0.009-0.713-0.009-1.113
		c-0.619-0.04-0.822,0.475-1.126,0.779c-0.992,0.993-2.002,1.965-3.267,2.605c-0.765,0.389-1.587,0.646-2.391,0.119
		c-0.802-0.526-0.742-1.387-0.633-2.174c0.107-0.784,0.328-1.563,0.581-2.315c0.222-0.655,0.637-1.182-0.143-1.857
		c-0.547-0.474,0.321-1.947,1.091-1.983c0.314-0.015,0.677,0.135,0.629,0.406c-0.199,1.133,0.665,2.246-0.102,3.425
		c-0.508,0.781-0.688,1.775-1.003,2.681c-0.153,0.44-0.164,0.906,0.215,1.22c0.389,0.32,0.828,0.141,1.242-0.041
		c0.935-0.41,1.694-1.063,2.405-1.765c1.506-1.485,2.979-2.989,4.168-4.773c0.979-1.467,2.321-2.545,4.271-2.438
		c1.481,0.081,2.014,0.499,1.865,1.953c-0.101,0.993,0.39,1.193,1.082,1.345c0.426,0.093,0.872,0.113,1.312,0.124
		c1.999,0.048,2.185-0.125,2.273-2.07c0.01-0.2,0.027-0.399,0.037-0.599c0.024-0.459,0.199-0.777,0.722-0.749
		c0.524,0.028,0.675,0.397,0.658,0.829c-0.048,1.28-0.244,2.542-0.515,3.793c-0.108,0.499-0.223,0.998-0.362,1.631
		c1.877-1.08,3.687-2.005,5.354-3.135c0.722-0.489,1.147-1.408,1.722-2.122c0.633-0.786,1.45-1.252,2.467-1.299
		c1.022-0.047,1.561,0.548,1.455,1.568c-0.217,2.126-2.37,3.689-4.457,3.203c-0.257-0.06-0.317-0.007-0.44,0.181
		c-0.571,0.864-0.5,2.751,0.191,3.534c0.555,0.629,1.259,0.756,2.073,0.569c2.148-0.493,3.773-1.874,5.415-3.202
		c1.304-1.057,2.459-2.232,3.279-3.762c0.973-1.809,2.37-3.305,4.082-4.482c0.683-0.469,1.416-0.725,2.065-0.085
		c0.679,0.668,0.32,1.404-0.14,2.058c-0.552,0.786-1.124,1.555-1.864,2.181c-0.294,0.249-0.591,0.457-0.914,0.049
		c-0.296-0.374-0.123-0.631,0.188-0.91c0.563-0.506,1.123-1.025,1.621-1.595c0.288-0.33,0.934-0.771,0.52-1.17
		c-0.494-0.476-0.902,0.242-1.24,0.551c-1.795,1.644-3.064,3.67-4.114,5.846c-0.594,1.23-1.032,2.512-1.198,3.875
		c-0.133,1.076-0.06,2.134,0.895,2.82c0.966,0.696,1.994,0.366,2.954-0.106c1.827-0.9,3.201-2.365,4.638-3.757
		c2.15-2.08,3.909-4.308,4.438-7.432c0.328-1.94,1.229-3.788,1.925-5.658c0.253-0.681,0.079-0.831-0.594-0.789
		c-2.631,0.163-5.265,0.302-7.896,0.425c-0.464,0.021-1.215,0.32-1.223-0.479c-0.009-0.781,0.768-0.515,1.226-0.533
		c2.675-0.106,5.353-0.204,8.028-0.237c0.837-0.011,1.266-0.303,1.582-1.084c0.463-1.143,1.07-2.229,1.647-3.322
		c0.159-0.3,0.359-0.702,0.803-0.582s0.552,0.536,0.593,0.951c0.067,0.697-0.072,1.346-0.427,1.957
		C435.64,31.185,435.314,31.811,434.882,32.602z"/>
	<path fill="#139948" d="M367.169,30.939c1.506-2.69,3.08-5.339,5.349-7.473c1.265-1.188,2.652-2.191,4.531-2.149
		c1.609,0.037,2.747,0.751,3.355,2.246c0.974,2.396,0.76,4.864,0.354,7.323c-0.332,2.017-1.013,3.941-1.745,5.843
		c-0.234,0.612-0.431,1.141,0.481,1.333c0.274,0.059,0.541,0.247,0.372,0.606c-0.124,0.262-0.419,0.298-0.622,0.184
		c-0.935-0.524-1.207,0.094-1.585,0.777c-1.656,2.996-3.633,5.747-6.427,7.806c-1.452,1.069-3.019,1.823-4.907,1.291
		c-1.885-0.531-2.872-2.33-2.311-4.205c0.623-2.078,2.146-3.458,3.815-4.635c2.572-1.812,5.414-2.9,8.648-2.563
		c0.361,0.038,0.688,0.101,0.862-0.382c1.375-3.815,2.517-7.684,2.102-11.799c-0.254-2.519-1.869-3.357-4.161-2.301
		c-1.688,0.778-2.894,2.121-3.991,3.553c-3.593,4.681-5.918,10.022-7.98,15.492c-2.021,5.355-3.64,10.823-4.386,16.517
		c-0.107,0.83-0.128,1.674-0.162,2.511c-0.025,0.647-0.123,1.266-0.934,1.26c-0.862-0.006-0.718-0.714-0.703-1.245
		c0.131-4.746,1.087-9.361,2.421-13.892c2.644-8.974,5.789-17.761,10.086-26.099c0.238-0.461,0.492-0.916,0.77-1.354
		c0.208-0.33,0.422-0.764,0.927-0.43c0.404,0.268,0.232,0.629,0.061,0.954c-1.429,2.687-2.452,5.548-3.6,8.355
		c-0.302,0.738-0.572,1.489-0.856,2.234C366.854,30.93,366.892,31.05,367.169,30.939z"/>
	<path fill="#139A48" d="M194.802,56.33c-0.258,0.411-0.634,0.237-0.97,0.196c-1.552-0.191-3.109-0.197-4.668-0.135
		c-0.664,0.024-1.35-0.082-1.615,0.832c-0.107,0.37-0.648,0.52-0.775,0.006c-0.173-0.699-0.546-0.525-0.973-0.41
		c-1.309,0.353-2.619,0.703-3.927,1.06c-0.399,0.109-0.876,0.465-1.036-0.253c-0.133-0.598,0.087-0.984,0.762-1.083
		c1.422-0.208,2.833-0.496,4.257-0.676c0.742-0.095,1.049-0.345,1.169-1.15c0.835-5.64,2.878-10.947,4.583-16.349
		c0.9-2.854,1.86-5.702,1.832-8.753c-0.024-2.58-0.879-3.533-3.462-3.752c-2.26-0.191-4.563,0.018-6.762-0.729
		c-0.352-0.12-0.907-0.052-0.927-0.578c-0.021-0.525,0.462-0.688,0.887-0.836c2.893-1.015,5.914-1.317,8.938-1.584
		c5.337-0.471,10.688-0.6,16.043-0.572c0.3,0.001,0.625-0.063,0.966,0.252c-0.669,0.496-1.392,0.33-2.052,0.362
		c-1.955,0.095-3.911,0.159-5.868,0.193c-0.861,0.015-1.31,0.318-1.622,1.196c-1.419,3.985-2.75,8.05-4.768,11.75
		c-3.074,5.635-4.563,11.76-6.275,17.833c-0.644,2.287-0.57,2.291,1.801,2.434c1.234,0.074,2.465,0.218,3.696,0.344
		C194.329,55.957,194.687,55.911,194.802,56.33z"/>
	<path fill="#139A48" d="M331.738,32.602c2.015,0,3.813-0.002,5.608,0.001c0.319,0,0.641,0.015,0.959,0.036
		c0.316,0.021,0.722,0.032,0.67,0.468c-0.045,0.388-0.438,0.244-0.694,0.245c-1.56,0.009-3.117,0-4.677,0.008
		c-2.435,0.013-2.458,0.006-3.317,2.223c-1.604,4.142-2.96,8.354-3.479,12.794c-0.063,0.53,0.001,1.034,0.06,1.548
		c0.232,2.059,1.512,2.652,3.248,1.479c1.381-0.936,2.382-2.252,3.313-3.598c1.068-1.543,2.013-3.171,3.057-4.73
		c1.085-1.624,2.417-2.896,4.573-2.773c1.462,0.083,1.924,0.433,1.82,1.868c-0.083,1.162,0.548,1.354,1.38,1.483
		c1.147,0.178,2.287,0.012,3.609-0.318c-0.521,0.981-1.275,0.951-1.94,1.049c-0.391,0.058-0.854,0.125-1.188-0.026
		c-1.874-0.846-2.56,0.194-3.236,1.729c-0.647,1.466-1.741,2.678-3.226,3.438c-1.817,0.934-2.649,0.559-3.117-1.407
		c-0.071-0.296-0.123-0.597-0.214-1.046c-0.965,1.478-1.879,2.828-3.046,3.979c-0.691,0.682-1.452,1.248-2.396,1.538
		c-1.663,0.513-2.818-0.069-3.35-1.735c-0.795-2.496-0.359-4.987,0.107-7.468c0.58-3.075,1.63-6.008,2.778-8.905
		c0.302-0.76,0.293-1.061-0.68-0.987c-2.627,0.198-5.262,0.313-7.895,0.434c-0.384,0.018-0.991,0.253-1.029-0.442
		c-0.042-0.781,0.633-0.573,1.053-0.589c2.675-0.102,5.352-0.215,8.028-0.231c0.935-0.005,1.42-0.307,1.763-1.186
		c0.433-1.11,1.034-2.157,1.598-3.214c0.159-0.3,0.369-0.699,0.799-0.602c0.44,0.1,0.574,0.509,0.64,0.922
		c0.103,0.662-0.066,1.265-0.386,1.84C332.568,31.079,332.211,31.739,331.738,32.602z"/>
	<path fill="#189B47" d="M400.672,38.222c0.103-0.562,0.173-1.231,0.919-1.315c0.521-0.058,0.911,0.269,0.913,0.859
		c0.003,0.734-0.362,1.225-1.093,1.333C400.803,39.191,400.715,38.721,400.672,38.222z"/>
	<path fill="#179B47" d="M287.979,39.204c0.093-0.496,0.243-1.12,1.002-1.13c0.542-0.007,0.891,0.348,0.813,0.937
		c-0.091,0.691-0.457,1.242-1.188,1.262C288.072,40.288,287.944,39.799,287.979,39.204z"/>
	<path fill="#B0D42E" d="M256.547,46.962c0.064-0.207,0.213-0.275,0.233-0.021c0.04,0.513-0.007,1.031-0.018,1.549
		C256.416,48.019,256.583,47.476,256.547,46.962z"/>
	<path fill="#D5E228" d="M219.847,45.123c0.125-0.358,0.229-0.73,0.625-0.952c0.146,0.428-0.123,0.682-0.314,0.96
		C220.054,45.129,219.95,45.126,219.847,45.123z"/>
	<path fill="#BED92C" d="M209.294,45.37c0.088-0.127,0.159-0.342,0.268-0.363c0.228-0.046,0.207,0.188,0.185,0.321
		c-0.045,0.269-0.128,0.528-0.196,0.792C209.472,45.868,209.529,45.569,209.294,45.37z"/>
	<path fill="#AED32E" d="M367.169,30.939c-0.061,0.221-0.213,0.598-0.348,0.507c-0.333-0.225-0.076-0.516,0.112-0.752
		C367.013,30.776,367.091,30.858,367.169,30.939z"/>
	<path fill="#FFFFFF" d="M244.804,41.756c0.563-1.346,1.06-2.725,1.701-4.032c1.511-3.082,3.22-6.052,5.302-8.791
		c0.507-0.667,1.039-1.327,1.763-1.771c0.938-0.576,1.646-0.23,1.779,0.857c0.095,0.775-0.104,1.513-0.431,2.204
		c-2.249,4.764-5.853,8.376-9.803,11.694C245.011,41.864,244.908,41.81,244.804,41.756z"/>
	<path fill="#FFFFFF" d="M232.982,41.096c-0.043,0.658-0.03,1.333,0.409,1.904c0.166,0.215,0.138,0.448,0.046,0.677
		c-0.806,2.018-1.8,3.917-3.667,5.166c-1.054,0.706-1.786,0.321-1.876-0.9c-0.171-2.305,2.08-5.898,4.227-6.758
		C232.384,41.079,232.641,40.992,232.982,41.096z"/>
	<path fill="#FFFFFF" d="M293.185,47.497c0.375-2.482,1.529-4.638,3.792-6.092c0.65-0.418,1.064-0.742,1.397,0.596
		c0.808,3.251-1.364,4.861-3.161,6.736c-0.345,0.359-0.884,0.638-1.425,0.363C293.199,48.804,293.203,48.204,293.185,47.497z"/>
	<path fill="#FFFFFF" d="M238.947,46.991c0.206-1.357,0.515-2.618,1.619-3.514c0.38-0.309,0.78-0.561,1.291-0.509
		c0.641,0.064,1.118,0.205,0.611,1.015c-0.736,1.176-1.379,2.413-2.307,3.458c-0.224,0.252-0.448,0.67-0.846,0.539
		C238.837,47.823,239.032,47.312,238.947,46.991z"/>
	<path fill="#FFFFFF" d="M387.164,62.923c0.226-1.852,0.878-3.572,2.051-5.107c2.538-3.323,5.856-5.748,9.232-8.111
		c0.15-0.105,0.396-0.242,0.521-0.188c0.279,0.117,0.16,0.406,0.093,0.621c-1.465,4.684-3.364,9.143-6.725,12.826
		c-0.73,0.803-1.624,1.42-2.657,1.797C388.164,65.313,387.162,64.597,387.164,62.923z"/>
	<path fill="#FFFFFF" d="M389.284,47.267c0.401-2.306,1.568-4.499,3.905-5.935c0.576-0.355,0.896-0.586,1.229,0.579
		c0.932,3.268-1.286,4.875-3.047,6.771c-0.369,0.398-0.928,0.705-1.521,0.402C389.256,48.78,389.275,48.183,389.284,47.267z"/>
	<path fill="#FFFFFF" d="M408.96,44.419c-0.935,0.004-1.224-0.459-0.75-1.247c0.563-0.934,1.223-1.773,2.284-2.197
		c0.368-0.147,0.729-0.142,1.006,0.127c0.26,0.254,0.141,0.597,0.038,0.904C411.131,43.229,409.861,44.415,408.96,44.419z"/>
	<path fill="#FFFFFF" d="M376.844,38.21c-1.807,3.646-3.891,6.768-7.216,8.864c-1.567,0.987-3.28,0.977-4.119,0.09
		c-0.917-0.97-0.857-2.415,0.405-4.029C368.62,39.681,372.119,37.849,376.844,38.21z"/>
	<path fill="#FFFFFF" d="M194.144,30.927c-0.134-4.437-0.917-5.317-5.367-6.024c-0.816-0.13-1.636-0.242-2.812-0.414
		c1.635-0.542,2.979-0.689,4.305-0.898c1.337-0.209,2.683-0.373,4.028-0.53c1.378-0.162,2.759-0.293,4.347-0.459
		c-1.566,3.085-3.024,6.028-4.311,9.049C193.845,31.521,194.063,31.206,194.144,30.927z"/>
	<path fill="#F9F9F9" d="M194.144,30.927c0.064,0.241,0.128,0.482,0.191,0.724c-0.071,0.199-0.069,0.44-0.378,0.588
		C193.909,31.756,193.938,31.333,194.144,30.927z"/>
	<path fill="#FFFFFF" d="M335.983,47.53c0.37-2.467,1.539-4.683,3.882-6.162c0.598-0.377,1.202-0.756,1.267,0.597
		c0.042,0.888,0.597,1.688,0.062,2.671c-0.865,1.584-1.739,3.133-3.262,4.188c-0.392,0.271-0.836,0.529-1.331,0.275
		C336.066,48.822,336.017,48.29,335.983,47.53z"/>
</g>
</svg>
