<?xml version="1.0" encoding="utf-8"?>
<!-- Generator: Adobe Illustrator 16.0.0, SVG Export Plug-In . SVG Version: 6.00 Build 0)  -->
<!DOCTYPE svg PUBLIC "-//W3C//DTD SVG 1.1//EN" "http://www.w3.org/Graphics/SVG/1.1/DTD/svg11.dtd" [
	<!ENTITY ns_flows "http://ns.adobe.com/Flows/1.0/">
	<!ENTITY ns_extend "http://ns.adobe.com/Extensibility/1.0/">
	<!ENTITY ns_ai "http://ns.adobe.com/AdobeIllustrator/10.0/">
	<!ENTITY ns_graphs "http://ns.adobe.com/Graphs/1.0/">
]>
<svg version="1.1" id="Layer_1" xmlns:x="&ns_extend;" xmlns:i="&ns_ai;" xmlns:graph="&ns_graphs;"
	 xmlns="http://www.w3.org/2000/svg" xmlns:xlink="http://www.w3.org/1999/xlink" xmlns:a="http://ns.adobe.com/AdobeSVGViewerExtensions/3.0/"
	 x="0px" y="0px" width="612px" height="88.08px" viewBox="0 0 612 88.08" enable-background="new 0 0 612 88.08"
	 xml:space="preserve">
<g>
	<path fill="#FFFFFF" d="M0.24,88.319c0-29,0.004-58-0.023-87C0.216,0.42,0.42,0.218,1.32,0.218
		C204.96,0.241,408.601,0.24,612.24,0.24c0.224,0.415,0.112,0.864,0.112,1.295c0.007,28.479,0.008,56.958,0.005,85.437
		c-0.001,1.633,0.182,1.465-1.482,1.465c-203.11,0.002-406.221,0.002-609.332-0.004C1.109,88.435,0.658,88.541,0.24,88.319z"/>
	<path fill="#FEFEFE" d="M0.24,88.319c0.599-0.012,1.198-0.035,1.797-0.035c202.769-0.002,405.537-0.002,608.305-0.002
		c1.897,0,1.897,0,1.897-1.896c0-28.716,0-57.431,0-86.146c0.502,0.266,0.225,0.729,0.226,1.08c0.018,16.6,0.016,33.2,0.016,49.8
		c0,12.16-0.012,24.32,0.022,36.479c0.002,0.822-0.162,0.983-0.983,0.983C408.08,88.56,204.64,88.562,1.2,88.546
		C0.889,88.546,0.456,88.815,0.24,88.319z"/>
	<path fill="#139948" d="M273.134,46.101c-1.053,1.942-2.252,3.781-3.942,5.239c-1.142,0.985-2.403,1.957-3.984,1.263
		c-1.471-0.648-1.58-2.158-1.739-3.576c-0.142-1.262,0.107-2.521,0.03-4.036c-0.657,0.713-1.16,1.253-1.656,1.799
		c-0.872,0.958-1.884,1.726-3.076,2.241c-1.934,0.836-3.021,0.169-3.13-1.913c-0.008-0.15-0.038-0.3-0.08-0.611
		c-0.838,0.779-1.459,1.612-2.323,2.175c-1.547,1.01-2.61,0.647-3.216-1.111c-0.342-0.991-0.444-2.021-0.494-3.062
		c-0.016-0.335,0.027-0.796-0.422-0.901c-0.378-0.088-0.516,0.305-0.708,0.544c-1.329,1.659-2.377,3.5-3.47,5.314
		c-0.103,0.171-0.19,0.354-0.314,0.509c-0.549,0.68-0.866,1.961-1.969,1.555c-0.984-0.364-0.758-1.584-0.691-2.465
		c0.105-1.391,0.215-2.793,0.614-4.143c0.176-0.596,0.154-0.927-0.608-0.782c-1.02,0.193-2.045,0.357-3.072,0.514
		c-0.512,0.078-0.704,0.482-0.952,0.839c-0.946,1.351-1.992,2.606-3.409,3.497c-1.456,0.914-2.912,0.908-3.466-0.004
		c-0.556-0.916,0.119-2.239,1.571-3.082c1.224-0.709,2.579-1.063,3.918-1.46c1.421-0.424,2.619-3.492,1.816-4.739
		c-0.589-0.916-1.438-0.753-2.22-0.319c-1.095,0.607-1.975,1.493-2.779,2.442c-3.33,3.93-5.179,8.586-6.542,13.47
		c-0.471,1.691-0.826,3.415-1.291,5.108c-0.096,0.349,0.051,1.083-0.593,0.947c-0.512-0.108-0.179-0.679-0.139-1.037
		c0.529-4.722,1.855-9.229,3.69-13.596c0.089-0.214,0.161-0.436,0.296-0.804c-0.769,0.332-1.073,0.946-1.543,1.366
		c-0.717,0.64-1.418,1.301-2.329,1.66c-1.827,0.721-3.22-0.299-3.1-2.267c0.02-0.313,0.091-0.627-0.047-1.104
		c-0.66,0.709-1.284,1.456-1.993,2.112c-0.5,0.461-1.127,0.834-1.853,0.451c-0.787-0.416-0.745-1.184-0.656-1.9
		c0.343-2.774,2.674-4.258,5.331-3.403c0.25,0.081,0.44,0.15,0.646-0.053c0.311-0.304,0.634-0.305,0.95-0.009
		c0.358,0.335,0.092,0.662-0.026,0.985c-0.382,1.049-0.804,2.086-1.138,3.151c-0.152,0.483-0.229,1.073,0.242,1.452
		c0.518,0.416,1.095,0.199,1.561-0.12c2.186-1.509,4.122-3.287,5.448-5.616c0.908-1.594,1.68-3.266,2.523-4.897
		c0.202-0.39,0.442-0.881,0.978-0.653c0.586,0.249,0.443,0.786,0.236,1.241c-0.323,0.711-0.68,1.407-1.18,2.433
		c0.986-0.737,1.646-1.282,2.357-1.752c1.093-0.722,2.306-1.096,3.483-0.319c1.135,0.75,1.032,1.994,0.848,3.159
		c-0.104,0.66-0.348,1.298-0.546,2.011c1.207-0.139,2.382-0.313,3.564-0.395c0.581-0.041,0.599-0.444,0.698-0.806
		c1.593-5.813,4.854-10.645,8.851-15.041c1.105-1.215,2.348-1.714,3.113-1.189c1.131,0.776,0.876,1.944,0.703,3.056
		c-0.194,1.248-0.742,2.358-1.405,3.412c-2.499,3.97-5.633,7.349-9.439,10.099c-0.224,0.162-0.554,0.318-0.619,0.539
		c-0.602,2.083-1.169,4.179-1.084,6.452c0.947-1.509,1.908-3.008,2.836-4.527c0.545-0.894,1.139-1.739,1.956-2.405
		c1.123-0.915,2.185-0.598,2.5,0.825c0.232,1.047,0.257,2.138,0.416,3.203c0.225,1.504,0.914,1.797,2.077,0.824
		c1.482-1.24,2.671-2.742,3.638-4.417c0.14-0.242,0.255-0.498,0.376-0.75c0.204-0.426,0.535-0.625,0.968-0.402
		c0.395,0.203,0.344,0.556,0.193,0.933c-0.504,1.258-1.192,2.445-1.518,3.773c-0.119,0.484-0.404,1.01,0.085,1.459
		c0.542,0.496,1.118,0.154,1.555-0.103c2.088-1.227,3.853-2.839,5.319-4.768c0.137-0.18,0.178-0.439,0.237-0.669
		c1.557-6.095,4.896-11.141,9.197-15.617c0.272-0.284,0.597-0.539,0.941-0.729c1.583-0.875,2.629-0.244,2.696,1.567
		c0.063,1.718-0.571,3.212-1.436,4.624c-2.433,3.973-5.646,7.235-9.338,10.035c-0.554,0.42-0.898,0.865-1.01,1.527
		c-0.331,1.962-0.896,3.912-0.364,5.926c0.394,1.489,1.336,1.925,2.7,1.206c0.82-0.43,1.514-1.037,2.125-1.736
		c1.558-1.784,2.814-3.779,4.076-5.773c0.353-0.557,0.387-1.209,0.566-1.818c1.7-5.772,4.934-10.612,9.062-14.908
		c0.365-0.379,0.797-0.664,1.292-0.85c1.307-0.49,2.195,0.107,2.296,1.499c0.131,1.806-0.523,3.374-1.428,4.861
		c-2.4,3.948-5.585,7.181-9.232,9.972c-0.647,0.495-1.023,1.018-1.166,1.828c-0.306,1.73-0.719,3.448-0.434,5.223
		c0.337,2.104,1.503,2.604,3.29,1.408c1.425-0.953,2.43-2.308,3.39-3.688c0.844-1.213,1.631-2.466,2.445-3.701
		c0.133-0.202,0.283-0.442,0.56-0.274c0.224,0.135,0.092,0.343-0.004,0.521c-1.522,2.813-2.967,5.681-5.576,7.708
		c-0.542,0.422-1.122,0.771-1.789,0.946c-1.358,0.354-2.354-0.119-2.919-1.414c-0.592-1.354-0.636-2.789-0.54-4.237
		C273.545,46.29,273.533,46.246,273.134,46.101z"/>
	<path fill="#139948" d="M409.215,47.058c-0.362,0.478-0.688,0.989-1.096,1.422c-0.589,0.625-1.272,1.164-2.212,0.873
		c-0.961-0.297-1.401-1.006-1.483-2.097c-0.369,0.55-0.718,1.112-1.111,1.644c-0.932,1.261-1.953,2.436-3.308,3.269
		c-2.178,1.339-3.933,0.606-4.465-1.892c-0.319-1.5-0.286-3.019-0.065-4.619c-0.467,0.152-0.58,0.544-0.782,0.837
		c-2.043,2.946-4.411,5.59-7.355,7.659c-2.247,1.582-4.713,2.593-7.53,2.166c-3.619-0.549-6.329-3.506-7.069-7.645
		c-0.91-5.082,0.158-9.852,2.39-14.41c2.063-4.216,4.858-7.907,8.399-10.978c2.417-2.096,5.13-3.703,8.505-3.641
		c2.338,0.042,3.63,1.18,3.985,3.483c0.313,2.027-0.124,3.977-0.639,5.915c-0.973,3.66-2.72,6.984-4.483,10.3
		c-0.229,0.437-0.54,0.947-1.087,0.622c-0.529-0.315-0.1-0.796,0.088-1.156c1.99-3.835,3.808-7.739,4.763-11.985
		c0.284-1.262,0.347-2.531,0.102-3.806c-0.29-1.515-1.29-2.36-2.833-2.417c-2.081-0.076-3.809,0.851-5.397,2.021
		c-4.453,3.281-7.552,7.662-9.902,12.594c-1.826,3.827-3.063,7.809-2.706,12.136c0.092,1.123,0.319,2.213,0.746,3.256
		c1.625,3.975,5.295,5.586,9.306,4.052c2.901-1.111,5.272-3.011,7.347-5.267c2.302-2.502,4.274-5.142,5.273-8.562
		c1.529-5.232,4.753-9.548,8.465-13.484c0.297-0.314,0.671-0.579,1.055-0.783c1.531-0.818,2.591-0.185,2.651,1.541
		c0.047,1.317-0.298,2.53-0.907,3.679c-2.354,4.436-5.851,7.867-9.735,10.931c-0.684,0.538-1.036,1.103-1.207,1.934
		c-0.341,1.654-0.603,3.31-0.438,4.996c0.213,2.172,1.475,2.758,3.29,1.56c1.016-0.67,1.83-1.562,2.545-2.522
		c1.333-1.795,2.675-3.592,3.613-5.643c0.202-0.443,0.452-0.977,1.039-0.74c0.7,0.283,0.363,0.859,0.176,1.33
		c-0.428,1.074-0.904,2.13-1.3,3.217c-0.208,0.572-0.6,1.289,0.122,1.732c0.773,0.475,1.241-0.243,1.711-0.699
		c0.867-0.841,1.517-1.852,2.136-2.882c0.33-0.548,0.681-1.083,1.005-1.633c0.233-0.395,0.546-0.619,0.985-0.389
		c0.487,0.254,0.302,0.656,0.158,1.041c-0.416,1.123-0.861,2.235-1.212,3.378c-0.181,0.588-0.407,1.293,0.216,1.778
		c0.651,0.509,1.283,0.046,1.744-0.319c2.204-1.756,4.249-3.682,5.058-6.509c1.646-5.752,4.856-10.561,8.854-14.908
		c0.188-0.205,0.394-0.407,0.626-0.557c0.71-0.458,1.448-0.926,2.333-0.509c0.953,0.45,0.856,1.368,0.844,2.194
		c-0.025,1.573-0.688,2.948-1.494,4.246c-2.433,3.915-5.512,7.25-9.214,9.988c-0.635,0.469-0.988,0.963-1.137,1.707
		c-0.226,1.128-0.511,2.243-0.645,3.438c0.712-1.01,1.466-1.957,2.251-2.881c0.782-0.919,1.642-1.756,2.74-2.289
		c1.432-0.692,2.469-0.266,2.797,1.282c0.196,0.926,0.465,0.874,1.166,0.5c0.967-0.515,1.951-1.058,3.206-0.862
		c-0.815,0.399-1.616,0.84-2.454,1.19c-1.221,0.51-1.924,1.223-2.061,2.692c-0.192,2.053-1.088,3.926-2.481,5.485
		c-0.868,0.971-1.896,1.718-3.305,1.692c-0.923-0.017-1.389-0.499-1.487-1.386c-0.118-1.061,0.333-1.939,0.861-2.807
		c1.226-2.012,3.064-3.334,5.021-4.535c0.922-0.566,1.069-1.395,0.44-2.307c-0.607-0.882-1.293-0.542-1.97-0.098
		c-1.099,0.719-1.818,1.786-2.548,2.836c-1.05,1.515-1.907,3.14-2.663,4.815c-0.115,0.256-0.217,0.52-0.359,0.757
		c-0.213,0.354-0.49,0.687-0.955,0.569c-0.516-0.132-0.457-0.602-0.438-0.99c0.073-1.646,0.491-3.232,0.814-4.838
		c0.038-0.188,0.08-0.379,0.177-0.838c-0.863,0.939-1.525,1.713-2.248,2.426c-0.479,0.474-1.003,0.934-1.581,1.271
		c-1.662,0.975-3.382,0.46-3.366-2.092C409.556,47.293,409.691,47.006,409.215,47.058z"/>
	<path fill="#139948" d="M200.115,35.747c2.069-3.424,4.172-6.829,7.026-9.674c1.957-1.951,3.983-3.868,6.816-4.468
		c2.862-0.607,4.587,0.768,4.669,3.698c0.059,2.092-0.395,4.129-0.891,6.148c-1.068,4.346-2.919,8.449-4.006,12.79
		c-0.81,3.232-1.368,6.484-0.889,9.838c0.243,1.703,0.976,3.148,2.362,4.393c-0.923,0.223-1.331-0.285-1.727-0.681
		c-1.953-1.949-2.144-4.444-2.123-7.008c0.045-5.287,1.886-10.174,3.326-15.154c0.942-3.257,2.089-6.468,2.409-9.877
		c0.107-1.141,0.476-2.446-0.712-3.187c-1.132-0.707-2.244,0.021-3.252,0.565c-4.054,2.187-7.007,5.546-9.507,9.299
		c-4.216,6.327-7.958,12.921-10.523,20.115c-0.455,1.273-0.713,2.618-1.068,3.928c-0.094,0.346-0.179,0.697-0.322,1.023
		c-0.167,0.38-0.513,0.48-0.903,0.42c-0.492-0.075-0.514-0.456-0.469-0.821c0.177-1.429,0.457-2.839,0.889-4.214
		c2.96-9.424,7.349-18.193,12.265-26.719c0.579-1.003,1.188-1.989,1.807-2.969c0.188-0.298,0.431-0.573,0.695-0.809
		c0.175-0.156,0.447-0.221,0.668-0.053c0.285,0.216,0.048,0.429-0.06,0.615c-0.36,0.622-0.748,1.228-1.109,1.85
		c-2.024,3.487-3.948,7.025-5.566,10.724c-0.079,0.09-0.089,0.181,0.009,0.26C199.988,35.826,200.055,35.809,200.115,35.747z"/>
	<path fill="#139A48" d="M334.482,46.765c0.874-0.438,1.147-0.938,1.485-1.359c0.679-0.846,1.39-1.666,2.249-2.321
		c1.259-0.958,2.429-0.457,2.635,1.103c0.137,1.029,0.175,2.073,0.345,3.096c0.221,1.335,0.789,1.569,1.86,0.709
		c1.665-1.339,3.005-2.972,4.04-4.849c0.235-0.428,0.377-1.143,1.067-0.843c0.772,0.336,0.29,0.952,0.097,1.431
		c-0.462,1.146-1.062,2.238-1.354,3.452c-0.112,0.465-0.271,0.947,0.168,1.338c0.408,0.361,0.877,0.195,1.232-0.024
		c2.479-1.536,4.928-3.104,6.015-6.045c0.47-1.272,1.259-2.324,2.553-2.883c0.713-0.308,1.414,0.069,1.415,0.726
		c0,0.307-0.221,0.708-0.455,0.483c-0.667-0.64-0.857,0.033-1.119,0.339c-1.02,1.192-1.493,2.521-0.957,4.101
		c0.185,0.539,0.359,0.683,0.908,0.372c1.678-0.951,3.492-1.563,5.361-2.022c0.268-0.066,0.53-0.2,0.812,0.002
		c-0.017,0.501-0.47,0.471-0.766,0.582c-1.569,0.592-3.144,1.161-4.662,1.883c-0.829,0.395-1.106,0.736-0.763,1.699
		c0.813,2.273-0.525,4.617-2.84,5.219c-1.524,0.396-2.43-0.396-2.256-1.947c0.163-1.455,1.03-2.477,2.046-3.412
		c1.278-1.178,1.279-1.177,0.369-2.979c-0.738,0.809-1.454,1.596-2.175,2.378c-0.852,0.928-1.87,1.629-3.025,2.111
		c-1.82,0.762-2.979-0.049-2.945-2.03c0.004-0.198,0.001-0.397,0.001-0.704c-0.751,0.334-0.952,1.109-1.509,1.517
		c-0.927,0.677-1.804,1.702-3.065,1.259c-1.253-0.441-1.139-1.802-1.394-2.858c-0.11-0.463-0.064-0.963-0.174-1.427
		c-0.092-0.396,0.129-1.002-0.422-1.137c-0.453-0.111-0.799,0.323-1.103,0.623c-1.805,1.783-3.25,3.837-4.531,6.017
		c-0.216,0.369-0.27,1.106-0.92,0.871c-0.647-0.235-0.396-0.899-0.291-1.377c0.269-1.229,0.602-2.445,0.997-4.021
		c-1.072,1.206-1.784,2.271-2.927,2.918c-1.623,0.918-2.521,0.596-3.041-1.186c-0.283-0.967-0.301-1.971-0.445-2.957
		c-0.165-1.114-0.394-1.225-1.235-0.48c-1.938,1.711-3.341,3.854-4.694,6.03c-0.263,0.422-0.294,1.336-1.034,1.063
		c-0.723-0.266-0.369-1.049-0.243-1.596c0.303-1.313,0.676-2.605,1.072-4.105c-1.271,0.987-2.37,1.883-3.515,2.718
		c-1.101,0.804-2.261,1.515-3.66,1.683c-2.266,0.271-3.705-1.099-3.548-3.375c0.16-2.316,1.193-4.201,2.889-5.741
		c0.288-0.263,0.646-0.494,1.014-0.616c0.729-0.243,1.511-0.416,2.127,0.25c0.602,0.647,0.315,1.367-0.006,2.013
		c-0.486,0.974-1.12,1.849-2.122,2.372c-0.469,0.243-1.023,0.497-1.488,0.212c-1.088-0.668-1.145,0.115-1.288,0.818
		c-0.218,1.07-0.175,2.127,0.715,2.873c0.839,0.707,1.829,0.447,2.727,0.061c2.693-1.163,4.901-3.012,6.803-5.19
		c0.599-0.684,0.76-1.74,1.155-2.611c0.188-0.415,0.354-1.027,0.999-0.738c0.627,0.281,0.319,0.809,0.136,1.24
		c-0.746,1.761-1.389,3.557-1.946,5.624c1.047-1.198,1.931-2.245,2.855-3.254c0.347-0.378,0.752-0.737,1.197-0.983
		c1.065-0.59,2.015-0.162,2.225,1.029c0.188,1.058,0.212,2.144,0.373,3.208c0.234,1.548,0.844,1.819,2.029,0.776
		c1.805-1.588,3.439-3.343,4.295-5.668c0.15-0.412,0.301-0.828,0.495-1.221c0.2-0.406,0.328-1.032,0.982-0.768
		c0.646,0.259,0.356,0.77,0.185,1.222C335.858,43.108,335.234,44.772,334.482,46.765z"/>
	<path fill="#139948" d="M320.194,22.042c3.104,0,6.903-0.008,10.703,0.014c0.369,0.002,1.036-0.264,1.023,0.418
		c-0.01,0.557-0.609,0.355-0.977,0.361c-5.595,0.099-11.18,0.409-16.766,0.711c-1.235,0.067-1.958,0.519-2.55,1.672
		c-5.172,10.08-8.842,20.684-11.27,31.732c-0.206,0.934-0.266,1.896-0.42,2.844c-0.099,0.607-0.381,1.096-1.102,0.982
		c-0.693-0.108-0.537-0.68-0.523-1.145c0.135-4.535,1.514-8.793,2.953-13.029c1.36-4.002,3.125-7.867,4.105-12.001
		c0.342-1.443,0.606-2.894,0.617-4.379c0.015-2.145-0.923-3.177-3.049-3.363c-2.379-0.209-4.796-0.028-7.131-0.702
		c-0.451-0.13-1.117-0.103-1.185-0.619c-0.073-0.552,0.583-0.674,1.017-0.837c3.255-1.222,6.683-1.543,10.101-1.881
		C310.316,22.367,314.911,22.248,320.194,22.042z"/>
	<path fill="#1C9D46" d="M259.427,38.032c0.636,0.119,0.99,0.443,0.904,1.002c-0.104,0.679-0.508,1.238-1.241,1.239
		c-0.536,0.001-0.65-0.502-0.61-0.983C258.535,38.636,258.805,38.157,259.427,38.032z"/>
	<path fill="#169B47" d="M349.441,38.047c0.652,0.057,1.012,0.284,0.993,0.893c-0.021,0.734-0.418,1.22-1.104,1.34
		c-0.466,0.082-0.707-0.324-0.71-0.765C348.617,38.847,348.834,38.286,349.441,38.047z"/>
	<path fill="#E2E625" d="M200.115,35.747c-0.136,0.342-0.252,0.699-0.639,0.913c-0.085-0.497,0.201-0.812,0.443-1.143
		C199.984,35.594,200.05,35.67,200.115,35.747z"/>
	<path fill="#74BE37" d="M273.134,46.101c0.073-0.133,0.114-0.313,0.226-0.388c0.23-0.153,0.241,0.069,0.237,0.208
		c-0.011,0.387,0.016,0.781-0.197,1.135C273.241,46.757,273.496,46.343,273.134,46.101z"/>
	<path fill="#89C534" d="M409.215,47.058c0.064-0.188,0.212-0.432,0.378-0.264c0.209,0.211,0.056,0.516-0.107,0.75
		C409.395,47.382,409.305,47.22,409.215,47.058z"/>
	<path fill="#FFFFFF" d="M275.721,42.013c0.313-1.443,0.907-2.612,1.457-3.792c1.57-3.369,3.406-6.582,5.684-9.53
		c0.416-0.539,0.855-1.055,1.421-1.443c0.403-0.276,0.847-0.535,1.333-0.292c0.521,0.261,0.654,0.795,0.65,1.328
		c-0.006,0.896-0.342,1.713-0.728,2.504c-1.67,3.426-4.165,6.212-6.896,8.802C277.766,40.42,276.922,41.313,275.721,42.013z"/>
	<path fill="#FFFFFF" d="M265.687,42.088c0.533-1.83,1.249-3.374,2.008-4.892c1.48-2.961,3.116-5.833,5.162-8.451
		c0.491-0.627,0.989-1.26,1.713-1.645c0.928-0.493,1.552-0.168,1.682,0.878c0.096,0.773-0.108,1.491-0.415,2.202
		c-1.599,3.708-4.26,6.608-7.105,9.364C267.832,40.417,266.929,41.301,265.687,42.088z"/>
	<path fill="#FFFFFF" d="M244.791,42.177c2.073-5.351,4.427-10.156,8.021-14.262c0.534-0.61,1.193-1.455,2.107-0.864
		c0.864,0.557,0.667,1.552,0.373,2.41c-1.117,3.259-3.272,5.832-5.576,8.29C248.282,39.281,246.761,40.729,244.791,42.177z"/>
	<path fill="#FFFFFF" d="M221.321,43.193c0.334-0.015,0.68,0.055,0.856,0.326c0.24,0.369-0.179,0.563-0.36,0.772
		c-0.878,1.021-1.774,2.026-2.695,3.009c-0.282,0.301-0.673,0.547-0.863-0.127C217.883,45.847,219.952,43.16,221.321,43.193z"/>
	<path fill="#FFFFFF" d="M236.576,45.235c-1.029,1.464-2.024,2.531-3.292,3.31c-0.462,0.283-1.091,0.644-1.523,0.099
		c-0.485-0.611,0.067-1.158,0.488-1.543C233.394,46.054,234.843,45.679,236.576,45.235z"/>
	<path fill="#FFFFFF" d="M397.752,42.104c-0.069-0.724,0.208-1.134,0.382-1.565c1.707-4.242,3.9-8.212,6.691-11.84
		c0.386-0.502,0.849-0.954,1.322-1.377c0.396-0.354,0.902-0.618,1.429-0.369c0.584,0.276,0.629,0.876,0.622,1.451
		c-0.011,0.82-0.326,1.556-0.667,2.279c-1.735,3.686-4.482,6.575-7.389,9.333C399.424,40.699,398.649,41.323,397.752,42.104z"/>
	<path fill="#FFFFFF" d="M419.4,41.686c1.509-4.276,3.594-8.216,6.258-11.845c0.662-0.902,1.296-1.832,2.19-2.529
		c0.415-0.324,0.889-0.618,1.428-0.341c0.524,0.269,0.607,0.791,0.611,1.338c0.006,1.126-0.476,2.109-0.989,3.043
		c-2.21,4.017-5.342,7.253-8.8,10.201C419.907,41.718,419.698,41.809,419.4,41.686z"/>
	<path fill="#FFFFFF" d="M424.367,46.832c-0.403,2.521-1.32,4.769-3.221,6.476c-0.515,0.461-1.21,1.096-1.887,0.531
		c-0.673-0.559-0.325-1.415,0.021-2.093c0.797-1.563,2.101-2.679,3.453-3.738C423.261,47.595,423.821,47.224,424.367,46.832z"/>
	<path fill="#39A841" d="M198.549,38.381c0.047,0.296-0.009,0.518-0.289,0.605C198.069,38.638,198.384,38.532,198.549,38.381z"/>
	<path fill="#FCFCFC" d="M356.042,49.124c-0.026,1.148-1.465,2.871-2.616,3.134c-0.816,0.187-1.354-0.276-1.189-1.112
		c0.331-1.691,1.594-2.693,2.848-3.689c0.289-0.229,0.424-0.021,0.54,0.191C355.87,48.106,356.03,48.597,356.042,49.124z"/>
	<path fill="#FCFCFC" d="M313.02,44.426c-0.896-0.019-1.175-0.521-0.688-1.3c0.555-0.888,1.19-1.705,2.2-2.13
		c0.35-0.148,0.687-0.204,1.01,0.065c0.36,0.301,0.208,0.631,0.082,0.978C315.169,43.285,313.913,44.444,313.02,44.426z"/>
	<path fill="#FFFFFF" d="M306.54,32.864c0.047-0.833,0.14-1.666,0.132-2.499c-0.021-2.433-1.297-3.98-3.687-4.432
		c-1.167-0.221-2.355-0.325-3.538-0.581c3.782-0.798,7.604-1.202,11.72-1.452c-1.741,2.995-3.038,6-4.487,8.933
		C306.634,32.844,306.587,32.854,306.54,32.864z"/>
	<path fill="#65B83A" d="M306.54,32.864c0.043-0.03,0.09-0.04,0.141-0.03c-0.008,0.266-0.032,0.525-0.271,0.708
		C306.089,33.244,306.32,33.055,306.54,32.864z"/>
</g>
</svg>
