<?xml version="1.0" encoding="utf-8"?>
<!-- Generator: Adobe Illustrator 16.0.0, SVG Export Plug-In . SVG Version: 6.00 Build 0)  -->
<!DOCTYPE svg PUBLIC "-//W3C//DTD SVG 1.1//EN" "http://www.w3.org/Graphics/SVG/1.1/DTD/svg11.dtd" [
	<!ENTITY ns_flows "http://ns.adobe.com/Flows/1.0/">
	<!ENTITY ns_extend "http://ns.adobe.com/Extensibility/1.0/">
	<!ENTITY ns_ai "http://ns.adobe.com/AdobeIllustrator/10.0/">
	<!ENTITY ns_graphs "http://ns.adobe.com/Graphs/1.0/">
]>
<svg version="1.1" id="Layer_1" xmlns:x="&ns_extend;" xmlns:i="&ns_ai;" xmlns:graph="&ns_graphs;"
	 xmlns="http://www.w3.org/2000/svg" xmlns:xlink="http://www.w3.org/1999/xlink" xmlns:a="http://ns.adobe.com/AdobeSVGViewerExtensions/3.0/"
	 x="0px" y="0px" width="612px" height="88.08px" viewBox="0 0 612 88.08" enable-background="new 0 0 612 88.08"
	 xml:space="preserve">
<g>
	<path fill-rule="evenodd" clip-rule="evenodd" fill="#F9FAFA" d="M0.24,88.32c0-29,0.004-58-0.023-87
		C0.216,0.42,0.42,0.218,1.32,0.218C204.96,0.241,408.601,0.24,612.24,0.24c0.222,0.416,0.111,0.864,0.111,1.296
		c0.006,28.479,0.007,56.957,0.004,85.437c-0.001,1.628,0.188,1.463-1.483,1.463c-203.11,0.002-406.221,0.002-609.332-0.004
		C1.107,88.432,0.657,88.54,0.24,88.32z"/>
	<path fill-rule="evenodd" clip-rule="evenodd" fill="#FEFEFE" d="M0.24,88.32c203.295,0,406.59,0,609.886,0
		c0.359,0,0.726-0.04,1.079,0.008c0.882,0.119,1.14-0.299,1.041-1.1c-0.034-0.275-0.006-0.56-0.006-0.839
		c0-28.717,0-57.433,0-86.149c0.502,0.266,0.225,0.728,0.226,1.08c0.017,16.517,0.015,33.035,0.015,49.551
		c0,12.198-0.01,24.396,0.021,36.594c0.002,0.873-0.151,1.121-1.086,1.12c-36.754-0.029-73.508-0.024-110.262-0.024
		c-166.611,0-333.223,0-499.835-0.016C0.968,88.545,0.506,88.822,0.24,88.32z"/>
	<path fill-rule="evenodd" clip-rule="evenodd" fill="#139948" d="M298.4,45.962c-1.208-1.887-2.69-3.387-4.092-4.955
		c-1.992-2.229-4.165-4.309-5.43-7.11c-0.932-2.065-0.833-4.028,0.274-5.96c2.251-3.926,5.915-5.942,10.029-7.294
		c2.106-0.692,4.275-1.051,6.493-0.559c2.99,0.663,4.365,3.299,3.198,6.134c-0.84,2.039-2.279,3.645-3.821,5.169
		c-1.138,1.125-2.324,2.198-3.612,3.15c-0.433,0.32-1.004,0.608-1.369,0.061c-0.386-0.578,0.269-0.796,0.639-1.063
		c2.479-1.784,4.815-3.71,6.384-6.402c0.571-0.981,0.999-2.019,0.935-3.172c-0.097-1.736-1.219-2.962-3.109-3.045
		c-5.734-0.251-10.505,1.76-13.902,6.493c-1.458,2.031-1.536,4.293-0.454,6.596c0.83,1.767,2.074,3.217,3.34,4.657
		c1.9,2.16,3.954,4.185,5.715,6.465c0.29,0.374,0.542,0.481,1.004,0.358c1.349-0.36,2.709-0.679,4.071-0.991
		c1.747-0.4,3.289-1.032,4.251-2.731c0.582-1.029,1.549-1.738,2.827-1.771c0.875-0.022,1.465,0.324,1.468,1.319
		c0.005,1.468-1.787,3.584-3.208,3.79c-0.562,0.082-1.011-0.151-1.457-0.47c-0.357,0.333-0.393,0.773-0.5,1.176
		c-0.288,1.075-0.184,2.1,0.66,2.882c0.785,0.729,1.746,0.518,2.6,0.15c2.955-1.271,5.406-3.23,7.362-5.767
		c1.218-1.581,2.492-2.935,4.707-2.762c1.368,0.107,1.827,0.452,1.716,1.839c-0.1,1.238,0.597,1.415,1.466,1.508
		c0.871,0.094,1.751,0.152,2.614-0.135c0.234-0.078,0.527-0.238,0.846,0.172c-1.141,0.919-2.502,0.966-3.682,0.539
		c-1.372-0.498-1.734,0.081-2.216,1.142c-0.767,1.69-1.847,3.185-3.54,4.102c-1.915,1.036-2.905,0.534-3.275-1.605
		c-0.127-0.732,0.134-1.42,0.198-2.242c-1.255,0.964-2.41,1.903-3.62,2.765c-1.109,0.789-2.289,1.459-3.706,1.547
		c-1.958,0.121-3.2-0.982-3.231-2.959c-0.012-0.746,0.11-1.494,0.176-2.302c-1.939,0.74-3.885,1.308-5.877,1.708
		c-0.51,0.102-0.603,0.264-0.348,0.799c2.013,4.216,0.995,7.851-2.869,10.488c-2.773,1.894-5.733,3.187-9.189,2.802
		c-2.12-0.236-3.847-1.228-4.772-3.173c-0.919-1.934-0.269-3.747,0.921-5.386c0.302-0.416,0.679-0.787,1.062-1.135
		c2.227-2.026,4.971-2.986,7.811-3.728C295.341,46.675,296.809,46.346,298.4,45.962z"/>
	<path fill-rule="evenodd" clip-rule="evenodd" fill="#FAFBFB" d="M290.02,59.571c-0.816,0.031-1.6-0.091-2.353-0.387
		c-3.435-1.35-4.017-4.926-1.23-7.601c1.593-1.529,3.524-2.468,5.629-3.035c2-0.539,4.03-0.968,6.034-1.49
		c0.79-0.206,1.143,0.113,1.456,0.793c1.391,3.021,0.969,5.854-1.393,8.245C295.935,58.353,293.184,59.473,290.02,59.571z"/>
	<path fill-rule="evenodd" clip-rule="evenodd" fill="#FAFBFB" d="M318.249,47.405c0.358-2.357,1.525-4.582,3.885-6.054
		c0.621-0.388,1.231-0.729,1.233,0.618c0.001,0.833,0.67,1.588,0.126,2.56c-0.9,1.61-1.742,3.236-3.326,4.299
		c-0.396,0.266-0.84,0.539-1.332,0.267C318.317,48.809,318.229,48.289,318.249,47.405z"/>
	<path fill-rule="evenodd" clip-rule="evenodd" fill="#F6F9F8" d="M309.832,44.426c-0.91-0.008-1.196-0.501-0.721-1.284
		c0.546-0.898,1.204-1.693,2.196-2.135c0.342-0.152,0.685-0.226,1.016,0.036c0.37,0.294,0.209,0.654,0.102,0.985
		C312.028,43.25,310.737,44.433,309.832,44.426z"/>
</g>
</svg>
