<?xml version="1.0" encoding="utf-8"?>
<!-- Generator: Adobe Illustrator 16.0.0, SVG Export Plug-In . SVG Version: 6.00 Build 0)  -->
<!DOCTYPE svg PUBLIC "-//W3C//DTD SVG 1.1//EN" "http://www.w3.org/Graphics/SVG/1.1/DTD/svg11.dtd" [
	<!ENTITY ns_flows "http://ns.adobe.com/Flows/1.0/">
	<!ENTITY ns_extend "http://ns.adobe.com/Extensibility/1.0/">
	<!ENTITY ns_ai "http://ns.adobe.com/AdobeIllustrator/10.0/">
	<!ENTITY ns_graphs "http://ns.adobe.com/Graphs/1.0/">
]>
<svg version="1.1" id="Layer_1" xmlns:x="&ns_extend;" xmlns:i="&ns_ai;" xmlns:graph="&ns_graphs;"
	 xmlns="http://www.w3.org/2000/svg" xmlns:xlink="http://www.w3.org/1999/xlink" xmlns:a="http://ns.adobe.com/AdobeSVGViewerExtensions/3.0/"
	 x="0px" y="0px" width="612px" height="88.08px" viewBox="0 0 612 88.08" enable-background="new 0 0 612 88.08"
	 xml:space="preserve">
<g>
	<path fill="#FFFFFF" d="M0.24,88.319c0-29,0.004-58-0.023-87C0.216,0.42,0.42,0.218,1.319,0.218
		C204.959,0.241,408.6,0.24,612.24,0.24c0.223,0.415,0.112,0.864,0.112,1.295c0.007,28.479,0.007,56.958,0.003,85.437
		c0,1.633,0.183,1.465-1.48,1.465c-203.111,0.002-406.222,0.002-609.333-0.004C1.108,88.435,0.657,88.541,0.24,88.319z"/>
	<path fill="#FEFEFE" d="M0.24,88.319c0.599-0.012,1.198-0.035,1.797-0.035c202.769-0.002,405.537-0.002,608.305-0.002
		c1.898,0,1.898,0,1.898-1.896c0-28.716,0-57.431,0-86.146c0.502,0.266,0.225,0.729,0.225,1.08c0.019,16.6,0.016,33.2,0.016,49.8
		c0,12.16-0.011,24.32,0.023,36.479c0.002,0.822-0.162,0.983-0.984,0.983C408.08,88.56,204.64,88.562,1.2,88.546
		C0.889,88.546,0.456,88.815,0.24,88.319z"/>
	<path fill="#139948" d="M320.416,45.853c-0.5,0.721-0.878,1.524-1.512,2.152c-0.495,0.491-1.018,0.999-1.771,0.703
		c-0.684-0.27-0.787-0.951-0.843-1.604c-0.021-0.235-0.003-0.476-0.003-0.929c-0.965,0.954-1.633,1.941-2.679,2.546
		c-1.664,0.959-2.594,0.635-3.063-1.25c-0.222-0.888-0.293-1.811-0.446-2.714c-0.063-0.372,0.1-0.893-0.389-1.038
		c-0.426-0.126-0.734,0.256-1.017,0.525c-1.776,1.697-3.17,3.689-4.451,5.775c-0.278,0.453-0.309,1.436-1.071,1.186
		c-0.932-0.307-0.355-1.193-0.24-1.78c0.243-1.241,0.634-2.454,1.009-3.846c-0.718,0.332-1.027,0.851-1.429,1.254
		c-0.792,0.797-1.587,1.59-2.635,2.05c-1.862,0.815-3.19-0.037-3.234-2.064c-0.006-0.276-0.001-0.555-0.001-1.038
		c-0.719,0.688-1.29,1.319-1.944,1.848c-1.451,1.168-2.427,0.771-2.692-1.121c-0.844,0.771-1.643,1.53-2.475,2.253
		c-0.667,0.579-1.401,1.078-2.262,1.32c-1.456,0.41-2.355-0.28-2.343-1.805c0.009-1.174,0.33-2.287,0.811-3.352
		c0.194-0.429,0.271-0.711-0.149-1.134c-0.639-0.643-0.118-1.991,0.757-2.185c0.414-0.092,0.876,0.088,0.818,0.452
		c-0.188,1.184,0.61,2.383-0.251,3.587c-0.537,0.752-0.832,1.729-0.929,2.696c-0.1,0.984,0.371,1.354,1.303,1.009
		c0.916-0.341,1.65-0.969,2.35-1.629c1.192-1.125,2.352-2.273,3.334-3.602c1.201-1.623,2.516-1.991,4.399-1.326
		c0.284,0.101,0.5,0.214,0.748-0.042c0.268-0.277,0.561-0.253,0.853-0.02c0.38,0.304,0.19,0.635,0.062,0.973
		c-0.384,1.007-0.803,2.004-1.123,3.03c-0.174,0.559-0.328,1.246,0.261,1.662c0.574,0.408,1.204,0.115,1.667-0.256
		c2.301-1.843,4.688-3.61,5.704-6.591c0.187-0.547,0.254-1.661,1.178-1.29c0.951,0.382,0.162,1.192-0.051,1.741
		c-0.629,1.62-1.219,3.246-1.769,5.222c0.939-1.125,1.657-2.021,2.417-2.879c0.396-0.447,0.847-0.851,1.305-1.235
		c0.557-0.467,1.212-0.643,1.902-0.353c0.652,0.274,0.714,0.909,0.776,1.511c0.109,1.033,0.152,2.077,0.327,3.098
		c0.209,1.214,0.726,1.423,1.73,0.711c1.489-1.055,2.568-2.51,3.624-3.968c0.966-1.337,2.101-2.2,3.85-1.699
		c0.692,0.198,0.696-0.349,0.816-0.738c1.637-5.308,4.648-9.784,8.353-13.845c0.517-0.566,1.063-1.093,1.783-1.384
		c1.329-0.539,2.188,0,2.329,1.428c0.141,1.411-0.277,2.69-0.931,3.904c-2.391,4.445-5.709,8.079-9.776,11.032
		c-0.629,0.457-0.982,0.932-1.128,1.706c-0.335,1.771-0.7,3.529-0.422,5.343c0.321,2.104,1.525,2.631,3.298,1.437
		c1.844-1.243,2.961-3.118,4.187-4.888c0.748-1.081,1.486-2.178,1.978-3.416c0.18-0.452,0.446-0.961,1.048-0.684
		c0.621,0.288,0.307,0.802,0.131,1.238c-0.492,1.22-1.14,2.381-1.444,3.674c-0.107,0.459-0.263,0.956,0.206,1.326
		c0.421,0.333,0.884,0.156,1.242-0.06c2.553-1.541,4.918-3.282,6.152-6.146c0.188-0.439,0.324-0.903,0.528-1.334
		c0.197-0.416,0.365-1.025,0.991-0.785c0.639,0.244,0.357,0.772,0.185,1.225c-0.443,1.155-0.889,2.309-1.312,3.472
		c-0.184,0.504-0.433,1.005-0.353,1.759c1.014-1.11,1.914-2.104,2.824-3.089c0.326-0.354,0.691-0.669,1.154-0.837
		c1.054-0.381,1.839,0.051,2.004,1.16c0.17,1.145,0.226,2.308,0.407,3.45c0.193,1.209,0.722,1.438,1.718,0.727
		c1.653-1.182,2.849-2.788,3.904-4.495c0.679-1.097,1.418-2.127,2.461-2.913c0.656-0.495,1.382-0.787,2.206-0.83
		c1.656-0.087,2.349,0.531,2.471,2.191c0.109,1.48-0.104,2.945-0.268,4.609c1.5-0.881,2.856-1.683,4.219-2.476
		c0.311-0.181,0.631-0.344,0.953-0.502c0.309-0.151,0.701-0.476,0.925-0.018c0.196,0.401-0.3,0.488-0.555,0.623
		c-1.734,0.916-3.387,1.962-5.04,3.014c-0.576,0.366-0.88,0.806-1.056,1.485c-1.424,5.481-3.705,10.541-7.479,14.844
		c-0.744,0.849-1.581,1.589-2.606,2.082c-2.368,1.138-4.428-0.229-4.312-2.867c0.064-1.461,0.491-2.822,1.205-4.1
		c1.513-2.709,3.683-4.817,6.123-6.664c1.594-1.204,3.237-2.346,4.871-3.496c1.391-0.979,1.397-0.969,1.452-2.898
		c-0.638,0.813-1.229,1.661-1.92,2.43c-0.515,0.57-1.052,1.102-1.726,1.468c-1.604,0.874-2.562,0.44-3.006-1.315
		c-0.149-0.593-0.179-1.179-0.06-1.834c-0.839,0.86-1.567,1.779-2.622,2.36c-1.559,0.858-2.503,0.524-2.938-1.202
		c-0.234-0.924-0.287-1.893-0.468-2.832c-0.07-0.362,0.093-0.899-0.396-1.034c-0.422-0.116-0.733,0.276-1.012,0.542
		c-1.803,1.729-3.223,3.753-4.513,5.881c-0.257,0.424-0.295,1.334-1.026,1.077c-0.731-0.256-0.382-1.053-0.266-1.597
		c0.261-1.223,0.61-2.428,0.926-3.639c-0.092-0.06-0.184-0.117-0.275-0.177c-0.594,0.634-1.163,1.291-1.788,1.892
		c-0.55,0.527-1.212,0.912-1.899,1.242c-1.941,0.929-2.972,0.444-3.472-1.715c-0.933,1.36-1.801,2.698-2.974,3.789
		c-0.675,0.627-1.357,1.243-2.252,1.553c-1.76,0.609-3.001,0.002-3.508-1.791c-0.361-1.275-0.41-2.601-0.402-3.922
		C320.673,46.496,321.115,46.022,320.416,45.853z"/>
	<path fill="#139948" d="M272.341,22.472c1.823-0.754,3.408-1.23,5.11-1.229c5.161,0.004,8.025,3.969,6.293,8.834
		c-1.209,3.397-3.362,6.145-6.138,8.417c-0.421,0.345-0.854,0.677-1.368,1.085c1.636,0.878,3.08,1.863,4.069,3.369
		c1.69,2.57,1.948,5.365,1.174,8.271c-1.197,4.502-5.882,10.287-12.792,9.696c-3.534-0.301-6.221-1.681-9.405-4.819
		c-0.435,1.27-0.547,2.571-0.795,3.846c-0.076,0.391-0.135,0.791-0.269,1.162c-0.156,0.435-0.532,0.586-0.971,0.508
		c-0.47-0.081-0.495-0.461-0.477-0.832c0.1-2.043,0.432-4.049,0.935-6.027c0.161-0.632,0.153-1.206-0.066-1.854
		c-0.797-2.358-0.176-4.172,1.853-5.653c0.299-0.22,0.537-0.437,0.663-0.806c2.241-6.583,4.837-13.018,8.099-19.169
		c0.046-0.088,0.017-0.215,0.029-0.439c-1.162,0.764-1.859,1.844-2.73,2.75c-0.21,0.218-0.372,0.774-0.794,0.413
		c-0.308-0.263-0.099-0.662,0.123-0.973c1.15-1.609,2.561-2.979,4.133-4.146c1.318-0.979,1.822-2.499,2.792-3.696
		c0.29-0.358,0.414-1.2,1.077-0.813c0.769,0.449-0.019,0.939-0.195,1.4C272.636,21.915,272.552,22.053,272.341,22.472z"/>
	<path fill="#169B47" d="M332.768,39.281c0.146-0.564,0.245-1.22,1.034-1.204c0.566,0.012,0.85,0.392,0.786,0.961
		c-0.078,0.71-0.489,1.214-1.197,1.229C332.854,40.278,332.767,39.759,332.768,39.281z"/>
	<path fill="#BBD82C" d="M320.416,45.853c0.079-0.178,0.159-0.354,0.345-0.767c0.153,0.755,0.145,1.261-0.081,1.765
		C320.564,46.524,320.701,46.132,320.416,45.853z"/>
	<path fill="#FFFFFF" d="M355.434,49.285c-0.021,1.184-0.438,1.972-0.732,2.78c-1.466,4.002-3.37,7.76-6.223,10.979
		c-0.694,0.785-1.453,1.48-2.419,1.923c-1.381,0.632-2.476-0.006-2.622-1.532c-0.09-0.941,0.186-1.828,0.515-2.685
		c1.09-2.844,3.033-5.044,5.363-6.927C351.23,52.274,353.177,50.763,355.434,49.285z"/>
	<path fill="#FFFFFF" d="M323.14,41.901c0.441-1.723,1.106-3.332,1.91-4.882c1.523-2.94,3.163-5.811,5.223-8.42
		c0.396-0.503,0.813-0.987,1.349-1.347c1.055-0.709,1.898-0.31,1.954,0.961c0.041,0.938-0.301,1.81-0.729,2.623
		C330.507,35.295,327.064,38.798,323.14,41.901z"/>
	<path fill="#FFFFFF" d="M350.431,47.462c0.577-2.706,1.954-5.089,4.492-6.706c0.492-0.313,1.056-0.389,1.568,0.006
		c0.508,0.392,0.388,0.893,0.231,1.416c-0.779,2.625-2.104,4.899-4.261,6.632c-0.408,0.328-0.902,0.592-1.438,0.314
		C350.433,48.821,350.452,48.224,350.431,47.462z"/>
	<path fill="#FFFFFF" d="M319.909,42.963c0.332-0.022,0.665,0.027,0.882,0.282c0.281,0.33-0.05,0.606-0.194,0.846
		c-0.719,1.195-1.391,2.428-2.333,3.473c-0.211,0.231-0.449,0.547-0.797,0.406c-0.34-0.137-0.324-0.537-0.302-0.841
		c0.105-1.432,0.48-2.752,1.671-3.701C319.152,43.176,319.483,42.961,319.909,42.963z"/>
	<path fill="#FFFFFF" d="M293.081,46.825c0.041-1.201,1.342-3.136,2.379-3.509c0.549-0.197,1.194-0.28,1.541,0.218
		c0.327,0.468-0.331,0.713-0.578,1.011c-0.784,0.944-1.619,1.849-2.457,2.746c-0.173,0.185-0.425,0.421-0.725,0.2
		C293.023,47.33,293.089,47.06,293.081,46.825z"/>
	<path fill="#FFFFFF" d="M265.08,46.521c-0.603-0.373-1.081-0.405-1.555-0.386c-0.468,0.021-0.934,0.104-1.62,0.188
		c0.813-2.28,1.55-4.376,2.306-6.466c1.697-4.695,3.633-9.287,5.926-13.726c1.47-2.847,6.439-4.613,9.379-3.335
		c2.171,0.943,3.404,3.07,3.075,5.407c-0.581,4.134-3.065,7.095-6.054,9.746c-0.965,0.856-1.95,1.31-3.336,1.121
		c-1.451-0.198-2.852,0.281-3.957,1.343c-0.385,0.37-0.69,0.821-0.462,1.387c0.245,0.611,0.828,0.583,1.336,0.539
		c1.56-0.132,2.904-0.85,4.163-1.71c0.571-0.39,1.015-0.408,1.628-0.078c3.392,1.825,4.512,4.741,4.198,8.414
		c-0.463,5.426-4.975,10.251-10.322,10.667c-4.075,0.317-7.346-1.455-9.869-4.646c-0.353-0.445-0.268-0.889-0.136-1.356
		c0.495-1.769,1.055-3.521,1.466-5.306c0.229-0.992,0.811-1.242,1.686-1.32C263.606,46.942,264.352,47.097,265.08,46.521z"/>
	<path fill="#FFFFFF" d="M273.108,40.301c-1.053,0.592-2.116,1.159-3.564,1.289c0.599-1.258,1.625-1.335,2.582-1.532
		C272.488,39.998,272.914,39.684,273.108,40.301z"/>
	<path fill="#FFFFFF" d="M258.451,49.881c0.068-0.437,0.214-0.819,0.712-1.069c0.09,0.852-0.346,1.532-0.496,2.271
		C258.04,50.781,258.456,50.293,258.451,49.881z"/>
	<path fill="#FFFFFF" d="M258.451,49.881c0.081,0.397-0.121,0.849,0.216,1.201c-0.063,0.176-0.127,0.353-0.298,0.824
		C258.185,51.019,258.128,50.446,258.451,49.881z"/>
	<path fill="#BED92C" d="M273.108,40.301c-0.272-0.306-0.657-0.157-0.983-0.244c0.347-0.233,0.786-0.33,1.12-0.182
		C273.797,40.121,273.303,40.199,273.108,40.301z"/>
</g>
</svg>
