<?xml version="1.0" encoding="utf-8"?>
<!-- Generator: Adobe Illustrator 16.0.0, SVG Export Plug-In . SVG Version: 6.00 Build 0)  -->
<!DOCTYPE svg PUBLIC "-//W3C//DTD SVG 1.1//EN" "http://www.w3.org/Graphics/SVG/1.1/DTD/svg11.dtd" [
	<!ENTITY ns_flows "http://ns.adobe.com/Flows/1.0/">
	<!ENTITY ns_extend "http://ns.adobe.com/Extensibility/1.0/">
	<!ENTITY ns_ai "http://ns.adobe.com/AdobeIllustrator/10.0/">
	<!ENTITY ns_graphs "http://ns.adobe.com/Graphs/1.0/">
]>
<svg version="1.1" id="Layer_1" xmlns:x="&ns_extend;" xmlns:i="&ns_ai;" xmlns:graph="&ns_graphs;"
	 xmlns="http://www.w3.org/2000/svg" xmlns:xlink="http://www.w3.org/1999/xlink" xmlns:a="http://ns.adobe.com/AdobeSVGViewerExtensions/3.0/"
	 x="0px" y="0px" width="453.361px" height="256.561px" viewBox="0 0 453.361 256.561" enable-background="new 0 0 453.361 256.561"
	 xml:space="preserve">
<g>
	<path fill-rule="evenodd" clip-rule="evenodd" fill="#049719" d="M226.944,256.801c-75.194,0-150.388-0.003-225.582,0.028
		c-1.01,0-1.147-0.249-1.147-1.186C0.242,170.891,0.242,86.137,0.214,1.384c0-0.964,0.179-1.171,1.162-1.171
		C151.723,0.241,302.071,0.241,452.418,0.21c1.063,0,1.206,0.278,1.206,1.248c-0.025,84.753-0.024,169.505-0.002,254.258
		c0.001,0.889-0.186,1.108-1.097,1.107C377.332,256.799,302.138,256.801,226.944,256.801z"/>
	<path fill-rule="evenodd" clip-rule="evenodd" fill="#FEFEFE" d="M137.751,157.881c-7.8,0-15.6,0.021-23.399-0.025
		c-1.079-0.006-1.313,0.199-1.119,1.303c1.21,6.856,4.911,11.751,11.602,13.782c6.882,2.09,13.105,0.499,18.282-4.643
		c0.712-0.707,1.25-1.563,1.654-2.481c0.225-0.511,0.411-0.708,1.058-0.521c4.178,1.202,8.371,2.356,12.572,3.477
		c0.875,0.233,0.667,0.601,0.369,1.147c-3.519,6.459-8.791,11.048-15.646,13.447c-12.069,4.224-23.831,3.581-34.462-4.091
		c-8.525-6.15-12.58-14.896-12.918-25.318c-0.295-9.067,2.305-17.214,8.51-23.983c5.46-5.958,12.351-9.245,20.328-10.18
		c7.072-0.829,13.984-0.166,20.438,3.098c11.058,5.594,16.683,14.807,17.732,26.997c0.195,2.275,0.07,4.551-0.048,6.827
		c-0.045,0.869-0.355,1.196-1.313,1.19C153.511,157.861,145.631,157.881,137.751,157.881z"/>
	<path fill-rule="evenodd" clip-rule="evenodd" fill="#FEFEFE" d="M187.641,132.165c5.15-7.812,12.396-11.385,21.104-12.423
		c3.272-0.391,6.556-0.443,9.776,0.335c6.396,1.547,10.17,5.836,12.101,11.926c1.218,3.842,1.621,7.828,1.639,11.827
		c0.058,13.159,0.005,26.317,0.052,39.477c0.004,1.109-0.328,1.289-1.333,1.277c-4.56-0.054-9.12-0.063-13.679,0.005
		c-1.124,0.018-1.458-0.213-1.452-1.406c0.052-11.319,0.044-22.638,0.021-33.957c-0.005-2.475-0.098-4.952-0.744-7.37
		c-1.725-6.453-6.606-9.307-12.968-7.364c-5.924,1.809-10.018,5.762-12.504,11.402c-0.374,0.848-0.506,1.739-0.505,2.682
		c0.02,11.559-0.005,23.117,0.042,34.677c0.005,1.136-0.336,1.346-1.382,1.333c-4.679-0.056-9.359-0.043-14.038-0.006
		c-0.78,0.006-0.988-0.197-0.987-0.984c0.022-20.678,0.023-41.355-0.003-62.034c-0.001-0.832,0.272-0.982,1.017-0.977
		c4.239,0.03,8.479,0.037,12.718-0.004c0.865-0.008,1.167,0.178,1.15,1.114C187.604,125.079,187.641,128.466,187.641,132.165z"/>
	<path fill-rule="evenodd" clip-rule="evenodd" fill="#FEFEFE" d="M261.081,132.099c6.063-8.885,14.572-12.316,24.679-12.577
		c3.851-0.099,7.577,0.393,10.936,2.473c4.76,2.948,6.99,7.517,8.076,12.776c0.705,3.413,0.953,6.88,0.952,10.366
		c-0.006,12.719-0.019,25.438,0.025,38.156c0.004,1.081-0.282,1.307-1.317,1.294c-4.639-0.06-9.279-0.063-13.918,0.002
		c-1.049,0.015-1.219-0.318-1.216-1.272c0.033-11.439,0.032-22.878,0.013-34.316c-0.004-2.558-0.154-5.109-0.848-7.597
		c-1.605-5.757-6.272-8.593-12.038-7.121c-6.349,1.621-10.676,5.68-13.325,11.601c-0.377,0.843-0.513,1.736-0.512,2.679
		c0.021,11.599-0.001,23.198,0.039,34.797c0.004,1.013-0.26,1.239-1.245,1.228c-4.719-0.056-9.439-0.042-14.158-0.009
		c-0.756,0.005-1.003-0.157-1.002-0.969c0.023-20.678,0.023-41.356,0-62.034c-0.001-0.805,0.232-0.998,1.002-0.992
		c4.279,0.034,8.56,0.041,12.839-0.004c0.88-0.009,1.045,0.303,1.035,1.103C261.058,125.069,261.081,128.458,261.081,132.099z"/>
	<path fill-rule="evenodd" clip-rule="evenodd" fill="#FEFEFE" d="M56.64,152.748c0-6.119-0.028-12.239,0.028-18.357
		c0.01-1.032-0.284-1.251-1.254-1.214c-2.077,0.078-4.159,0.003-6.238,0.036c-0.612,0.01-0.833-0.15-0.829-0.796
		c0.027-3.679,0.027-7.359,0-11.039c-0.005-0.668,0.272-0.795,0.858-0.789c2.16,0.024,4.321-0.03,6.479,0.029
		c0.819,0.022,0.976-0.261,0.972-1.014c-0.027-6.199,0.002-12.399-0.036-18.598c-0.005-0.898,0.169-1.205,1.149-1.193
		c4.759,0.059,9.519,0.048,14.278,0.006c0.85-0.007,1.058,0.236,1.053,1.065c-0.034,6.16,0.005,12.319-0.042,18.478
		c-0.008,0.999,0.259,1.276,1.259,1.26c3.759-0.06,7.519-0.008,11.279-0.037c0.748-0.006,1.037,0.158,1.025,0.99
		c-0.05,3.559-0.051,7.12,0,10.678c0.012,0.844-0.297,0.968-1.032,0.961c-3.839-0.031-7.679,0.005-11.519-0.031
		c-0.76-0.007-1.01,0.169-1.008,0.978c0.029,10.159,0.004,20.318,0.026,30.478c0.009,4.25,3.007,6.502,7.664,5.911
		c2.247-0.285,4.344-1.038,6.402-1.893c0.916-0.381,1.134-0.117,1.335,0.708c0.887,3.645,1.792,7.284,2.76,10.907
		c0.206,0.771,0.105,1.107-0.66,1.413c-5.478,2.188-11.043,4.026-17.025,4.01c-3.624-0.01-7.188-0.488-10.35-2.465
		c-4.422-2.766-6.377-6.978-6.501-12.006c-0.151-6.155-0.036-12.317-0.036-18.477C56.666,152.748,56.653,152.748,56.64,152.748z"/>
	<path fill-rule="evenodd" clip-rule="evenodd" fill="#FEF100" d="M407.035,147.527c-0.659-2.604-1.804-4.957-3.56-6.981
		c-2.386-2.75-5.42-4.558-8.737-5.946c-4.839-2.024-9.922-3.284-14.932-4.772c-2.03-0.603-4.032-1.274-5.862-2.379
		c-2.183-1.317-3.347-3.122-2.969-5.772c0.367-2.58,2.046-3.904,4.353-4.536c3.572-0.979,7.134-0.604,10.646,0.385
		c4.218,1.189,8.189,2.936,11.798,5.443c0.604,0.418,0.808,0.308,1.111-0.297c2.025-4.03,4.079-8.046,6.142-12.058
		c0.283-0.551,0.455-0.916-0.263-1.333c-7.793-4.534-16.056-7.549-25.185-7.449c-6.592,0.072-12.733,1.763-17.865,6.153
		c-4.454,3.811-6.915,8.684-7.505,14.524c-0.296,2.936-0.171,5.833,0.62,8.672c1.195,4.286,4.036,7.274,7.758,9.508
		c4.077,2.445,8.563,3.876,13.078,5.245c3.129,0.949,6.313,1.738,9.305,3.107c1.02,0.467,1.991,1.01,2.903,1.665
		c1.894,1.358,2.602,3.193,2.141,5.449c-0.442,2.156-2.025,3.189-3.996,3.668c-1.791,0.435-3.646,0.526-5.481,0.445
		c-20.147-0.893-33.207-16.825-32.56-34.391c0.605-16.429,13.003-29.818,29.333-31.751c18.184-2.152,34.757,11.058,36.733,29.306
		c0.911,8.416-1.123,16.084-5.998,23.001c-0.229,0.326-0.48,0.638-0.729,0.949C407.271,147.437,407.182,147.453,407.035,147.527z"/>
	<path fill-rule="evenodd" clip-rule="evenodd" fill="#FEFEFE" d="M336.041,152.52c0,10.277-0.016,20.555,0.025,30.831
		c0.004,1.001-0.238,1.248-1.237,1.236c-4.718-0.059-9.437-0.041-14.155-0.011c-0.738,0.004-1.015-0.127-1.014-0.957
		c0.025-20.675,0.024-41.349,0.004-62.023c0-0.764,0.169-1.021,0.978-1.016c4.799,0.038,9.598,0.043,14.396-0.003
		c0.902-0.009,1.02,0.333,1.019,1.11C336.034,131.965,336.041,142.242,336.041,152.52z"/>
	<path fill-rule="evenodd" clip-rule="evenodd" fill="#F9FBF9" d="M180.017,90.73c-1.375,2.301-2.776,4.582-4.854,6.345
		c-0.92,0.781-1.886,1.479-3.131,1.649c-1.434,0.197-2.386-0.306-3.001-1.624c-0.841-1.802-0.807-3.721-0.706-5.643
		c0.036-0.677,0.121-1.351,0.209-2.305c-0.866,0.939-1.564,1.706-2.272,2.464c-1.021,1.094-2.219,1.936-3.585,2.553
		c-1.006,0.454-2.002,0.64-2.945-0.074c-0.921-0.698-0.929-1.696-0.757-2.723c0.026-0.157,0.042-0.314,0.07-0.523
		c-0.651,0.372-0.91,1.04-1.393,1.5c-0.609,0.58-1.198,1.179-1.923,1.614c-1.641,0.984-2.783,0.587-3.464-1.217
		c-0.487-1.288-0.55-2.646-0.658-4c-0.032-0.401,0.066-0.979-0.445-1.147c-0.54-0.177-0.727,0.38-0.987,0.703
		c-1.71,2.123-2.991,4.525-4.439,6.819c-0.362,0.573-0.743,1.138-1.165,1.668c-0.302,0.379-0.706,0.689-1.241,0.542
		c-0.535-0.147-0.702-0.601-0.79-1.099c-0.42-2.383,0.118-4.697,0.613-6.988c0.212-0.979,0.134-1.183-0.854-0.962
		c-1.128,0.251-2.282,0.392-3.426,0.568c-0.549,0.085-0.896,0.374-1.207,0.847c-1.059,1.612-2.304,3.063-3.879,4.208
		c-0.758,0.55-1.573,0.953-2.51,1.053c-0.744,0.079-1.48-0.042-1.953-0.661c-0.515-0.674-0.354-1.435-0.007-2.152
		c0.424-0.876,1.208-1.371,2.017-1.811c1.376-0.748,2.857-1.242,4.383-1.555c0.923-0.189,1.471-0.686,1.801-1.53
		c0.319-0.816,0.744-1.596,0.806-2.493c0.062-0.892,0.125-1.834-0.794-2.34c-0.858-0.472-1.699-0.177-2.474,0.334
		c-1.077,0.711-2,1.595-2.849,2.554c-3.788,4.28-5.991,9.394-7.628,14.773c-0.835,2.745-1.452,5.556-2.169,8.337
		c-0.085,0.33-0.042,0.841-0.537,0.784c-0.641-0.074-0.337-0.597-0.298-0.951c0.654-6.001,2.387-11.71,4.69-17.263
		c0.099-0.294-0.014-0.375-0.292-0.289c-1.226,1.193-2.315,2.552-3.906,3.312c-1.447,0.691-2.499,0.596-3.289-0.296
		c-0.563-0.636-0.717-1.417-0.682-2.234c0.02-0.47,0.117-0.936,0.204-1.596c-0.982,0.985-1.648,2.052-2.677,2.742
		c-0.689,0.462-1.347,1.075-2.275,0.537c-0.901-0.522-0.834-1.385-0.759-2.227c0.195-2.177,1.792-4.083,3.787-4.614
		c0.814-0.216,1.599-0.169,2.329,0.203c0.483,0.247,0.865,0.5,1.353-0.004c0.266-0.274,0.604-0.063,0.857,0.15
		c0.289,0.244,0.263,0.529,0.124,0.863c-0.413,0.994-0.812,1.995-1.184,3.004c-0.165,0.446-0.27,0.917-0.371,1.384
		c-0.124,0.567-0.136,1.154,0.387,1.528c0.507,0.363,1.056,0.206,1.587-0.043c0.956-0.448,1.755-1.116,2.501-1.833
		c2.042-1.96,4.063-3.919,5.136-6.662c0.592-1.514,1.461-2.922,2.229-4.365c0.258-0.485,0.563-1.126,1.251-0.749
		c0.606,0.333,0.452,0.97,0.206,1.499c-0.401,0.861-0.843,1.703-1.313,2.646c0.609,0.077,0.81-0.388,1.108-0.628
		c1.06-0.855,2.106-1.737,3.491-2.004c1.989-0.385,3.305,0.588,3.462,2.595c0.053,0.668-0.01,1.365-0.142,2.023
		c-0.132,0.654-0.418,1.276-0.667,2.003c1.56-0.192,3.047-0.406,4.541-0.542c0.503-0.045,0.576-0.365,0.662-0.694
		c1.84-7.065,5.824-12.884,10.589-18.252c0.649-0.731,1.354-1.356,2.302-1.654c1.455-0.457,2.442,0.211,2.577,1.729
		c0.173,1.95-0.39,3.723-1.358,5.371c-2.995,5.103-6.927,9.364-11.71,12.832c-0.659,0.478-1.056,0.989-1.239,1.785
		c-0.521,2.271-1.14,4.521-1.326,7.13c1.157-1.354,1.819-2.715,2.642-3.967c1.006-1.53,1.797-3.208,3.179-4.477
		c0.654-0.601,1.341-1.047,2.254-0.76c0.917,0.289,1.08,1.146,1.201,1.923c0.179,1.142,0.197,2.308,0.35,3.455
		c0.25,1.872,1.069,2.225,2.519,1.013c1.821-1.522,3.298-3.353,4.416-5.46c0.168-0.317,0.325-0.64,0.482-0.963
		c0.239-0.492,0.654-0.587,1.102-0.397c0.452,0.192,0.493,0.616,0.322,1.021c-0.34,0.808-0.706,1.605-1.08,2.398
		c-0.461,0.979-0.835,1.993-1.021,3.055c-0.166,0.955,0.389,1.42,1.334,1.21c0.713-0.159,1.367-0.462,1.936-0.911
		c0.908-0.718,1.793-1.466,2.681-2.211c1.718-1.443,2.793-3.182,3.427-5.422c1.915-6.764,5.891-12.335,10.718-17.342
		c0.165-0.171,0.359-0.32,0.559-0.45c0.865-0.563,1.807-1.022,2.791-0.445c0.953,0.559,0.942,1.583,0.895,2.564
		c-0.138,2.861-1.624,5.146-3.23,7.342c-2.849,3.895-6.23,7.278-10.117,10.148c-0.282,0.208-0.614,0.348-0.71,0.758
		c-0.563,2.417-1.089,4.843-0.745,7.343c0.358,2.6,1.834,3.233,4.024,1.75c1.824-1.236,3.069-3.014,4.314-4.775
		c1.636-2.313,2.914-4.745,3.741-7.53c1.925-6.486,5.816-11.847,10.482-16.667c0.22-0.228,0.477-0.433,0.747-0.597
		c0.81-0.494,1.689-0.852,2.597-0.36c0.893,0.483,0.959,1.407,0.953,2.308c-0.015,2.118-0.861,3.971-1.959,5.702
		c-2.922,4.607-6.681,8.454-11.01,11.74c-0.754,0.572-1.199,1.188-1.365,2.1c-0.385,2.124-0.83,4.243-0.496,6.414
		c0.379,2.459,1.935,3.122,3.996,1.7c1.946-1.343,3.272-3.259,4.59-5.167c0.839-1.215,1.612-2.476,2.424-3.709
		c0.158-0.24,0.258-0.697,0.676-0.448c0.309,0.183,0.113,0.499-0.02,0.745c-1.61,2.989-3.166,6.016-5.695,8.378
		c-0.939,0.877-1.921,1.698-3.215,1.999c-1.698,0.395-2.77-0.154-3.472-1.739c-0.667-1.505-0.623-3.113-0.7-4.705
		C180.246,91.7,180.75,91.108,180.017,90.73z"/>
	<path fill-rule="evenodd" clip-rule="evenodd" fill="#F9FBF9" d="M336.075,93.059c1.038-1.198,1.938-2.439,2.948-3.596
		c0.896-1.028,1.841-1.997,3.063-2.643c2.129-1.126,3.333-0.567,3.806,1.757c0.04,0.194,0.076,0.389,0.114,0.584
		c0.377,0.203,0.605-0.11,0.862-0.245c1.134-0.593,2.302-1.1,3.529-1.465c0.225-0.066,0.506-0.188,0.604,0.126
		c0.09,0.286-0.177,0.406-0.402,0.494c-1.305,0.507-2.535,1.16-3.766,1.823c-0.674,0.363-0.936,0.782-1.021,1.556
		c-0.316,2.877-1.314,5.507-3.268,7.696c-0.95,1.065-2.096,1.869-3.573,2.001c-1.51,0.135-2.356-0.711-2.234-2.229
		c0.084-1.059,0.563-1.975,1.12-2.867c1.533-2.454,3.818-4.047,6.216-5.521c0.899-0.553,1.09-1.655,0.464-2.65
		c-0.534-0.849-1.237-0.965-2.277-0.372c-1.144,0.652-1.923,1.674-2.687,2.7c-1.556,2.091-2.807,4.359-3.864,6.737
		c-0.161,0.363-0.329,0.732-0.556,1.056c-0.254,0.364-0.6,0.716-1.095,0.522c-0.44-0.172-0.431-0.629-0.431-1.033
		c-0.001-1.852,0.442-3.639,0.809-5.437c0.069-0.342,0.231-0.674,0.007-1.14c-0.777,0.845-1.499,1.673-2.268,2.454
		c-0.787,0.8-1.635,1.541-2.729,1.899c-1.73,0.567-2.924-0.167-3.194-1.968c-0.075-0.502-0.063-1.018-0.099-1.649
		c-0.59,0.333-0.792,0.872-1.134,1.279c-0.778,0.927-1.553,1.915-2.959,1.668c-1.418-0.248-1.791-1.373-1.949-2.829
		c-1.136,1.902-2.292,3.52-3.765,4.884c-0.942,0.874-1.92,1.702-3.22,1.993c-1.693,0.379-2.777-0.173-3.467-1.758
		c-0.656-1.507-0.649-3.106-0.617-4.705c0.013-0.62,0.056-1.239,0.102-2.22c-1.726,2.522-3.354,4.669-5.258,6.587
		c-2.063,2.078-4.24,4.012-6.921,5.278c-6.7,3.163-12.928,0.513-14.942-7.168c-1.569-5.98-0.319-11.735,2.167-17.252
		c2.567-5.694,6.271-10.58,11.008-14.63c2.513-2.149,5.391-3.724,8.781-4.052c3.914-0.379,6.096,1.572,6.086,5.536
		c-0.009,3.825-1.252,7.375-2.717,10.843c-1.04,2.462-2.288,4.83-3.571,7.176c-0.076,0.141-0.164,0.275-0.231,0.42
		c-0.237,0.504-0.656,0.805-1.152,0.545c-0.532-0.279-0.221-0.752-0.025-1.142c0.661-1.319,1.353-2.625,1.981-3.959
		c1.825-3.868,3.475-7.796,4.166-12.062c0.21-1.298,0.084-2.558-0.228-3.799c-0.421-1.678-2.088-2.673-4.016-2.469
		c-1.534,0.163-2.947,0.696-4.268,1.473c-3.945,2.32-6.913,5.652-9.502,9.342c-3.619,5.157-6.31,10.742-7.167,17.047
		c-0.424,3.109-0.342,6.226,1.107,9.143c2.107,4.242,6.158,5.89,10.648,4.284c3.869-1.384,6.888-3.976,9.622-6.94
		c0.73-0.792,1.419-1.625,2.086-2.473c1.506-1.916,2.693-3.926,3.369-6.368c1.875-6.774,5.853-12.355,10.636-17.4
		c0.055-0.058,0.123-0.101,0.184-0.153c0.911-0.79,1.94-1.459,3.147-0.94c1.276,0.549,1.11,1.827,1.045,2.94
		c-0.106,1.804-0.861,3.4-1.793,4.9c-2.947,4.745-6.802,8.659-11.224,12.025c-0.686,0.522-1.077,1.067-1.237,1.916
		c-0.445,2.358-0.985,4.705-0.4,7.111c0.434,1.782,1.589,2.313,3.231,1.478c1.649-0.839,2.812-2.229,3.882-3.678
		c1.589-2.151,3.158-4.321,4.309-6.753c0.258-0.545,0.573-1.056,1.258-0.718c0.645,0.318,0.366,0.86,0.166,1.351
		c-0.631,1.547-1.483,3.006-1.84,4.664c-0.128,0.596-0.335,1.188,0.346,1.595c0.676,0.404,1.159-0.047,1.595-0.433
		c1.177-1.042,2.067-2.325,2.892-3.652c0.422-0.678,0.815-1.373,1.244-2.046c0.29-0.455,0.526-1.11,1.261-0.747
		c0.74,0.367,0.371,0.929,0.15,1.438c-0.618,1.429-1.208,2.868-1.525,4.402c-0.133,0.643-0.271,1.313,0.332,1.767
		c0.599,0.45,1.262,0.209,1.79-0.163c2.818-1.984,5.344-4.313,6.346-7.706c2.11-7.145,6.013-13.176,11.021-18.574
		c0.215-0.232,0.469-0.441,0.735-0.611c0.868-0.551,1.81-0.987,2.809-0.465c1.021,0.534,0.954,1.614,0.927,2.552
		c-0.056,1.934-0.87,3.647-1.875,5.241c-3.038,4.819-6.853,8.927-11.467,12.28c-0.284,0.206-0.617,0.331-0.717,0.748
		C336.972,89.486,336.519,91.271,336.075,93.059z"/>
	<path fill-rule="evenodd" clip-rule="evenodd" fill="#F9FBF9" d="M91.152,79.427c2.232-3.688,4.37-7.438,7.201-10.727
		c2.123-2.466,4.403-4.746,7.216-6.43c1.285-0.769,2.664-1.274,4.172-1.343c2.332-0.107,3.786,1.019,4.262,3.314
		c0.528,2.545-0.126,5.01-0.615,7.468c-1.007,5.066-3.145,9.789-4.575,14.73c-1.105,3.822-1.902,7.671-1.81,11.667
		c0.061,2.65,0.463,5.183,2.615,7.064c0.146,0.127,0.359,0.278,0.204,0.487c-0.208,0.282-0.478,0.174-0.743,0.026
		c-1.235-0.693-2.055-1.742-2.644-3.006c-1.193-2.562-1.151-5.272-0.98-7.997c0.354-5.64,2.306-10.902,3.842-16.266
		c1.25-4.364,2.847-8.652,3.08-13.253c0.021-0.397,0.062-0.8,0.019-1.193c-0.184-1.691-1.185-2.399-2.838-1.914
		c-2.425,0.712-4.434,2.173-6.318,3.792c-4.113,3.533-7.211,7.895-9.942,12.52c-3.752,6.356-7.42,12.763-9.874,19.77
		c-0.581,1.659-0.994,3.366-1.358,5.085c-0.082,0.387-0.226,0.762-0.362,1.135c-0.201,0.549-0.638,0.671-1.16,0.578
		c-0.644-0.115-0.521-0.625-0.478-1.042c0.322-3.123,1.265-6.096,2.346-9.013c4.17-11.259,9.487-21.959,15.837-32.147
		c0.105-0.169,0.215-0.34,0.351-0.484c0.285-0.302,0.666-0.592,1.049-0.354c0.542,0.337,0.046,0.714-0.132,1.003
		c-3.057,4.968-5.706,10.152-8.202,15.418c-0.136,0.286-0.238,0.588-0.355,0.883c-0.066,0.089-0.103,0.2-0.039,0.286
		C91.021,79.619,91.072,79.443,91.152,79.427z"/>
	<path fill-rule="evenodd" clip-rule="evenodd" fill="#F9FBF9" d="M247.938,86.893c-0.522,3.256-1.534,6.348-3.102,9.253
		c-0.345,0.639-0.748,1.226-1.345,1.662c-1.014,0.741-1.995,0.498-2.525-0.654c-0.621-1.349-0.574-2.797-0.581-4.233
		c-0.003-0.396,0.043-0.793,0.084-1.483c-0.756,0.923-1.317,1.672-1.946,2.36c-0.645,0.704-1.349,1.586-2.415,1.197
		c-0.988-0.362-0.992-1.483-1.117-2.365c-0.117-0.821-0.025-1.672-0.025-2.527c-0.527-0.165-0.673,0.318-0.912,0.575
		c-0.98,1.055-1.931,2.152-3.172,2.904c-1.09,0.661-2.243,1.367-3.554,0.513c-1.238-0.808-1.2-2.056-1.041-3.324
		c0.024-0.196,0.032-0.394,0.068-0.862c-0.628,0.709-1.086,1.258-1.579,1.773c-0.581,0.608-1.209,1.17-1.991,1.514
		c-0.91,0.4-1.805-0.037-2.053-0.984c-0.696-2.655,1.848-5.974,4.6-6.018c0.621-0.01,1.19,0.147,1.709,0.461
		c0.337,0.204,0.6,0.315,0.93-0.032c0.284-0.298,0.647-0.275,0.972-0.007c0.388,0.319,0.297,0.683,0.123,1.078
		c-0.512,1.169-1.033,2.336-1.346,3.58c-0.096,0.383-0.182,0.781-0.189,1.173c-0.021,0.932,0.5,1.293,1.385,1.171
		c0.527-0.072,0.987-0.33,1.396-0.652c2.358-1.858,4.572-3.846,6.121-6.482c0.379-0.646,0.664-1.912,1.732-1.361
		c1.106,0.571,0.011,1.398-0.228,2.038c-0.655,1.761-1.352,3.503-1.507,5.397c-0.038,0.461-0.246,1.095,0.234,1.33
		c0.551,0.27,0.914-0.341,1.237-0.69c1.313-1.419,2.194-3.133,3.15-4.793c0.159-0.277,0.291-0.571,0.466-0.837
		c0.376-0.571,0.933-0.617,1.477-0.352c0.559,0.271,0.442,0.775,0.263,1.253c-0.863,2.294-1.47,4.642-1.455,7.116
		c0.002,0.24-0.021,0.485,0.021,0.718c0.076,0.418,0.048,0.954,0.571,1.087c0.525,0.133,0.771-0.327,1.007-0.689
		c1.283-1.967,1.875-4.216,2.557-6.419c0.495-1.599,0.854-3.239,1.295-4.855c0.123-0.451,0.203-0.925,0.696-1.2
		c0.791-0.44,1.337-0.189,1.408,0.699c0.197,2.451,2.07,3.571,4.435,2.684c0.404-0.152,0.521-0.437,0.657-0.775
		c0.371-0.924,0.767-1.839,1.142-2.762c0.203-0.499,0.572-0.681,1.05-0.488c0.466,0.188,0.493,0.622,0.322,1.018
		c-0.947,2.194-1.745,4.444-2.465,6.756c0.349,0.276,0.493-0.094,0.684-0.324c0.919-1.106,1.774-2.269,2.838-3.248
		c0.353-0.324,0.698-0.668,1.1-0.922c1.438-0.91,2.728-0.314,2.933,1.37c0.14,1.148,0.171,2.31,0.292,3.461
		c0.069,0.664,0.052,1.463,0.779,1.767c0.725,0.303,1.298-0.262,1.812-0.676c1.602-1.292,2.796-2.955,4.055-4.559
		c0.243-0.311,0.444-1.018,0.926-0.626c0.463,0.376-0.194,0.761-0.429,1.048c-1.479,1.813-2.609,3.935-4.708,5.205
		c-1.937,1.172-3.05,0.779-3.648-1.375c-0.303-1.085-0.402-2.197-0.489-3.313c-0.039-0.506,0.128-1.198-0.399-1.416
		c-0.581-0.241-1.01,0.368-1.392,0.739c-2.253,2.188-4.036,4.737-5.603,7.447c-0.236,0.407-0.263,1.176-0.986,0.954
		c-0.795-0.244-0.54-0.969-0.436-1.535c0.355-1.925,0.953-3.786,1.573-5.639c0.121-0.363,0.402-0.703,0.232-1.176
		c-1.989,0.078-4.043,0.25-5.246-1.889C248.108,86.493,248.051,86.744,247.938,86.893z"/>
	<path fill-rule="evenodd" clip-rule="evenodd" fill="#F9FBF9" d="M205.48,99.335c0.24-3.085,1.108-6.496,1.887-9.917
		c2.156-9.48,5.182-18.669,9.368-27.458c0.429-0.899,0.906-1.777,1.4-2.643c0.354-0.621,0.614-1.673,1.583-1.178
		c0.833,0.425,0.15,1.218-0.072,1.792c-2.247,5.8-4.617,11.564-6.361,17.537c-1.922,6.583-4.576,12.94-6.021,19.667
		c-0.167,0.78-0.361,1.559-0.461,2.348c-0.198,1.56,0.394,2.238,1.994,2.268c1.886,0.036,3.734-0.362,5.597-0.58
		c2.471-0.288,4.947-0.247,7.423-0.249c0.255,0,0.63-0.106,0.668,0.299c0.042,0.441-0.312,0.504-0.651,0.494
		c-4.158-0.122-8.158,0.875-12.198,1.642C206.843,103.89,205.475,102.619,205.48,99.335z"/>
	<path fill-rule="evenodd" clip-rule="evenodd" fill="#F4F9F4" d="M162.354,82.506c0.121-0.706,0.229-1.543,1.184-1.629
		c0.604-0.054,1.08,0.368,1.051,1.043c-0.036,0.835-0.485,1.461-1.32,1.617C162.592,83.664,162.403,83.135,162.354,82.506z"/>
	<path fill-rule="evenodd" clip-rule="evenodd" fill="#46B355" d="M180.017,90.73c0.024-0.236,0.109-0.435,0.45-0.613
		c0.003,0.747,0.072,1.422-0.195,2.084C180.07,91.731,180.401,91.168,180.017,90.73z"/>
	<path fill-rule="evenodd" clip-rule="evenodd" fill="#23A435" d="M91.152,79.427c-0.189,0.349-0.378,0.698-0.567,1.046
		c-0.094-0.05-0.188-0.101-0.281-0.151c0.219-0.374,0.438-0.748,0.657-1.121C91.024,79.276,91.088,79.352,91.152,79.427z"/>
	<path fill-rule="evenodd" clip-rule="evenodd" fill="#50B75E" d="M125.972,90.697c0.133-0.29,0.323-0.524,0.655-0.66
		c0.025,0.387-0.122,0.685-0.363,0.949C126.167,90.89,126.069,90.793,125.972,90.697z"/>
	<path fill-rule="evenodd" clip-rule="evenodd" fill="#76C782" d="M247.938,86.893c-0.04-0.237-0.061-0.52,0.191-0.603
		c0.298-0.098,0.247,0.183,0.256,0.362C248.237,86.733,248.088,86.813,247.938,86.893z"/>
	<path fill-rule="evenodd" clip-rule="evenodd" fill="#049819" d="M129.407,147.16c-4.994,0-9.987,0-14.981,0
		c-1.605,0-1.605,0-1.402-1.548c0.866-6.585,5.667-12.023,12.086-13.692c6.599-1.715,13.542,0.665,17.506,5.981
		c1.887,2.532,2.82,5.415,3.276,8.499c0.128,0.867-0.376,0.763-0.906,0.763C139.794,147.158,134.601,147.16,129.407,147.16z"/>
	<path fill-rule="evenodd" clip-rule="evenodd" fill="#049819" d="M183.346,85.779c0.214-1.769,0.926-3.264,1.631-4.759
		c1.944-4.126,4.197-8.067,7.024-11.663c0.497-0.632,1.041-1.219,1.738-1.63c1.174-0.692,2.018-0.228,2.133,1.148
		c0.083,0.988-0.204,1.891-0.602,2.775c-1.975,4.387-5.136,7.867-8.55,11.146C185.638,83.834,184.473,84.787,183.346,85.779z"/>
	<path fill-rule="evenodd" clip-rule="evenodd" fill="#049819" d="M146.009,85.368c2.027-5.215,4.471-10.204,7.842-14.694
		c0.741-0.988,1.442-2.016,2.458-2.763c0.499-0.367,1.036-0.678,1.655-0.402c0.633,0.282,0.716,0.93,0.773,1.524
		c0.071,0.729-0.149,1.418-0.424,2.089c-1.986,4.854-5.469,8.57-9.205,12.091c-0.667,0.628-1.38,1.21-2.082,1.801
		C146.735,85.261,146.468,85.628,146.009,85.368z"/>
	<path fill-rule="evenodd" clip-rule="evenodd" fill="#049819" d="M171.221,85.633c0.366-1.67,1.05-3.182,1.759-4.686
		c1.86-3.942,4.014-7.709,6.665-11.179c0.605-0.793,1.241-1.576,2.131-2.075c1.133-0.636,1.958-0.174,2.063,1.132
		c0.072,0.896-0.135,1.734-0.486,2.558c-1.493,3.511-3.834,6.425-6.421,9.165C175.182,82.4,173.346,84.157,171.221,85.633z"/>
	<path fill-rule="evenodd" clip-rule="evenodd" fill="#05991A" d="M113.752,91.448c0.325-1.488,1.019-3.006,2.534-4.024
		c0.401-0.27,0.879-0.362,1.372-0.309c0.412,0.044,0.847,0.179,1.012,0.534c0.149,0.323-0.301,0.492-0.495,0.717
		c-1.091,1.263-2.189,2.52-3.301,3.765c-0.207,0.232-0.494,0.498-0.817,0.394C113.685,92.405,113.77,92.007,113.752,91.448z"/>
	<path fill-rule="evenodd" clip-rule="evenodd" fill="#079A1C" d="M135.543,89.84c-0.901,1.53-2.077,2.757-3.501,3.706
		c-0.56,0.373-1.368,0.87-1.941,0.152c-0.572-0.716,0.064-1.366,0.58-1.841C132.038,90.606,133.736,90.107,135.543,89.84z"/>
	<path fill-rule="evenodd" clip-rule="evenodd" fill="#049819" d="M338.198,85.782c-0.122-0.696,0.212-1.176,0.397-1.683
		c1.95-5.325,4.776-10.161,8.247-14.629c0.515-0.663,1.07-1.302,1.798-1.741c1.095-0.661,1.952-0.263,2.184,1
		c0.151,0.823-0.134,1.579-0.419,2.325c-1.506,3.93-4.233,7.011-7.037,10.026C341.796,82.771,340.097,84.335,338.198,85.782z"/>
	<path fill-rule="evenodd" clip-rule="evenodd" fill="#049819" d="M311.719,86c0.51-1.86,1.212-3.411,1.94-4.949
		c1.967-4.155,4.228-8.135,7.091-11.749c0.549-0.692,1.149-1.338,1.97-1.711c0.926-0.42,1.561-0.106,1.784,0.879
		c0.23,1.017-0.028,1.968-0.423,2.905c-1.575,3.748-4.135,6.796-6.9,9.693C315.533,82.792,313.767,84.389,311.719,86z"/>
	<path fill-rule="evenodd" clip-rule="evenodd" fill="#059919" d="M344.032,91.711c0.496-0.053,0.429,0.291,0.348,0.538
		c-0.939,2.856-2.035,5.631-4.575,7.498c-0.519,0.382-1.193,0.887-1.848,0.395c-0.668-0.502-0.442-1.315-0.256-1.993
		c0.325-1.188,1.153-2.083,1.969-2.951c1.176-1.251,2.545-2.284,3.967-3.243C343.768,91.867,343.905,91.789,344.032,91.711z"/>
	<path fill-rule="evenodd" clip-rule="evenodd" fill="#06991B" d="M221.784,91.67c0.396-1.683,1.056-3.233,2.582-4.242
		c0.394-0.26,0.875-0.364,1.372-0.317c0.418,0.039,0.845,0.167,1.004,0.532c0.143,0.325-0.3,0.504-0.492,0.729
		c-1.104,1.3-2.132,2.668-3.384,3.837c-0.201,0.188-0.461,0.439-0.723,0.327C221.827,92.401,221.857,92.006,221.784,91.67z"/>
</g>
</svg>
