<?xml version="1.0" encoding="utf-8"?>
<!-- Generator: Adobe Illustrator 16.0.0, SVG Export Plug-In . SVG Version: 6.00 Build 0)  -->
<!DOCTYPE svg PUBLIC "-//W3C//DTD SVG 1.1//EN" "http://www.w3.org/Graphics/SVG/1.1/DTD/svg11.dtd" [
	<!ENTITY ns_flows "http://ns.adobe.com/Flows/1.0/">
	<!ENTITY ns_extend "http://ns.adobe.com/Extensibility/1.0/">
	<!ENTITY ns_ai "http://ns.adobe.com/AdobeIllustrator/10.0/">
	<!ENTITY ns_graphs "http://ns.adobe.com/Graphs/1.0/">
]>
<svg version="1.1" id="Layer_1" xmlns:x="&ns_extend;" xmlns:i="&ns_ai;" xmlns:graph="&ns_graphs;"
	 xmlns="http://www.w3.org/2000/svg" xmlns:xlink="http://www.w3.org/1999/xlink" xmlns:a="http://ns.adobe.com/AdobeSVGViewerExtensions/3.0/"
	 x="0px" y="0px" width="128.083px" height="47.574px" viewBox="0 0 128.083 47.574" enable-background="new 0 0 128.083 47.574"
	 xml:space="preserve">
<rect fill-rule="evenodd" clip-rule="evenodd" width="128.083" height="47.574"/>
<rect x="261.959" y="-362.09" fill="none" width="948.095" height="1317.131"/>
<g>
	<path fill-rule="evenodd" clip-rule="evenodd" fill="#3D6AB0" d="M104.186,28.835c1.033,0.024,2.065,0.081,3.098,0.065
		c0.844-0.014,1.084,0.397,1.094,1.172c0.01,0.796-0.268,1.187-1.098,1.135c-0.475-0.03-0.953-0.002-1.432-0.002
		c-28.156,0-56.313,0-84.469,0c-0.557,0-1.113-0.008-1.67-0.009c-0.78-0.001-0.864-0.519-0.857-1.126
		c0.007-0.597,0.076-1.137,0.851-1.153c0.636-0.013,1.272-0.013,1.909-0.013c25.771,0,51.542,0.001,77.311-0.003
		c0.953,0,1.906-0.043,2.859-0.066C102.583,28.261,103.385,28.261,104.186,28.835z"/>
	<path fill-rule="evenodd" clip-rule="evenodd" fill="#FAFAFA" d="M81.192,22.955c0-0.873-0.014-1.746,0.006-2.619
		c0.009-0.365,0.002-1.075,0.43-0.896c1.668,0.699,3.404-0.474,4.894,0.141c0.964,0.398,1.435,0.579,2.409,0.014
		c1.213-0.704,2.775-0.345,3.106,1.096c0.399,1.738,0.23,3.617,0.221,5.435c-0.005,0.841-0.753,0.627-1.271,0.64
		c-0.62,0.015-1.08-0.178-1.073-0.931c0.012-1.111-0.001-2.222-0.015-3.333c-0.008-0.599-0.169-1.154-0.872-1.196
		c-0.822-0.049-1.078,0.503-1.077,1.232c0.001,1.031-0.024,2.063,0.003,3.094c0.021,0.75-0.154,1.194-1.047,1.161
		c-0.848-0.031-1.36-0.236-1.301-1.218c0.053-0.869,0.016-1.745,0.007-2.617c-0.007-0.724,0.004-1.597-0.944-1.629
		c-1.141-0.038-1.055,0.938-1.078,1.728c-0.014,0.476,0.069,0.966-0.018,1.426c-0.164,0.857,0.679,2.247-1.137,2.292
		c-2.055,0.053-1-1.518-1.223-2.396C81.097,23.931,81.191,23.431,81.192,22.955z"/>
	<path fill-rule="evenodd" clip-rule="evenodd" fill="#FAF9F9" d="M19.657,23.011c0-0.873-0.014-1.745,0.006-2.617
		c0.01-0.438,0.019-1.277,0.573-0.98c1.667,0.896,3.237-0.351,4.813,0.004c1.014,0.228,1.648,1.025,1.725,2.038
		c0.108,1.419,0.009,2.854,0.06,4.279c0.03,0.867-0.382,1.087-1.153,1.05c-0.719-0.034-1.224-0.188-1.195-1.072
		c0.033-1.029-0.003-2.062-0.025-3.091c-0.015-0.693-0.234-1.285-1.038-1.324c-0.87-0.041-1.31,0.482-1.35,1.31
		c-0.043,0.87-0.019,1.744-0.024,2.616c-0.006,0.778,0.181,1.559-1.111,1.592c-1.378,0.035-1.315-0.746-1.286-1.663
		C19.675,24.438,19.657,23.725,19.657,23.011z"/>
	<path fill-rule="evenodd" clip-rule="evenodd" fill="#F5F5F5" d="M43.373,26.341c-2.327,1.161-2.83-0.465-3.586-1.624
		c-0.683,0.23-0.782,0.826-0.981,1.266c-0.442,0.978-1.361,1.016-2.009,0.723c-1.18-0.532-0.084-1.327,0.209-1.664
		c1.838-2.104-0.052-3.621-0.765-5.335c2.005-1.146,2.567,0.35,3.239,1.779c1.097-0.809,1.286-3.14,3.658-1.793
		C41.583,21.773,40.696,24.084,43.373,26.341z"/>
	<path fill-rule="evenodd" clip-rule="evenodd" fill="#F3F2F2" d="M69.269,17.504c1.792-0.396,0.883,2.254,2.435,2.224
		c0.043-0.001,0.191,1.025-0.504,1.538c-1.326,0.977-0.891,2.519-0.281,3.545c0.458,0.77,1.635,1.324,0.359,2.014
		c-0.959,0.52-2.277,0.156-2.82-1.038c-0.313-0.687-0.275-1.54-0.355-2.323c-0.09-0.897,0.123-1.747-0.707-2.585
		C66.665,20.141,68.225,17.532,69.269,17.504z"/>
	<path fill-rule="evenodd" clip-rule="evenodd" fill="#F7F6F6" d="M47.135,26.955c-0.747-0.061-1.306-0.299-1.772-0.773
		c-0.504-0.512-0.548-1.188-0.439-1.779c0.4-2.162-1.654-4.316,0.023-6.481c0.302-0.39,0.618-0.41,1-0.411
		c0.629-0.001,1.534-0.055,1.296,0.854c-0.295,1.123,2.79,1.261,0.618,2.947c-1.088,0.845-1.118,2.59,0.128,3.775
		c0.452,0.43,0.73,0.847,0.519,1.397C48.241,27.174,47.551,26.838,47.135,26.955z"/>
	<path fill-rule="evenodd" clip-rule="evenodd" fill="#DDDCDD" d="M66.278,23.073c-0.001,0.865-0.023,1.73,0.006,2.595
		c0.031,0.978-0.531,1.174-1.355,1.16c-0.763-0.013-1.171-0.301-1.165-1.111c0.014-1.729,0.037-3.461-0.013-5.189
		c-0.026-0.933,0.349-1.225,1.247-1.216c0.847,0.01,1.35,0.187,1.292,1.167C66.239,21.34,66.279,22.208,66.278,23.073z"/>
	<path fill-rule="evenodd" clip-rule="evenodd" fill="#E6E5E6" d="M52.011,23.834c-0.711-0.521-2.322,0.8-2.255-1.135
		c0.059-1.665,1.458-0.832,2.202-0.851c0.83-0.02,2.375-0.766,2.314,1.022C54.217,24.498,52.759,23.366,52.011,23.834z"/>
	<path fill-rule="evenodd" clip-rule="evenodd" fill="#E6E5E5" d="M66.157,17.319c-0.082,0.672-0.307,1.102-1.012,1.134
		c-0.753,0.033-1.233-0.264-1.285-1.028c-0.045-0.661,0.364-0.991,0.999-1.053C65.61,16.299,66.04,16.641,66.157,17.319z"/>
	<path fill-rule="evenodd" clip-rule="evenodd" fill="#F8F8F8" d="M59.648,22.248c-0.446-0.104-1,0.014-1.21-0.534
		c-0.061-0.157,0.04-0.468,0.174-0.592c0.547-0.506,1.082-0.16,1.461,0.216c0.632,0.626,1.297,0.447,1.953,0.204
		c0.37-0.137,0.267-0.56,0.123-0.816c-0.792-1.405-2.146-1.438-3.521-1.371c-1.276,0.062-2.381,0.49-2.668,1.866
		c-0.303,1.446,0.569,2.184,1.864,2.537c0.078-0.006,0.17-0.042,0.232-0.013c0.725,0.343,2.303,0.15,2.043,1.002
		c-0.376,1.236-1.463,0.288-2.299-0.046c-0.549-0.22-1.232-0.105-1.855-0.141c-0.001,0.001-0.002,0-0.003,0.001
		c0.146,2.311,1.883,2.406,3.524,2.37c1.479-0.033,2.98-0.549,3.114-2.282C62.73,22.709,61.022,22.569,59.648,22.248z"/>
	<path fill-rule="evenodd" clip-rule="evenodd" fill="#FBFBFB" d="M107.706,19.755c-1.754-1.175-3.638,0.736-5.488-0.292
		c-0.52-0.288-0.403,0.832-0.41,1.302c-0.04,2.689-0.023,5.38-0.025,8.07c0.802,0,1.604,0,2.404,0c0-0.867,0-1.734,0-2.773
		c1.852,1.282,3.41,1.167,4.525-0.713C109.745,23.605,109.155,20.726,107.706,19.755z M106.748,23.275
		c-0.037,0.774-0.204,1.754-1.224,1.752c-1.29-0.003-1.379-1.067-1.414-1.84c0.037-1.183,0.268-2.065,1.46-1.93
		C106.731,21.389,106.789,22.413,106.748,23.275z"/>
	<path fill-rule="evenodd" clip-rule="evenodd" fill="#F9F8F8" d="M100.37,24.593c-0.054-0.552-0.045-1.116-0.002-1.67
		c0.129-1.687-0.322-3.12-2.136-3.464c-1.738-0.33-3.535-0.337-4.476,2.102c0.563,0.078,0.949,0.119,1.33,0.187
		c0.959,0.167,2.321-1.528,2.629-0.243c0.303,1.271-1.668,0.732-2.579,1.116c-1.202,0.507-1.837,1.189-1.612,2.505
		c0.256,1.49,1.322,1.763,2.634,1.843c0.74,0.045,1.097-0.92,1.911-0.513C100.159,27.5,100.545,26.401,100.37,24.593z
		 M96.641,25.376c-0.466,0.022-1.036-0.233-0.946-0.793c0.142-0.878,0.95-0.899,1.649-0.963c0.496-0.044,0.728,0.192,0.702,0.308
		C97.864,25.091,97.279,25.346,96.641,25.376z"/>
	<path fill-rule="evenodd" clip-rule="evenodd" fill="#F7F7F6" d="M31.917,23.683c0.621-0.097,1.275-0.077,1.905-0.013
		c1.475,0.15,1.817-0.449,1.363-1.792c-0.667-1.973-2.056-2.774-4.037-2.505c-1.919,0.262-2.878,1.468-3.009,3.397
		c-0.135,1.987,0.567,3.509,2.547,4.028c1.911,0.501,3.593,0.087,4.47-1.993c-1.148-0.635-2.033,0.02-2.995,0.289
		c-0.601,0.168-1.391,0.127-1.527-0.708C30.438,23.19,31.437,23.759,31.917,23.683z M30.46,22.131
		c1.181-1.175,1.181-1.175,2.698-0.162C32.16,22.481,31.369,22.291,30.46,22.131z"/>
	<path fill-rule="evenodd" clip-rule="evenodd" fill="#F8F8F8" d="M77.573,23.633c0.77-0.117,1.926,0.595,2.244-0.525
		c0.34-1.198-0.146-2.34-1.221-3.122c-1.641-1.194-4.164-0.769-5.268,0.888c-1.22,1.831-0.625,4.633,1.193,5.622
		c2.045,1.113,4.199,0.395,5.195-1.707c-1.344-1.286-3.438,1.838-4.873-1.13C76,23.658,76.802,23.75,77.573,23.633z M78.077,22.104
		c-1.307,0.223-2.113,0.391-3.066-0.089C75.948,20.789,76.762,20.774,78.077,22.104z"/>
</g>
</svg>
