<?xml version="1.0" encoding="utf-8"?>
<!-- Generator: Adobe Illustrator 16.0.0, SVG Export Plug-In . SVG Version: 6.00 Build 0)  -->
<!DOCTYPE svg PUBLIC "-//W3C//DTD SVG 1.1//EN" "http://www.w3.org/Graphics/SVG/1.1/DTD/svg11.dtd" [
	<!ENTITY ns_flows "http://ns.adobe.com/Flows/1.0/">
	<!ENTITY ns_extend "http://ns.adobe.com/Extensibility/1.0/">
	<!ENTITY ns_ai "http://ns.adobe.com/AdobeIllustrator/10.0/">
	<!ENTITY ns_graphs "http://ns.adobe.com/Graphs/1.0/">
]>
<svg version="1.1" id="Layer_1" xmlns:x="&ns_extend;" xmlns:i="&ns_ai;" xmlns:graph="&ns_graphs;"
	 xmlns="http://www.w3.org/2000/svg" xmlns:xlink="http://www.w3.org/1999/xlink" xmlns:a="http://ns.adobe.com/AdobeSVGViewerExtensions/3.0/"
	 x="0px" y="0px" width="865px" height="540px" viewBox="0 0 865 540" enable-background="new 0 0 865 540" xml:space="preserve">
<rect fill-rule="evenodd" clip-rule="evenodd" fill="#FFFFFF" width="865" height="540"/>
<g>
	<path fill-rule="evenodd" clip-rule="evenodd" fill="#FEFEFE" d="M34,156c0-40.823,0.036-81.646-0.076-122.469
		c-0.008-2.892,0.471-3.62,3.543-3.619c264.266,0.095,528.531,0.095,792.797,0.008c3.154-0.001,3.813,0.75,3.812,3.842
		c-0.086,157.126-0.093,314.253,0.035,471.379c0.003,3.709-1.125,3.934-4.249,3.933C649.574,508.991,469.287,509,289,509
		c-5.361-4.563-8.606-10.734-12.494-16.417c-0.664-1.343-1.205-2.764-2.4-3.774c-0.831-0.736-1.551-1.557-2.015-2.577
		c-0.767-1.883-1.961-3.507-3.132-5.148c-35.893-53.563-71.944-107.015-107.829-160.578
		c-28.373-42.353-56.892-84.608-85.302-126.937c-7.147-10.649-14.481-21.18-21.466-31.937c-2.179-3.355-4.8-4.659-8.703-4.477
		c-3.47,0.163-6.992,0.436-10.458-0.313C34.767,156.612,34.367,156.33,34,156z"/>
	<path fill-rule="evenodd" clip-rule="evenodd" fill="#FFFFFF" d="M273.051,486.478c0.684,0.528,1.368,1.057,2.052,1.584
		c0.183,1.717,0.905,3.1,2.456,3.97c3.814,5.656,7.627,11.313,11.441,16.969c-83.667,0-167.333-0.026-251,0.096
		c-3.424,0.005-4.111-0.67-4.098-4.096C34.053,463.334,34,421.667,34,380c0.41-0.351,0.857-0.645,1.339-0.888
		c2.615-0.745,5.3-0.398,7.953-0.441c2.883-0.046,4.305-1.365,4.341-4.25c0.021-1.666,0.037-3.332,0.037-4.998
		c0.001-62.318-0.015-124.637,0.053-186.955c0.003-2.842-1.413-7.115,1.714-8.137c3.224-1.054,4.458,3.275,6.08,5.613
		c40.062,57.772,79.914,115.689,119.699,173.651c27.268,39.727,57.256,77.41,85.895,116.105c2.769,3.741,5.469,7.537,8.054,11.406
		C270.433,482.914,271.925,484.563,273.051,486.478z"/>
	<path fill-rule="evenodd" clip-rule="evenodd" fill="#CED0D1" d="M35.259,379.822C34.839,379.881,34.42,379.94,34,380
		c0-74.667,0-149.333,0-224c0.384,0.031,0.769,0.063,1.153,0.095c1.681,1.962,1.451,4.366,1.452,6.672
		c0.033,70.116,0.031,140.231,0,210.348C36.604,375.416,36.868,377.82,35.259,379.822z"/>
	<path fill-rule="evenodd" clip-rule="evenodd" fill="#0B0B0B" d="M223.084,267.82c0-35.654,0.063-71.309-0.09-106.962
		c-0.017-3.859,0.881-4.936,4.859-4.923c46.983,0.151,93.967,0.223,140.949-0.065c5.691-0.034,5.083,2.698,5.046,6.298
		c-0.034,3.421,0.507,5.996-4.881,5.959c-42.317-0.289-84.636-0.095-126.954-0.264c-4.105-0.016-5.184,0.88-5.149,5.087
		c0.221,26.489,0.205,52.981,0.014,79.471c-0.029,4.045,0.798,5.27,5.088,5.249c39.319-0.187,78.64,0.004,117.958-0.247
		c5.169-0.032,5.911,1.707,5.837,6.216c-0.07,4.234-0.678,5.962-5.61,5.932c-39.318-0.234-78.638-0.075-117.958-0.217
		c-3.901-0.014-5.37,0.56-5.335,4.999c0.23,29.655,0.193,59.313,0.027,88.968c-0.021,3.724,0.865,4.662,4.631,4.648
		c42.984-0.148,85.97-0.003,128.954-0.224c4.691-0.024,5.211,1.811,4.741,5.456c-0.389,3.011,1.746,6.796-4.55,6.762
		c-47.648-0.259-95.299-0.208-142.949-0.027c-4.322,0.016-4.703-1.6-4.692-5.152C223.126,339.129,223.084,303.475,223.084,267.82z"
		/>
	<path fill-rule="evenodd" clip-rule="evenodd" fill="#0B0B0B" d="M626.103,58.181c-18.797,27.25-37.563,54.521-56.399,81.744
		c-27.934,40.37-55.877,80.732-83.96,120.997c-2.077,2.978-1.985,4.761,0.113,7.633c25.63,35.08,51.11,70.27,76.625,105.435
		c1.225,1.688,2.404,3.408,4.109,5.829c-5.525,0-10.121-0.073-14.713,0.028c-2.587,0.058-3.226-2.051-4.336-3.578
		c-23.584-32.454-47.188-64.894-70.622-97.455c-2.462-3.42-3.388-3.104-5.693,0.084c-23.114,31.971-46.475,63.764-69.497,95.8
		c-2.898,4.034-5.857,5.743-10.629,5.184c-2.785-0.326-5.64-0.06-8.729-0.06c0.188-2.462,1.982-3.868,3.18-5.509
		c25.711-35.229,51.426-70.455,77.292-105.57c2.273-3.088,2.166-5.04-0.047-8.083c-23.981-32.984-47.804-66.085-71.661-99.16
		c-1.125-1.56-2.177-3.173-3.744-5.463c5.196,0,9.619,0.085,14.036-0.033c2.621-0.069,3.249,2.105,4.332,3.604
		c21.541,29.819,43.021,59.683,64.517,89.533c3.831,5.32,3.881,5.345,7.568,0.222c46.795-65.021,95.66-128.461,145.754-190.963
		c0.409-0.511,0.908-0.948,1.365-1.42C625.952,56.802,626.419,57.12,626.103,58.181z"/>
	<path fill-rule="evenodd" clip-rule="evenodd" fill="#0B0B0B" d="M35.259,379.822c-0.086-1.326-0.249-2.652-0.249-3.979
		C34.999,303.591,35,231.337,35.006,159.083c0-0.996,0.096-1.992,0.147-2.988c12.257-2.497,19.273,2.798,26.221,13.242
		c68.413,102.839,137.484,205.239,206.361,307.771c0.828,1.231,1.545,2.537,2.314,3.809c0.382,1.091-0.111,1.323-1.075,1.097
		c-20.782-27.466-41.701-54.829-62.316-82.419c-37.559-50.266-71.654-102.956-107.621-154.338
		c-15.454-22.077-30.594-44.375-45.882-66.569c-1.02-1.48-2.086-2.929-4.036-5.659c0,3.1,0.003,4.817,0,6.536
		c-0.146,64.645-0.363,129.29-0.313,193.936c0.004,5.271-1.401,7.129-6.557,6.38C39.964,379.547,37.592,379.822,35.259,379.822z"/>
	<path fill-rule="evenodd" clip-rule="evenodd" fill="#0C0B0C" d="M651.232,274.006c0-33.823-0.061-67.646,0.088-101.469
		c0.017-3.639-0.713-4.71-4.561-4.675c-22.991,0.212-45.986,0.003-68.978,0.202c-3.997,0.034-5.507-0.687-5.254-5.049
		c0.403-6.965,0.093-6.982,7.207-6.982c53.15,0,106.302,0.12,159.45-0.172c5.827-0.032,4.947,2.875,4.934,6.307
		c-0.012,3.287,0.784,6.079-4.772,5.978c-23.151-0.424-46.316-0.083-69.475-0.271c-3.87-0.031-4.906,0.903-4.898,4.857
		c0.134,66.979,0.043,133.959,0.206,200.938c0.012,4.814-0.827,7.232-6.086,6.18c-0.961-0.192-2.016-0.162-2.99-0.004
		c-3.933,0.639-4.985-0.902-4.966-4.871C651.304,341.319,651.232,307.662,651.232,274.006z"/>
	<path fill-rule="evenodd" clip-rule="evenodd" fill="#0D0D0D" d="M814.362,364.915c-6.909-0.438-13.663-1.901-17.156-9.238
		c-0.649-1.364-2.604-3.927-0.234-4.632c2.01-0.598,5.045-1.748,7.063,1.452c3.515,5.572,11.229,7.369,17.103,4.335
		c2.525-1.304,4.255-3.217,4.188-6.257c-0.063-2.892-1.84-4.691-4.322-5.528c-3.765-1.271-7.652-2.177-11.491-3.229
		c-8.653-2.371-12.734-6.991-12.326-13.967c0.412-7.056,5.405-11.838,13.873-13.284c8.724-1.491,17.101,2.102,19.994,8.707
		c0.644,1.47,2.364,3.869-0.004,4.501c-1.869,0.498-4.69,1.651-6.626-1.327c-3.616-5.565-9.352-7.097-15.08-4.523
		c-2.628,1.181-4.333,2.979-4.402,6.048c-0.068,3.026,1.814,4.629,4.276,5.467c3.447,1.175,7.017,1.996,10.535,2.963
		c10.067,2.766,13.744,6.829,13.251,14.65c-0.47,7.451-5.987,12.366-15.318,13.617C816.697,364.802,815.693,364.82,814.362,364.915z
		"/>
	<path fill-rule="evenodd" clip-rule="evenodd" fill="#0D0D0D" d="M785.961,335.126c0,5.483,0.252,10.981-0.061,16.446
		c-0.451,7.884-5.479,12.617-13.479,13.239c-7.533,0.586-13.963-3.403-15.427-9.756c-0.281-1.218-1.606-3.448,0.414-3.723
		c2.069-0.281,5.23-1.853,6.475,1.278c1.736,4.367,4.833,5.744,9.053,4.921c4.742-0.926,5.607-4.715,5.638-8.75
		c0.072-9.804,0.108-19.609-0.021-29.411c-0.037-2.805,0.375-4.188,3.728-4.172c3.155,0.016,3.961,0.97,3.829,3.978
		c-0.232,5.308-0.064,10.632-0.064,15.949C786.018,335.126,785.989,335.126,785.961,335.126z"/>
	<path fill-rule="evenodd" clip-rule="evenodd" fill="#232324" d="M742.693,364.156c-3.025-0.224-4.755-1.831-4.75-5.027
		c0.004-3.005,1.877-4.681,4.582-4.84c3.063-0.179,5.087,1.757,5.149,4.802C747.735,362.077,746.024,363.988,742.693,364.156z"/>
	<path fill-rule="evenodd" clip-rule="evenodd" fill="#4F4F51" d="M626.103,58.181c-0.38-0.4-0.76-0.801-1.14-1.201
		c0.649-1.603,1.738-2.87,3.031-3.982c0.953-0.216,1.46-0.005,1.048,1.091C628.305,55.626,627.519,57.129,626.103,58.181z"/>
	<path fill-rule="evenodd" clip-rule="evenodd" fill="#5D5D60" d="M629.042,54.088c-0.349-0.364-0.698-0.728-1.048-1.091
		c0.809-1.492,1.506-3.106,4.009-3.606C631.376,51.597,630.328,52.912,629.042,54.088z"/>
	<path fill-rule="evenodd" clip-rule="evenodd" fill="#4D4D4F" d="M268.974,482.013c0.358-0.365,0.717-0.731,1.075-1.097
		c1.407,1.635,3.186,3.068,3.002,5.562C271.026,485.598,269.785,484.002,268.974,482.013z"/>
	<path fill-rule="evenodd" clip-rule="evenodd" fill="#6C6D6F" d="M277.559,492.031c-2.414-0.336-3.806-1.305-2.456-3.97
		C276.169,489.231,277.169,490.442,277.559,492.031z"/>
</g>
</svg>
