<?xml version="1.0" encoding="utf-8"?>
<!-- Generator: Adobe Illustrator 16.0.0, SVG Export Plug-In . SVG Version: 6.00 Build 0)  -->
<!DOCTYPE svg PUBLIC "-//W3C//DTD SVG 1.1//EN" "http://www.w3.org/Graphics/SVG/1.1/DTD/svg11.dtd" [
	<!ENTITY ns_flows "http://ns.adobe.com/Flows/1.0/">
	<!ENTITY ns_extend "http://ns.adobe.com/Extensibility/1.0/">
	<!ENTITY ns_ai "http://ns.adobe.com/AdobeIllustrator/10.0/">
	<!ENTITY ns_graphs "http://ns.adobe.com/Graphs/1.0/">
]>
<svg version="1.1" id="Layer_1" xmlns:x="&ns_extend;" xmlns:i="&ns_ai;" xmlns:graph="&ns_graphs;"
	 xmlns="http://www.w3.org/2000/svg" xmlns:xlink="http://www.w3.org/1999/xlink" xmlns:a="http://ns.adobe.com/AdobeSVGViewerExtensions/3.0/"
	 x="0px" y="0px" width="253px" height="297px" viewBox="0 0 253 297" enable-background="new 0 0 253 297" xml:space="preserve">
<g>
	<path fill-rule="evenodd" clip-rule="evenodd" fill="#FEFEFE" d="M235,216c0,18-0.058,36,0.066,54
		c0.018,2.502-0.566,3.066-3.066,3.063c-68.334-0.079-136.667-0.079-205,0c-2.5,0.003-3.065-0.564-3.063-3.063
		c0.077-77.667,0.077-155.333,0-233c-0.002-2.499,0.561-3.086,3.063-3.066C44,34.061,61,34,78,34
		c0.34,0.494,0.294,0.949-0.133,1.368c-2.252,1.23-4.739,1.721-7.225,1.589c-8.913-0.475-16.761,3.514-25.024,5.756
		c-0.464,0.126-0.852,0.528-1.315,0.707c-3.002,1.162-7.134,0.822-8.239,4.706c-1.223,4.298-1.652,8.807-0.73,13.298
		c1.472,7.176,3.563,14.095,7.156,20.581c3.03,5.47,7.099,9.957,11.591,14.153c0.97,0.906,2.057,1.691,3.005,2.63
		c3.997,3.955,4.039,4.982-0.149,8.718c-7.407,6.609-11.875,14.746-12.767,24.657c-0.518,5.761-2.918,10.189-7.103,14.279
		c-11.555,11.295-14.093,28.36-5.762,42.156c4.757,7.878,7.51,16.329,9.82,24.956c3.386,12.65,10.773,21.36,21.857,28.395
		c10.791,6.848,22.495,12.068,32.749,19.938c12.975,9.961,30.271,9.144,44.824-0.672c2.325-1.584,4.381-0.495,6.534,0.541
		c24.315,11.704,50.885,7.182,69.739-11.99c7.394-7.518,12.023-16.606,14.671-26.817C232.133,220.51,231.41,217.067,235,216z"/>
	<path fill-rule="evenodd" clip-rule="evenodd" fill="#FEFEFE" d="M78,34.8c0-0.267,0-0.533,0-0.8c51,0,102,0.044,153-0.098
		c3.425-0.01,4.105,0.673,4.098,4.098C234.959,93,235,148,235,203c-2.55-0.011-2.156-2.208-2.445-3.61
		c-3.32-16.133-11.107-29.402-24.734-38.966c-2.429-1.705-3.569-4.317-5.084-6.682c-3.459-4.419-6.124-9.423-10.852-12.881
		c-2.719-1.99-2.658-5.668-2.975-8.756c-1.002-9.771-5.41-17.671-12.542-24.233c-3.472-3.193-3.506-3.651,0.388-6.841
		c7.246-5.936,14.049-12.299,17.939-20.984c4.066-9.08,7.688-18.313,6.068-28.712c-0.561-3.594-2.078-5.769-5.506-6.83
		c-10.586-3.278-20.941-7.781-32.291-7.418c-9.186,0.295-18.222,0.882-26.874,5.312c-6.748,3.454-11.559,8.05-15.206,14.431
		c-1.838,3.217-3.711,3.259-5.303-0.221c-3.819-8.347-10.852-12.808-18.703-16.217c-3.923-1.704-8.297-2.36-12.614-2.522
		C81.615,37.77,79.294,37.459,78,34.8z"/>
	<path fill-rule="evenodd" clip-rule="evenodd" d="M203.82,153.021c1.534,3.564,4.18,6.032,7.258,8.384
		c12.947,9.891,20.262,23.194,22.906,39.173c0.146,0.879-0.389,2.063,1.016,2.423c0,0.667,0,1.333,0,2c-0.84,2.667-0.84,5.333,0,8
		c0,1,0,2,0,3c-2.453,3.632-2.191,8.063-3.541,12.054c-11.89,35.154-51.85,51.669-84.998,34.975
		c-1.639-0.825-3.188-2.609-5.307-0.956c-3.072-0.718-4.277-3.866-6.846-5.243c-5.531-5.903-11.379-11.549-15.313-18.752
		c-3.225-1.858-2.686-5.419-3.756-8.264c-1.585-5.06-2.206-10.318-3.299-15.481c-0.44-3.486-0.443-6.973-0.04-10.455
		c1.09-5.684,2.013-11.433,4.251-16.812c1.19-2.859-0.466-4.303-2.267-5.842c-0.397-1.147,0.187-2.354,1.043-2.463
		c5.924-0.751,8.024-5.857,11.313-9.614c0.328-0.374,0.685-0.718,1.048-1.058c11.12-11.76,24.669-18.729,40.771-20.661
		c0.666-0.08,1.182-0.587,1.813-0.795c3.963-0.148,7.867,0.42,11.773,0.992c3.148,0.749,6.34,1.298,9.484,2.057
		C195.367,150.761,199.303,152.988,203.82,153.021z"/>
	<path fill-rule="evenodd" clip-rule="evenodd" fill="#8F8F8F" d="M235,213c-1.635-2.667-1.635-5.333,0-8
		C235,207.667,235,210.333,235,213z"/>
	<path fill-rule="evenodd" clip-rule="evenodd" fill="#010101" d="M116.001,230.039c2.329,1.688,0.356,5.921,4.031,6.813
		c-2.121,2.104-4.839,1.859-7.469,1.84c-5.086-0.037-9.909,1.176-14.403,3.406c-5.003,2.484-5.323,5.273-1.412,9.247
		c8.129,8.26,21.041,10.754,31.761,6.295c2.028-0.844,3.804-2.961,6.425-1.775c2.238,1.904,5.188,3.095,6.22,6.208
		c-13.753,11.094-34.745,10.852-48.666-0.854c-3.485-2.931-7.164-5.227-11.281-7.075c-9.257-4.156-17.459-10.165-25.899-15.664
		c-7.269-4.735-11.752-12.06-14.306-20.411c-2.033-6.649-4.08-13.296-5.95-19.991c-0.516-1.845-1.505-3.291-2.554-4.778
		c-11.519-16.342-9.405-36.571,5.514-49.894c2.985-2.666,4.344-5.351,4.558-9.325c0.696-12.935,6.614-23.1,17.584-30.611
		c-5.993-4.991-11.251-10.497-16.386-16.125c-2.48-2.717-3.644-6.377-4.974-9.505c-3.812-8.96-6.44-18.445-4.941-28.495
		c0.41-2.748,1.827-4.874,4.257-5.703c6.947-2.369,14.041-4.304,21.023-6.576C65.294,35.06,71.769,36.012,78,34.8
		c4.134,2.837,9.148,1.836,13.7,2.959c10.776,2.659,19.498,7.423,24.615,17.671c0.562,1.124,0.668,2.661,2.178,3.235
		c2.276-4.601,4.553-9.436,8.683-12.521c5.023-3.752,10.476-6.78,16.867-8.29c4.457-1.052,8.976-1.495,13.41-2.095
		c7.807-1.056,15.602,0.282,23.162,2.721c5.09,1.643,10.237,3.117,15.389,4.562c2.554,0.717,5.375,2.083,5.535,4.444
		c0.338,4.966,1.826,9.788,0.619,15.033c-1.77,7.687-4.625,14.837-7.938,21.901c-1.977,4.214-5.404,7.621-8.452,10.594
		c-3.351,3.268-6.733,7.241-11.979,9.218c8.132,5.9,13.432,13.407,15.714,22.906c0.155,0.643,0.504,1.286,0.477,1.917
		c-0.277,6.621,2.041,11.796,7.789,15.487c3.021,1.94,3.395,6.09,6.051,8.478c-4.916,2.94-8.59-1.852-12.995-2.088
		c-3.169-1.389-5.735-5.926-9.939-1.899c-3.725-0.636-7.448-1.271-11.173-1.908c-2.357,0.831-2.82-1.232-3.586-2.52
		c-4.512-7.586-11.832-11.078-19.867-12.943c-8.849-2.055-19.488,6.3-20.831,15.827c-0.798,5.662-0.385,11.257,1.648,16.666
		c0.576,1.533,1.544,2.98,1.071,4.751c-1.08,1.244-2.31,2.39-3.21,3.753c-2.269,3.434-4.162,7.223-9.315,6.731
		c-0.472-0.045-1.058,1.123-1.591,1.728c-0.419,2.521-2.712,2.035-4.277,2.536c-12.636,4.05-20.106,16.553-16.348,28.28
		c2.479,7.737,8.17,12.644,15.839,15.262C111.561,227.986,114.22,227.975,116.001,230.039z"/>
	<path fill-rule="evenodd" clip-rule="evenodd" fill="#FEFEFE" d="M121.85,208.782c0.166-28.899,23.561-51.872,52.669-51.721
		c28.444,0.148,51.587,23.772,51.462,52.533c-0.123,28.522-23.708,51.602-52.515,51.389
		C144.607,260.771,121.685,237.587,121.85,208.782z"/>
	<path fill-rule="evenodd" clip-rule="evenodd" fill="#D6224B" d="M128.148,168.906c-5.632-10.478-7.11-20.905,0.293-31.272
		c4.416-6.184,14.057-8.63,21.367-6.47c8.99,2.657,14.999,8.489,19.904,15.961c0.045,0.851,0.068,1.661-1.118,1.756
		C152.441,150.157,139.275,157.476,128.148,168.906z"/>
	<path fill-rule="evenodd" clip-rule="evenodd" fill="#D6224B" d="M116.001,230.039c-11.322-1.606-20.362-6.482-23.94-18.08
		c-4.221-13.681,5.973-28.479,20.334-30.016c0.694-0.074,1.293-0.145,1.636-0.825c4.423,0.064,5.508,1.719,3.438,5.907
		c-2.5,5.059-2.978,10.777-4.298,16.219c-1.112,3.835-1.109,7.671-0.001,11.506C113.868,219.892,115.993,224.77,116.001,230.039z"/>
	<path fill-rule="evenodd" clip-rule="evenodd" fill="#D5224B" d="M134.935,255.864c-6.327,3.737-12.949,5.988-20.51,5.184
		c-8.373-0.891-15.03-4.653-20.552-10.826c-2.62-2.928-2.019-5.356,0.855-7.554c4.931-3.771,10.804-5.207,16.736-5.39
		c2.852-0.088,5.692-1.069,8.568-0.426C123.39,244.451,129.361,250.002,134.935,255.864z"/>
	<path fill-rule="evenodd" clip-rule="evenodd" fill="#CA2248" d="M180.886,149.033c0.124-3.924,2.029-4.498,4.998-2.491
		c1.821,1.23,4.108,2.019,4.941,4.391C187.512,150.3,184.199,149.666,180.886,149.033z"/>
	<path fill-rule="evenodd" clip-rule="evenodd" fill="#DC234D" d="M113.17,214.75c-2.314-3.759-0.962-7.779-0.815-11.712
		c0.001-0.03,0.282-0.097,0.41-0.062c0.149,0.04,0.272,0.174,0.407,0.268C113.171,207.079,113.17,210.915,113.17,214.75z"/>
	<path fill-rule="evenodd" clip-rule="evenodd" fill="#5CB11F" d="M164.115,63.061c-10.326,3.912-19.648,9.604-28.467,16.161
		c-4.955,3.685-6.888,3.564-10.396-1.666c-1.642-2.448-2.545-5.271-1.773-8.496c1.376-5.749,3.53-11.107,7.398-15.587
		c0.871-1.008,1.493-5.262,4.422-1.247c0.67,0.921,1.676-1.945,2.603-1.969c2.063-0.052,2.073-7.899,5.644-1.507
		c0.051,0.092,0.424,0.133,0.443,0.094c2.314-4.565,7.194-1.3,10.395-3.377c1.092-0.708,2.595-3.729,4.288,0.187
		c0.655,1.517,3.106-1.261,4.781-1.188c1.09,0.047,4.073-3.928,3.575,1.313c-0.149,1.575,1.51,0.169,2.277,0.351
		c1.844,0.436,5.088-4.288,5.602,1.526c0.064,0.726,1.783,0.226,2.752,0.048c4.434-0.816,4.178-0.378,8.285,2.081
		c2.012,1.204,5.185,0.465,7.953,0.611c0.754,1.84-1.063,2.847-1.577,4.281c-0.66,1.842-2.86,3.998,1.466,4.263
		c1.692,0.104,0.922,1.465,0.295,2.147c-1.119,1.219-2.437,2.253-3.625,3.411c-0.642,0.626-1.951,1.663-0.398,2.198
		c5.676,1.955,0.439,3.318-0.255,4.724c-0.63,1.272-5.732,1.382-0.493,3.905c1.669,0.804-1.07,2.014-2.066,2.685
		c-2.529,1.701-2.48,1.604-1.568,4.65c0.56,1.866-1.459,1.841-2.348,2.614c-1.879,1.634-6.514,0.802-4.871,5.654
		c0.191,0.565-1.596,0.935-2.367,1.455c-1.656,1.118-4.989,0.037-4.687,4.156c0.099,1.35-3.718,1.2-5.823,1.534
		c-1.119,0.178-4.721-1.313-2.357,2.543c0.683,1.114-0.715,1.202-1.443,1.285c-2.018,0.23-3.992,0.058-5.789-1.028
		c-1.51-0.997-3.439,0.289-4.912-0.903c-5.455-0.521-9.951-2.782-13.344-7.175c-2.421-3.136-2.348-5.725,0.752-8.574
		c8.445-7.761,17.808-14.23,27.476-20.311c0.323-0.528,0.802-0.938,1.127-1.465C166.162,62.971,164.921,61.962,164.115,63.061z"/>
	<path fill-rule="evenodd" clip-rule="evenodd" fill="#5CB11F" d="M44.995,57.935c0.237-2.508-2.057-4.107-2.425-6.956
		c2.018,0,3.969,0.229,5.832-0.079c1.262-0.208,3.843-0.004,2.34-2.805c1.774-0.933,3.575-0.755,5.387-0.132
		c1.982-0.508,5.013,1.608,5.635-2.456c0.128-0.836,1.378,0.406,2.132,0.377c2.099-0.082,4.635,2.186,6.142-1.355
		c0.452-1.062,1.744,0.166,2.609,0.197c1.937,0.07,4.087,3.061,5.951-0.449c0.421-0.794,1.566,0.823,2.421,1.1
		c1.708,0.551,3.414,3.371,5.337,0.116c0.557-0.942,1.476-0.116,2.051,0.431c1.82,1.729,3.413,4.345,6.261,1.342
		c0.096-0.102,0.809,0.104,0.888,0.305c1.847,4.638,7.304,3.309,10.238,6.263c3.486,3.51,4.86,7.873,6.592,12.349
		c2.167,5.6,0.509,9.692-2.918,13.555c-2.206,2.486-4.692,2.968-7.766,0.431c-8.522-7.033-18.26-12.118-28.353-16.519
		c-1.027-0.448-2.242-0.466-3.37-0.684c0,0-0.385-0.088-0.384-0.086c-0.186-0.194-0.415-0.302-0.684-0.317
		c0.001,0.005-0.253,0.29-0.253,0.29S69,62.68,69.005,62.682c0.237,0.142,0.417,0.332,0.544,0.573
		c0.108,0.262,0.286,0.455,0.537,0.582c10.184,6.061,19.132,13.736,28.188,21.3c2.454,2.049,2.522,3.607,1.079,6.129
		c-3.847,6.719-10.608,8.052-17.253,9.545c-2.08,0.467-4.302,0.362-6.461,0.393c-1.21,0.017-2.973,0.472-1.568-2.003
		c0.988-1.741-0.96-1.091-1.626-1.23c-1.777-0.372-3.592-0.558-5.39-0.837c-0.654-0.102-1.874-0.301-1.867-0.381
		c0.512-6.64-6.573-3.19-8.588-6.901c-0.016-1.416,2.042-0.229,2.616-1.51c-1.12-0.602-2.621-0.95-3.338-1.895
		c-1.212-1.596-6.357-0.659-3.393-5.336c0.553-0.873-2.795-2.389-4.256-3.707c-0.942-0.85-2.895-1.567-0.253-2.9
		c1.398-0.705,0.462-1.63-0.317-2.259c-1.556-1.256-3.155-2.459-5.687-4.421c4.228-1.052,6.358-2.092,2.704-4.618
		c-1.471-1.017-2.798-2.354-3.406-4.174C42.235,57.729,44.071,59.38,44.995,57.935z"/>
	<path fill-rule="evenodd" clip-rule="evenodd" fill="#D6224B" d="M62.241,159.041c0.92-13.156,12.885-24.907,24.188-27.391
		c17.357-3.813,29.887,14.352,25.748,29.259c-3.044,10.966-13.169,22.032-24.233,23.906c-13.255,2.245-23.808-5.91-25.704-19.865
		C62.68,162.98,62.677,161.011,62.241,159.041z"/>
	<path fill-rule="evenodd" clip-rule="evenodd" fill="#D5224B" d="M48.102,204.67c0.013-0.162-0.013-1.509,0.243-2.801
		c1.552-7.838,10.138-10.706,17.153-6.63c8.756,5.087,15.501,11.683,19.372,21.02c1.299,3.133,2.48,6.46,2.869,9.797
		c0.957,8.196-4.67,13.092-12.969,11.715C59.297,235.202,48.052,221.738,48.102,204.67z"/>
	<path fill-rule="evenodd" clip-rule="evenodd" fill="#D5224B" d="M93.908,113.676c4.302-7.285,11.17-10.329,19.128-11.569
		c2.316,0.632,4.629,0.696,6.939-0.032c8.019,0.313,14.291,4.196,19.318,10.056c3.833,4.467,2.336,9.864-3.529,13.245
		c-7.006,4.038-14.684,5.119-22.641,4.209c-4.817-0.552-9.467-1.784-13.659-4.353c-2.425-1.486-4.812-3.029-5.477-6.105
		C93.22,117.32,93.371,115.501,93.908,113.676z"/>
	<path fill-rule="evenodd" clip-rule="evenodd" fill="#D5224B" d="M54.506,160.882c-0.992,9.155-1.562,18.508-5.952,26.943
		c-2.492,4.788-5.18,4.866-8.489,0.634c-9.838-12.58-6.82-31.386,6.475-40.353c2.542-1.714,6.394-0.203,6.391,3.06
		C52.928,154.564,55.567,157.374,54.506,160.882z"/>
	<path fill-rule="evenodd" clip-rule="evenodd" fill="#D5224B" d="M152.143,107.025c15.174-1.194,30.941,15.419,29.879,28.998
		c-0.293,3.733-1.499,4.502-4.493,2.813c-12.416-7.003-23.325-15.826-32.126-27.112c-2.264-2.902-1.402-4.547,2.257-4.689
		C149.151,106.978,150.647,107.025,152.143,107.025z"/>
	<path fill-rule="evenodd" clip-rule="evenodd" fill="#D5224B" d="M84.961,107.133c4.923,0.533,5.484,1.672,1.969,6.011
		c-6.2,7.653-13.7,13.986-21.851,19.462c-3.084,2.072-5.964,4.52-9.574,5.854c-3.151,1.165-4.386,0.378-4.202-2.943
		c0.826-14.89,11.238-26.375,25.75-28.363C79.69,107.73,82.327,107.759,84.961,107.133z"/>
	<path fill-rule="evenodd" clip-rule="evenodd" fill="#1A2214" d="M164.115,63.061c1.482-1.388,3.479-1.24,5.754-2.299
		c-0.997,2.246-2.547,2.576-3.909,3.151C165.345,63.629,164.729,63.345,164.115,63.061z"/>
	<path fill-rule="evenodd" clip-rule="evenodd" fill="#DC234D" d="M84.961,107.133c-2.632,1.381-5.269,1.357-7.908,0.021
		C79.688,106.505,82.324,106.677,84.961,107.133z"/>
	<path fill-rule="evenodd" clip-rule="evenodd" fill="#DB234C" d="M119.975,102.074c-2.307,1.424-4.62,1.388-6.939,0.032
		C115.347,101.661,117.66,101.595,119.975,102.074z"/>
	<path fill-rule="evenodd" clip-rule="evenodd" fill="#6CBA39" d="M56.128,47.963c-1.795,0.044-3.59,0.088-5.386,0.132
		C52.477,45.587,54.302,46.74,56.128,47.963z"/>
	<path fill-rule="evenodd" clip-rule="evenodd" fill="#D93E5C" d="M62.241,159.041c1.165,1.97,1.165,3.939-0.001,5.909
		C62.241,162.98,62.241,161.011,62.241,159.041z"/>
	<path fill-rule="evenodd" clip-rule="evenodd" fill="#769363" d="M44.995,57.935c-0.718,2.148-2.531,0.572-3.727,1.096
		C42.038,57.061,43.803,58.47,44.995,57.935z"/>
	<path fill-rule="evenodd" clip-rule="evenodd" fill="#A6626F" d="M93.908,113.676c0.026,1.816,0.053,3.633,0.08,5.45
		C92.596,117.329,92.347,115.516,93.908,113.676z"/>
	<path fill-rule="evenodd" clip-rule="evenodd" fill="#7FBB5C" d="M151.076,99.972c1.622,0.38,3.498-0.613,4.912,0.903
		C154.311,100.797,152.502,101.426,151.076,99.972z"/>
	<path fill-rule="evenodd" clip-rule="evenodd" fill="#869180" d="M70.085,63.837c-0.382-0.234-0.765-0.468-1.147-0.701
		c0.33-0.495,0.698-0.501,1.099-0.086c0,0-0.059-0.086-0.058-0.086C70.028,63.253,70.063,63.544,70.085,63.837z"/>
	<path fill-rule="evenodd" clip-rule="evenodd" fill="#DC3252" d="M198.752,227.993c-2.688,1.966-5.822,0.181-8.644,1.025
		c-1.337,3.671-0.653,7.488-0.521,11.199c0.127,3.592-1.172,4.645-4.532,4.309c-2.944-0.294-5.933,0.158-8.891-0.215
		c-1.315-3.285-0.339-6.72-0.658-10.068c-0.167-1.747,0.513-3.581-0.534-5.237c-8.775-0.054-17.552-0.059-26.326-0.206
		c-1.521-0.025-3.32,0.852-4.582-0.83c9.478-1.017,18.967-0.153,28.449-0.528c-9.488,0.413-18.984-0.574-28.468,0.495
		c-1.614-4.614-1.312-8.737,1.557-13.08c9.813-14.854,19.27-29.942,28.862-44.942c3.597-0.845,7.262-0.07,10.865-0.436
		c3.234-0.328,4.279,0.779,4.23,4.121c-0.188,12.902-0.105,25.809-0.035,38.713c0.008,1.541-0.78,3.312,0.761,4.637l-0.259-0.027
		l0.049-0.256c2.674,2.089,5.998-0.142,8.768,1.32c-0.004,2.684-0.008,5.366-0.01,8.05c-1.894,2.86-4.878,0.681-7.033,1.538
		c-0.828,0.103-0.158,1.162-0.265,0.504c-0.018-0.11,0.031-0.167,0.142-0.193C194.045,227.327,196.406,227.212,198.752,227.993z"/>
	<path fill-rule="evenodd" clip-rule="evenodd" fill="#DA1A43" d="M190.286,216.949c-2.054-1.226-1.242-3.254-1.251-4.945
		c-0.066-12.571-0.116-25.144,0.019-37.714c0.034-3.138-0.806-4.562-4.171-4.349c-3.458,0.219-6.943,0-10.417-0.027
		c4.614-1.879,9.429-0.75,14.136-0.759c2.566-0.005,1.445,2.56,1.455,3.951c0.09,12.623,0.045,25.247,0.061,37.87
		C190.12,212.968,190.228,214.958,190.286,216.949z"/>
	<path fill-rule="evenodd" clip-rule="evenodd" fill="#DA1943" d="M176.005,243.988c3.975-0.098,8.858,1.191,11.683-0.659
		c3.211-2.104,0.863-7.359,1.296-11.213c0.129-1.147-0.062-2.356,1.125-3.098c-0.001,4.437,0.025,8.873-0.024,13.309
		c-0.012,1.044,0.42,2.763-1.287,2.652c-4.543-0.294-9.244,1.436-13.631-0.966C175.432,243.528,175.71,243.495,176.005,243.988z"/>
	<path fill-rule="evenodd" clip-rule="evenodd" fill="#DB2B4E" d="M176.005,243.988c-0.279,0.01-0.56,0.019-0.839,0.025
		c-0.064-5.003-0.129-10.005-0.193-15.008C177.24,233.867,175.406,239.012,176.005,243.988z"/>
	<path fill-rule="evenodd" clip-rule="evenodd" fill="#DB2A4E" d="M198.752,227.993c-2.566,0-5.133,0-7.7,0
		c2.472-1.553,5.435-0.216,7.782-1.957C198.807,226.688,198.779,227.341,198.752,227.993z"/>
	<path fill-rule="evenodd" clip-rule="evenodd" fill="#DB2047" d="M198.844,217.986c-2.912-0.508-6.17,1.286-8.768-1.318
		C192.943,217.466,196.25,215.358,198.844,217.986z"/>
	<path fill-rule="evenodd" clip-rule="evenodd" d="M70.037,63.05c-0.366,0.029-0.732,0.058-1.099,0.086l0.136-0.279
		c-0.237-0.157-0.326-0.326-0.267-0.508c0.062-0.188,0.129-0.281,0.202-0.281C69.352,62.396,69.695,62.723,70.037,63.05z"/>
	<path fill-rule="evenodd" clip-rule="evenodd" fill="#1E0925" d="M69.01,62.067c0.007,0.265,0.028,0.527,0.065,0.789
		c-0.264-0.132-0.527-0.263-0.791-0.395C68.526,62.33,68.768,62.199,69.01,62.067z"/>
	<path fill-rule="evenodd" clip-rule="evenodd" fill="#FEFCFC" d="M159.019,216.908c-0.542-2.505,1.439-3.967,2.519-5.722
		c4.104-6.677,8.377-13.249,13.398-21.136c0,9.877,0,18.256,0,26.635C169.65,218.185,164.336,217.677,159.019,216.908z"/>
	<path fill-rule="evenodd" clip-rule="evenodd" fill="#DB2B4E" d="M144.046,227.937c2.726-1.928,5.805-0.803,8.7-0.878
		c7.049-0.181,14.105-0.059,21.149,0.911c-9.943,0-19.887,0-29.831,0L144.046,227.937z"/>
	<path fill-rule="evenodd" clip-rule="evenodd" fill="#DB2B4E" d="M176.753,191.274c0,7.897,0,15.794,0,23.691
		c-0.166,0-0.332,0.001-0.499,0.002c0-7.907,0-15.814,0-23.721C176.421,191.256,176.587,191.266,176.753,191.274z"/>
	<path fill-rule="evenodd" clip-rule="evenodd" fill="#DB2047" d="M159.019,216.908c5.306-0.074,10.611-0.148,15.917-0.223
		C169.66,218.959,164.349,218.59,159.019,216.908z"/>
</g>
</svg>
