<?xml version="1.0" encoding="utf-8"?>
<!-- Generator: Adobe Illustrator 16.0.0, SVG Export Plug-In . SVG Version: 6.00 Build 0)  -->
<!DOCTYPE svg PUBLIC "-//W3C//DTD SVG 1.1//EN" "http://www.w3.org/Graphics/SVG/1.1/DTD/svg11.dtd" [
	<!ENTITY ns_flows "http://ns.adobe.com/Flows/1.0/">
	<!ENTITY ns_extend "http://ns.adobe.com/Extensibility/1.0/">
	<!ENTITY ns_ai "http://ns.adobe.com/AdobeIllustrator/10.0/">
	<!ENTITY ns_graphs "http://ns.adobe.com/Graphs/1.0/">
]>
<svg version="1.1" id="Layer_1" xmlns:x="&ns_extend;" xmlns:i="&ns_ai;" xmlns:graph="&ns_graphs;"
	 xmlns="http://www.w3.org/2000/svg" xmlns:xlink="http://www.w3.org/1999/xlink" xmlns:a="http://ns.adobe.com/AdobeSVGViewerExtensions/3.0/"
	 x="0px" y="0px" width="898.455px" height="792px" viewBox="0 0 898.455 792" enable-background="new 0 0 898.455 792"
	 xml:space="preserve">
<rect x="2.997" y="-6.148" fill-rule="evenodd" clip-rule="evenodd" fill="#FDFDFD" width="896.779" height="792"/>
<g>
	<path fill-rule="evenodd" clip-rule="evenodd" fill="#FEFEFE" d="M294.128,613.586c1.518,2.241,3.215,3.794,6.35,3.74
		c4.999-0.085,2.456,4.063,2.854,6.384c0.38,2.221-0.117,3.235-3.274,3.883c-5.196,1.064-10.414,3.146-14.041,7.955
		c-3.127,4.146-7.423,7.183-12.639,8.427c-2.237,0.533-8.144-4.15-7.894-6.353c0.396-3.492-1.401-4.783-4.366-5.309
		c-1.541-0.272-3.783,0.189-3.604-2.326c0.204-2.856-1.656-6.487,1.112-8.422c3.546-2.479,3.973-3.837-0.261-5.538
		c-1.359-0.546-2.524-1.705-1.451-3.032c1.345-1.663,2.172,0.084,3.032,1.021c1.333,1.452,2.973,1.599,4.482,0.482
		c6.345-4.689,13.516-1.334,20.253-2.137c0.446-0.054,1.122,0.6,1.466,1.085C289.61,618.334,289.598,618.343,294.128,613.586z"/>
	<path fill-rule="evenodd" clip-rule="evenodd" fill="#D4678E" d="M288.216,470.284c-9.275-8.02-13.681-18.527-13.705-30.423
		c-0.18-88.941-0.128-177.883-0.075-266.826c0.014-24.199,19.616-43.953,43.812-43.976c88.941-0.084,177.884-0.036,266.827-0.028
		c8.518,0.001,16.428,2.073,23.441,7.081c-0.178,0.198-0.354,0.396-0.529,0.596c-3.842,1.633-7.471,0.465-10.91-1.139
		c-2.189-1.02-4.131-1.387-6.578-0.91c-3.293,0.641-6.469-0.033-8.252-3.485c-2.418,0.393-4.842,0.45-7.275,0.45
		c-80.465-0.008-160.929-0.03-241.393,0.057c-4.487,0.005-8.755-1.742-13.261-1.003c-0.655-0.145-0.047,0.484,0.047,0.431
		c1.476-0.841,3.125-0.179,4.679-0.406c3.376,1.252,0.769,2.134-0.339,2.374c-3.766,0.816-7.669,0.962-11.39,0.043
		c-2.494-0.615-0.505,0.794-0.532,0.975c-0.313,2.045-2.032,2.459-3.371,2.176c-5.847-1.236-9.181,3.284-13.387,5.672
		c-1.489,0.846-2.924,1.474-4.54,1.837c-6.535,4.556-9.543,11.445-12.177,18.534c-1.027,2.765-1.528,5.707-2.311,8.57
		c-0.279,2.67-0.16,5.335-0.16,7.996c-0.008,73.404,0.039,146.808-0.048,220.21c-0.016,13.282,0.888,26.596-0.91,38.84
		c-0.06-0.365,0.066-1.74,0.093-3.112c2.432,0.269,2.556,0.3,2.814,3.165c0.386,4.267-0.146,8.58,0.61,12.824
		c0.168,2.623,1.096,4.97,2.646,7.082c1.201,2.434,3.194,4.193,5.191,5.916c2.05,1.769,3.107,3.801,2.306,6.536
		C289.085,470.644,288.644,470.624,288.216,470.284z"/>
	<path fill-rule="evenodd" clip-rule="evenodd" fill="#D16C8F" d="M288.216,470.284c0.397-0.032,0.795-0.065,1.193-0.099
		c1.572-0.669,2.405,0.648,3.495,1.285c1.049,0.799,2.238,1.36,3.396,1.979c2.66,1.759,5.462,3.221,8.539,4.122
		c2.189,1.2,4.636,1.393,7.031,1.795c2.123,0.492,4.316,0.415,6.449,0.838c8.457,1.088,16.976,0.826,25.393,0.245
		c5.002-0.346,9.882-0.232,14.822,0.108c7.303,0.505,14.618,0.265,21.866-0.503c3.917-0.414,7.585,0.752,11.392,0.655
		c7.131-0.181,14.252,0.25,21.395-0.749c7.434-1.041,14.93,1.031,22.357,0.652c17.879-0.91,35.786,1.059,53.64-0.731
		c3.021-0.304,5.871,0.996,8.904,0.862c6.959-0.305,13.912,0.16,20.895-0.749c6.914-0.899,13.906,0.269,20.867,0.651
		c12.41,0.683,24.836-1.603,37.268,0.04c3.662,0.483,7.211-1.228,10.889-0.888c14.461-1.861,25.219-8.932,32.492-21.824
		c2.969-5.263,4.217-10.727,5.264-16.438c0.395-2.33,0.225-4.667,0.225-6.992c0.01-85.558,0.012-171.117-0.004-256.675
		c0-2.486,0.26-4.998-0.428-7.442c-1.01-4.26-1.412-8.653-2.77-12.849c-0.459-1.419-0.553-2.877,0.371-4.217
		c0.598-0.406,1.127-0.334,1.596,0.217c2.691,5.81,4.186,11.831,4.182,18.307c-0.053,88.644-0.109,177.287,0.07,265.93
		c0.02,9.733-2.523,18.316-7.646,26.355c-10.34,13.336-23.908,19.128-40.801,19.086c-86.496-0.217-172.991-0.102-259.487-0.088
		C308.418,483.17,297.113,479.816,288.216,470.284z"/>
	<path fill-rule="evenodd" clip-rule="evenodd" fill="#F4F4F4" d="M810.521,600.191c3.52,2.04,4.77,5.485,4.826,9.149
		c0.184,11.83,0.061,23.665,0.078,35.498c0.004,1.535-0.117,3.033-1.084,4.271c-0.994,1.269-2.529,1.82-3.967,1.487
		c-1.477-0.344-0.938-1.947-0.941-3.017c-0.045-11.333,0.09-22.668-0.092-33.998c-0.078-4.816-0.904-9.25-5.17-12.859
		c-4.123-3.487-8.637-3.216-12.654-2.022c-5.055,1.502-8.332,5.511-9.162,11.285c-1.57,10.943-0.57,21.925-1.01,32.877
		c-0.102,2.506,1.672,6.862-2.408,6.937c-4.436,0.081-3.484-4.397-3.502-7.424c-0.063-10.166,0.008-20.333-0.037-30.499
		c-0.041-9.511-7.314-15.438-16.568-13.581c-4.404,0.884-10.381,8.425-10.371,13.51c0.018,10.584-2.518,21.166-0.063,31.756
		c0.109,0.475-0.023,1,0.021,1.496c0.27,2.902-1.32,4.638-3.932,4.729c-2.924,0.103-3.105-2.274-3.096-4.626
		c0.049-11.167,0.02-22.333,0.018-33.5c0-4.5-0.012-9,0.012-13.5c0.008-1.315-0.285-2.736,0.635-3.86
		c0.916-1.122,1.691-2.821,3.377-2.569c1.494,0.224,1.656,1.88,1.932,3.166c0.197,0.917,0.305,1.854,0.598,3.694
		c4.086-5.672,9.234-6.633,15.045-6.481c5.885,0.154,10.689,1.797,13.994,6.964c0.857,1.343,2.832,3.212,3.775,0.8
		c1.65-4.219,5.209-5.187,8.639-6.672c0.572,0.609,0.621,1.305,0.336,2.055c-3.111,2.313-6.154,4.665-8.135,8.151
		c-0.688,1.212-1.67,2.501-3.502,1.861c-0.654-0.521-1.098-1.212-1.555-1.9c-6.535-9.865-14.543-11.47-24.309-4.875
		c-0.777,0.633-1.434,1.371-2.061,2.151c-0.918,1.139-1.793,2.892-3.428,2.397c-1.693-0.511-1.545-2.504-1.83-4.039
		c-0.154,14.847-0.135,29.679-0.053,44.511c0.352-9.608-0.105-19.225,0.309-28.836c0.055-0.522,0.166-1.031,0.305-1.535
		c1.152-6.304,2.916-12.273,8.814-15.959c8.623-5.991,22.676,0.315,23.494,12.591c0.068,1.009,0.463,1.938,0.672,2.909
		c0.703,8.454,0.129,16.931,0.352,25.396c0.041,1.554-0.473,3.179,0.387,4.587c-0.264-10.618-0.422-21.157,0.07-31.698
		c1.631-7.075,4.523-13.113,12.268-15.346c2.439-0.704,4.854-0.841,7.334-0.496c8.676,2.413,12.867,7.646,12.879,16.514
		c0.016,10.47,0.268,20.942-0.148,31.315c0.926-10.425,0.154-20.777,0.412-31.117C813.058,607.757,809.583,604.257,810.521,600.191z
		"/>
	<path fill-rule="evenodd" clip-rule="evenodd" fill="#EFC6D7" d="M621.357,464.17c1.98-5.957,5.875-11.161,6.547-17.677
		c0.256-2.475,0.607-4.937,0.607-7.428c0.008-88.474,0.014-176.949,0-265.423c0-7.225-1.125-14.202-5.076-20.463
		c-1.387-1.03-2.162-2.228-1.078-3.936c5.252,5.27,6.877,12.1,7.008,19.039c0.344,18.135,0.141,36.28,0.143,54.421
		c0.01,72.563,0.012,145.127,0.031,217.69C629.541,449.272,627.381,457.378,621.357,464.17z"/>
	<path fill-rule="evenodd" clip-rule="evenodd" fill="#EEEEEE" d="M548.684,623.084c-3.248-1.407-7.445,0.455-8.188,3.858
		c-1.172,5.368-1.668,10.798-0.566,16.268c0.576,2.856,0.119,5.992-2.914,6.389c-3.703,0.483-3.594-2.94-3.594-5.631
		c-0.002-21.795-0.002-43.59,0.002-65.385c0-0.997-0.148-2.054,0.123-2.979c0.496-1.685,0.732-4.023,3.047-3.973
		c2.582,0.057,2.877,2.147,2.867,4.346c-0.049,12.478-0.023,24.956-0.023,37.435c0,1.612,0,3.225,0,5.122
		c5.83-2.401,8.365-8.458,13.988-10.331c0.48,1.31-0.203,2.327-1.035,3.114c-4.131,3.913-7.607,8.715-13.547,10.251
		c-2.459-1.79-1.852-4.485-1.871-6.884c-0.088-11.8-0.027-23.601-0.072-35.401c0.072,21.092-0.113,42.183-0.084,64.415
		c0.479-6.703-0.182-12.307,0.471-17.871c1.078-3.332,4.264-4.452,6.846-5.854C546.633,618.614,548.99,619.372,548.684,623.084z"/>
	<path fill-rule="evenodd" clip-rule="evenodd" fill="#7C7C7C" d="M605.482,574.236c0.65-1.709,2.158-1.266,3.404-1.269
		c11.48-0.029,22.961-0.04,34.441,0.014c1.518,0.007,4.023-0.625,3.918,1.722c-0.1,2.191-2.576,1.534-4.119,1.541
		c-10.148,0.048-20.301,0.148-30.445-0.056c-3.553-0.071-4.58,1.139-4.48,4.597c0.225,7.813,0.164,15.64,0.023,23.457
		c-0.055,3.016,0.992,4.106,4.047,4.055c8.814-0.151,17.637-0.134,26.453,0c1.891,0.028,5.357-1.39,5.273,1.631
		c-0.074,2.701-3.547,1.41-5.479,1.443c-8.65,0.144-17.305,0.159-25.955,0.011c-3.217-0.055-4.398,1.016-4.342,4.318
		c0.166,9.48,0.074,18.967,0.006,28.45c-0.012,1.515,0.561,3.879-1.904,3.807c-1.994-0.058-1.641-2.214-1.596-3.608
		c0.365-11.442-0.76-22.909,0.561-34.334c1.678,1.425,1.076,3.382,1.092,5.13c0.066,7.968,0.029,15.936,0.031,23.903
		c0.01-7.618-0.023-15.236,0.023-22.854c0.012-1.794-0.373-3.67,0.693-5.349c1.662-1.568,3.736-1.107,5.684-1.114
		c9.545-0.032,19.09-0.018,27.949-0.012c1.348-0.156,0.492-1.202,0.719-0.575c0.029,0.08-0.039,0.146-0.207,0.156
		c-11.35,0.68-22.701,0.562-34.055,0.055c-0.875-1.099-1.131-2.416-1.148-3.75c-0.121-8.821-0.109-17.643-0.014-26.465
		c0.033-2.966,1.18-4.524,4.514-4.474c10.83,0.167,21.666-0.016,32.5,0.059c-11.412-0.03-22.822-0.046-34.234-0.032
		C607.699,574.693,606.5,575.115,605.482,574.236z"/>
	<path fill-rule="evenodd" clip-rule="evenodd" fill="#6C6C6C" d="M488.416,597.167c2.035-1.48,4.129-2.833,6.73-3.077
		c3.84-0.604,7.68-0.608,11.52,0.004c11.736,2.839,18.852,13.429,18.318,27.428c-0.217,5.695-0.965,11.323-3.973,16.334
		c-3.307,5.506-7.92,9.302-14.424,10.435c-3.781,0.631-7.563,0.637-11.342-0.003c-3.186-0.146-6.137-0.78-7.941-3.806
		c-0.461-0.674-0.549-1.38-0.188-2.125c3.785-0.908,6.125,2.809,9.572,2.976c2.854,0.762,5.693,0.908,8.512-0.158
		c12.639-4.644,15.514-14.524,15.006-26.745c-0.441-10.653-5.531-17.366-15.271-20.96c-2.619-1.449-5.301-1.257-8.008-0.278
		c-2.482,0.997-4.832,2.354-7.525,2.786C487.402,599.628,486.34,598.946,488.416,597.167z"/>
	<path fill-rule="evenodd" clip-rule="evenodd" fill="#686868" d="M548.684,623.084c-1.295-3.588-3.119-3.846-5.766-1.125
		c-1.242,1.277-2.904,2.148-4.375,3.203c-0.855,0.463-0.43,2.15-1.705,2.034c-1.025-0.093-0.912-1.181-0.891-1.95
		c0.07-2.346-0.297-4.745,0.236-6.865c2.84-0.638,0.377,5.15,4.193,2.672c3.773-4.868,9.732-7.518,13.049-12.85
		c0.328-0.317,0.656-0.635,0.986-0.951c2.307-1.351,3.684-3.86,6.186-4.966c2.529-2.155,5.045-4.326,7.592-6.457
		c1.105-0.924,2.439-2.627,3.764-1.14c1.141,1.283-0.814,2.163-1.631,3.089c-0.654,0.741-1.34,1.455-2.014,2.182
		c-5,5.134-10.291,9.953-15.688,14.668c-1.357,1.188-3.578,2.181-2.367,4.748l-0.041-0.071c1.82,2.069,3.797,3.987,5.703,5.978
		c5.078,6.025,9.865,12.29,15.176,18.119c0.443,0.487,0.979,0.904,1.344,1.449c0.719,1.07,1.814,2.316,0.643,3.487
		c-1.102,1.1-2.467,0.526-3.479-0.529c-1.469-1.533-3.328-2.751-4.053-4.901C560.234,636.037,554.717,629.341,548.684,623.084z"/>
	<path fill-rule="evenodd" clip-rule="evenodd" fill="#6B6B6B" d="M118.19,574.255c5.391,1.623,10.419,3.809,13.626,8.81
		c1.249,0.88,1.957,2.123,2.398,3.551c0.155,1.303,0.496,2.842-0.994,3.457c-1.4,0.577-1.762-1.096-2.586-1.773
		c-1.973-3.116-4.067-6.133-7.109-8.343c-1.188-1.509-2.902-1.386-4.558-1.457c-7.436-1.268-14.927-0.738-22.396-0.789
		c-1.672-0.012-3.339,0.118-4.65,1.368c-1.126,1.223-1.102,2.728-1.103,4.236c-0.004,7.817,0.07,15.636-0.031,23.452
		c-0.047,3.632,1.517,5.133,5.094,5.053c4.488-0.101,8.981-0.058,13.472-0.003c1.973,0.024,4.022-0.262,5.791,1.013
		c1.03,2.569-1.226,2.261-2.479,2.832c-5.821,0.057-11.652,0.232-17.458-0.048c-4.28-0.207-5.516,1.51-5.376,5.563
		c0.245,7.143,0.113,14.3,0.031,21.45c-0.017,1.494,0.724,3.302-1.058,4.506c-1.461-1.452-0.842-3.187-0.846-4.73
		c-0.045-21.286,0.082-42.573-0.129-63.857c-0.04-4.053,1.2-5.142,5.049-4.892C101.3,574.2,109.773,573.021,118.19,574.255z"/>
	<path fill-rule="evenodd" clip-rule="evenodd" fill="#C3C3C3" d="M358.4,647.775c-2.437,2.031-2.888,0.149-3.023-1.678
		c-0.173-2.318-0.06-4.658-0.06-6.988c-0.001-19.813,0-39.626,0.001-59.438c0-1.165-0.036-2.333,0.021-3.495
		c0.072-1.479-0.052-3.408,1.916-3.5c2.335-0.109,2.313,1.938,2.315,3.615c0.016,8.823,0.137,17.651-0.076,26.471
		c-0.084,3.458,0.977,4.637,4.498,4.591c12.984-0.169,25.974-0.188,38.957,0.012c3.696,0.057,4.436-1.404,4.389-4.699
		c-0.134-9.486,0.015-18.976,0.053-28.464c0.656-0.316,1.19-0.174,1.605,0.427c0.328,0.553,0.542,1.146,0.652,1.777
		c0.357,9.156,0.119,18.315,0.135,27.473c0.003,1.664-0.039,3.355-1.286,4.699c-1.281,0.94-2.78,0.999-4.271,1.005
		c-13.892,0.061-27.784,0.061-41.676,0c-1.323-0.006-2.652-0.075-3.84-0.768c-1.717-1.358-1.26-3.31-1.272-5.078
		c-0.055-7.639-0.019-15.278-0.027-22.917c-0.07,21.756,0.395,43.506,0.673,65.259C358.263,646.631,358.367,647.197,358.4,647.775z"
		/>
	<path fill-rule="evenodd" clip-rule="evenodd" fill="#6D6C6C" d="M408.483,575.234c-0.028-0.347-0.057-0.692-0.086-1.039
		c3.495-0.951,2.438,1.826,2.449,3.264c0.095,10.806,0.052,21.612,0.052,32.418c0,11.139,0.028,22.277-0.031,33.416
		c-0.009,1.598,0.598,3.335-0.63,4.795c-3.372,0.067-2.491-2.522-2.506-4.29c-0.078-9.315-0.146-18.635,0.034-27.947
		c0.065-3.372-0.848-4.697-4.461-4.647c-13.307,0.185-26.618,0.16-39.925,0.01c-3.271-0.037-4.369,1.009-4.304,4.285
		c0.18,8.979,0.088,17.965,0.065,26.948c-0.005,1.798,0.414,3.681-0.741,5.329c0.044-0.368,0.088-0.736,0.131-1.104
		c-1.329-1.139-1.09-2.713-1.096-4.18c-0.036-9.32,0.079-18.643-0.063-27.961c-0.058-3.793,1.267-5.402,5.207-5.369
		c13.813,0.118,27.628,0.109,41.441,0.003c3.544-0.027,5.066,0.997,4.954,4.848c-0.262,8.973-0.038,17.958-0.073,26.938
		c-0.016-21.434,0.063-42.867,0.005-64.301C408.906,576.121,408.674,575.69,408.483,575.234z"/>
	<path fill-rule="evenodd" clip-rule="evenodd" fill="#6A6A6A" d="M669.195,647.29c-8.592-2.709-12.338-9.423-14.439-17.485
		c-3.361-12.898,1.053-26.767,10.506-32.982c0.535-0.353,1.195-0.52,1.797-0.772c0.744-0.262,1.648-0.561,2.133,0.167
		c0.766,1.146-0.295,1.98-0.83,2.874c-10.322,7.668-10.729,18.581-9.188,29.765c0.846,6.128,4.295,11.092,10.018,14.161
		c1.504,0.807,3.66,1.153,3.563,3.617C671.807,648.161,670.508,647.765,669.195,647.29z"/>
	<path fill-rule="evenodd" clip-rule="evenodd" fill="#5D5D5D" d="M605.482,574.236c12.965-0.001,25.932-0.004,38.898,0.013
		c0.297,0,0.592,0.228,2.262,0.912c-11.885,0-22.402-0.003-32.918,0.001c-6.426,0.003-6.438,0.008-6.418,6.594
		c0.025,9.143,0.076,18.284,0.115,27.427c0.6,0.657,0.561,1.304-0.033,1.941c0,11.437,0,22.873,0,34.31
		c-0.535,0.013-1.072,0.025-1.609,0.038c-0.164-11.819-0.326-23.638-0.49-35.457c0.002-0.541,0.006-1.083,0.008-1.624
		c-0.516-11.377-0.811-22.752,0.168-34.121L605.482,574.236z"/>
	<path fill-rule="evenodd" clip-rule="evenodd" fill="#6E6E6E" d="M467.466,633.342c-3.33,9.596-10.879,15.378-20.671,15.832
		c-10.243,0.475-18.226-4.524-22.368-14.009c-0.854-1.053-0.396-2.313-0.553-3.479c0.205-0.476,0.558-0.788,1.04-0.965
		c0.502-0.055,0.984,0.022,1.448,0.224c1.175,0.761,1.703,1.989,2.263,3.186c3.46,7.396,9.369,10.976,17.425,10.73
		c8.299-0.253,13.793-4.679,17.204-12.125c0.832-1.817,0.346-5.061,3.914-4.741C468.466,629.712,467.96,631.527,467.466,633.342z"/>
	<path fill-rule="evenodd" clip-rule="evenodd" fill="#6C6C6C" d="M153.4,640.221c0.378,0.536,0.756,1.072,1.134,1.608
		c0.203,0.825,1.563,1.422,0.548,2.475c-0.537,0.559-1.148,0.31-1.694-0.093c-1.261-1.029-2.521-2.059-3.783-3.088
		c-3.191-3.277-4.656-7.315-5.18-11.772c0.143-5.579-0.367-11.156,0.051-16.731c0.235-1.159,0.332-2.354,0.871-3.436
		c1.51-1.891,1.291-4.821,3.708-6.168c1.616-0.475,1.783,0.659,1.976,1.771c-0.679,3.109-2.472,5.883-2.75,9.114
		c-0.677,3.941,2.03,3.88,4.63,3.903c10.787,0.097,21.576-0.147,32.362,0.121c0.533,0.043,1.055,0.158,1.564,0.322
		c0.999,0.345,1.921,0.825,2.642,1.627c0.354,0.464,0.352,0.928-0.005,1.392l0.001-0.006c-12.337,0.954-24.694,0.207-37.041,0.41
		c-6.13,0.101-6.136,0.03-5.02,6.53c0.317,1.004,0.636,2.007,0.953,3.011C149.638,634.442,151.109,637.561,153.4,640.221z"/>
	<path fill-rule="evenodd" clip-rule="evenodd" fill="#828282" d="M118.19,574.255c-8.641-0.027-17.281-0.026-25.921-0.102
		c-2.251-0.02-3.852,0.27-3.845,3.148c0.057,22.899,0.031,45.799,1.011,68.713c0-8.118,0.25-16.247-0.093-24.351
		c-0.208-4.908,1.18-6.948,6.393-6.62c5.953,0.375,11.953-0.016,17.933-0.074c1.021-0.404,1.783-0.19,2.175,0.91
		c0.026,0.473-0.109,0.895-0.405,1.265c-7.495-2.317-15.16-0.754-22.743-0.89c-2.313-0.041-1.956,2.303-1.963,3.9
		c-0.033,7.995,0.025,15.991-0.041,23.986c-0.013,1.503,0.667,3.915-1.793,3.875c-2.009-0.034-1.52-2.239-1.521-3.641
		c-0.027-22.32-0.016-44.641-0.016-66.962c0-2.26-0.009-4.494,3.205-4.462c8.492,0.087,16.985,0.131,25.477,0.277
		C116.764,573.242,117.475,573.897,118.19,574.255z"/>
	<path fill-rule="evenodd" clip-rule="evenodd" fill="#F3F3F3" d="M280.389,598.243c-2.955-0.021-5.917,0.082-8.863-0.086
		c-8.889-0.506-14.213,8.807-15.952,15.054c-1.42,5.101-0.248,10.494,0.277,15.715c1.234,12.285,16.196,21.378,28.909,12.432
		c0.775-0.545,1.771-0.775,2.665-1.152c-1.04,5.859-6.007,5.987-10.319,7.071c-2.386,0.444-4.789,0.257-7.189,0.205
		c-5.247-0.15-8.25-4.434-12.354-6.702c-9.733-13.563-7.205-33.125,5.605-43.478c4.192-1.472,8.388-3.109,12.95-2.206
		c2.018,0.398,4.356,0.377,5.493,2.681C281.416,598.488,281.008,598.644,280.389,598.243z"/>
	<path fill-rule="evenodd" clip-rule="evenodd" fill="#727272" d="M467.466,633.342c-0.355-1.736,0.686-3.794-1.193-5.18
		c-1.631-1.83-1.18-4.096-1.162-6.203c0.092-11.367-3.877-20.162-15.17-24.429c-2.715-1.541-5.474-1.344-8.255-0.189
		c-2.195,0.92-4.405,1.764-6.849,1.647c-1.083-0.356-2.188-0.701-1.633-2.245c1.831-2.077,4.757-1.306,6.873-2.641
		c3.578-0.642,7.158-0.595,10.739-0.013c14.398,4.193,21.629,17.611,18.252,34.107C468.714,629.926,468.818,631.889,467.466,633.342
		z"/>
	<path fill-rule="evenodd" clip-rule="evenodd" fill="#6D6D6D" d="M263.438,598.272c-11.683,12.825-13.497,27.853-5.043,41.77
		c0.566,0.552,1.359,1.162,0.95,1.981c-0.411,0.822-1.273,0.772-2.021,0.215c-4.728-4.225-6.044-9.977-6.742-15.849
		c-0.951-8.007,0.032-15.782,3.929-23.011c1.7-3.018,3.782-5.637,7.189-6.873C262.732,596.651,263.793,596.768,263.438,598.272z"/>
	<path fill-rule="evenodd" clip-rule="evenodd" fill="#737373" d="M153.388,644.211c2.061,0.015,1.261-1.348,1.146-2.381
		c10.862,6.356,21.719,5.639,28.669-1.803c1.407-1.507,2.237-3.25,2.997-5.096c0.471-1.146,1.281-2.168,2.627-1.431
		c1.081,0.593,0.628,1.744,0.253,2.671c-2.168,5.352-5.849,9.353-11.331,11.164C169.215,650.155,160.844,650.407,153.388,644.211z"
		/>
	<path fill-rule="evenodd" clip-rule="evenodd" fill="#6B6B6B" d="M115.438,617.145c0.047-0.388,0.094-0.775,0.141-1.163
		c0.23-1.024,0.119-2.121,0.651-3.086c0.611-0.675,1.366-1.157,2.135-1.629c1.086-0.583,2.178-1.007,3.313-0.117
		c0.392,0.658,0.438,1.351,0.202,2.069c-1.97,1.762-2.926,3.186-1.174,6.194c3.881,6.667,8.39,12.987,11.587,20.049
		c1.032,1.867,2.101,3.716,3.082,5.608c0.487,0.938,1.669,2.104,0.114,2.93c-1.252,0.666-2.143-0.407-2.771-1.427
		c-2.075-3.371-4.172-6.729-6.166-10.147C122.813,630.019,119.139,623.574,115.438,617.145z"/>
	<path fill-rule="evenodd" clip-rule="evenodd" fill="#6C6C6C" d="M226.73,594.08c5.919,2.229,11.825,4.475,12.734,12.015
		c0.96,13.699,0.201,27.385-0.12,41.132c-2.678-3.327,0.268-8.19-3.474-11.077c-0.562-1.523-0.231-2.964,0.406-4.372
		c0.337-0.751,0.599-1.525,0.681-2.361c0.811-8.333,0.646-8.473-7.633-8.889c-1.935-0.098-4.501,0.667-5.056-2.456l0.043,0.037
		c3.944-1.251,8.157,0.633,12.066-1.029l-0.076,0.039c3.158-2.16,0.959-5.398,1.62-8.061c-0.715-2.002-1.119-4.138-2.498-5.858
		c-1.54-2.425-3.959-3.907-6.094-5.693c-1.334-1.818-3.523-0.088-5.025-1.211l0.075,0.046c-2.045-1.661-4.871,0.313-7.502-1.678
		C220.443,593.09,223.596,593.687,226.73,594.08z"/>
	<path fill-rule="evenodd" clip-rule="evenodd" fill="#717171" d="M715.558,606.473c-0.066,0.58-0.133,1.16-0.201,1.739
		c-1.014,3.835-0.189,7.742-0.459,11.609c0,8.089,0.033,16.175-0.027,24.26c-0.012,1.63,0.67,4.066-2.568,3.307
		c-1.287-1.593-0.855-3.493-0.863-5.276c-0.047-10.298-0.021-20.596-0.023-30.888c-0.262-4.586-0.195-9.187-0.354-13.781
		c-0.074-2.179,0.141-5.313,3.771-2.46c-0.23,2.544,0.539,4.958,0.982,7.414C715.81,603.759,716.108,605.144,715.558,606.473z"/>
	<path fill-rule="evenodd" clip-rule="evenodd" fill="#747474" d="M667.488,598.405c-0.016-0.809,2.625-2.099-0.43-2.355
		c12.625-7.161,29.343-0.387,32.472,13.158c-1.92-1.805-1.688,0.498-2.295,1.202c-1.838-0.248-2.066-1.956-2.836-3.152
		c-5.303-8.226-12.552-11.114-22.171-8.809C670.645,598.828,669.057,599.589,667.488,598.405z"/>
	<path fill-rule="evenodd" clip-rule="evenodd" fill="#717171" d="M810.521,600.191c1.473,3.537,3.51,6.925,2.898,11.011
		c-1.41-0.355-1.135,0.427-1.115,1.389c0.217,9.978,0.084,19.957,0.082,29.936c0,1.609,0.43,3.369-0.984,4.708
		c-1.643-3.128-0.67-6.487-0.742-9.724c-0.193-8.624,0.08-17.261-0.211-25.879c-0.303-8.912-3.592-12.834-12.025-15.345
		c-2.197-1.462-4.805,0.138-7.053-0.947c0.061-2.713,2.227-2.437,3.898-2.589c5.053-0.46,9.498,0.912,13.014,4.745
		C809.028,598.395,809.774,599.293,810.521,600.191z"/>
	<path fill-rule="evenodd" clip-rule="evenodd" fill="#6E6E6E" d="M487.498,641.984c-0.064,0.833-0.129,1.665-0.193,2.497
		c-3.953-1.145-5.605-4.69-6.977-7.83c-4.399-10.074-5.028-20.354,0.064-30.513c1.197,0.854,1.563,2.169,1.936,3.481
		c0.459,3.618-0.574,7.153-0.605,10.77c-0.049,5.688,0.744,11.108,3.281,16.22c0.49,1.539,1.143,2.993,2.387,4.104
		C487.654,641.117,487.678,641.543,487.498,641.984z"/>
	<path fill-rule="evenodd" clip-rule="evenodd" fill="#717171" d="M158.405,595.236c10.396-3.934,19.53-2.407,26.835,6.407
		c2.236,2.699,3.926,5.773,4.276,9.393c0.304,0.47,0.346,0.962,0.128,1.477c-1.059,2.152,1.39,5.379-2.08,6.792l-0.147-0.095
		c-0.329-0.365-0.608-0.765-0.844-1.195c-0.612-3.564-1.169-7.124-2.677-10.485c-2.427-5.412-7.12-7.998-12.197-10.168
		c-2.879-1.366-5.796-1.114-8.728-0.198c-1.131,0.521-2.27,1.005-3.553,0.955C157.62,597.674,156.209,597.087,158.405,595.236z"/>
	<path fill-rule="evenodd" clip-rule="evenodd" fill="#717171" d="M669.195,647.29c1.215-0.161,2.596,0.088,3.301-1.335
		c1.066-0.989,2.424-1.028,3.732-0.998c10.083,0.231,16.513-4.648,19.784-14.018c0.328-0.939,0.766-1.831,1.496-2.545
		c0.383-0.348,0.834-0.552,1.348-0.618c0.822,0.073,1.383,0.521,1.758,1.232c0.229,0.491,0.188,0.962-0.117,1.41
		c-2.432,13.2-15.039,21.493-27.239,17.915c1.971-1.162,4.119-0.433,5.08-0.502c-0.955,0.234-3.141-0.799-5.105,0.506
		C671.727,648.604,670.346,648.392,669.195,647.29z"/>
	<path fill-rule="evenodd" clip-rule="evenodd" fill="#EEEEEE" d="M132.293,639.462c-4.453-7.205-8.874-14.431-13.373-21.607
		c-1.966-3.136,1.137-3.457,2.486-4.772c0.508-0.42,0.891-1.026,1.466-1.316c10.833-5.453,12.372-14.741,10.535-25.433
		c-0.53-1.09-1.061-2.18-1.591-3.269c2.376-1.046,3.097,0.889,3.444,2.339c3.072,12.821,1.316,22.469-11.815,29.147
		c-2.763,1.404-3.479,2.143-1.589,4.939c3.039,4.493,5.515,9.363,8.363,13.991C131.376,635.358,132.158,637.275,132.293,639.462z"/>
	<path fill-rule="evenodd" clip-rule="evenodd" fill="#E5E5E5" d="M712.44,646.977c2.965,0.571,2.254-1.703,2.258-3.126
		c0.021-8.089-0.064-16.178-0.115-24.267c0.025-0.465,0.275-0.636,0.721-0.553c0.068,8.618,0.174,17.235,0.17,25.854
		c-0.002,1.649,0.748,4.081-2.092,4.188c-2.803,0.106-2.951-2.088-2.953-4.185c-0.002-14.426-0.006-28.851,0-43.275
		c0.002-1.988-0.021-3.982,0.119-5.962c0.09-1.272,0.92-2.132,2.211-2.341c1.564-0.254,2.625,0.229,2.531,2.065
		c-0.355,0.269-0.65,0.215-0.887-0.161c-2.846-1.684-2.982,0.313-2.895,2.245c0.188,4.156,0.514,8.307,0.783,12.459
		C711.743,622.273,711.435,634.628,712.44,646.977z"/>
	<path fill-rule="evenodd" clip-rule="evenodd" fill="#7E7E7E" d="M236.293,635.005c3.309,3.149,1.49,7.521,3.172,11.185
		c0-13.365,0-26.729,0-40.094c1.447,1.691,1.092,3.782,1.107,5.715c0.086,10.771,0.093,21.545,0.05,32.316
		c-0.006,1.505,0.652,4-1.686,3.932c-2.257-0.066-1.438-2.539-1.558-4.062c-0.116-1.479-0.025-2.976-0.025-5.026
		c-3.964,3.292-6.436,8.09-11.93,8.258c-0.891-0.793-2.269,0.189-3.092-0.85c0.821-3.72,5.12-2.909,6.932-5.34
		c0.318-0.315,0.654-0.609,0.989-0.905C232.516,638.718,233.387,635.658,236.293,635.005z"/>
	<path fill-rule="evenodd" clip-rule="evenodd" fill="#F4F4F4" d="M280.389,598.243c0.439-0.058,0.879-0.116,1.318-0.174
		c4.079-1.045,5.774,2.314,8.099,4.441c1.356,1.241,1.958,3.04,2.979,4.663c-3.808-11.083-16.724-14.371-24.946-11.938
		c-2.047,0.605-3.972,1.702-6.218,1.44c-0.493,0.005-0.909-0.165-1.236-0.537c7.434-6.774,24.643-5.052,31.048,3.112
		c1.844,2.35,3.864,4.636,4.653,7.58c0.448,1.672,1.271,4.034-0.745,4.902c-1.982,0.854-4.151-0.546-4.798-2.508
		C288.801,603.938,284.556,601.173,280.389,598.243z"/>
	<path fill-rule="evenodd" clip-rule="evenodd" fill="#747474" d="M257.325,642.238c1.87,0.006,1.573-1.045,1.07-2.195
		c3.961,1.518,6.383,5.798,11.006,6.127c2.684,0.872,5.363,0.942,8.037-0.044c4.188-0.523,7.492-2.54,9.986-5.921
		c2.586-1.27,2.918-4.165,4.462-6.186c1.121-0.401,2.273-0.883,2.46,1.004c-3.081,7.469-8.077,12.551-16.559,13.291
		c-3.257,0.592-6.514,0.591-9.77,0.001C263.634,647.733,260.108,645.638,257.325,642.238z"/>
	<path fill-rule="evenodd" clip-rule="evenodd" fill="#757575" d="M226.73,594.08c-2.74,0-5.48,0-9.084,0
		c2.587,1.979,5.269-0.002,6.734,2.26c-9.104-0.195-16.906,1.768-19.897,11.86c-0.281,0.951-0.939,1.991-2.125,1.594
		c-1.616-0.541-0.88-1.875-0.618-2.938c1.682-6.829,6.44-10.754,12.813-12.656C218.479,593.027,222.658,592.358,226.73,594.08z"/>
	<path fill-rule="evenodd" clip-rule="evenodd" fill="#C4C4C4" d="M410.237,648.088c0.071-23.566,0.147-47.132,0.203-70.698
		c0.004-1.453,0.253-3.165-2.043-3.194c-0.335,0.002-0.67,0.004-1.006,0.006c1.644-2.729,3.044-2.327,3.944,0.45
		c0.346,1.063,0.147,2.313,0.147,3.478c0,21.662,0.016,43.324-0.055,64.986C411.424,644.793,412.344,646.851,410.237,648.088z"/>
	<path fill-rule="evenodd" clip-rule="evenodd" fill="#7A7A7A" d="M224.27,618.071c3.154,2.315,6.735,0.891,10.097,0.992
		c2.942,0.089,4.451,0.912,4.037,4c-0.407,3.037,1.021,6.279-1.02,9.133c-1.876-1.896-1.337-4.335-1.306-6.569
		c0.041-3.007-1.314-3.908-4.183-4.104c-8.536-0.583-16.63,1.675-24.821,3.42c-1.2-0.174-2.173-0.704-2.786-1.789
		C210.129,618.237,217.178,618.067,224.27,618.071z"/>
	<path fill-rule="evenodd" clip-rule="evenodd" fill="#6D6D6D" d="M308.265,597.441c-0.483-0.126-0.974-0.231-1.449-0.382
		c-1.955-0.62-5.527,1.056-5.699-1.385c-0.223-3.15,3.318-1.22,5.133-1.746c1.65-0.479,2.025-1.504,2.025-2.956
		c-0.001-2.666-0.025-5.333,0.029-7.999c0.025-1.276-0.207-3.123,1.639-3.021c1.709,0.094,1.481,1.906,1.535,3.215
		c0.027,0.665-0.006,1.333-0.008,1.999c-0.03,8.027-0.03,8.03,7.752,8.816c1.112,0.112,2.694-0.193,2.587,1.49
		c-0.092,1.445-1.529,1.453-2.738,1.488c-2.494,0.071-4.987,0.207-7.48,0.316c-0.543,0.344-0.991,0.246-1.344-0.285
		c2.16-2.739,5.03-0.644,7.062-1.099c1.131-0.004,0.299-1.086,0.581-0.481c0.059,0.125-0.092,0.18-0.447,0.216
		c-1.317,0.13-2.638,0.006-3.954,0.058c-2.491,0.099-3.672-1.043-3.566-3.572c0.113-2.713-0.143-5.435,0.176-8.6
		c-0.968,4.201,1.229,8.356-1.498,11.87c-1.075,0.435-2.209,0.268-3.325,0.292c-0.667-0.022-0.358,0.548-0.034,0.132
		c0.271-0.347,1.207-0.084,1.85-0.082c0.778,0.006,1.323,0.332,1.537,1.114C308.506,597.041,308.386,597.241,308.265,597.441z"/>
	<path fill-rule="evenodd" clip-rule="evenodd" fill="#6F6F6F" d="M204.288,623.153c0.952,0.096,1.828,0.319,2.239,1.327
		c0.096,2.741-2.185,4.267-3.258,6.407c-0.99,2.073-0.736,4.139,0.037,6.201c0.713,3.923,5.156,5.152,6.311,8.751
		c-0.68,1.125-1.645,0.783-2.597,0.508C197.079,641.372,195.775,630.306,204.288,623.153z"/>
	<path fill-rule="evenodd" clip-rule="evenodd" fill="#838383" d="M715.558,606.473c-0.361-1.108-0.725-2.218-1.086-3.327
		c0.602-0.513,0.91-1.185,1.043-1.951c0.332-1.155,1.365-1.893,1.771-3.003c4.641-4.42,9.887-6.434,16.23-4.085
		c-1.305,1.43-3.172-0.106-4.148,0.623c0.99-0.634,2.852,0.882,4.139-0.628c1.221,0.034,2.006,0.645,1.508,1.845
		c-0.561,1.343-1.889,1.155-3.049,0.895c-4.582-1.034-8.422,0.37-12.07,3.172C717.642,601.744,717.503,604.669,715.558,606.473z"/>
	<path fill-rule="evenodd" clip-rule="evenodd" fill="#EFEFEF" d="M565.547,642.907c2.572,1.303,3.279,5.395,8.146,5.149
		c-6.529-8.074-12.484-15.438-18.439-22.803c0.363-0.511,0.758-0.537,1.184-0.077c5.623,6.488,11.256,12.97,16.863,19.473
		c1.186,1.376,1.789,2.909,0.182,4.37c-1.551,1.411-3.043,1.031-4.271-0.523C567.826,646.743,565.266,645.752,565.547,642.907z"/>
	<path fill-rule="evenodd" clip-rule="evenodd" fill="#727272" d="M433.204,596.743c0.497,1.109,1.465,1.459,2.567,1.589
		c0.03,1.307-0.771,2.157-1.679,2.898c-4.337,3.54-6.558,8.198-7.456,13.636c-0.226,1.369,0.169,3.576-2.524,3.022
		c-1.499-2.117-0.098-4.706-1.125-6.9C424.468,604.859,427.76,600.029,433.204,596.743z"/>
	<path fill-rule="evenodd" clip-rule="evenodd" fill="#D16C8F" d="M622.357,149.244c0.359,1.313,0.719,2.624,1.078,3.936
		l-0.088,0.083c-0.762,0.6-1.758,0.607-2.193-0.089c-3.248-5.189-8.627-8.287-12.473-12.874c-1.02-1.217-1.465-2.567-0.361-4.017
		l0.195-0.169C614.398,139.153,618.262,144.321,622.357,149.244z"/>
	<path fill-rule="evenodd" clip-rule="evenodd" fill="#888888" d="M147.414,628.201c-2.194-6.061-1.563-7.102,4.434-7.088
		c12.542,0.03,25.084,0.097,37.627,0.147c-3.127,1.573-6.464,0.64-9.689,0.698c-8.576,0.154-17.168,0.313-25.733-0.037
		C149.204,621.725,146.387,622.665,147.414,628.201z"/>
	<path fill-rule="evenodd" clip-rule="evenodd" fill="#787878" d="M310.361,644.315c-2.154-2.473-2.087-5.518-2.094-8.499
		c-0.031-12.791-0.007-25.583-0.003-38.375l0.172-0.411c2.925,1.002,1.892,3.527,1.927,5.463c0.232,12.754-0.246,25.515,0.28,38.268
		C310.967,641.979,311.406,643.206,310.361,644.315z"/>
	<path fill-rule="evenodd" clip-rule="evenodd" fill="#F2F2F2" d="M550.254,619.376c-2.443-1.351-1.184-2.683,0.121-3.827
		c5.953-5.226,11.951-10.397,17.934-15.589c0.219,1.798-1.176,2.424-2.223,3.511C560.895,608.861,554.424,612.98,550.254,619.376z"
		/>
	<path fill-rule="evenodd" clip-rule="evenodd" fill="#787878" d="M310.429,597.219c0.387,0.02,0.774,0.039,1.161,0.059
		c-0.05,14.307-0.101,28.612-0.151,42.919c-0.715,0.346-1.196,0.142-1.444-0.613c-0.154-13.158-0.026-26.317-0.06-39.477
		C309.932,599.123,309.758,598.094,310.429,597.219z"/>
	<path fill-rule="evenodd" clip-rule="evenodd" fill="#E5E5E5" d="M145.309,630.483c0.183,4.051,2.76,7.136,4.296,10.64
		c-3.796-1.32-4.536-5.041-5.064-8.021c-1.409-7.948-3.683-16.104,0.807-23.918c-0.009,0.924-0.018,1.848-0.027,2.771
		C144.631,618.13,144.646,624.307,145.309,630.483z"/>
	<path fill-rule="evenodd" clip-rule="evenodd" fill="#727272" d="M158.405,595.236c-0.799,1.534-0.063,2.079,1.392,2.161
		c-2.383,3.497-5.355,6.284-9.384,7.803c-0.047-0.98-0.373-1.787-1.357-2.184C151.24,599.304,154.264,596.598,158.405,595.236z"/>
	<path fill-rule="evenodd" clip-rule="evenodd" fill="#7C7C7C" d="M605.465,574.27c-0.057,11.373-0.111,22.746-0.166,34.121
		C604.439,597.013,604.113,585.637,605.465,574.27z"/>
	<path fill-rule="evenodd" clip-rule="evenodd" fill="#6E6E6E" d="M422.987,610.988c2.643,1.986,0.826,4.92,1.555,7.313
		c0.044,0.257,0.088,0.514,0.135,0.77c-0.477,4.032,2.672,8.144-0.259,12.124l-0.01,0.011c-2.622,0.324-0.649-2.545-2.106-3.03
		c-0.207-0.199-0.207-0.399,0-0.599c-0.595-4.237-0.614-8.474,0.005-12.71C422.148,613.506,421.775,612.108,422.987,610.988z"/>
	<path fill-rule="evenodd" clip-rule="evenodd" fill="#E5E4E4" d="M808.282,597.496c-5.318-3.193-10.617-6.537-16.949-2.313
		c-0.777,0.478-1.482,0.603-1.949-0.408c0.01-0.524,0.02-1.049,0.029-1.573c5.141-1.23,10.26-2.076,15.248,0.615
		C806.255,594.676,807.907,595.449,808.282,597.496z"/>
	<path fill-rule="evenodd" clip-rule="evenodd" fill="#626262" d="M700.269,629.086c-0.293-0.297-0.584-0.594-0.877-0.89
		c-1.941-2.261-1.199-5.005-1.346-7.581c-0.123-2.119,0.268-4.294-0.771-6.3c-0.52-1.333-1.029-2.671,0.063-3.977
		c0.018-1.761,0.309-2.991,2.193-1.131c0.293,1.042-0.117,2.275,0.857,3.13C701.173,617.927,701.354,623.511,700.269,629.086z"/>
	<path fill-rule="evenodd" clip-rule="evenodd" fill="#757575" d="M207.021,646.348c0.92-0.144,1.872-0.223,2.395-1.177
		c1.409-0.721,2.738-0.063,4.09,0.219c2.41,0.825,4.871,0.629,7.337,0.347c0.468-0.015,0.905,0.09,1.312,0.321
		c1.148,0.227,2.492-0.09,3.271,1.171c-1.134,0.727-2.223,1.612-3.723,1.085c-2.868,0.607-5.738,0.583-8.608,0.011
		C210.656,648.934,208.761,647.88,207.021,646.348z"/>
	<path fill-rule="evenodd" clip-rule="evenodd" fill="#787878" d="M488.416,597.167c-0.686,1.323-0.418,2.106,1.203,2.122
		c-0.268,2.969-2.15,4.451-4.793,5.227c-0.848-0.516-1.695-1.057-2.652-1.387C483.408,600.257,485.355,598.128,488.416,597.167z"/>
	<path fill-rule="evenodd" clip-rule="evenodd" fill="#656565" d="M310.43,640.17c0.336,0.009,0.673,0.018,1.009,0.026
		c0.643,2.23,1.39,4.378,3.983,5.078c1.814,1.207,4.259-0.497,6.319,1.528c-2.61,1.515-5.104,0.881-7.569,0.518
		c-2.068,0.01-3.015-1.402-3.81-3.005c0.011-1.023,0.021-2.047,0.032-3.07c-0.271-0.248-0.356-0.49-0.256-0.726
		C310.237,640.286,310.334,640.17,310.43,640.17z"/>
	<path fill-rule="evenodd" clip-rule="evenodd" fill="#747474" d="M700.269,629.086c0.039-5.583,0.08-11.166,0.119-16.748
		c2.164,6.014,1.777,12.043,0.107,18.08C700.421,629.975,700.345,629.53,700.269,629.086z"/>
	<path fill-rule="evenodd" clip-rule="evenodd" fill="#787878" d="M314.172,647.32c2.057-0.095,4.114-0.19,6.539-0.303
		c-1.792-1.458-4.048,0.023-5.289-1.743c2.52,0.09,5.232-0.879,7.363,1.269c0.194,0.196,0.045,1.174-0.156,1.253
		C319.755,648.93,316.92,648.753,314.172,647.32z"/>
	<path fill-rule="evenodd" clip-rule="evenodd" fill="#6B6B6B" d="M482.174,603.129c1.098-0.306,2.287-0.794,2.264,1.136
		c0.422,2.397-0.289,4.182-2.723,5.034c-1.408-0.648-1.266-1.945-1.322-3.16C480.986,605.136,481.58,604.133,482.174,603.129z"/>
	<path fill-rule="evenodd" clip-rule="evenodd" fill="#D5D5D5" d="M153.4,640.221c-3.062-2.23-4.572-5.326-5.033-9.009
		C150.529,633.943,152.119,636.996,153.4,640.221z"/>
	<path fill-rule="evenodd" clip-rule="evenodd" fill="#E5E5E5" d="M260.385,596.14c0.401,0.05,0.802,0.1,1.203,0.149
		c0.28,0.376,0.199,0.674-0.195,0.903c-3.054,1.217-4.47,4.256-6.881,6.187C254.825,599.632,257.792,598.037,260.385,596.14z"/>
	<path fill-rule="evenodd" clip-rule="evenodd" fill="#727272" d="M422.307,614.866c-0.002,4.235-0.004,8.47-0.005,12.708
		C421.146,623.339,421.238,619.103,422.307,614.866z"/>
	<path fill-rule="evenodd" clip-rule="evenodd" fill="#7A7A7A" d="M236.379,617.079c-3.854,2.299-8.037,0.761-12.065,1.03
		C228.244,616.706,232.329,617.1,236.379,617.079z"/>
	<path fill-rule="evenodd" clip-rule="evenodd" fill="#808080" d="M495.246,648.287c3.779,0.001,7.561,0.002,11.342,0.003
		C502.807,649.848,499.025,649.773,495.246,648.287z"/>
	<path fill-rule="evenodd" clip-rule="evenodd" fill="#7D7D7D" d="M715.304,619.031c-0.273,0.139-0.514,0.321-0.721,0.551
		c0.049-3.803-1.096-7.689,0.773-11.37C715.339,611.818,715.321,615.425,715.304,619.031z"/>
	<path fill-rule="evenodd" clip-rule="evenodd" fill="#F2F2F2" d="M556.438,625.177c-0.395,0.025-0.789,0.051-1.182,0.077
		c-1.986-1.725-3.91-3.501-5.041-5.949C552.961,620.549,554.686,622.876,556.438,625.177z"/>
	<path fill-rule="evenodd" clip-rule="evenodd" fill="#787878" d="M506.666,594.094c-3.838-0.001-7.678-0.002-11.52-0.003
		C498.986,592.802,502.826,592.609,506.666,594.094z"/>
	<path fill-rule="evenodd" clip-rule="evenodd" fill="#EEEEEE" d="M560.598,602.286c-1.738,2.057-3.402,4.209-6.186,4.966
		C556.01,605.02,557.406,602.533,560.598,602.286z"/>
	<path fill-rule="evenodd" clip-rule="evenodd" fill="#727272" d="M450.816,594.09c-3.579,0.004-7.157,0.008-10.737,0.013
		C443.655,592.876,447.234,592.745,450.816,594.09z"/>
	<path fill-rule="evenodd" clip-rule="evenodd" fill="#7A7A7A" d="M238.382,608.257c-0.971,2.889,2.191,6.747-2.079,8.862
		c2.158-2.757,0.502-5.916,0.936-8.854C237.616,607.818,237.997,607.816,238.382,608.257z"/>
	<path fill-rule="evenodd" clip-rule="evenodd" fill="#888888" d="M189.216,612.451c0.101-0.472,0.2-0.942,0.301-1.414
		c1.445,3.415,2.368,6.829-0.043,10.229c-0.021-0.356-0.044-0.713-0.065-1.069C188.546,617.635,188.858,615.043,189.216,612.451z"/>
	<path fill-rule="evenodd" clip-rule="evenodd" fill="#999999" d="M716.228,601.871c-0.141,1.039-0.863,1.276-1.756,1.274
		c-0.023-2.644-0.045-5.287-0.068-7.931c0.301,0.021,0.598,0.075,0.887,0.16c0.033,1.281,0.066,2.562,0.1,3.842
		C716.472,599.848,715.519,601.122,716.228,601.871z"/>
	<path fill-rule="evenodd" clip-rule="evenodd" fill="#777777" d="M268.019,648.315c3.255,0,6.51-0.001,9.767-0.001
		C274.531,649.847,271.274,649.481,268.019,648.315z"/>
	<path fill-rule="evenodd" clip-rule="evenodd" fill="#7E7E7E" d="M213.093,648.324c2.869-0.004,5.737-0.007,8.607-0.011
		C218.833,649.613,215.964,649.773,213.093,648.324z"/>
	<path fill-rule="evenodd" clip-rule="evenodd" fill="#727272" d="M422.302,628.175c0.702,1.01,1.404,2.02,2.106,3.03
		c0.006,1.319,0.012,2.64,0.019,3.96C422.969,633.063,422.288,630.725,422.302,628.175z"/>
	<path fill-rule="evenodd" clip-rule="evenodd" fill="#6C6C6C" d="M238.382,608.257c-0.381,0.003-0.762,0.006-1.143,0.009
		c-0.605-1.689-1.21-3.378-1.814-5.066C237.723,604.117,237.319,606.616,238.382,608.257z"/>
	<path fill-rule="evenodd" clip-rule="evenodd" fill="#FEFEFE" d="M305.677,607.331c0.956,2.146,0.816,3.395,0.445,4.863
		C304.851,610.927,305.568,609.628,305.677,607.331z"/>
	<path fill-rule="evenodd" clip-rule="evenodd" fill="#777777" d="M294.347,635.023c-0.819-0.335-1.639-0.669-2.459-1.004
		c0.518-0.842,1.079-1.854,2.236-1.23C295.033,633.279,295.571,634.151,294.347,635.023z"/>
	<path fill-rule="evenodd" clip-rule="evenodd" fill="#E5E5E5" d="M716.228,601.871c-1.133-0.615-0.971-1.64-0.838-2.655
		c0.631-0.341,1.264-0.683,1.896-1.024C716.933,599.418,716.579,600.645,716.228,601.871z"/>
	<path fill-rule="evenodd" clip-rule="evenodd" fill="#757575" d="M224.306,596.295c1.744,0.116,3.776-0.964,5.025,1.211
		C227.655,597.103,225.98,596.698,224.306,596.295z"/>
	<path fill-rule="evenodd" clip-rule="evenodd" fill="#DA658E" d="M608.32,136.283c0.543,3.993,3.16,6.492,6.566,7.865
		c2.344,0.944,2.859,3.055,4.234,4.59c1.379,1.54,1.816,3.941,4.227,4.524c0.594,5.393,3.121,10.412,3.066,15.929
		c0.916,1.731,0.461,3.6,0.463,5.396c0.025,87.739,0.025,175.479,0,263.218c0,1.797,0.451,3.665-0.461,5.396
		c-0.002,9.643-4.779,17.321-10.791,24.118c-6.893,7.793-15.875,12.283-26.225,13.866c-10.596-0.306-21.18-1.309-31.785-0.804
		c-7.816,0.372-15.613,0.467-23.428-0.025s-15.633,0.34-23.436,0.25c-18.768-0.216-37.553-0.412-56.297-0.167
		c-19.954,0.262-39.902-0.175-59.852,0.025c-14.748,0.147-29.537,0.205-44.31-0.006c-10.919-0.156-21.945-0.473-32.88,0.74
		c-2.005-0.317-4.247,0.799-6.008-0.994c-2.271-0.878-4.784-0.909-6.993-2.003c-3.609,0.038-6.178-2.265-8.997-4.005
		c0.425-2.804-1.77-1.678-3-1.997c-1.002-0.672-2.004-1.344-3.006-2.016c-0.551-3.84-3.525-5.986-6.071-8.33
		c-1.179-1.085-2.125-1.985-1.927-3.657c-0.697-1.038-0.956-2.172-0.746-3.409c1.038-7.565,1.806-15.139,1.483-22.804
		c-0.181-4.306-0.522-8.638,0.599-12.908c0.877-3.344-0.997-6.667-0.551-9.862c1.218-8.742-0.681-17.442,0.44-26.265
		c0.832-6.541-0.137-13.454-0.354-20.199c-0.096-2.988-0.797-6.116-0.132-8.942c1.783-7.58,0.668-15.335,0.248-22.709
		c-0.52-9.118,0.335-18.177,0.117-27.237c-0.212-8.815-1.084-17.739,0.116-26.728c0.875-6.546-0.331-13.446-0.312-20.202
		c0.005-1.971-0.544-4.017-0.245-5.96c1.313-8.547,0.981-17.291,0.38-25.68c-0.655-9.139,1.038-18.133-0.094-27.262
		c-0.739-5.957,0.458-12.181-0.82-18.229c-0.397-1.595-0.448-3.205-0.165-4.82c0.187-4.475,1.831-9.018-1.995-13.098
		c-1.723-1.836,3.937-8.593,7.637-8.635c3.913-0.044,4.53-1.829,3.806-5.008c-0.189-0.428-0.345-0.864-0.499-1.304
		c-0.56-1.589-1.146-3.182,0.091-4.732c2.139-0.183,4.784,0.877,5.18-2.852c0.438-4.126,4.921,1.632,5.514-1.984
		c0.609-3.719,2.728-3.509,5.399-2.643c1.741,0.564,3.505,0.857,5.276-0.101c-0.083-2.34-2.581-0.73-3.431-2.096
		c6.098-1.227,12.251,0.989,18.06-1.318c1.725-0.942,3.595-0.472,5.39-0.473c81.74-0.027,163.48-0.027,245.221,0
		c1.795,0.001,3.666-0.471,5.391,0.473c3.275,1.209,6.281,4.339,10.172,1.213c0.498-0.401,2.139-0.095,2.732,0.449
		C599.088,136.334,603.742,136.102,608.32,136.283z"/>
	<path fill-rule="evenodd" clip-rule="evenodd" fill="#D8638D" d="M291.111,147.545c2.339,5.252,1.479,6.725-3.885,6.672
		c-4.735-0.046-5.015,4.563-8.755,7.543c4.064-0.438,7.036-0.853,4.199,3.534c-1.685,2.606,2.481,5.962-0.258,8.906
		c-1.128-0.722-1.688-1.935-2.521-2.888c-2.478,1.673-1.187,3.73-0.314,5.438c0.554,1.084,1.761,1.845,1.788,3.284
		c0.109,82.148,0.002,164.28,0.054,246.411c-0.003-80.166-0.01-160.332,0.03-240.498c0.001-2.259-0.701-4.694,0.964-6.746
		c1.094,4.414,1.402,8.84,1.562,13.43c0.337,9.73-0.721,19.398-0.437,29.13c0.213,7.305,1.649,14.668,0.205,22.015
		c-0.285,1.451-0.451,2.993-0.293,4.452c0.886,8.174-0.614,16.427,0.928,24.579c0.758,4.007-1.563,7.863-0.927,11.842
		c1.276,8-0.694,16.074,0.859,24.094c0.82,4.238-1.681,8.502-0.866,12.828c1.378,7.327-0.519,14.715,0.77,22.111
		c0.687,3.94-1.099,8.27-0.667,12.306c0.824,7.699-0.507,15.393,0.687,23.113c0.639,4.134-1.27,8.657-0.651,12.8
		c1.151,7.717-0.873,15.374,0.599,23.14c0.959,5.063-1.663,10.527-0.684,15.788c1.346,7.228-1.255,14.287-0.407,21.46
		c0.127,1.076-0.627,2.218-1.675,2.912c-2.577,0.574-2.005-1.997-3-3.004c-1.899-3.803-0.596-7.879-1.018-11.807
		c-0.223-2.075,0.808-4.36-0.977-6.19c-0.937-1.727-0.47-3.597-0.47-5.392c-0.026-84.736-0.026-169.472-0.001-254.208
		c0.001-1.797-0.455-3.665,0.463-5.396c1.521-10.631,6.474-19.483,14.002-26.999C290.748,143.871,291.081,145.537,291.111,147.545
		c-0.568,0.837-0.57,0.837-0.286,0.357c0.156-0.264,0.365-0.489,0.588-0.701c-0.104-0.086-0.212,0.023-0.321,0.327
		C291.04,147.672,290.946,147.792,291.111,147.545z"/>
	<path fill-rule="evenodd" clip-rule="evenodd" fill="#CC668B" d="M276.413,169.205c0.002,88.332,0.005,176.664,0.007,264.996
		c0.001,2.953,0.001,5.906,0.001,9.864c-1.488-2.622-0.974-4.413-0.975-6.102c-0.031-87.526-0.033-175.052,0.014-262.578
		C275.461,173.323,274.624,171.031,276.413,169.205z"/>
	<path fill-rule="evenodd" clip-rule="evenodd" fill="#CB5F85" d="M582.414,131.212c-85.334,0-170.668,0-256.001,0
		c-3.287,0-6.575,0-9.862,0c0.005-0.242,0.01-0.483,0.016-0.726c89.878,0,179.758,0,269.902,0
		C585.174,131.762,583.674,130.927,582.414,131.212z"/>
	<path fill-rule="evenodd" clip-rule="evenodd" fill="#CC668B" d="M278.415,452.197c1,1.002,2,2.003,3,3.004
		c-0.001,0.999-0.003,1.998-0.004,2.997C279.1,456.854,278.44,454.684,278.415,452.197z"/>
	<path fill-rule="evenodd" clip-rule="evenodd" fill="#D36189" d="M317.413,481.2c1.371-2.793,3.967-1.972,6.179-1.974
		c42.792-0.034,85.585-0.025,128.378-0.025c40.793,0,81.588-0.025,122.383,0.032c5.07,0.007,10.139,0.479,15.047,1.953
		c-15.666,1.533-31.396-0.145-47.07,0.996c-5.828,0.424-11.502-1.358-17.357-1.039c-8.938,0.488-17.895,1.901-26.832,0.965
		c-14.25-1.494-28.549,1.487-42.776-0.839c-3.264-0.534-6.478,1.012-9.854,1.004c-7.972-0.021-15.901-0.516-23.85-1.008
		c-9.12-0.564-18.214,1.855-27.333,0.862c-14.907-1.624-29.815,0.573-44.79-0.528c-8.576-0.631-17.525,0.437-26.313,0.585
		C321.225,482.218,319.219,482.309,317.413,481.2z"/>
	<path fill-rule="evenodd" clip-rule="evenodd" fill="#D05E86" d="M626.416,443.202c0-91.336-0.002-182.673-0.002-274.01
		c1.625,1.477,0.975,3.432,0.975,5.182c0.029,87.882,0.027,175.764-0.006,263.645C627.383,439.768,628.039,441.723,626.416,443.202z
		"/>
	<path fill-rule="evenodd" clip-rule="evenodd" fill="#D4678E" d="M304.412,478.203c2.54-0.062,4.956,0.31,6.994,2.003
		C308.883,480.208,306.278,480.494,304.412,478.203z"/>
	<path fill-rule="evenodd" clip-rule="evenodd" fill="#D4678E" d="M292.415,472.201c1.188-0.559,2.583-1.593,3.684-0.795
		c1.179,0.854-1.163,1.642-0.684,2.792C294.415,473.532,293.415,472.867,292.415,472.201z"/>
	<path fill-rule="evenodd" clip-rule="evenodd" fill="#8A8A8A" d="M746.542,613.287c-0.025,10.295-0.018,20.59-0.115,30.885
		c-0.014,1.443,0.814,3.904-1.777,3.762c-1.986-0.109-1.43-2.31-1.434-3.697c-0.039-14.95-0.068-29.9,0.029-44.851
		c0.01-1.737-1.088-4.824,1.67-4.836c2.311-0.01,1.088,2.968,1.412,4.61c0.189,0.949,0.035,1.965,0.035,3.605
		c2.223-2.231,4.023-4.04,5.824-5.849c0.881,0.255,1.846,0.368,2.32,1.332c-5.047,3.757-6.6,9.358-7.953,15.063
		c-0.443-0.22-0.854-0.499-1.096-0.932c-0.34-0.608-0.225-1.247-0.322-0.982c-0.471,2.718-0.158,6.381-0.238,10.035
		c0,6.37,0.002,12.728,0,19.085c-0.174,1.579,0.385,3.227-0.369,4.756c0.848-1.517,0.189-3.178,0.4-4.76
		c0-6.714-0.002-13.425-0.002-20.136C745.632,618.052,743.261,615.026,746.542,613.287z"/>
	<path fill-rule="evenodd" clip-rule="evenodd" fill="#717171" d="M754.507,598.249c-0.953-0.133-1.873-0.318-2.32-1.332
		c9.91-7.881,23.662-2.116,26.313,8.095c0.305,0.268,0.453,0.605,0.451,1.013c-0.049,0.392-0.137,0.774-0.238,1.153
		c-0.248,0.983-0.201,1.993-0.266,2.996c-0.113,0.872-0.293,1.71-1.129,2.209c-0.535-2.217-0.816-4.534-1.646-6.633
		C772.192,596.979,764.599,594.346,754.507,598.249z"/>
	<path fill-rule="evenodd" clip-rule="evenodd" fill="#616161" d="M811.401,647.234c0-12.926,0-25.851,0-38.905
		c1.674,0.376,0.617,2.491,2.018,2.873c0.1,11.419,0.217,22.838,0.275,34.257C813.7,646.847,813.776,648.734,811.401,647.234z"/>
	<path fill-rule="evenodd" clip-rule="evenodd" fill="#626262" d="M777.317,612.383c0.09-1.092,0.18-2.184,0.27-3.275
		c2.002,0.31,2.092,1.91,2.311,3.426c-0.295,11.571,0.6,23.156-0.463,34.716c-3.021,1.329-2.232-1.213-2.236-2.417
		C777.175,634.016,777.263,623.199,777.317,612.383z"/>
	<path fill-rule="evenodd" clip-rule="evenodd" fill="#858585" d="M778.437,606.171c0.021-0.386,0.041-0.772,0.063-1.159
		c3.564-3.481,5.432-8.766,10.885-10.237c0.65,0.136,1.299,0.271,1.949,0.408c2.355,0.412,4.988-0.942,7.09,1.104
		c-10.672,0.224-14.059,2.878-17.934,14.054C779.062,609.317,779.054,607.594,778.437,606.171z"/>
	<path fill-rule="evenodd" clip-rule="evenodd" fill="#717171" d="M778.437,606.171c2.764,0.365,1.635,2.647,2.053,4.169
		c-0.127,10.552-0.227,21.103-0.404,31.652c-0.029,1.758,0.6,3.637-0.65,5.256c-0.043-12.063-0.086-24.128-0.127-36.191
		c-0.537-1.511-1.057-3.025-0.99-4.664L778.437,606.171z"/>
	<path fill-rule="evenodd" clip-rule="evenodd" fill="#696969" d="M540.377,621.053c-2.406,2.111-2.406,2.111-3.965-1.711
		c0,1.93-0.248,3.901,0.061,5.78c0.436,2.661,1.363-0.234,2.068,0.04c-0.105,6.487-0.195,12.975-0.33,19.461
		c-0.025,1.268,0.258,3.156-1.539,3.11c-1.873-0.048-1.324-1.997-1.326-3.2c-0.039-22.481-0.037-44.963-0.033-67.443
		c0-1.307-0.188-3.208,1.506-3.169c1.709,0.04,1.365,1.96,1.367,3.244c0.008,13.155-0.055,26.312,0.061,39.467
		C538.26,618.222,536.803,620.993,540.377,621.053z"/>
	<path fill-rule="evenodd" clip-rule="evenodd" fill="#616161" d="M607.389,611.124c0.012-0.647,0.023-1.294,0.033-1.94
		c11.611-0.001,23.223-0.001,34.834-0.001c0.002,0.338,0.004,0.676,0.006,1.014c-9.514,0-19.029,0.002-28.545-0.002
		C611.561,610.193,609.377,609.988,607.389,611.124z"/>
	<path fill-rule="evenodd" clip-rule="evenodd" fill="#FEFEFE" d="M481.715,609.299c0.908-1.678,1.816-3.356,2.723-5.034
		c1.729-1.658,3.455-3.317,5.182-4.976c2.26-1,4.52-2,6.777-2.999c2.998-0.862,5.99-0.97,8.975,0.072
		c11.338,4.083,16.084,11,16.393,23.891c0.326,13.668-4.381,21.153-16.355,26.004c-3.002,0.636-6.002,0.765-8.996-0.065
		c-3.453-0.379-6.225-2.209-8.914-4.207c-0.018-0.298-0.139-0.544-0.365-0.738c-0.973-0.986-2.1-1.844-2.652-3.181
		C478.988,628.916,479.365,619.202,481.715,609.299z"/>
	<path fill-rule="evenodd" clip-rule="evenodd" fill="#787878" d="M505.371,596.362c-2.992-0.024-5.982-0.049-8.975-0.073
		C499.402,594.588,502.395,594.439,505.371,596.362z"/>
	<path fill-rule="evenodd" clip-rule="evenodd" fill="#808080" d="M496.412,646.191c3,0.021,5.998,0.044,8.998,0.065
		C502.398,647.764,499.4,647.86,496.412,646.191z"/>
	<path fill-rule="evenodd" clip-rule="evenodd" fill="#FEFEFE" d="M121.414,611.18c-1.259-0.449-2.077,0.434-3.003,0.992
		c-8.433,1.154-16.906,0.241-25.357,0.482c-1.992,0.057-3.154-1.123-3.095-3.108c0.321-10.767-0.808-21.56,0.569-32.307
		c8.593-2.046,17.231-1.241,25.869-0.408c1.291,0.124,2.577,0.301,3.866,0.453c1.393,0.637,3.086,0.698,4.063,2.127
		c2.898,2.063,5.024,4.778,6.671,7.897c3.974,9.062,2.614,16.14-4.308,21.902C125.207,610.445,123.716,611.989,121.414,611.18z"/>
	<path fill-rule="evenodd" clip-rule="evenodd" fill="#717171" d="M121.414,611.18c9.977-5.955,12.307-11.757,9.585-23.871
		c0.721,0.603,1.442,1.206,2.164,1.809c0.082-0.929,0.163-1.857,0.244-2.785c5.131,11.709-0.376,23.983-12.001,26.75
		C121.408,612.448,121.411,611.813,121.414,611.18z"/>
	<path fill-rule="evenodd" clip-rule="evenodd" fill="#888888" d="M90.528,577.239c0.063,10.129,0.252,20.261,0.119,30.388
		c-0.048,3.664,1.125,5.045,4.862,4.899c7.627-0.299,15.267-0.256,22.901-0.354c-0.43,0.914-1.309,1.068-2.156,1.276l-0.379,0.291
		l-0.375-0.296c-7.124-0.039-14.248-0.107-21.372-0.101c-2.588,0.002-4.682-0.432-4.674-3.673
		c0.024-10.274,0.021-20.549,0.097-30.822C89.556,578.31,90.188,577.775,90.528,577.239z"/>
	<path fill-rule="evenodd" clip-rule="evenodd" fill="#828282" d="M124.327,579.411c-1.354-0.709-2.709-1.418-4.063-2.127
		C122.103,577.067,123.731,577.252,124.327,579.411z"/>
	<path fill-rule="evenodd" clip-rule="evenodd" fill="#4D4D4D" d="M115.501,613.443c0.252-0.043,0.504-0.042,0.755,0.003
		c0.157,0.95,0.391,1.918-0.678,2.537c-0.638-0.338-1.275-0.675-1.912-1.013C114.279,614.461,114.891,613.952,115.501,613.443z"/>
	<path fill-rule="evenodd" clip-rule="evenodd" fill="#696969" d="M408.483,575.234c1.203,1.014,0.921,2.411,0.922,3.711
		c0.01,21.445,0.009,42.89-0.006,64.335c0,0.629-0.166,1.257-0.97,1.865c0-9.911-0.19-19.827,0.09-29.729
		c0.118-4.175-1.2-5.385-5.336-5.31c-13.295,0.241-26.599,0.191-39.896,0.021c-3.526-0.045-5.078,0.701-4.973,4.644
		c0.287,10.63,0.171,21.271,0.215,31.904c-3.713,0.395-2.07-2.556-2.083-3.863c-0.146-15.116-0.099-30.235-0.1-45.354
		c-0.001-6.148-0.043-12.296,0.046-18.442c0.021-1.507-0.664-3.271,2.1-5.492c0,12.078,0,23.159,0,34.24
		c0.432,1.366,1.595,0.931,2.493,0.933c14.954,0.026,29.907,0.026,44.861-0.001c0.895-0.001,2.064,0.443,2.479-0.941
		C408.379,596.914,408.432,586.074,408.483,575.234z"/>
	<path fill-rule="evenodd" clip-rule="evenodd" fill="#6D6C6C" d="M408.326,607.755c-0.6,1.647-2.027,1.444-3.324,1.444
		c-14.391,0.011-28.781,0.011-43.171-0.001c-1.295-0.001-2.725,0.213-3.337-1.432c4.368,1.337,8.854,0.608,13.282,0.658
		c10.401,0.117,20.804,0.041,31.206,0.034C404.792,608.458,406.628,608.623,408.326,607.755z"/>
	<path fill-rule="evenodd" clip-rule="evenodd" fill="#FEFEFE" d="M697.337,610.339c-0.072,1.061-0.26,2.146,0.656,2.989
		c1.697,4.915,0.984,9.896,0.402,14.873c-2.443,8.28-6.445,15.14-15.591,17.469c-3.436,0.875-6.867,0.423-10.309,0.285
		c-18.961-8.223-21.568-32.982-5.008-47.55c1.904-0.543,3.787-1.188,5.717-1.61C683.729,594.486,691.405,598.815,697.337,610.339z"
		/>
	<path fill-rule="evenodd" clip-rule="evenodd" fill="#FEFEFE" d="M424.542,618.301c1.271-4.228,1.433-8.756,3.904-12.67
		c1.916-3.034,4.566-5.187,7.325-7.299c1.663-1.253,4.071-0.462,5.612-2.046c3.007-0.839,6.004-1.007,8.987,0.11
		c11.709,3.898,15.83,12.803,15.992,24.293c0.035,2.49-0.057,4.981-0.09,7.473c-2.4,7.252-5.508,13.961-13.398,16.814
		c-10.994,3.977-21.606-0.817-26.07-11.706c-0.309-0.752-0.777-1.438-1.172-2.155c-0.342-4.297-2.573-8.436-1.08-12.886
		L424.542,618.301z"/>
	<path fill-rule="evenodd" clip-rule="evenodd" fill="#727272" d="M424.553,618.229c0.36,4.295,0.721,8.591,1.08,12.886
		c-0.404,0.026-0.81,0.053-1.215,0.079c-0.063-2.718,0.078-5.412-0.766-8.11C423.166,621.53,422.749,619.559,424.553,618.229z"/>
	<path fill-rule="evenodd" clip-rule="evenodd" fill="#FDFDFD" d="M150.413,605.2c2.957-2.807,5.598-5.993,9.383-7.803
		c1.102,0.263,1.804-0.458,2.563-1.039c3.342-1.028,6.679-1.109,10.01,0.046c10.171,3.652,15.05,10.962,14.987,21.687
		c-5.4,1.349-10.886,0.396-16.327,0.552c-6.487,0.186-12.983,0.063-19.477,0.038c-5.072-0.021-5.101-0.084-4.005-5.475
		C147.505,610.181,148.78,607.626,150.413,605.2z"/>
	<path fill-rule="evenodd" clip-rule="evenodd" fill="#888888" d="M147.547,613.206c-0.536,3.913,0.773,5.454,5.085,5.3
		c11.564-0.412,23.147-0.312,34.724-0.415c0.021,0.373,0.041,0.746,0.062,1.119c-12.163,0.028-24.326,0.089-36.489,0.071
		C145.995,619.274,145.496,618.299,147.547,613.206z"/>
	<path fill-rule="evenodd" clip-rule="evenodd" fill="#727272" d="M145.309,630.483c-1.714-6.177-1.664-12.353,0.011-18.527
		C145.315,618.131,145.313,624.307,145.309,630.483z"/>
	<path fill-rule="evenodd" clip-rule="evenodd" fill="#555555" d="M189.216,612.451c0.064,2.582,0.128,5.164,0.192,7.746
		c-0.756-0.009-1.477-0.091-1.846-0.894C189.599,617.378,187.325,614.412,189.216,612.451z"/>
	<path fill-rule="evenodd" clip-rule="evenodd" fill="#767676" d="M261.393,597.192c0.082-0.298,0.146-0.599,0.195-0.904
		c12.612-5.237,22.171-3.54,29.716,5.163c1.338,1.543,2.296,3.233,2.961,5.105c0.396,1.116,1.765,2.578-0.078,3.386
		c-1.642,0.719-2.324-0.837-2.704-2.116c-1.151-3.883-3.865-6.474-7.052-8.654c-0.79-0.54-1.811-0.743-2.725-1.103
		c-6.126-3.321-12.195-1.388-18.268,0.203C263.024,597.404,262.239,597.241,261.393,597.192z"/>
	<path fill-rule="evenodd" clip-rule="evenodd" fill="#777777" d="M277.438,646.126c-2.67,1.677-5.35,1.625-8.037,0.044
		C272.08,646.155,274.759,646.141,277.438,646.126z"/>
	<path fill-rule="evenodd" clip-rule="evenodd" fill="#575757" d="M468.154,615.26c0,3.571,0,7.144,0,10.715
		c-0.146,0.002-0.293,0.004-0.438,0.006c0-3.57,0-7.142,0-10.713C467.861,615.265,468.007,615.262,468.154,615.26z"/>
	<path fill-rule="evenodd" clip-rule="evenodd" fill="#727272" d="M450.371,596.396c-2.996-0.037-5.991-0.073-8.986-0.11
		C444.4,594.625,447.398,594.408,450.371,596.396z"/>
	<path fill-rule="evenodd" clip-rule="evenodd" fill="#F2F1F1" d="M213.396,646.126c-1.327-0.318-2.653-0.637-3.98-0.955
		c-3.509-1.624-5.775-4.341-7.004-7.97c-0.716-2.346-0.835-4.687,0.057-7.02c1.354-1.9,2.706-3.801,4.06-5.701
		c8.821-4.25,18.361-3.991,27.792-4.501c2.516-0.137,3.195,1.023,3.134,3.244c-0.084,2.989-0.052,5.981-0.069,8.973
		c-0.648,0.825-1.316,1.644-1.091,2.809c-1.783,2.239-2.959,5.041-5.813,6.293c-1.463-1.809,0.085-3.045,0.856-4.413
		c1.8-3.194,3.309-6.501,3.682-10.196c0.262-2.597-0.787-4.056-3.614-4.147c-6.894-0.225-13.519,1.439-20.039,3.212
		c-3.803,1.034-5.728,4.536-5.742,8.492c-0.014,3.89,2.313,6.378,5.842,7.884c4.563,1.948,9.012,1.681,13.522-0.21
		c1.724-0.722,3.477-2.269,5.526-0.649c-1.991,2.983-5.604,3.138-8.359,4.789c-0.001-0.001-0.394-0.021-0.394-0.021l-0.352,0.177
		C218.729,646.937,216.057,647.073,213.396,646.126z"/>
	<path fill-rule="evenodd" clip-rule="evenodd" fill="#7D7D7D" d="M712.44,646.977c-1.521-4.846-0.676-9.828-0.652-14.729
		c0.035-7.439-0.783-14.912,0.504-22.327C712.343,622.271,712.392,634.624,712.44,646.977z"/>
	<path fill-rule="evenodd" clip-rule="evenodd" fill="#808080" d="M484.48,638.065c1.092,0.888,2.188,1.771,2.652,3.181
		C485.338,640.946,484.406,639.925,484.48,638.065z"/>
	<path fill-rule="evenodd" clip-rule="evenodd" fill="#727272" d="M172.368,596.404c-3.337-0.016-6.673-0.031-10.009-0.046
		C165.703,594.57,169.04,594.473,172.368,596.404z"/>
	<path fill-rule="evenodd" clip-rule="evenodd" fill="#747474" d="M698.396,628.201c-0.096-4.959,0.506-9.936-0.402-14.873
		c2.922,2.618,0.963,6.037,1.422,9.056c0.289,1.893,0.004,3.872-0.023,5.813l-0.498,0.005H698.396z"/>
	<path fill-rule="evenodd" clip-rule="evenodd" fill="#6A6A6A" d="M673.232,648.338c2.148-2.015,4.639-0.798,7.043-0.352
		c-2.34,0.115-4.678,0.231-7.018,0.348L673.232,648.338z"/>
	<path fill-rule="evenodd" clip-rule="evenodd" fill="#636363" d="M310.43,640.17c-0.012,0.357-0.023,0.716-0.034,1.075
		c-1.508-1.508-0.949-3.438-0.958-5.195c-0.056-11.271-0.008-22.545-0.055-33.817c-0.008-1.762,0.558-3.687-0.946-5.201
		c-0.336-0.321-0.672-0.642-1.008-0.962c-0.338-0.186-0.452-0.374-0.344-0.567s0.219-0.291,0.33-0.291
		c2.942-1.537,1.75-4.319,1.998-6.662c0.223-2.103-0.436-4.275,1.069-6.337c0,3.437-0.55,6.985,0.127,10.283
		c1.062,5.168,6.104,1.272,8.748,3.237c-2.798,1.422-6.271-0.899-8.929,1.486C310.429,611.536,310.429,625.853,310.43,640.17z"/>
	<path fill-rule="evenodd" clip-rule="evenodd" fill="#656565" d="M307.415,595.211c-0.001,0.287,0.004,0.573,0.014,0.859
		c-1.295-0.001-2.59-0.001-3.885-0.001c-0.015-0.224-0.028-0.447-0.043-0.671C304.806,595.336,306.11,595.273,307.415,595.211z"/>
	<path fill-rule="evenodd" clip-rule="evenodd" fill="#717171" d="M202.468,630.182c-0.019,2.34-0.037,4.68-0.057,7.02
		C200.859,634.849,200.791,632.508,202.468,630.182z"/>
	<path fill-rule="evenodd" clip-rule="evenodd" fill="#5C5C5C" d="M733.507,594.102c-1.635,2.986-3.977,0.08-5.934,0.354
		c1.98-0.116,3.963-0.232,5.943-0.349L733.507,594.102z"/>
	<path fill-rule="evenodd" clip-rule="evenodd" fill="#7E7E7E" d="M213.396,646.126c2.671,0.029,5.343,0.06,8.014,0.089
		C218.721,647.713,216.048,647.814,213.396,646.126z"/>
	<path fill-rule="evenodd" clip-rule="evenodd" fill="#D76F95" d="M527.414,226.205c7.641,9.435,8.104,20.579,8.057,32.03
		c-0.158,37.314-0.143,74.63,0.027,111.943c0.025,5.852-0.691,11.61-1.291,17.35c-0.908,8.686-12.574,18.586-21.449,19.75
		c-7.625,1-15.238,0.919-22.871,0.922c-29.319,0.013-58.638,0.008-87.957,0.004c-9.854-0.001-19.169-1.609-26.515-9.005
		c-0.537-0.887-0.685-1.693,0.459-2.236c0.675,0.021,1.407,0.083,1.886,0.538c7.243,6.901,16.104,7.487,25.54,7.413
		c34.807-0.271,69.616-0.019,104.423-0.166c9.082-0.038,16.477-3.582,20.668-12.212c2.791-5.079,3.707-10.471,3.688-16.287
		c-0.131-42.21-0.16-84.422,0.021-126.632c0.029-6.752-1.143-12.821-5.119-18.305c-0.971-1.338-1.822-2.796-1.822-4.559
		C525.637,225.446,526.49,225.685,527.414,226.205z"/>
	<path fill-rule="evenodd" clip-rule="evenodd" fill="#D3658E" d="M280.413,171.203c2.024,0.094,2.014,1.545,2,2.998
		c0,1.667,0,3.334,0,5.001c0,84.761,0,169.522,0,254.283c-0.667,0-1.333,0-2,0c0-85.094,0-170.188,0-255.283
		C278.701,175.869,278.556,173.536,280.413,171.203z"/>
	<path fill-rule="evenodd" clip-rule="evenodd" fill="#D46C91" d="M375.45,397.095c-0.012,0.701-0.023,1.402-0.035,2.104
		c-3.6-3.993-6.715-8.195-6.031-14.029c-0.942-2.143-1.496-4.315-1.493-6.725c0.052-41.78,0.034-83.56,0.05-125.34
		c0.001-1.306-0.31-2.675,0.466-3.898c-0.66-10.073,2.81-18.773,10.154-25.355c5.376-4.817,12.122-6.962,19.761-6.283
		c11.383,1.013,22.837,1.78,34.087-1.372c0.669,0.745,0.748,1.594,0.439,2.511c-1.604,2.285-4.079,1.914-6.336,1.938
		c-9.112,0.094-18.229-0.16-27.336,0.101c-8.093,0.23-15.915,1.543-21.31,8.634c-3.597,4.322-6.08,8.999-6.072,14.881
		c0.055,45.824,0.025,91.648,0.037,137.473c0,1.333-0.018,2.668,0.2,3.98C372.305,389.76,375.921,392.816,375.45,397.095z"/>
	<path fill-rule="evenodd" clip-rule="evenodd" fill="#D36D92" d="M432.427,218.253c-0.007-0.687-0.013-1.372-0.019-2.058
		c3.986-9.094,11.358-12.221,20.783-12.026c6.609,0.137,12.531,2.625,15.396,8.209c3.066,5.979,7.955,5.459,12.51,5.285
		c10.445-0.398,20.875-1.286,31.246,0.536c5.822,1.022,10.689,4.125,15.07,8.005c-0.678,0.003-1.354,0.006-2.029,0.008
		c-0.654,0.235-1.361,0.294-1.93-0.072c-9.063-5.833-19.186-5.921-29.426-5.589c-4.992,0.162-10.01-0.227-14.986,0.097
		c-5.5,0.356-9.352-1.493-12.733-6.021c-6.271-8.402-16.076-9.815-24.843-4.3c-2.16,1.359-3.826,3.165-5.251,5.26
		C435.31,216.92,434.546,218.588,432.427,218.253z"/>
	<path fill-rule="evenodd" clip-rule="evenodd" fill="#D06189" d="M368.406,249.207c0.003,40.38,0.007,80.76,0.007,121.14
		c0,4.963-0.261,9.942,0.971,14.823c-1.876-1.56-1.982-3.687-1.981-5.899c0.015-41.959,0.008-83.918,0.024-125.877
		C367.428,251.945,367.011,250.349,368.406,249.207z"/>
	<path fill-rule="evenodd" clip-rule="evenodd" fill="#DA658E" d="M280.413,171.203c0,2.333,0,4.666,0,6.999
		c-2.429,0.201-3.256-1.108-2.981-3.293c0.294-2.346-1.266-5.679,1.202-6.8C281.17,166.958,279.993,169.987,280.413,171.203z"/>
	<path fill-rule="evenodd" clip-rule="evenodd" fill="#D4678E" d="M291.47,146.884c-0.22,1.808,0.337,3.439-1.129,5.41
		C289.098,149.792,288.909,148.233,291.47,146.884z"/>
	<path fill-rule="evenodd" clip-rule="evenodd" fill="#D4678E" d="M286.406,150.892c0.222,0.407,0.6,0.8,0.617,1.209
		c0.024,0.572-0.527,0.906-0.979,0.575c-0.308-0.226-0.377-0.841-0.434-1.297C285.598,151.269,286.054,151.1,286.406,150.892z"/>
	<path fill-rule="evenodd" clip-rule="evenodd" fill="#646464" d="M744.456,620.201c0-4.713,0-9.425,0-14.723
		c3.824,2.366,0.199,5.728,2.098,7.834l-0.012-0.025c-2.145,1.988-0.682,4.639-1.271,6.912
		C745.001,620.655,744.729,620.656,744.456,620.201z"/>
	<path fill-rule="evenodd" clip-rule="evenodd" fill="#646464" d="M744.456,620.201c0.273,0,0.545-0.001,0.816-0.002
		c-0.002,7,0,14.001,0,21.002c-0.273,0.442-0.547,0.464-0.82,0C744.454,634.201,744.456,627.201,744.456,620.201z"/>
	<path fill-rule="evenodd" clip-rule="evenodd" fill="#646464" d="M744.687,597.324c0.848,1.514,0.789,3.104,0.381,4.909
		C743.667,600.565,744.847,598.914,744.687,597.324z"/>
	<path fill-rule="evenodd" clip-rule="evenodd" fill="#646464" d="M744.452,641.201c0.273,0,0.549,0,0.82,0c0,1.381,0,2.762,0,4.763
		C743.987,644.032,744.536,642.583,744.452,641.201z"/>
	<path fill-rule="evenodd" clip-rule="evenodd" fill="#484848" d="M778.317,606.393c1.305,1.349,1.176,3.002,0.99,4.665
		c-0.574-0.65-1.148-1.3-1.721-1.95C777.567,608.132,777.202,607.063,778.317,606.393z"/>
	<path fill-rule="evenodd" clip-rule="evenodd" fill="#686868" d="M536.65,644.996c0-4.907,0-9.815,0-14.723
		c0.166,0,0.332-0.001,0.498-0.002c0,4.884,0,9.769,0,14.652C536.982,644.947,536.816,644.972,536.65,644.996z"/>
	<path fill-rule="evenodd" clip-rule="evenodd" fill="#FDFDFD" d="M230.514,641.27c-3.644,0.55-6.617,2.921-10.29,3.571
		c-5.849,1.035-13.921-2.521-15.546-7.263c-2.044-5.966,1.092-12.386,7.597-13.629c5.812-1.11,11.557-2.919,17.619-2.768
		c6.594,0.164,8.402,3.463,5.829,9.824c-1.466,3.623-3.832,6.697-5.242,10.292L230.514,641.27z"/>
	<path fill-rule="evenodd" clip-rule="evenodd" fill="#FAEEF7" d="M432.427,218.253c2.966-2.831,4.412-6.923,8.125-9.198
		c10.27-6.294,21.5-4.023,28.186,6.32c1.918,2.966,3.959,3.956,7.293,3.893c8.829-0.168,17.668,0.128,26.493-0.114
		c8.49-0.232,16.078,1.993,22.861,7.059c6.289,7.327,8.199,15.753,8.123,25.402c-0.338,42.478-0.152,84.959-0.113,127.438
		c0.006,5.111-0.973,9.886-3.828,14.19c-2.996,3.855-5.748,7.999-10.9,9.348c-0.775-0.202-1.314-0.688-1.693-1.379
		c-0.17-0.503-0.203-1.012-0.111-1.534c1.217-2.796,4.348-3.857,5.814-6.438c3.273-4.274,4.408-9.056,4.395-14.448
		c-0.113-44.043-0.082-88.087-0.035-132.131c0.006-5.004-1.049-9.533-4.301-13.422c-4.322-5.524-10.002-7.941-16.99-7.679
		c-4.484,0.168-8.984,0.131-13.473,0.001c-3.148-0.091-4.609,1.054-4.49,4.334c0.119,3.32,0.156,6.657-0.055,9.978
		c-0.479,7.561-5.252,12.512-12.756,12.625c-15.633,0.236-31.273,0.225-46.908,0.001c-6.67-0.096-11.461-4.97-11.997-11.676
		c-0.306-3.815-0.072-7.648-0.091-11.474c-0.009-1.677,0.027-3.658-2.362-3.607c-8.266,0.175-16.613-1.323-24.775,1.192
		c-1.632,0.503-3.033,1.321-4.345,2.354c-0.699,0.429-1.457,0.616-2.271,0.499c-0.911-2.976-0.911-2.976,2.958-5.172
		c-3.293,0.232-4.036,5.1-7.91,4.69c-0.308-0.434-0.281-0.847,0.077-1.238c5.136-7.003,12.774-8.494,20.631-8.786
		c9.749-0.361,19.521-0.059,29.282-0.131C428.996,219.138,430.933,219.83,432.427,218.253z"/>
	<path fill-rule="evenodd" clip-rule="evenodd" fill="#F7E4F0" d="M518.408,402.189c4.896-1.514,7.381-6.037,11.158-8.946
		c-3.797,8.537-11.09,12.742-19.711,12.825c-38.711,0.375-77.427,0.153-116.141,0.118c-7.562-0.007-12.959-4.486-18.266-9.091
		c-1.407-3.232-3.85-6.028-4.098-9.747c-0.429-0.661-0.269-1.11,0.481-1.349c2.037,0.635,2.473,2.479,3.205,4.148
		c3.904,8.894,11.323,13.39,20.453,13.485c37.561,0.393,75.127,0.147,112.69,0.208C511.742,403.848,514.809,401.498,518.408,402.189
		z"/>
	<path fill-rule="evenodd" clip-rule="evenodd" fill="#F6E1ED" d="M371.481,386.177c-0.043,0.39-0.086,0.779-0.129,1.171
		c-1.596-2.23-1.041-4.82-1.043-7.244c-0.034-45.222,0.016-90.443,0-135.665c-0.003-6.517,2.326-11.93,7.037-16.37
		c0.03,0.376,0.062,0.752,0.093,1.128c0.515,1.431-0.135,2.698-0.844,3.766c-3.599,5.419-3.854,11.42-3.835,17.688
		c0.124,42.622,0.079,85.245,0.033,127.868C372.791,381.108,373.483,383.897,371.481,386.177z"/>
	<path fill-rule="evenodd" clip-rule="evenodd" fill="#D9658E" d="M451.873,246.342c-7.332,0-14.663,0.056-21.992-0.019
		c-5.519-0.055-8.156-2.732-8.375-8.263c-0.032-0.831-0.004-1.665-0.005-2.498c-0.005-10.865-0.009-11.041,10.53-11.327
		c3.714-0.101,4.638-2.428,5.961-4.975c5.648-10.873,19.501-13.057,25.488-2.871c4.127,7.024,8.604,8.461,15.422,7.808
		c2.295-0.22,3.357,1.035,3.344,3.297c-0.021,3.665,0.197,7.347-0.076,10.991c-0.412,5.447-3.238,7.85-8.805,7.872
		c-7.164,0.029-14.328,0.008-21.492,0.008C451.873,246.358,451.873,246.35,451.873,246.342z"/>
	<path fill-rule="evenodd" clip-rule="evenodd" fill="#FBF1F7" d="M371.481,386.177c-0.021-47.684-0.048-95.367-0.05-143.052
		c0-5.475,3.42-9.536,6.007-13.929c3.175-2.1,5.302-5.987,10.415-5.735c-2.386,2.049-5.263,3.043-6.44,5.759
		c-0.191,1.285-1.105,2.089-1.947,2.944c-2.968,2.988-3.717,6.9-4.503,10.81c-0.321,31.935-0.078,63.855-0.118,95.775
		c-0.02,15.129-0.166,30.258,0.105,45.368c0.119,0.521,0.27,1.051,0.464,1.553c1.707,5.154,4.038,9.864,9.194,12.504
		c1.019,0.457,1.876,1.16,2.826,1.73c2.711,1.474,5.61,1.897,8.662,1.896c36.234-0.017,72.469-0.019,108.704,0.001
		c2.352,0.001,4.607-0.392,6.891-0.868c1.889-0.394,3.893-1.266,5.727,0.268c0.33,0.329,0.66,0.658,0.99,0.987
		c-3.99,2.317-8.258,3.081-12.891,3.067c-35.625-0.104-71.251-0.055-106.876-0.059c-13.117-0.001-20.615-4.966-25.775-16.991
		C372.549,387.469,371.949,386.851,371.481,386.177z"/>
	<path fill-rule="evenodd" clip-rule="evenodd" fill="#D46C92" d="M379.468,231.21c0.648-0.664,1.297-1.327,1.945-1.991
		c0.64-0.089,1.279-0.178,1.918-0.267c0.37,0.404,0.507,0.876,0.414,1.416c-2.399,4.535-5.09,8.949-5.894,14.161
		c0.019,45.373-0.148,90.731,0.104,136.085c1.771,11.803,9.693,18.195,22.269,18.109c33.616-0.229,67.235-0.094,100.854-0.055
		c2.789,0.004,5.693-0.47,8.258,1.221c0.41,0.541,0.545,1.143,0.406,1.807c-1.254,1.683-3.068,0.955-4.623,0.957
		c-34.899,0.043-69.798,0.069-104.695-0.007c-5.094-0.012-10.279-0.057-14.937-2.718c-0.342-0.756-0.998-0.869-1.723-0.841
		c-4.306-3.728-7.451-8.232-9.152-13.713c-0.432-6.663-0.176-13.325-0.181-19.982c-0.031-39.467,0.031-78.935-0.066-118.401
		C374.351,241.068,375.836,235.846,379.468,231.21z"/>
	<path fill-rule="evenodd" clip-rule="evenodd" fill="#D56A90" d="M383.413,230.204c-0.027-0.416-0.054-0.833-0.081-1.25
		c2.966-3.795,7.279-4.509,11.613-4.683c6.148-0.247,12.317,0.047,18.468-0.174c3.191-0.114,4.023,1.192,3.899,4.116
		c-0.17,3.986-0.136,7.99,0.029,11.979c0.271,6.527,4.633,10.98,11.088,11.029c15.476,0.117,30.955,0.122,46.429,0.01
		c6.67-0.049,11.147-4.507,11.53-11.275c0.225-3.982,0.182-7.99,0.035-11.978c-0.1-2.742,0.824-3.938,3.691-3.869
		c6.488,0.153,12.994-0.149,19.465,0.216c5.719,0.322,10.504,2.905,13.918,7.687c0.662,2.048,2.721,3.591,2.197,6.068
		c-2.662,0.881-3.549-1.097-4.191-2.896c-0.762-2.132-1.855-3.824-3.904-4.833c-1.781-0.954-3.83-1.228-5.609-2.184
		c-6.232-1.232-12.508-0.424-18.762-0.46c-2.42-0.015-3.486,1.252-3.453,3.753c0.053,4.118,0.168,8.234-1.109,12.282
		c-0.967,3.067-2.18,5.874-4.664,8.011c-0.922,0.82-1.973,1.377-3.182,1.627c-16.647,2.105-33.371,0.94-50.061,1.215
		c-2.178,0.036-4.274-0.371-6.336-0.98c-7.37-2.434-11.262-8.515-11.338-17.72c-0.068-8.351-0.068-8.352-8.443-8.352
		c-2.319,0-4.64-0.02-6.959,0.016c-0.995,0.015-2.473-0.189-2.839,0.534C391.901,233.909,387.338,230.227,383.413,230.204z"/>
	<path fill-rule="evenodd" clip-rule="evenodd" fill="#D3789A" d="M525.43,238.192c-0.645-2.06-1.289-4.119-1.932-6.18
		c3.582,3.236,4.891,7.522,4.9,12.085c0.094,45.815,0.1,91.631,0.092,137.446c-0.002,5.403-1.969,10.046-6.01,13.731
		c-0.156-0.177-0.313-0.354-0.471-0.53c-0.428-4.05,3.623-6.569,3.566-10.495c0.217-1.312,0.23-2.637,0.371-3.96
		c0.047-44.436,0.172-88.86-0.074-133.273c-0.533-1.771-0.402-3.598-0.375-5.412C525.412,240.472,525.24,239.334,525.43,238.192z"/>
	<path fill-rule="evenodd" clip-rule="evenodd" fill="#FDF9FD" d="M530.711,238.104c0,49.377,0,98.754,0,148.131
		c-0.258,0.001-0.514,0.002-0.771,0.003c0-49.264,0-98.527,0-147.792C530.197,238.333,530.453,238.218,530.711,238.104z"/>
	<path fill-rule="evenodd" clip-rule="evenodd" fill="#F7E4F0" d="M385.487,399.929c9.295,2.381,18.779,2.08,28.253,2.07
		c29.959-0.031,59.917-0.003,89.877-0.039c1.955-0.002,4.006,0.52,5.855-0.619c2.391-1.82,4.883-3.026,7.869-1.334
		c0.025,0.398,0.051,0.797,0.076,1.195c-8.908,2.67-18.066,1.982-27.166,1.987c-31.604,0.018-63.206,0.009-94.809,0.006
		C391.771,403.194,388.146,403.029,385.487,399.929z"/>
	<path fill-rule="evenodd" clip-rule="evenodd" fill="#D3789A" d="M517.342,400.007c-2.623,0.444-5.246,0.889-7.869,1.334
		c-0.018-0.378-0.035-0.756-0.051-1.134c0.238-0.435,0.557-0.798,0.953-1.097c4.227-0.577,7.395-4.292,11.906-4.042l0.199,0.205
		C521.465,397.608,518.629,397.968,517.342,400.007z"/>
	<path fill-rule="evenodd" clip-rule="evenodd" fill="#F6E1ED" d="M379.468,231.21c-4.531,7.491-4.303,15.754-4.275,24.114
		c0.132,40.618,0.057,81.237,0.08,121.855c0.002,3.326,0.188,6.652,0.289,9.979c-0.367,0.437-0.75,0.451-1.148,0.042
		c-0.014-0.34-0.028-0.679-0.043-1.019c-0.714-1.238-0.43-2.599-0.431-3.907c-0.014-45.711-0.014-91.422,0-137.133
		c0-1.311-0.272-2.669,0.413-3.914C374.77,237.231,375.36,233.323,379.468,231.21z"/>
	<path fill-rule="evenodd" clip-rule="evenodd" fill="#FAEEF7" d="M374.353,241.229c0.007,48.318,0.013,96.637,0.019,144.955
		c-1.579-1.499-0.929-3.443-0.93-5.192c-0.036-44.854-0.036-89.709,0-134.563C373.442,244.678,372.795,242.737,374.353,241.229z"/>
	<path fill-rule="evenodd" clip-rule="evenodd" fill="#F7E4F0" d="M374.413,387.202c0.382-0.014,0.765-0.028,1.147-0.042
		c1.962,4.507,5.674,7.811,8.201,11.929C378.591,396.743,376.705,391.813,374.413,387.202z"/>
	<path fill-rule="evenodd" clip-rule="evenodd" fill="#DA658E" d="M510.414,400.189c-0.332,0.006-0.662,0.012-0.992,0.018
		c-36.973-0.001-73.946-0.058-110.918,0.044c-6.952,0.019-12.885-2.17-17.454-7.234c-2.906-3.222-3.825-7.587-4.631-11.824
		c0.965-1.718,0.483-3.589,0.484-5.381c0.031-41.938,0.051-83.876-0.039-125.814c-0.006-2.573,1.189-5.277-0.426-7.779
		c2.924-3.657,2.396-9.317,6.975-12.015c2.865-1.7,5.635-2.048,9.005,2.27c-1.572-6.648,1.647-6.401,5.001-6.305
		c4.639,0.134,9.283,0.025,13.926,0.041c2.779,0.009,4.556,0.758,3.537,4.163c-1.987,6.649,0.643,12.629,3.175,18.502
		c0.885,2.051,3.579,2.186,5.361,3.335c2.542,1.948,5.492,2.198,8.524,1.979c13.614-0.98,27.243-0.287,40.864-0.405
		c2.932-0.025,5.959,0.148,8.608-1.576c0.666-0.336,1.332-0.672,1.998-1.008c0.27-0.422,0.822-1.097,1.023-0.961
		c3.436,2.336,5.762-0.138,8.127-1.918c3.402-2.562,3.566-7.988,0.496-10.813c-0.258-0.237-0.473-0.454-0.799-0.32
		c-1.33,0.542-3.305,2.614-3.232-0.858c0.053-2.543-1.488-5.612,2.137-7.451c2.563-1.299,4.93-2.481,7.928-2.201
		c4.754,0.445,9.574-0.58,14.314,0.527c1.299,1.584,3.576,0.734,5,2.011c2.52-0.221-3.756,2.735,0.678,1.881
		c0.408-0.079,1.025,0.438,1.094,0.864c0.613,3.782,4.564,5.878,4.896,9.794c1.422,12.046,0.527,24.126,0.678,36.185
		c0.031,2.578,0.156,5.458-3.213,6.457c-1.646-1.439-1.086-3.396-1.094-5.155c-0.057-10.461-0.027-20.922-0.092-31.383
		c0.303,36.291,0.578,72.582,0.494,108.876c-0.01,4.231-0.549,7.579-5.623,8.394c-2.254,0.362-3.92,1.91-3.934,4.498
		c-0.016,3.141,1.504,5.531,4.262,6.807c4.059,1.878,5.318,5.021,5.391,9.246c0.145,8.515-1.27,10.449-9.916,12.677
		C511.203,398.567,510.857,399.489,510.414,400.189z"/>
	<path fill-rule="evenodd" clip-rule="evenodd" fill="#DA5E8A" d="M376.438,242.218c1.439,0.153,2.206,0.918,1.682,2.345
		c-1.308,3.566-0.668,7.245-0.673,10.862c-0.055,40.033-0.023,80.065-0.069,120.099c-0.002,1.9,0.756,4.022-0.96,5.669
		C376.425,334.869,376.432,288.543,376.438,242.218z"/>
	<path fill-rule="evenodd" clip-rule="evenodd" fill="#D8658E" d="M513.406,227.205c-3.979-0.001-8.076,0.604-11.902-0.158
		c-4.637-0.925-7.551,2.232-11.027,3.717c-2.203,0.941-0.965,4.259-0.807,7.506c1.607-2.09,2.623-3.408,4.207-5.468
		c0.502,4.406,1.219,7.615,3.551,10.677c1.002,1.314-2.152,5.11-4.854,6.677c-0.689,0.4-1.938,0.376-2.193,0.902
		c-2.039,4.215-3.789,3.712-5.598-0.124c-0.049-0.104-0.896,0.17-1.371,0.267c4.563-5.934,5.529-12.806,4.955-19.973
		c-0.309-3.851,0.891-5.531,4.957-5.063C499.988,226.929,506.809,224.924,513.406,227.205z"/>
	<path fill-rule="evenodd" clip-rule="evenodd" fill="#D85E89" d="M481.414,252.208c-1.744,3.893-5.879,3.588-8.477,3.08
		c-2.139-0.417-4.369-1.115-6.59-1.043c-11.598,0.377-23.229-0.986-34.809,0.87c-2.979,0.478-6.314,0.556-8.12-2.906
		c16.841,1.604,33.683,1.538,50.533,0.122C476.423,252.123,478.926,252.24,481.414,252.208z"/>
	<path fill-rule="evenodd" clip-rule="evenodd" fill="#D8658E" d="M524.414,240.202c-1.244-1.539-2.805-2.923-3.65-4.656
		c-1.094-2.24-1.264-5.487-4.75-2.135c-0.182,0.176-1.037,0.021-1.211-0.233c-0.502-0.733-0.436-1.618,0.133-2.306
		c0.883-1.068,2.695-0.288,3.471-1.656c1.979,1.273,3.834,2.606,4.049,5.277c0.148,1.85,1.443,2.898,2.975,3.699
		c1.146,0.732,0.949,1.91,0.996,3.007C525.332,241.717,524.865,240.976,524.414,240.202z"/>
	<path fill-rule="evenodd" clip-rule="evenodd" fill="#D8658E" d="M510.414,400.189c0.119-3.689,0.117-3.683,3.676-2.497
		c0.289,0.097,0.799,0.169,0.928,0.017c1.863-2.196,4.338-4.18,5.313-6.733c0.883-2.312,0.08-5.253,0.09-7.917
		c0.01-2.482-1.033-4.171-3.49-4.779c-4.873-1.208-6.523-4.759-6.465-9.259c0.059-4.622,3.469-5.632,7.211-5.797
		c2.27-0.1,2.793-1.287,2.744-3.228c-0.055-2.165-0.006-4.332-0.006-6.499c0-35.325-0.014-70.65,0.035-105.977
		c0.004-1.829-0.74-3.959,1.965-6.337c0,14.967,0,28.992,0,43.018c1.883,1.857,1.596,4.285,1.596,6.565
		c0.004,27.557,0.141,55.115-0.033,82.66c0.051,2.526-0.975,5.186,0.895,7.507c0.834,0.941,1.109,2.148,1.555,3.276
		c0.797,4.45-3.383,7.004-4.143,10.86C518.48,397.137,514.809,399.499,510.414,400.189z"/>
	<path fill-rule="evenodd" clip-rule="evenodd" fill="#DB618C" d="M522.414,375.202c0-30.333,0-60.667,0-91
		c2.057-1.691,2.088-4.026,1.996-6.382c-0.457-11.762,0.982-23.568-0.811-35.307c-0.109-0.713,0.525-1.538,0.814-2.312
		c0.67,0.332,1.34,0.665,2.012,0.997c0.963,1.353-0.516,2.701-0.006,4.053c0.83,1.391,0.461,2.925,0.463,4.392
		c0.02,42.716,0.02,85.432,0,128.147c-0.002,1.466,0.373,3.002-0.471,4.389c0.037,0.677,1.1,1.346,0.014,2.031
		c-0.67-0.67-1.342-1.339-2.012-2.009C522.678,380.174,524.193,377.217,522.414,375.202z"/>
	<path fill-rule="evenodd" clip-rule="evenodd" fill="#C85E85" d="M526.412,382.179c0.002-45.644,0.004-91.286,0.006-136.928
		c1.637,1.475,0.951,3.43,0.953,5.17c0.039,42.197,0.041,84.395,0.004,126.592C527.373,378.753,528.057,380.709,526.412,382.179z"/>
	<path fill-rule="evenodd" clip-rule="evenodd" fill="#D56890" d="M506.412,295.206c-0.387,2.324,0.924,4.893-1.004,6.996
		c-10.381,1.085-20.797,0.143-31.188,0.512c-3.936,0.14-7.914-0.652-11.807,0.488c-0.658-0.014-1.596,0.252-1.934-0.084
		c-5.746-5.705-11.4-3.398-17.067,0.083c-9.717-1.145-19.468-0.319-29.201-0.461c-4.26-0.063-8.57-0.609-12.801,0.462
		c-3.639-0.487-5.096-3.628-4.301-6.074c0.737-2.269,3.518-4.509,6.814-3.892c10.561,1.979,21.215,0.784,31.816,0.838
		c4.787,0.024,9.235-0.585,13.677,2.354c2.171,1.437,5.63,0.521,8.292-0.85c1.494-0.77,2.951-1.549,4.705-1.377
		c4.436-1.175,8.859,0.232,13.311,0.083c8.292-0.278,16.598-0.091,24.899-0.071C502.602,294.217,504.635,293.987,506.412,295.206z"
		/>
	<path fill-rule="evenodd" clip-rule="evenodd" fill="#FCF8FC" d="M421.409,356.394c-6.325,0-12.65,0.03-18.975-0.021
		c-1.634-0.013-3.727,0.059-3.559-2.355c0.136-1.961,2.018-1.937,3.503-1.94c12.816-0.028,25.633-0.03,38.449-0.013
		c1.67,0.002,3.66-0.063,3.509,2.388c-0.129,2.101-2.013,1.91-3.454,1.921C434.392,356.422,427.9,356.395,421.409,356.394z"/>
	<path fill-rule="evenodd" clip-rule="evenodd" fill="#F0C9DC" d="M480.854,357.122c-6.309,0-12.62,0.049-18.928-0.028
		c-1.986-0.024-4.393-0.16-4.365-2.894c0.025-2.718,2.426-2.837,4.416-2.845c12.619-0.051,25.239-0.022,37.858-0.035
		c2.236-0.002,4.215,0.735,4.299,3.142c0.1,2.895-2.371,2.673-4.35,2.682c-6.311,0.026-12.619,0.01-18.93,0.01
		C480.854,357.142,480.854,357.131,480.854,357.122z"/>
	<path fill-rule="evenodd" clip-rule="evenodd" fill="#D2658B" d="M506.412,295.206c-14.666-0.368-29.368,0.872-43.997-1.004
		c1.129-1.393,2.713-0.982,4.15-0.985c11.571-0.025,23.143-0.017,34.713-0.013C503.244,293.205,505.352,292.871,506.412,295.206z"/>
	<path fill-rule="evenodd" clip-rule="evenodd" fill="#CB678A" d="M462.414,303.202c1.475-1.62,3.422-0.957,5.166-0.965
		c12.61-0.057,25.219-0.033,37.829-0.035c-1.467,1.633-3.418,0.966-5.162,0.973C487.637,303.229,475.025,303.203,462.414,303.202z"
		/>
	<path fill-rule="evenodd" clip-rule="evenodd" fill="#CD668B" d="M401.411,303.202c0.821-1.068,2.004-0.992,3.16-0.992
		c11.894-0.001,23.788-0.001,35.682-0.001c1.156,0,2.339-0.077,3.16,0.992C429.412,303.201,415.411,303.202,401.411,303.202z"/>
	<path fill-rule="evenodd" clip-rule="evenodd" fill="#DA658E" d="M522.414,375.202c3.123,1.632,1.641,4.579,2,7
		C521.291,380.57,522.773,377.623,522.414,375.202z"/>
	<path fill-rule="evenodd" clip-rule="evenodd" fill="#F4D5E3" d="M423.419,301.227c-6.489,0.001-12.979-0.025-19.467,0.017
		c-1.998,0.014-3.959-0.289-4.073-2.618c-0.131-2.702,2.184-2.465,3.977-2.468c12.812-0.023,25.623-0.013,38.436,0
		c1.902,0.002,3.977,0.104,3.825,2.709c-0.127,2.17-1.97,2.363-3.729,2.362C436.063,301.224,429.741,301.227,423.419,301.227z"/>
	<path fill-rule="evenodd" clip-rule="evenodd" fill="#F3D3E1" d="M459.396,299.217c-1.438-2.992,0.951-3.025,2.619-3.034
		c13.326-0.078,26.655-0.038,39.981-0.022c1.65,0.002,3.115,0.532,3.16,2.424c0.055,2.234-1.639,2.656-3.436,2.658
		c-13.16,0.009-26.323,0.001-39.483-0.011c-1.404-0.002-2.719-0.188-2.842-2.021c9.625-1.087,19.284-0.219,28.924-0.476
		c3.123-0.083,6.25,0.002,9.377-0.037c-10.957-0.011-21.913-0.037-32.87-0.002C463.005,298.702,461.154,298.512,459.396,299.217z"/>
	<path fill-rule="evenodd" clip-rule="evenodd" fill="#FCF7FC" d="M459.126,353.708c14.451,0,28.903,0,44.319,0
		C497.492,356.784,466.158,356.816,459.126,353.708z"/>
	<path fill-rule="evenodd" clip-rule="evenodd" fill="#FCF9FD" d="M423.413,297.25c5.997,0,11.993-0.019,17.989,0.02
		c0.911,0.006,2.296-0.334,2.419,1.026c0.14,1.55-1.272,1.804-2.43,1.807c-12.326,0.036-24.651,0.027-36.977,0.015
		c-1.036-0.001-2.28-0.267-2.276-1.423s1.251-1.411,2.286-1.414c6.33-0.018,12.659-0.009,18.988-0.009
		C423.413,297.265,423.413,297.257,423.413,297.25z"/>
	<path fill-rule="evenodd" clip-rule="evenodd" fill="#FCF8FD" d="M459.396,299.217c0.865-1.804,2.445-1.988,4.207-1.984
		c11.998,0.023,23.999-0.021,35.997,0.04c1.289,0.007,3.52-0.761,3.41,1.595c-0.086,1.811-2.061,1.266-3.281,1.27
		c-12.166,0.038-24.333,0.046-36.497-0.026c-1.281-0.008-2.557-0.587-3.836-0.9V299.217z"/>
</g>
</svg>
