<?xml version="1.0" encoding="utf-8"?>
<!-- Generator: Adobe Illustrator 16.0.3, SVG Export Plug-In . SVG Version: 6.00 Build 0)  -->
<!DOCTYPE svg PUBLIC "-//W3C//DTD SVG 1.1//EN" "http://www.w3.org/Graphics/SVG/1.1/DTD/svg11.dtd">
<svg version="1.1" id="Layer_1" xmlns="http://www.w3.org/2000/svg" xmlns:xlink="http://www.w3.org/1999/xlink" x="0px" y="0px"
	 width="1558.805px" height="846px" viewBox="0 0 1558.805 846" enable-background="new 0 0 1558.805 846" xml:space="preserve">
<g>
	<path fill-rule="evenodd" clip-rule="evenodd" fill="#049819" d="M77.99,1c471.608,0,943.215,0,1414.822,0
		c-0.014,0.666-0.037,1.332-0.037,1.998c-0.004,261.303-0.004,522.606,0.002,783.909c0,1.328,0.115,2.657,0.177,3.984
		c-0.411,1.631-0.821,3.261-1.232,4.892c-3.316,4.032-7.511,5.672-12.765,5.251c-3.973-0.319-7.993-0.044-11.991-0.044
		c-383.394,0.001-766.787,0.002-1150.18,0c-74.813,0-149.625-0.054-224.438,0.07c-5.365,0.009-9.837-1.007-13.265-5.277
		c-0.41-1.629-0.82-3.258-1.229-4.888c0.06-1.827,0.172-3.655,0.172-5.484c0.007-240.319,0.007-480.639,0.004-720.958
		C78.029,43.301,78.004,22.15,77.99,1z M417.83,444.32l-0.093-0.313c-0.182-0.541-0.362-1.082-0.543-1.622l0.04-0.279l-0.232-0.159
		c0.165-2.092-0.226-4.08-1.129-5.971c-0.041-0.674-0.081-1.349-0.122-2.023c-0.026-0.702-0.053-1.404-0.079-2.106l0.195-0.195
		l-0.092-0.261c2.149-0.142,4.299-0.405,6.449-0.406c39.459-0.022,78.918-0.054,118.376,0.063c3.328,0.01,4.769-0.711,4.701-4.283
		c-0.113-5.982,0.42-11.978,0.259-17.957c-0.504-18.588-2.998-36.777-11.754-53.57l-0.046-0.228
		c0.133-0.644-0.156-1.003-0.769-1.147l0.032,0.035c-1.211-3.195-2.739-6.201-5.166-8.673c-0.303-0.429-0.606-0.859-0.91-1.289
		c-0.232-1.262-0.953-2.152-2.077-2.739c-0.546-0.769-1.093-1.54-1.641-2.31l0.079-0.38l-0.396-0.122
		c-0.269-0.172-0.536-0.343-0.805-0.515c-1.295-2.247-3.054-4.043-5.247-5.423c-0.255-0.193-0.51-0.387-0.765-0.579
		c-4.024-4.266-8.851-7.369-14.166-9.763c-21.626-10.365-44.202-11.994-67.117-5.976c-30.04,7.89-49.884,27.51-60.787,56.21
		c-8.715,22.942-9.998,46.759-6.052,70.794c5.352,32.609,22.345,56.522,53.714,68.862c17.948,7.06,36.813,8.634,55.925,7.936
		c19.205-0.701,38.011-3.778,56.348-9.601c2.444-0.775,4.616-1.427,4.56-4.846c-0.174-10.657-0.134-21.32-0.068-31.98
		c0.02-3.148-1.109-3.491-3.923-2.589c-26.944,8.63-54.257,13.18-82.462,6.935c-1.841-1.159-3.814-1.934-6.007-2.063l0.025,0.019
		c-0.76-1.119-1.923-1.445-3.169-1.608c-0.31-0.101-0.618-0.201-0.927-0.302c-3.961-2.71-7.924-5.421-11.885-8.132l0.018,0.015
		c-1.283-2.325-3.027-4.266-5.016-6.001l0.017,0.015c-0.663-1.869-1.738-3.472-3.146-4.856c-0.13-0.313-0.26-0.627-0.39-0.94
		c-0.981-2.337-1.964-4.673-2.946-7.009c-0.259-0.852-0.518-1.702-0.776-2.554l0.168,0.054L417.83,444.32z M1302.801,325.879
		c-0.275-0.357-0.551-0.716-0.825-1.073c0.006-0.346-0.142-0.603-0.444-0.77c-0.378-2.079-2.068-2.397-3.717-2.772
		c-0.98-3.274-3.81-4.978-6.193-6.943c-20.014-16.503-42.803-25.04-68.981-24.419c-33.146,0.784-60.06,14.421-79.94,40.408
		c-31.332,40.956-27.62,96.882,8.044,134.451c4.852,5.11,9.798,10.391,17.376,11.985c13.754,2.894,27.6,4.608,41.648,3.839
		c8.989-0.491,17.906-1.6,25.844-6.509c6.269-3.874,10.008-9.314,9.948-16.77c-0.058-7.272-4.48-11.917-10.429-15.302
		c-4.799-2.729-10.002-4.478-15.32-5.877c-11.88-3.125-23.855-5.908-35.396-10.215c-17.577-6.561-31.203-17.36-34.131-36.841
		c-5.804-38.626,13.713-65.031,47.316-73.063c29.217-6.982,57.833-2.144,86.049,6.373c1.515,0.457,2.088,1.239,2.081,2.844
		c-0.055,12.105-0.03,24.21-0.03,36.686c-2.094-0.537-3.681-0.93-5.262-1.35c-18.365-4.882-36.907-8.696-56.026-8.414
		c-7.541,0.111-14.96,1.273-21.287,5.931c-9.896,7.282-9.32,21.542,0.867,28.279c4.669,3.088,9.764,4.962,15.006,6.459
		c13.257,3.784,26.867,6.301,39.842,11.102c22.55,8.345,34.395,25.429,34.521,49.516c0.028,5.515-0.733,10.975-1.252,17.262
		c1.555-1.315,2.462-2.006,3.28-2.788c19.349-18.5,30.282-41.145,32.162-67.784c1.574-22.318-3.241-43.295-15.824-62.149
		c-0.396-1.712-1.087-3.234-2.693-4.164l-0.029-0.033c-0.764-2.375-2.249-4.215-4.22-5.696l-0.068-0.076
		c-0.203-1.034-0.739-1.768-1.816-2.012L1302.801,325.879z M687.991,193.992c1.042-0.169,3.066,0.076,2.428-1.431
		c-1.178-2.786,0.438-4.29,2.644-6.347c-2-0.098-3.12-0.152-4.239-0.207c-1.163-0.013-2.326-0.026-3.488-0.037
		c-11.585-0.104-11.448-0.072-13.981,11.129c-0.871,3.848,0.061,4.975,3.971,4.966C684.916,202.044,684.917,202.198,687.991,193.992
		z M806.875,275.051c6.126-0.345,3.6-5.694,4.949-8.744c1.492-3.375,0.082-4.533-3.599-4.45c-10.15,0.231-20.313-0.037-30.465,0.162
		c-3.222,0.063-3.42-1.089-2.85-3.743c4.037-18.813,8.001-37.64,11.916-56.479c1.829-8.801,1.743-8.535-7.218-8.922
		c-4.694-0.203-6.772,1.137-7.714,5.902c-4.34,21.969-9.15,43.845-13.446,65.822c-0.65,3.331-2.959,6.898-0.492,10.492
		c0.879,1.025,2.083,0.882,3.238,0.882c14.153,0.004,28.307,0.003,42.46,0.001C804.813,275.974,806.014,276.094,806.875,275.051z
		 M531.912,276.23c1.476-2.499,1.692-5.306,2.015-8.094c0.225-1.942-0.229-3.126-2.518-3.324c-3.951-0.34-4.611-2.457-3.79-6.242
		c2.775-12.796,5.15-25.679,7.688-38.526c0.276-1.403,1.233-2.922-0.671-3.918c-2.458-1.284-10.581,0.253-12.519,2.64
		c-1.425,1.752-2.165,0.576-3.195-0.21c-9.135-6.972-19.816-6.402-27.821,1.694c-10.687,10.809-13.705,24.354-13.024,38.926
		c0.341,7.288,2.875,13.959,10.442,16.657c7.569,2.7,14.728,1.135,21.019-3.996c1.332-1.087,2.054-2.984,4.406-3.278
		c0.527,2.907,2.268,5.107,4.032,7.293C520.341,278.737,528.696,278.964,531.912,276.23z M1093.856,318.132
		c-10.662,0.003-21.324,0.007-31.985,0.01c-3.012,1.012-8.573-3.696-8.566,4.08c0.059,62.729,0.066,125.459-0.021,188.189
		c-0.004,3.423,0.88,4.581,4.426,4.531c13.476-0.19,26.954-0.052,40.432-0.128c1.145-0.007,2.697,0.836,3.479-0.887
		c0.079-1.82,0.229-3.64,0.229-5.461c0.013-49.209,0.021-98.417,0.003-147.625c-0.005-12.964-0.098-25.927-0.149-38.892
		c0.712-2.885-0.05-4.479-3.383-4.039C1096.848,318.105,1095.346,318.065,1093.856,318.132z M885.979,364.03
		c1.48-0.744,2.99-1.437,4.438-2.24c9.985-5.543,20.658-8.154,32.091-7.677c15.413,0.643,25.149,9.19,27.662,24.298
		c0.933,5.605,1.175,11.26,1.184,16.918c0.058,38.311,0.111,76.624-0.004,114.936c-0.011,3.657,0.778,4.798,4.628,4.719
		c12.821-0.263,25.654-0.238,38.476,0.016c4.252,0.084,5.58-0.928,5.556-5.492c-0.212-40.645-0.131-81.29-0.116-121.934
		c0.003-6.833-0.113-13.657-1.125-20.427c-3.336-22.313-14.31-39.365-35.386-48.402c-29.854-12.801-66.519-5.221-89.658,17.836
		c-2.536,2.526-4.845,5.28-7.768,8.49c-1.401-8.245-2.925-15.725-3.841-23.28c-0.409-3.373-1.79-3.912-4.745-3.885
		c-11.823,0.109-23.65-0.005-35.476-0.036c-0.659-3.394-2.092-2.842-3.818-0.744c-2.474,3.007-0.103,6.121-0.106,9.169
		c-0.097,60.259-0.072,120.52-0.072,180.779c0,1.331,0.068,2.667-0.008,3.993c-0.125,2.207,0.99,3.002,3.034,2.858
		c0.325,0.367,0.649,0.735,0.975,1.103c-0.143,2.12,0.844,2.937,2.961,2.929c13.955-0.048,27.911-0.054,41.866,0.002
		c2.382,0.01,3.396-0.909,3.065-3.27c0.029-45.261,0.06-90.522,0.089-135.783C874.686,373.34,880.366,368.722,885.979,364.03z
		 M634.079,345.599c-1.516-8.864-3.053-16.516-4.028-24.239c-0.362-2.865-1.276-3.481-3.93-3.45
		c-10.996,0.128-21.996,0.171-32.99-0.032c-3.433-0.063-4.108,1.233-4.104,4.352c0.081,62.818,0.09,125.638,0.008,188.456
		c-0.005,3.243,0.856,4.288,4.174,4.244c13.16-0.175,26.329-0.253,39.486,0.031c4.219,0.091,5.206-1.14,5.189-5.262
		c-0.159-40.323,0.12-80.649-0.292-120.97c-0.076-7.388,1.979-12.615,7.393-17.31c14.383-12.473,30.595-19.447,49.896-16.749
		c13.042,1.824,20.65,9.761,23.16,22.661c1.154,5.937,1.282,11.922,1.294,17.902c0.087,38.324,0.12,76.648,0,114.972
		c-0.012,3.704,0.894,4.802,4.691,4.735c13.326-0.234,26.659-0.153,39.987-0.003c3.005,0.034,3.967-0.75,3.958-3.899
		c-0.145-44.821,0.08-89.646-0.312-134.464c-0.15-17.132-5.281-32.931-17.91-45.237c-20.564-20.036-45.564-21.541-71.677-15.503
		C660.365,319.93,645.89,329.799,634.079,345.599z M339.127,474.313c-2.207,0.453-3.836,0.741-5.442,1.125
		c-9.763,2.336-19.649,3.561-29.695,3.268c-17.225-0.503-24.463-7.798-24.809-24.956c-0.037-1.833-0.029-3.666-0.03-5.499
		c-0.011-28.658,0.051-57.317-0.12-85.975c-0.021-3.572,0.968-4.448,4.422-4.411c16.161,0.175,32.324,0.014,48.485,0.148
		c3.096,0.025,4.352-0.636,4.283-4.055c-0.216-10.659-0.214-21.328-0.002-31.987c0.068-3.397-1.148-4.097-4.266-4.071
		c-16.161,0.138-32.324-0.023-48.485,0.147c-3.432,0.037-4.489-0.799-4.441-4.395c0.208-15.492-0.018-30.99,0.128-46.484
		c0.031-3.267-0.89-4.278-4.195-4.234c-13.16,0.174-26.328,0.245-39.485-0.028c-4.129-0.086-4.926,1.364-4.876,5.114
		c0.199,14.993-0.009,29.992,0.19,44.985c0.05,3.765-0.746,5.248-4.894,5.064c-8.148-0.361-16.326-0.019-24.488-0.158
		c-2.539-0.044-3.458,0.581-3.422,3.301c0.15,11.162,0.15,22.327,0,33.489c-0.037,2.716,0.877,3.347,3.419,3.303
		c8.162-0.141,16.339,0.202,24.488-0.158c4.144-0.183,4.938,1.294,4.897,5.063c-0.18,16.493-0.117,32.99-0.066,49.485
		c0.059,18.823-0.184,37.657,0.404,56.465c0.649,20.784,10.073,36.618,29.694,44.585c24.79,10.064,50.252,7.603,75.628,1.947
		c1.519-0.338,2.722-0.866,2.711-2.894C339.093,499.871,339.127,487.244,339.127,474.313z M453.324,251.567
		c-6.326-17.481-15.194-33.169-21.843-49.818c-2.765-6.925-6.597-9.713-14.079-8.931c-3.797,0.397-5.5,1.258-6.241,5.04
		c-4.336,22.154-8.913,44.261-13.302,66.406c-2.246,11.328-2.152,11.208,9.555,10.724c2.931-0.121,3.746-1.547,4.198-3.799
		c3.624-18.045,7.225-36.096,10.833-54.149c0.174,0.258,0.508,0.604,0.67,1.019c7.033,17.993,15.836,35.19,23.616,52.844
		c1.281,2.907,2.804,4.307,5.934,4.036c1.488-0.129,3.026-0.199,4.492,0.027c4.802,0.743,6.923-1.087,7.87-6.03
		c4.188-21.853,8.587-43.668,13.291-65.416c2.751-12.722,2.64-10.124-8.53-10.585c-3.663-0.151-4.895,1.249-5.544,4.552
		C460.754,215.234,457.101,232.948,453.324,251.567z M902.169,255.555c-1.726-10.691-3.091-20.029-4.766-29.312
		c-1.968-10.905-2.08-10.786-12.997-10.336c-2.991,0.123-3.662,0.993-3.072,3.91c3.059,15.128,5.889,30.303,8.892,45.442
		c1.956,9.863,2.028,9.688,12.189,9.748c3.424,0.02,4.995-1.134,6.136-4.302c3.319-9.212,6.99-18.297,10.495-27.444
		c0.44-1.15,0.902-2.224,2.336-2.172c1.732,0.063,1.486,1.463,1.573,2.577c0.631,8.111,1.374,16.217,1.836,24.338
		c0.421,7.383-0.975,6.856,7.152,6.933c0.832,0.008,1.683-0.104,2.495,0.024c3.856,0.611,5.991-1.016,7.726-4.547
		c3.14-6.389,6.869-12.489,10.393-18.688c6.617-11.646,13.264-23.275,20.386-35.768c-4.507,0-8.122,0.245-11.688-0.066
		c-3.861-0.338-5.946,1.026-7.695,4.604c-5.527,11.297-12.022,22.109-17.343,33.722c-1.145-9.245-1.905-18.419-2.387-27.61
		c-0.56-10.669-0.455-10.544-11.041-10.708c-3.426-0.053-5.268,0.797-6.69,4.208C911.384,231.413,906.619,242.693,902.169,255.555z
		 M1103.055,246.318c-0.006,0-0.014,0-0.021,0c0-7.65-0.088-15.302,0.049-22.949c0.047-2.574-0.748-3.473-3.374-3.456
		c-14.802,0.1-29.604,0.078-44.406,0.031c-2.197-0.007-3.319,0.498-3.303,3.041c0.096,15.3,0.094,30.6,0.02,45.899
		c-0.012,2.388,0.798,3.165,3.163,3.152c14.801-0.082,29.604-0.126,44.404,0.012c2.998,0.028,3.576-1.105,3.521-3.781
		C1102.957,260.953,1103.055,253.634,1103.055,246.318z M563.881,276.964c7.881,0.294,14.086-2.326,18.953-7.498
		c9.752-10.366,13.652-23.021,12.761-37.013c-0.419-6.573-2.719-12.729-8.882-16.45c-6.303-3.805-14.711-2.81-20.847,2.416
		c-1.109,0.945-3.413,2.467-3.526,1.633c-0.919-6.775-5.99-3.363-9.258-4.041c-3.538-0.733-4.679,1.102-5.371,4.577
		c-4.792,24.056-9.798,48.069-14.911,72.06c-2.256,10.589-2.443,10.482,8.486,10.35c2.824-0.034,4.404-0.404,4.958-3.834
		c1.161-7.189,3.105-14.25,4.585-21.394c0.659-3.18,1.911-4.5,5.014-2.465C558.497,277.044,561.482,277.13,563.881,276.964z
		 M1299.946,218.576c1.721-8.222,3.492-15.79,4.853-23.433c1.458-8.196,1.287-8.108-7.189-8.257
		c-3.473-0.062-5.908,0.21-6.757,4.453c-4.127,20.638-8.665,41.194-12.749,61.841c-2.34,11.829,3.551,21.255,14.57,23.389
		c7.695,1.491,15.188,0.234,22.041-3.906c14.463-8.739,19.744-29.16,17.477-42.833c-1.619-9.768-8.467-16.975-20.361-15.954
		C1307.441,214.253,1304.127,216.706,1299.946,218.576z M621.738,218.963c1.548-7.27,3.306-14.501,4.593-21.816
		c1.873-10.642,4.964-10.109-8.434-10.168c-3.302-0.015-4.452,1.012-5.115,4.364c-4.861,24.566-10.025,49.071-15.063,73.602
		c-2.111,10.278-2.08,10.168,8.328,10.036c3.295-0.042,4.502-1.058,5.088-4.443c1.612-9.311,3.794-18.524,5.751-27.775
		c1.553-7.342,5.822-12.521,12.513-15.812c6.439-3.166,11.859,0.283,11.513,7.399c-0.064,1.317-0.329,2.631-0.59,3.929
		c-2.219,11.057-4.348,22.134-6.766,33.147c-0.631,2.876,0.166,3.598,2.814,3.505c13.419-0.471,10.347,2.888,13.609-11.059
		c0.188-0.809,0.471-1.6,0.596-2.417c1.656-10.806,5.451-21.257,5.467-32.332c0.015-9.102-5.841-14.737-14.904-15.24
		C634.138,213.495,628.171,215.811,621.738,218.963z M854.292,268.416c4.477,8.261,6.255,9.219,15.373,8.521
		c1.701-0.13,3.671-0.121,3.952-2.194c0.421-3.094,1.919-6.042,1.324-9.239c-0.056-0.301-1.143-0.577-1.754-0.582
		c-5.488-0.043-5.562-3.073-4.607-7.397c2.75-12.461,5.197-24.989,7.749-37.494c0.282-1.382,1.19-2.923-0.748-3.894
		c-2.391-1.198-10.7,0.164-12.26,2.329c-1.166,1.619-2.026,1.434-3.135,0.278c-8.532-8.879-24.148-5.224-31.298,4.772
		c-7.905,11.052-11.104,23.462-9.692,36.738c1.576,14.821,12.449,20.387,26.333,14.558
		C849.051,273.332,851.349,270.525,854.292,268.416z M1125.768,243.056c0,2.165-0.07,4.331,0.012,6.492
		c0.516,13.647,9.186,23.78,22.653,26.513c7.428,1.507,14.854,1.233,22.294,0.039c9.137-1.465,10.357-2.797,11.136-11.932
		c0.253-2.962-0.103-4.426-3.645-3.117c-5.485,2.026-11.215,3.006-17.102,2.837c-13.596-0.392-20.185-7.026-20.304-20.469
		c-0.015-1.665-0.072-3.335,0.031-4.994c0.773-12.515,8.291-28.357,22.803-32.701c7.493-2.244,14.744-1.763,22.136-0.315
		c1.977,0.388,3.842,1.163,4.959-1.552c3.475-8.447,2.185-10.78-6.822-11.959c-0.82-0.107-1.624-0.358-2.445-0.448
		c-14.917-1.636-28.872,0.049-40.132,11.395C1130.275,213.995,1125.746,227.645,1125.768,243.056z M1008.62,274.941
		c4.678,1.173,6.991-0.767,7.895-6.666c1.802-11.782,4.841-23.367,7.024-35.098c2.025-10.894-4.982-18.891-15.957-19.267
		c-6.156-0.211-11.416,1.504-16.234,5.155c-0.915,0.693-2.941,2.146-3.189,0.695c-1.164-6.817-6.253-2.877-9.476-3.743
		c-2.809-0.755-4.13,0.957-4.67,3.684c-3.029,15.291-6.17,30.56-9.235,45.844c-1.896,9.456-1.862,9.293,7.94,9.466
		c3.665,0.064,5.308-0.973,5.954-4.71c1.527-8.819,3.422-17.577,5.285-26.335c1.2-5.639,3.416-10.747,8.305-14.297
		c4.075-2.96,8.479-5.463,13.28-2.33c4.57,2.983,2.625,7.933,1.938,11.972c-1.613,9.484-3.806,18.869-5.711,28.304
		C1000.297,274.911,1000.331,274.919,1008.62,274.941z M1239.378,276.971c2.155,0,3.323,0.052,4.484-0.009
		c10.551-0.55,21.386-5.962,24.06-17.88c2.504-11.161,4.771-22.375,7.217-33.55c2.098-9.582,2.133-9.304-7.417-9.688
		c-4.415-0.179-6.015,1.376-6.793,5.499c-2.122,11.236-4.597,22.406-6.975,33.592c-1.272,5.984-6.373,9.971-12.566,9.931
		c-5.588-0.037-9.169-3.941-8.188-9.374c1.771-9.797,3.588-19.595,5.76-29.309c2.315-10.352,2.502-10.153-8.04-10.322
		c-3.447-0.055-5.018,0.861-5.665,4.367c-2.197,11.905-4.797,23.737-7.015,35.639c-1.828,9.804,3.62,17.788,13.237,20.236
		C1234.437,276.856,1237.372,277.012,1239.378,276.971z M705.444,187.019c-3.777-0.17-7.322-1.07-8.427,4.704
		c-4.015,20.99-8.572,41.877-12.911,62.806c-0.842,4.065-1.482,8.144-1.243,12.335c0.356,6.271,3.753,9.576,10.615,10.135
		c9.99,0.813,10.136,0.598,11.947-7.795c0.631-2.928,0.332-4.41-2.964-4.598c-3.842-0.221-5.029-2.301-4.233-6.082
		c4.466-21.239,8.862-42.492,13.181-63.76C713.373,185.09,713.507,187.2,705.444,187.019z M731.432,186.975
		c-3.238-0.46-6.47-0.35-7.519,5.256c-3.288,17.584-7.269,35.04-10.688,52.602c-1.419,7.287-3.997,14.419-3.411,22.044
		c0.506,6.587,4.351,9.97,11.696,10.082c9.298,0.141,10.457-0.778,11.301-8.987c0.197-1.92,0.453-3.539-2.616-3.186
		c-4.12,0.474-5.744-1.633-4.881-5.801c4.664-22.549,9.164-45.132,13.979-67.647c0.765-3.573-0.071-4.609-3.423-4.375
		C734.712,187.042,733.543,186.975,731.432,186.975z M1202.365,276.974c7.194-0.023,9.094-1.948,9.436-9.225
		c0.105-2.24-0.797-2.991-2.893-2.903c-4.717,0.198-5.571-2.315-4.717-6.424c4.333-20.8,8.559-41.622,12.826-62.436
		c1.86-9.069,1.865-8.985-7.398-9.071c-3.191-0.029-5.568-0.037-6.397,4.112c-4.589,22.948-9.65,45.803-14.143,68.77
		C1186.702,271.956,1190.948,277.01,1202.365,276.974z M675.224,215.958c-2.566,0.79-6.982-2.076-8.104,3.363
		c-3.583,17.345-7.125,34.7-10.779,52.03c-0.571,2.711,0.255,3.738,2.933,3.596c1.491-0.079,3.028-0.224,4.479,0.031
		c5.372,0.946,7.339-1.339,8.315-6.632c2.761-14.977,6.129-29.843,9.388-44.725C683.141,215.931,683.265,215.958,675.224,215.958z
		 M771.46,370.671c-0.333,0.001-0.666,0.001-1,0.002c0,47.517,0,95.033,0,142.549c0.334-0.001,0.667-0.002,1-0.003
		C771.46,465.703,771.46,418.188,771.46,370.671z"/>
	<path fill-rule="evenodd" clip-rule="evenodd" fill="#D3D3D3" d="M1499.813,1c1.332,0,2.666,0,3.999,0
		c-0.003,260.455-0.006,520.909-0.01,781.364c0,1.499,0.199,3.031-0.035,4.494c-1.216,7.575-1.029,15.302-6.914,21.769
		c-7.208,7.921-16.302,9.195-25.822,9.197c-454.586,0.072-909.174,0.063-1363.761,0.058c-5.806,0-11.575-0.04-17.383-0.896
		c-10.657-1.57-18.865-8.377-21.222-18.854c-1.048-4.664-1.692-9.422-1.692-14.271C67.003,522.908,66.996,261.955,66.992,1
		c1.333,0,2.666,0,4,0c-0.002,262.634-0.003,525.27-0.005,787.903c-1.648,1.471-1.273,3.525-0.875,5.131
		c2.283,9.218,4.887,17.144,17.97,19.803c0.629-0.001,1.259-0.003,1.889-0.004c1.652,1.582,3.326,1.548,5.019,0.066
		c460.276,0,920.552,0.001,1380.828,0.001c1.692,1.48,3.366,1.516,5.019-0.067c0.63,0.001,1.26,0.001,1.889,0.001
		c3.068,0.328,5.399-1.523,7.808-2.869c7.038-3.936,11.727-15.323,9.286-22.062C1499.814,526.27,1499.814,263.634,1499.813,1z"/>
	<path fill-rule="evenodd" clip-rule="evenodd" fill="#F1F1F1" d="M1508.811,1c0,263.449,0.002,526.899-0.01,790.349
		c0,8.162-1.667,15.849-7.186,22.229c-5.75,6.646-13.554,8.708-21.85,9.261c-4.812,0.319-9.662,0.059-14.494,0.059
		c-457.245,0-914.492,0.001-1371.738-0.01c-8.161,0-15.849-1.667-22.226-7.19c-6.645-5.752-8.571-13.563-9.298-21.85
		c-0.116-1.323-0.018-2.665-0.018-3.997c0-262.95,0-525.9,0.001-788.85c1,0,2,0,3,0c0,260.96,0,521.922,0,782.882
		c0,2.333-0.169,4.682,0.033,6.997c0.689,7.912,2.538,15.328,8.562,21.175c6.604,6.409,14.813,7.815,23.417,7.815
		c458.932,0.032,917.865,0.028,1376.796,0.028c1,0,2.009,0.085,2.998-0.016c5.622-0.571,11.212-1.354,16.113-4.463
		c9.933-6.304,12.873-16.073,12.874-27.035c0.035-262.462,0.027-524.923,0.027-787.384C1506.812,1,1507.811,1,1508.811,1z"/>
	<path fill-rule="evenodd" clip-rule="evenodd" fill="#B0B0B0" d="M1475.815,813.9c-460.275,0-920.552-0.001-1380.828-0.001
		c-1.653-1.496-3.328-1.451-5.019-0.066c-0.629,0.001-1.259,0.003-1.89,0.005c-0.132-1.403-1.189-1.682-2.295-2.168
		c-8.742-3.844-13.75-10.305-13.797-20.134c-0.005-1.004-0.087-1.975-1-2.633C70.988,526.27,70.989,263.634,70.991,1c1,0,2,0,3,0
		c0.004,260.437,0.016,520.874-0.043,781.312c-0.001,4.365,0.517,8.644,1.376,12.83c1.532,7.469,6.071,12.53,13.7,14.208
		c4.355,0.958,8.765,1.578,13.293,1.577c455.39-0.044,910.78-0.046,1366.17,0.023c4.205,0.001,8.325-0.525,12.339-1.333
		c7.173-1.443,12.385-5.55,14.214-13.054c1.101-4.517,1.786-9.064,1.786-13.752c-0.027-260.604-0.019-521.208-0.014-781.812
		c1,0,2,0,3,0c0.002,262.634,0.002,525.27,0.004,787.903c-0.329,0.714-0.945,1.428-0.945,2.142
		c-0.003,10.233-5.039,16.976-14.322,20.76c-1.04,0.425-1.656,0.955-1.826,2.029c-0.629,0-1.259,0-1.889,0
		C1479.143,812.446,1477.469,812.404,1475.815,813.9z"/>
	<path fill-rule="evenodd" clip-rule="evenodd" fill="#979797" d="M1496.813,1c-0.005,260.604-0.014,521.207,0.014,781.812
		c0,4.688-0.686,9.235-1.786,13.752c-1.829,7.504-7.041,11.61-14.214,13.054c-4.014,0.808-8.134,1.334-12.339,1.333
		c-455.391-0.069-910.781-0.067-1366.17-0.023c-4.528,0.001-8.938-0.619-13.293-1.577c-7.629-1.678-12.168-6.739-13.7-14.208
		c-0.859-4.187-1.378-8.465-1.376-12.83C74.006,521.874,73.995,261.437,73.991,1c1,0,2,0,3,0c0.008,2.332,0.023,4.664,0.023,6.996
		c0.001,258.374-0.001,516.748,0.045,775.121c0,2.585-0.833,5.331,0.795,7.777c0.41,1.63,0.82,3.259,1.229,4.888
		c0.339,5.407,4.104,7.967,8.391,10.09c4.832,2.392,10.027,2.007,15.181,2.007c455.166-0.005,910.33-0.005,1365.496-0.006
		c2.498,0,5.002,0.082,7.496-0.034c8.413-0.39,14.937-5.318,16.075-12.057c0.411-1.631,0.821-3.261,1.231-4.892
		c1.651-2.62,0.789-5.526,0.79-8.277c0.057-260.538,0.062-521.076,0.069-781.613C1494.813,1,1495.813,1,1496.813,1z"/>
	<path fill-rule="evenodd" clip-rule="evenodd" fill="#E7E7E7" d="M1505.812,1c0,262.461,0.008,524.922-0.027,787.384
		c-0.001,10.962-2.941,20.731-12.874,27.035c-4.901,3.109-10.491,3.892-16.113,4.463c-0.989,0.101-1.998,0.016-2.998,0.016
		c-458.932,0-917.865,0.004-1376.796-0.028c-8.604,0-16.813-1.406-23.417-7.815c-6.024-5.847-7.873-13.263-8.562-21.175
		c-0.202-2.315-0.033-4.664-0.033-6.997c0-260.96,0-521.921,0-782.882c0.667,0,1.333,0,2,0
		c0.004,260.955,0.011,521.908-0.019,782.862c0,4.849,0.644,9.606,1.692,14.271c2.357,10.477,10.564,17.283,21.222,18.854
		c5.808,0.855,11.577,0.896,17.383,0.896c454.587,0.006,909.175,0.015,1363.761-0.058c9.521-0.002,18.614-1.276,25.822-9.197
		c5.885-6.467,5.698-14.193,6.914-21.769c0.234-1.463,0.035-2.995,0.035-4.494c0.004-260.455,0.007-520.91,0.01-781.364
		C1504.479,1,1505.145,1,1505.812,1z"/>
	<path fill-rule="evenodd" clip-rule="evenodd" fill="#6E6E6E" d="M77.853,790.895c-1.627-2.446-0.794-5.192-0.795-7.777
		C77.012,524.744,77.015,266.37,77.013,7.996c0-2.332-0.015-4.665-0.023-6.996c0.333,0,0.667,0,1,0
		c0.014,21.15,0.039,42.301,0.04,63.452c0.003,240.319,0.003,480.639-0.004,720.958C78.025,787.239,77.913,789.067,77.853,790.895z"
		/>
	<path fill-rule="evenodd" clip-rule="evenodd" fill="#6E6E6E" d="M1493.813,1c-0.008,260.538-0.013,521.075-0.069,781.613
		c-0.001,2.751,0.861,5.657-0.79,8.277c-0.061-1.327-0.176-2.656-0.176-3.984c-0.006-261.303-0.006-522.605-0.002-783.909
		c0-0.666,0.023-1.332,0.037-1.998C1493.146,1,1493.479,1,1493.813,1z"/>
	<path fill-rule="evenodd" clip-rule="evenodd" fill="#FAFDFA" d="M452.067,477.851c28.206,6.245,55.519,1.695,82.462-6.935
		c2.814-0.902,3.943-0.56,3.923,2.589c-0.065,10.66-0.105,21.323,0.068,31.98c0.056,3.419-2.116,4.07-4.56,4.846
		c-18.336,5.822-37.143,8.899-56.348,9.601c-19.112,0.698-37.978-0.876-55.925-7.936c-31.369-12.34-48.362-36.253-53.714-68.862
		c-3.946-24.035-2.663-47.852,6.052-70.794c10.903-28.7,30.747-48.321,60.787-56.21c22.915-6.018,45.491-4.389,67.117,5.976
		c0.098,1.128-0.416,2.695,0.663,3.254c4.434,2.299,8.99,4.36,13.502,6.508c0.255,0.192,0.51,0.386,0.765,0.579
		c1.165,2.373,0.507,6.509,5.247,5.423c0.269,0.172,0.536,0.343,0.805,0.515c-0.017,0.247,0.089,0.415,0.317,0.502
		c0.548,0.771,1.095,1.541,1.641,2.31c-0.002,1.439,0.188,2.733,2.077,2.739c0.304,0.43,0.606,0.859,0.91,1.289
		c0.864,3.401,1.434,6.98,5.166,8.673l-0.032-0.035c0.256,0.383,0.512,0.765,0.769,1.147l0.046,0.228
		c-1.395,5.151,2.181,9.298,3.708,13.461c4.465,12.176,6.101,24.588,6.383,37.318c0.124,5.611-0.046,11.218-0.598,16.862
		c-0.657,6.706-0.334,7.053-6.832,7.055c-36.427,0.007-72.855,0.008-109.283,0.002c-1.326-0.001-3.02,0.405-3.912-0.245
		c-3.333-2.431-5.282-0.045-7.497,1.701l0.092,0.261l-0.195,0.195c-0.65,0.129-1.35,0.32-1.325,1.112
		c0.026,0.805,0.749,0.92,1.404,0.994c0.041,0.675,0.081,1.35,0.122,2.023c-1.929,2.427-0.54,4.226,1.129,5.971l0.232,0.159
		c0,0-0.04,0.279-0.041,0.279c0.182,0.541,0.362,1.082,0.544,1.622l0.093,0.313l0.035,0.112c0.259,0.852,0.518,1.702,0.776,2.554
		c-0.429,2.929-2.964,6.744,2.946,7.009c0.13,0.313,0.26,0.627,0.39,0.939c0.031,2.277-0.476,4.905,3.146,4.857l-0.017-0.015
		c-0.288,3.639,1.583,5.472,5.016,6.001l-0.018-0.015c1.352,6.169,3.231,7.454,11.885,8.132c0.309,0.101,0.618,0.201,0.927,0.302
		c0.315,1.995,1.761,1.767,3.169,1.608c0,0-0.025-0.019-0.026-0.019C446.948,479.72,450.02,477.292,452.067,477.851z
		 M456.084,393.008c11.639,0,23.279,0.032,34.918-0.034c1.757-0.01,4.153,0.856,4.048-2.626
		c-0.819-27.314-20.381-44.673-47.026-37.818c-19.618,5.047-27.314,22.75-29.87,38.018c-0.54,3.225,1.872,2.428,3.51,2.433
		C433.138,393.018,444.611,393,456.084,393.008z"/>
	<path fill-rule="evenodd" clip-rule="evenodd" fill="#FBFDFB" d="M634.079,345.599c11.811-15.8,26.287-25.669,43.995-29.765
		c26.113-6.038,51.113-4.533,71.677,15.503c12.629,12.306,17.759,28.105,17.91,45.237c0.392,44.819,0.167,89.643,0.312,134.464
		c0.01,3.149-0.952,3.934-3.958,3.899c-13.329-0.15-26.662-0.231-39.987,0.003c-3.797,0.066-4.703-1.031-4.691-4.735
		c0.12-38.324,0.087-76.648,0-114.972c-0.013-5.98-0.141-11.965-1.294-17.902c-2.51-12.9-10.118-20.837-23.16-22.661
		c-19.3-2.698-35.512,4.276-49.896,16.749c-5.414,4.695-7.469,9.922-7.393,17.31c0.412,40.32,0.133,80.646,0.292,120.97
		c0.017,4.122-0.971,5.353-5.189,5.262c-13.158-0.284-26.326-0.206-39.486-0.031c-3.318,0.044-4.179-1.001-4.174-4.244
		c0.082-62.817,0.073-125.637-0.008-188.456c-0.004-3.119,0.671-4.416,4.104-4.352c10.994,0.203,21.994,0.16,32.99,0.032
		c2.654-0.031,3.568,0.585,3.93,3.45C631.025,329.083,632.563,336.735,634.079,345.599z"/>
	<path fill-rule="evenodd" clip-rule="evenodd" fill="#FBFDFB" d="M869.88,378.906c-0.029,45.261-0.06,90.522-0.089,135.783
		c-15.965,0.113-31.928,0.226-47.893,0.339c-0.325-0.367-0.649-0.735-0.975-1.103c0.077-1.99,0.222-3.98,0.222-5.971
		c0.013-60.924,0-121.849,0.047-182.773c0.002-2.433-0.679-4.989,0.702-7.313c11.825,0.031,23.652,0.146,35.476,0.036
		c2.955-0.027,4.336,0.512,4.745,3.885c0.916,7.555,2.439,15.035,3.841,23.28c2.923-3.209,5.231-5.964,7.768-8.49
		c23.14-23.057,59.804-30.637,89.658-17.836c21.076,9.037,32.05,26.089,35.386,48.402c1.012,6.771,1.128,13.594,1.125,20.427
		c-0.015,40.644-0.096,81.29,0.116,121.934c0.024,4.564-1.304,5.576-5.556,5.492c-12.821-0.254-25.654-0.278-38.476-0.016
		c-3.85,0.079-4.639-1.062-4.628-4.719c0.115-38.313,0.062-76.625,0.004-114.936c-0.009-5.658-0.251-11.313-1.184-16.918
		c-2.513-15.107-12.249-23.655-27.662-24.298c-11.433-0.478-22.105,2.134-32.091,7.677c-1.448,0.804-2.958,1.496-4.438,2.24
		c-2.813-1.535-5.919-0.466-6.833,1.675c-1.615,3.784-5.613,4.934-7.448,8.295C870.823,375.602,869.72,376.974,869.88,378.906z"/>
	<path fill-rule="evenodd" clip-rule="evenodd" fill="#F8FCF9" d="M1301.531,324.037c0.303,0.167,0.45,0.424,0.443,0.769
		c0.275,0.357,0.551,0.715,0.826,1.074c0,0,0.099,0.114,0.099,0.113c-0.087,1.295,0.571,1.919,1.816,2.013l0.068,0.076
		c0.614,2.485,1.541,4.739,4.22,5.696c0,0,0.029,0.033,0.029,0.032c0.06,1.931,0.39,3.685,2.693,4.165
		c12.583,18.854,17.398,39.831,15.824,62.149c-1.88,26.639-12.813,49.284-32.162,67.784c-0.818,0.782-1.726,1.473-3.28,2.788
		c0.519-6.287,1.28-11.747,1.252-17.262c-0.126-24.087-11.971-41.171-34.521-49.516c-12.975-4.801-26.585-7.318-39.842-11.102
		c-5.242-1.497-10.337-3.371-15.006-6.459c-10.188-6.737-10.763-20.997-0.867-28.279c6.327-4.658,13.746-5.819,21.287-5.931
		c19.119-0.282,37.661,3.532,56.026,8.414c1.581,0.42,3.168,0.813,5.262,1.35c0-12.476-0.024-24.581,0.03-36.686
		c0.007-1.605-0.566-2.387-2.081-2.844c-28.216-8.517-56.832-13.355-86.049-6.373c-33.604,8.032-53.12,34.437-47.316,73.063
		c2.928,19.481,16.554,30.28,34.131,36.841c11.54,4.307,23.516,7.09,35.396,10.215c5.318,1.399,10.521,3.148,15.32,5.877
		c5.948,3.385,10.371,8.029,10.429,15.302c0.06,7.455-3.68,12.896-9.948,16.77c-7.938,4.909-16.854,6.018-25.844,6.509
		c-14.049,0.77-27.895-0.945-41.648-3.839c-7.578-1.595-12.524-6.875-17.376-11.985c-35.664-37.568-39.376-93.495-8.044-134.451
		c19.881-25.987,46.795-39.624,79.94-40.408c26.179-0.62,48.968,7.916,68.981,24.419c2.384,1.965,5.213,3.668,6.193,6.942
		C1298.785,322.546,1299.749,323.839,1301.531,324.037z"/>
	<path fill-rule="evenodd" clip-rule="evenodd" fill="#FCFDFC" d="M339.127,474.313c0,12.931-0.034,25.558,0.034,38.184
		c0.011,2.027-1.192,2.556-2.711,2.894c-25.376,5.655-50.838,8.117-75.628-1.947c-19.622-7.967-29.045-23.801-29.694-44.585
		c-0.587-18.808-0.345-37.642-0.404-56.465c-0.051-16.495-0.114-32.992,0.066-49.485c0.041-3.769-0.753-5.246-4.897-5.063
		c-8.148,0.36-16.326,0.018-24.488,0.158c-2.542,0.044-3.456-0.587-3.419-3.303c0.15-11.162,0.15-22.327,0-33.489
		c-0.037-2.72,0.883-3.345,3.422-3.301c8.162,0.14,16.339-0.203,24.488,0.158c4.148,0.184,4.944-1.299,4.894-5.064
		c-0.2-14.993,0.009-29.992-0.19-44.985c-0.05-3.75,0.748-5.2,4.876-5.114c13.157,0.273,26.325,0.202,39.485,0.028
		c3.305-0.044,4.226,0.968,4.195,4.234c-0.146,15.494,0.08,30.992-0.128,46.484c-0.048,3.596,1.009,4.432,4.441,4.395
		c16.161-0.171,32.324-0.01,48.485-0.147c3.118-0.026,4.334,0.674,4.266,4.071c-0.212,10.659-0.214,21.329,0.002,31.987
		c0.069,3.419-1.187,4.081-4.283,4.055c-16.161-0.135-32.324,0.026-48.485-0.148c-3.454-0.037-4.443,0.839-4.422,4.411
		c0.17,28.658,0.108,57.317,0.12,85.975c0,1.833-0.007,3.666,0.03,5.499c0.346,17.158,7.584,24.453,24.809,24.956
		c10.046,0.293,19.932-0.932,29.695-3.268C335.291,475.055,336.921,474.767,339.127,474.313z"/>
	<path fill-rule="evenodd" clip-rule="evenodd" fill="#6E6E6E" d="M1491.722,795.782c-1.139,6.738-7.662,11.667-16.075,12.057
		c-2.494,0.116-4.998,0.034-7.496,0.034c-455.166,0.001-910.331,0.001-1365.496,0.006c-5.154,0-10.349,0.385-15.181-2.007
		c-4.287-2.123-8.052-4.683-8.391-10.09c3.428,4.271,7.9,5.286,13.265,5.277c74.813-0.124,149.625-0.07,224.438-0.07
		c383.393,0.002,766.787,0.001,1150.18,0c3.998,0,8.019-0.275,11.991,0.044C1484.211,801.454,1488.405,799.814,1491.722,795.782z"/>
	<path fill-rule="evenodd" clip-rule="evenodd" fill="#FEFEFE" d="M1061.871,318.142c10.661-0.003,21.323-0.007,31.985-0.01
		c0.305,2.068,1.912,1.933,3.319,1.797c1.952-0.187,3.422,0.441,4.526,2.02c0.052,12.964,0.145,25.928,0.149,38.892
		c0.018,49.208,0.01,98.417-0.003,147.625c0,1.821-0.149,3.641-0.229,5.461c-4.874,0.526-3.734-3.048-3.735-5.646
		c-0.029-60.144-0.015-120.287-0.063-180.431c-0.001-1.75,0.764-3.835-0.945-5.39c-1.264,0.926-0.994,1.992-0.997,2.935
		c-0.023,8.996-0.017,17.993-0.017,26.989c0,51.813-0.06,103.626,0.102,155.439c0.014,4.656-0.97,6.639-5.969,6.194
		c-4.794-0.426-9.658,0.012-14.485-0.123c-4.291-0.12-9.779,1.829-12.562-0.832c-3.044-2.911-1.019-8.535-1.025-12.95
		c-0.084-57.478-0.045-114.956-0.111-172.433c-0.002-1.669,1-3.859-1.282-5.261c-1.113,2.16-0.638,4.193-0.639,6.146
		c-0.029,59.644-0.023,119.287-0.026,178.931c0,1.499,0.021,3.001-0.073,4.495c-0.093,1.479-1.138,1.889-2.436,1.887
		c-1.303-0.002-2.33-0.435-2.414-1.91c-0.086-1.496-0.066-2.997-0.066-4.496c-0.003-59.477,0.02-118.954-0.044-178.431
		c-0.005-4.825-0.535-9.601,6.442-9.601C1061.473,319.439,1061.672,318.593,1061.871,318.142z"/>
	<path fill-rule="evenodd" clip-rule="evenodd" fill="#050703" d="M453.324,251.567c3.777-18.619,7.43-36.333,10.92-54.081
		c0.649-3.303,1.881-4.704,5.544-4.552c11.17,0.461,11.281-2.137,8.53,10.585c-4.704,21.747-9.103,43.563-13.291,65.416
		c-0.947,4.943-3.068,6.772-7.87,6.03c-1.466-0.227-3.004-0.156-4.492-0.027c-3.13,0.271-4.653-1.129-5.934-4.036
		c-7.78-17.654-16.583-34.851-23.616-52.844c-0.162-0.414-0.497-0.761-0.67-1.019c-3.608,18.054-7.209,36.104-10.833,54.149
		c-0.452,2.252-1.267,3.678-4.198,3.799c-11.708,0.484-11.801,0.604-9.555-10.724c4.389-22.145,8.966-44.252,13.302-66.406
		c0.741-3.782,2.443-4.642,6.241-5.04c7.482-0.783,11.314,2.006,14.079,8.931C438.13,218.398,446.999,234.086,453.324,251.567z"/>
	<path fill-rule="evenodd" clip-rule="evenodd" fill="#050703" d="M902.169,255.555c4.45-12.861,9.215-24.142,13.93-35.446
		c1.423-3.411,3.265-4.261,6.69-4.208c10.586,0.165,10.481,0.039,11.041,10.708c0.481,9.19,1.242,18.365,2.387,27.61
		c5.32-11.613,11.815-22.424,17.343-33.722c1.749-3.578,3.834-4.941,7.695-4.604c3.565,0.311,7.181,0.066,11.688,0.066
		c-7.122,12.492-13.769,24.122-20.386,35.768c-3.523,6.199-7.253,12.298-10.393,18.688c-1.734,3.532-3.869,5.158-7.726,4.547
		c-0.813-0.128-1.663-0.017-2.495-0.024c-8.127-0.077-6.731,0.45-7.152-6.933c-0.462-8.121-1.205-16.228-1.836-24.338
		c-0.087-1.114,0.159-2.515-1.573-2.577c-1.434-0.052-1.896,1.021-2.336,2.172c-3.505,9.147-7.176,18.232-10.495,27.444
		c-1.141,3.168-2.712,4.321-6.136,4.302c-10.161-0.061-10.233,0.115-12.189-9.748c-3.003-15.14-5.833-30.314-8.892-45.442
		c-0.59-2.917,0.081-3.787,3.072-3.91c10.917-0.449,11.029-0.568,12.997,10.336C899.078,235.525,900.443,244.864,902.169,255.555z"
		/>
	<path fill-rule="evenodd" clip-rule="evenodd" fill="#FAFDFA" d="M1103.055,246.318c0,7.316-0.098,14.635,0.053,21.949
		c0.055,2.675-0.523,3.809-3.521,3.781c-14.801-0.138-29.604-0.094-44.404-0.012c-2.365,0.013-3.175-0.764-3.163-3.152
		c0.074-15.3,0.076-30.6-0.02-45.899c-0.017-2.542,1.105-3.047,3.303-3.041c14.802,0.047,29.604,0.068,44.406-0.031
		c2.626-0.018,3.421,0.881,3.374,3.456c-0.137,7.647-0.049,15.299-0.049,22.949C1103.041,246.318,1103.049,246.318,1103.055,246.318
		z"/>
	<path fill-rule="evenodd" clip-rule="evenodd" fill="#050703" d="M563.881,276.964c-2.399,0.166-5.385,0.08-8.036-1.66
		c-3.103-2.036-4.355-0.715-5.014,2.465c-1.48,7.144-3.424,14.204-4.585,21.394c-0.555,3.43-2.135,3.8-4.958,3.834
		c-10.929,0.132-10.743,0.239-8.486-10.35c5.113-23.99,10.119-48.004,14.911-72.06c0.692-3.475,1.833-5.31,5.371-4.577
		c3.268,0.678,8.339-2.734,9.258,4.041c0.113,0.834,2.417-0.688,3.526-1.633c6.136-5.226,14.544-6.221,20.847-2.416
		c6.163,3.722,8.463,9.877,8.882,16.45c0.891,13.992-3.009,26.647-12.761,37.013C577.968,274.639,571.762,277.258,563.881,276.964z
		 M580.825,237.133c0-1.16,0.137-2.34-0.022-3.479c-1.006-7.216-5.824-9.512-12.094-5.848c-4.196,2.452-6.835,6.147-8.787,10.491
		c-3.029,6.738-3.524,14.087-5.31,21.122c-0.675,2.657,1.207,3.277,2.662,4.033c4.796,2.495,9.694,1.747,13.763-2.046
		C578.061,254.859,579.879,246.15,580.825,237.133z"/>
	<path fill-rule="evenodd" clip-rule="evenodd" fill="#050703" d="M1299.946,218.576c4.181-1.87,7.495-4.323,11.884-4.7
		c11.895-1.021,18.742,6.186,20.361,15.954c2.268,13.672-3.014,34.093-17.477,42.833c-6.853,4.14-14.346,5.397-22.041,3.906
		c-11.02-2.133-16.91-11.56-14.57-23.389c4.084-20.647,8.622-41.203,12.749-61.841c0.849-4.243,3.284-4.514,6.757-4.453
		c8.477,0.148,8.647,0.061,7.189,8.257C1303.438,202.786,1301.667,210.354,1299.946,218.576z M1317.877,237.257
		c0.33-4.542-0.867-8.633-5.08-10.563c-4.509-2.065-8.331,0.367-11.609,3.496c-0.836,0.798-1.701,1.642-2.271,2.628
		c-4.613,7.996-5.942,16.832-5.994,25.846c-0.021,3.778,2.47,6.196,6.451,6.118c2.99-0.059,5.825-0.811,8.212-2.984
		C1314.855,255.177,1317.044,246.505,1317.877,237.257z"/>
	<path fill-rule="evenodd" clip-rule="evenodd" fill="#050703" d="M621.738,218.963c6.433-3.152,12.4-5.468,19.4-5.081
		c9.063,0.503,14.919,6.138,14.904,15.24c-0.017,11.075-3.811,21.526-5.467,32.332c-0.125,0.817-0.407,1.609-0.596,2.417
		c-3.262,13.947-0.19,10.588-13.609,11.059c-2.648,0.093-3.446-0.629-2.814-3.505c2.418-11.013,4.547-22.09,6.766-33.147
		c0.261-1.298,0.525-2.612,0.59-3.929c0.347-7.116-5.074-10.565-11.513-7.399c-6.69,3.291-10.959,8.47-12.513,15.812
		c-1.957,9.251-4.139,18.464-5.751,27.775c-0.586,3.386-1.793,4.401-5.088,4.443c-10.408,0.132-10.439,0.242-8.328-10.036
		c5.038-24.531,10.203-49.036,15.063-73.602c0.663-3.352,1.813-4.378,5.115-4.364c13.398,0.06,10.307-0.474,8.434,10.168
		C625.044,204.462,623.286,211.693,621.738,218.963z"/>
	<path fill-rule="evenodd" clip-rule="evenodd" fill="#050703" d="M517.977,275.852c-1.764-2.186-3.504-4.386-4.032-7.293
		c-2.352,0.294-3.074,2.191-4.406,3.278c-6.291,5.13-13.449,6.695-21.019,3.996c-7.567-2.698-10.102-9.369-10.442-16.657
		c-0.681-14.572,2.337-28.117,13.024-38.926c8.005-8.097,18.686-8.666,27.821-1.694c1.03,0.786,1.77,1.962,3.195,0.21
		c1.938-2.387,10.061-3.923,12.519-2.64c1.904,0.996,0.947,2.515,0.671,3.918c-2.538,12.848-4.914,25.73-7.688,38.526
		c-0.821,3.786-0.161,5.902,3.79,6.242c2.29,0.197,2.743,1.382,2.518,3.324c-0.323,2.788-0.539,5.595-2.015,8.092
		C527.228,277.572,522.594,277.033,517.977,275.852z M492.939,253.925c0,0.997-0.059,1.997,0.01,2.988
		c0.53,7.728,5.346,10.075,11.837,5.876c3.768-2.436,6.419-5.687,7.994-9.866c2.11-5.604,2.944-11.546,4.583-17.254
		c1.483-5.164-0.769-7.425-5.026-8.999c-4.104-1.518-7.46-0.236-10.401,2.678C495.095,236.13,493.539,244.858,492.939,253.925z"/>
	<path fill-rule="evenodd" clip-rule="evenodd" fill="#050703" d="M854.292,268.416c-2.943,2.11-5.241,4.917-8.763,6.396
		c-13.884,5.829-24.757,0.263-26.333-14.558c-1.411-13.276,1.787-25.686,9.692-36.738c7.149-9.996,22.766-13.651,31.298-4.772
		c1.108,1.155,1.969,1.341,3.135-0.278c1.56-2.165,9.869-3.527,12.26-2.329c1.938,0.971,1.03,2.512,0.748,3.894
		c-2.552,12.505-4.999,25.033-7.749,37.494c-0.954,4.325-0.881,7.354,4.607,7.397c0.611,0.005,1.698,0.281,1.754,0.582
		c0.595,3.197-0.903,6.146-1.324,9.239c-0.281,2.073-2.251,2.064-3.952,2.194C860.547,277.634,858.769,276.676,854.292,268.416z
		 M833.903,253.401c0,1-0.007,2,0.002,3c0.025,3.129,0.689,6.076,3.632,7.705c3.037,1.684,5.863,0.105,8.469-1.329
		c2.05-1.126,3.584-2.965,4.91-4.91c5.242-7.692,6.019-16.777,7.902-25.512c0.313-1.449-0.507-2.515-1.543-3.472
		c-3.959-3.657-9.527-3.792-13.578-0.217C836.244,235.242,834.429,244.071,833.903,253.401z"/>
	<path fill-rule="evenodd" clip-rule="evenodd" fill="#050703" d="M1125.768,243.056c-0.021-15.411,4.508-29.061,15.574-40.211
		c11.26-11.346,25.215-13.031,40.132-11.395c0.821,0.09,1.625,0.341,2.445,0.448c9.007,1.179,10.297,3.512,6.822,11.959
		c-1.117,2.715-2.982,1.94-4.959,1.552c-7.392-1.448-14.643-1.928-22.136,0.315c-14.512,4.344-22.029,20.186-22.803,32.701
		c-0.104,1.659-0.046,3.329-0.031,4.994c0.119,13.442,6.708,20.077,20.304,20.469c5.887,0.169,11.616-0.812,17.102-2.837
		c3.542-1.31,3.897,0.154,3.645,3.117c-0.778,9.135-1.999,10.467-11.136,11.932c-7.44,1.194-14.866,1.468-22.294-0.039
		c-13.468-2.733-22.138-12.866-22.653-26.513C1125.697,247.387,1125.768,245.22,1125.768,243.056z"/>
	<path fill-rule="evenodd" clip-rule="evenodd" fill="#050703" d="M1008.62,274.941c-8.289-0.022-8.323-0.03-6.851-7.327
		c1.905-9.435,4.098-18.82,5.711-28.304c0.687-4.04,2.632-8.989-1.938-11.972c-4.801-3.134-9.205-0.631-13.28,2.33
		c-4.889,3.55-7.104,8.658-8.305,14.297c-1.863,8.758-3.758,17.516-5.285,26.335c-0.646,3.738-2.289,4.775-5.954,4.71
		c-9.803-0.173-9.837-0.01-7.94-9.466c3.065-15.284,6.206-30.553,9.235-45.844c0.54-2.727,1.861-4.439,4.67-3.684
		c3.223,0.866,8.312-3.074,9.476,3.743c0.248,1.451,2.274-0.002,3.189-0.695c4.818-3.651,10.078-5.366,16.234-5.155
		c10.975,0.376,17.982,8.373,15.957,19.267c-2.184,11.731-5.223,23.316-7.024,35.098
		C1015.611,274.175,1013.298,276.115,1008.62,274.941z"/>
	<path fill-rule="evenodd" clip-rule="evenodd" fill="#050703" d="M1239.378,276.971c-2.006,0.041-4.941-0.115-7.9-0.868
		c-9.617-2.448-15.065-10.432-13.237-20.236c2.218-11.902,4.817-23.733,7.015-35.639c0.647-3.506,2.218-4.421,5.665-4.367
		c10.542,0.168,10.355-0.03,8.04,10.322c-2.172,9.714-3.989,19.511-5.76,29.309c-0.981,5.433,2.6,9.337,8.188,9.374
		c6.193,0.04,11.294-3.947,12.566-9.931c2.378-11.187,4.853-22.356,6.975-33.592c0.778-4.123,2.378-5.678,6.793-5.499
		c9.55,0.384,9.515,0.106,7.417,9.688c-2.445,11.174-4.713,22.389-7.217,33.55c-2.674,11.918-13.509,17.331-24.06,17.88
		C1242.701,277.023,1241.533,276.971,1239.378,276.971z"/>
	<path fill-rule="evenodd" clip-rule="evenodd" fill="#050703" d="M757.957,275.091c-2.468-3.593-0.158-7.161,0.492-10.492
		c4.295-21.977,9.105-43.853,13.446-65.822c0.941-4.765,3.02-6.105,7.714-5.902c8.961,0.387,9.047,0.121,7.218,8.922
		c-3.914,18.838-7.879,37.666-11.916,56.479c-0.57,2.654-0.372,3.806,2.85,3.743c10.152-0.199,20.314,0.069,30.465-0.162
		c3.681-0.083,5.091,1.075,3.599,4.45c-1.35,3.05,1.177,8.399-4.949,8.743C790.569,275.063,774.263,275.078,757.957,275.091z"/>
	<path fill-rule="evenodd" clip-rule="evenodd" fill="#050703" d="M705.444,187.019c8.063,0.182,7.929-1.929,5.965,7.745
		c-4.319,21.268-8.714,42.521-13.181,63.76c-0.796,3.781,0.391,5.861,4.233,6.082c3.296,0.188,3.595,1.67,2.964,4.598
		c-1.811,8.393-1.957,8.608-11.947,7.795c-6.861-0.56-10.258-3.865-10.615-10.135c-0.239-4.191,0.4-8.271,1.243-12.335
		c4.338-20.928,8.896-41.815,12.911-62.806C698.122,185.948,701.667,186.849,705.444,187.019z"/>
	<path fill-rule="evenodd" clip-rule="evenodd" fill="#050703" d="M731.432,186.975c2.111,0,3.28,0.067,4.438-0.013
		c3.352-0.233,4.188,0.803,3.423,4.375c-4.814,22.515-9.315,45.098-13.979,67.647c-0.862,4.168,0.762,6.274,4.881,5.801
		c3.069-0.353,2.813,1.266,2.616,3.186c-0.845,8.209-2.003,9.128-11.301,8.987c-7.345-0.111-11.19-3.495-11.696-10.082
		c-0.586-7.625,1.992-14.757,3.411-22.044c3.419-17.562,7.4-35.017,10.688-52.602C724.962,186.625,728.194,186.515,731.432,186.975z
		"/>
	<path fill-rule="evenodd" clip-rule="evenodd" fill="#050703" d="M1202.365,276.974c-11.417,0.036-15.663-5.018-13.286-17.177
		c4.492-22.967,9.554-45.821,14.143-68.77c0.829-4.149,3.206-4.141,6.397-4.112c9.264,0.086,9.259,0.002,7.398,9.071
		c-4.268,20.813-8.493,41.635-12.826,62.436c-0.854,4.109,0,6.622,4.717,6.424c2.096-0.088,2.998,0.663,2.893,2.903
		C1211.459,275.026,1209.56,276.951,1202.365,276.974z"/>
	<path fill-rule="evenodd" clip-rule="evenodd" fill="#F8FCF9" d="M1061.871,318.142c-0.199,0.451-0.398,1.298-0.598,1.298
		c-6.978,0-6.447,4.776-6.442,9.601c0.063,59.477,0.041,118.954,0.044,178.431c0,1.499-0.02,3,0.066,4.496
		c0.084,1.476,1.111,1.908,2.414,1.91c1.298,0.002,2.343-0.408,2.436-1.887c0.094-1.494,0.073-2.996,0.073-4.495
		c0.003-59.644-0.003-119.287,0.026-178.931c0.001-1.953-0.475-3.986,0.639-6.146c2.282,1.402,1.28,3.592,1.282,5.261
		c0.066,57.477,0.027,114.955,0.111,172.433c0.007,4.415-2.019,10.039,1.025,12.95c2.782,2.661,8.271,0.712,12.562,0.832
		c4.827,0.135,9.691-0.303,14.485,0.123c4.999,0.444,5.982-1.538,5.969-6.194c-0.161-51.813-0.102-103.626-0.102-155.439
		c0-8.996-0.007-17.993,0.017-26.989c0.003-0.943-0.267-2.009,0.997-2.935c1.709,1.555,0.944,3.64,0.945,5.39
		c0.049,60.144,0.034,120.287,0.063,180.431c0.001,2.599-1.139,6.173,3.735,5.646c-0.781,1.723-2.334,0.88-3.479,0.887
		c-13.478,0.076-26.956-0.063-40.432,0.128c-3.546,0.05-4.43-1.108-4.426-4.531c0.087-62.729,0.079-125.459,0.021-188.189
		C1053.298,314.446,1058.859,319.153,1061.871,318.142z"/>
	<path fill-rule="evenodd" clip-rule="evenodd" fill="#050703" d="M675.224,215.958c8.041,0.001,7.917-0.026,6.232,7.663
		c-3.259,14.882-6.627,29.748-9.388,44.725c-0.977,5.293-2.943,7.578-8.315,6.632c-1.451-0.255-2.988-0.11-4.479-0.031
		c-2.678,0.142-3.504-0.885-2.933-3.596c3.654-17.331,7.196-34.685,10.779-52.03C668.242,213.881,672.658,216.747,675.224,215.958z"
		/>
	<path fill-rule="evenodd" clip-rule="evenodd" fill="#0A971D" d="M821.895,317.868c-1.381,2.323-0.7,4.879-0.702,7.313
		c-0.047,60.924-0.034,121.85-0.047,182.773c0,1.99-0.145,3.98-0.222,5.971c-2.044,0.144-3.159-0.651-3.034-2.858
		c0.076-1.326,0.008-2.662,0.008-3.993c0-60.26-0.024-120.52,0.072-180.779c0.004-3.048-2.367-6.162,0.106-9.169
		C819.803,315.026,821.235,314.474,821.895,317.868z"/>
	<path fill-rule="evenodd" clip-rule="evenodd" fill="#0A971D" d="M771.46,370.671c0,47.517,0,95.032,0,142.548
		c-0.333,0.001-0.666,0.002-1,0.003c0-47.517,0-95.033,0-142.549C770.794,370.672,771.127,370.672,771.46,370.671z"/>
	<path fill-rule="evenodd" clip-rule="evenodd" fill="#E7E7E7" d="M415.775,431.391c2.215-1.746,4.164-4.132,7.497-1.701
		c0.892,0.65,2.586,0.244,3.912,0.245c36.428,0.006,72.856,0.005,109.283-0.002c6.498-0.002,6.174-0.349,6.832-7.055
		c0.552-5.644,0.722-11.251,0.598-16.862c-0.282-12.73-1.917-25.142-6.383-37.318c-1.527-4.163-5.103-8.31-3.708-13.461
		c8.757,16.793,11.25,34.982,11.754,53.57c0.161,5.979-0.372,11.974-0.259,17.957c0.068,3.572-1.373,4.293-4.701,4.283
		c-39.458-0.116-78.917-0.085-118.376-0.063C420.074,430.985,417.924,431.249,415.775,431.391z"/>
	<path fill-rule="evenodd" clip-rule="evenodd" fill="#050703" d="M687.991,193.992c-3.074,8.206-3.075,8.052-12.665,8.073
		c-3.911,0.009-4.842-1.118-3.971-4.966c2.534-11.202,2.396-11.233,13.981-11.129c1.162,0.011,2.325,0.024,3.488,0.037
		C688.547,188.669,688.269,191.331,687.991,193.992z"/>
	<path fill-rule="evenodd" clip-rule="evenodd" fill="#0A971D" d="M821.898,515.027c15.965-0.113,31.928-0.226,47.893-0.339
		c0.33,2.36-0.684,3.279-3.065,3.27c-13.955-0.056-27.911-0.05-41.866-0.002C822.742,517.964,821.756,517.147,821.898,515.027z"/>
	<path fill-rule="evenodd" clip-rule="evenodd" fill="#E7E7E7" d="M869.88,378.906c-0.16-1.932,0.943-3.304,1.817-4.906
		c1.835-3.361,5.833-4.511,7.448-8.295c0.914-2.141,4.021-3.21,6.833-1.675C880.366,368.722,874.686,373.34,869.88,378.906z"/>
	<path fill-rule="evenodd" clip-rule="evenodd" fill="#0A971D" d="M757.957,275.091c16.306-0.013,32.612-0.028,48.918-0.042
		c-0.861,1.044-2.062,0.924-3.22,0.924c-14.153,0.002-28.307,0.003-42.46-0.001C760.041,275.973,758.836,276.117,757.957,275.091z"
		/>
	<path fill-rule="evenodd" clip-rule="evenodd" fill="#E7E7E7" d="M516.096,331.868c-4.512-2.148-9.068-4.209-13.502-6.508
		c-1.079-0.559-0.565-2.126-0.663-3.254C507.245,324.499,512.072,327.602,516.096,331.868z"/>
	<path fill-rule="evenodd" clip-rule="evenodd" fill="#E7E7E7" d="M441.99,473.896c-8.654-0.678-10.533-1.963-11.885-8.132
		C434.066,468.475,438.028,471.186,441.99,473.896z"/>
	<path fill-rule="evenodd" clip-rule="evenodd" fill="#E7E7E7" d="M421.587,453.995c-5.91-0.265-3.375-4.08-2.946-7.009
		C419.623,449.322,420.605,451.658,421.587,453.995z"/>
	<path fill-rule="evenodd" clip-rule="evenodd" fill="#0A971D" d="M687.991,193.992c0.278-2.662,0.556-5.323,0.833-7.985
		c1.119,0.055,2.239,0.109,4.239,0.207c-2.207,2.058-3.822,3.561-2.644,6.347C691.057,194.068,689.034,193.823,687.991,193.992z"/>
	<path fill-rule="evenodd" clip-rule="evenodd" fill="#F1F1F1" d="M1101.702,321.949c-1.104-1.579-2.574-2.207-4.526-2.02
		c-1.407,0.136-3.015,0.271-3.319-1.797c1.489-0.066,2.991-0.026,4.463-0.222C1101.652,317.47,1102.414,319.063,1101.702,321.949z"
		/>
	<path fill-rule="evenodd" clip-rule="evenodd" fill="#0A971D" d="M517.977,275.852c4.617,1.181,9.251,1.72,13.935,0.376
		C528.696,278.964,520.341,278.737,517.977,275.852z"/>
	<path fill-rule="evenodd" clip-rule="evenodd" fill="#E7E7E7" d="M533.023,353.897c-3.732-1.693-4.301-5.271-5.166-8.673
		C530.284,347.696,531.812,350.702,533.023,353.897z"/>
	<path fill-rule="evenodd" clip-rule="evenodd" fill="#E7E7E7" d="M522.107,337.87c-4.74,1.086-4.082-3.05-5.247-5.423
		C519.053,333.826,520.813,335.623,522.107,337.87z"/>
	<path fill-rule="evenodd" clip-rule="evenodd" fill="#E7E7E7" d="M430.122,465.778c-3.434-0.529-5.304-2.362-5.016-6.001
		C427.095,461.513,428.839,463.453,430.122,465.778z"/>
	<path fill-rule="evenodd" clip-rule="evenodd" fill="#D3D3D3" d="M1309.004,333.777c-2.679-0.957-3.605-3.211-4.22-5.696
		C1306.755,329.563,1308.24,331.403,1309.004,333.777z"/>
	<path fill-rule="evenodd" clip-rule="evenodd" fill="#E7E7E7" d="M417.001,441.947c-1.669-1.745-3.058-3.544-1.129-5.971
		C416.776,437.867,417.167,439.855,417.001,441.947z"/>
	<path fill-rule="evenodd" clip-rule="evenodd" fill="#E7E7E7" d="M425.123,459.792c-3.622,0.048-3.115-2.58-3.146-4.857
		C423.384,456.32,424.459,457.923,425.123,459.792z"/>
	<path fill-rule="evenodd" clip-rule="evenodd" fill="#E7E7E7" d="M452.067,477.851c-2.048-0.559-5.12,1.869-6.008-2.063
		C448.253,475.917,450.227,476.691,452.067,477.851z"/>
	<path fill-rule="evenodd" clip-rule="evenodd" fill="#D3D3D3" d="M1311.727,337.974c-2.304-0.479-2.634-2.234-2.693-4.165
		C1310.64,334.74,1311.33,336.262,1311.727,337.974z"/>
	<path fill-rule="evenodd" clip-rule="evenodd" fill="#D3D3D3" d="M1301.531,324.037c-1.782-0.197-2.746-1.49-3.717-2.773
		C1299.463,321.64,1301.153,321.958,1301.531,324.037z"/>
	<path fill-rule="evenodd" clip-rule="evenodd" fill="#E7E7E7" d="M446.086,475.806c-1.408,0.158-2.854,0.387-3.169-1.608
		C444.163,474.36,445.326,474.687,446.086,475.806z"/>
	<path fill-rule="evenodd" clip-rule="evenodd" fill="#E7E7E7" d="M526.948,343.936c-1.89-0.006-2.079-1.3-2.077-2.739
		C525.995,341.783,526.715,342.674,526.948,343.936z"/>
	<path fill-rule="evenodd" clip-rule="evenodd" fill="#D3D3D3" d="M1304.716,328.005c-1.245-0.094-1.903-0.718-1.816-2.013
		C1303.977,326.237,1304.513,326.971,1304.716,328.005z"/>
	<path fill-rule="evenodd" clip-rule="evenodd" fill="#E7E7E7" d="M415.75,433.953c-0.655-0.074-1.377-0.189-1.404-0.994
		c-0.025-0.792,0.675-0.983,1.325-1.112C415.698,432.549,415.724,433.251,415.75,433.953z"/>
	<path fill-rule="evenodd" clip-rule="evenodd" fill="#D3D3D3" d="M1302.801,325.879c-0.275-0.358-0.551-0.717-0.826-1.074
		C1302.25,325.163,1302.525,325.521,1302.801,325.879z"/>
	<path fill-rule="evenodd" clip-rule="evenodd" fill="#E7E7E7" d="M417.737,444.008c-0.182-0.54-0.362-1.081-0.544-1.622
		C417.375,442.926,417.555,443.467,417.737,444.008z"/>
	<polygon fill-rule="evenodd" clip-rule="evenodd" fill="#E7E7E7" points="417.865,444.433 417.83,444.32 418.033,444.486 	"/>
	<path fill-rule="evenodd" clip-rule="evenodd" fill="#E7E7E7" d="M533.759,355.009c-0.257-0.383-0.513-0.765-0.769-1.147
		C533.603,354.006,533.892,354.366,533.759,355.009z"/>
	<path fill-rule="evenodd" clip-rule="evenodd" fill="#E7E7E7" d="M523.229,338.886c-0.229-0.087-0.334-0.255-0.317-0.502
		l0.396,0.122L523.229,338.886z"/>
	<path fill-rule="evenodd" clip-rule="evenodd" fill="#CBCBCB" d="M1482.723,813.834c0.17-1.074,0.786-1.604,1.826-2.029
		c9.283-3.784,14.319-10.526,14.322-20.76c0-0.714,0.616-1.428,0.945-2.142c2.44,6.738-2.248,18.126-9.286,22.062
		C1488.122,812.311,1485.791,814.162,1482.723,813.834z"/>
	<path fill-rule="evenodd" clip-rule="evenodd" fill="#CBCBCB" d="M70.986,788.903c0.913,0.658,0.996,1.629,1,2.633
		c0.048,9.829,5.055,16.29,13.797,20.134c1.106,0.486,2.163,0.765,2.295,2.168c-13.082-2.66-15.686-10.586-17.969-19.804
		C69.713,792.429,69.337,790.374,70.986,788.903z"/>
	<path fill-rule="evenodd" clip-rule="evenodd" fill="#CBCBCB" d="M89.969,813.833c1.691-1.385,3.366-1.43,5.019,0.066
		C93.295,815.381,91.621,815.415,89.969,813.833z"/>
	<path fill-rule="evenodd" clip-rule="evenodd" fill="#CBCBCB" d="M1475.815,813.9c1.653-1.496,3.327-1.454,5.019-0.066
		C1479.182,815.416,1477.508,815.381,1475.815,813.9z"/>
	<path fill-rule="evenodd" clip-rule="evenodd" fill="#0A971D" d="M456.084,393.004c-11.473-0.005-22.946,0.014-34.419-0.024
		c-1.639-0.005-4.05,0.792-3.51-2.433c2.556-15.268,10.252-32.971,29.87-38.018c26.645-6.855,46.207,10.504,47.026,37.818
		c0.104,3.483-2.292,2.617-4.048,2.626C479.364,393.041,467.724,393.008,456.084,393.004z"/>
	<path fill-rule="evenodd" clip-rule="evenodd" fill="#0A971D" d="M580.825,237.133c-0.945,9.017-2.764,17.726-9.789,24.272
		c-4.069,3.793-8.967,4.542-13.763,2.046c-1.455-0.756-3.336-1.376-2.662-4.033c1.786-7.035,2.281-14.383,5.31-21.122
		c1.952-4.343,4.591-8.039,8.787-10.491c6.271-3.664,11.088-1.368,12.094,5.848C580.961,234.793,580.825,235.974,580.825,237.133z"
		/>
	<path fill-rule="evenodd" clip-rule="evenodd" fill="#0A971D" d="M1317.877,237.257c-0.833,9.248-3.021,17.919-10.291,24.541
		c-2.387,2.173-5.222,2.925-8.212,2.984c-3.981,0.078-6.473-2.34-6.451-6.118c0.052-9.014,1.381-17.85,5.994-25.846
		c0.569-0.986,1.435-1.831,2.271-2.628c3.278-3.128,7.101-5.561,11.609-3.496C1317.01,228.625,1318.207,232.715,1317.877,237.257z"
		/>
	<path fill-rule="evenodd" clip-rule="evenodd" fill="#0A971D" d="M492.939,253.925c0.599-9.067,2.156-17.795,8.998-24.577
		c2.941-2.915,6.296-4.196,10.401-2.678c4.257,1.574,6.509,3.835,5.026,8.999c-1.639,5.708-2.473,11.65-4.583,17.254
		c-1.575,4.179-4.227,7.43-7.994,9.866c-6.491,4.199-11.307,1.852-11.837-5.876C492.881,255.922,492.939,254.922,492.939,253.925z"
		/>
	<path fill-rule="evenodd" clip-rule="evenodd" fill="#0A971D" d="M833.903,253.401c0.525-9.33,2.341-18.159,9.794-24.735
		c4.051-3.575,9.619-3.44,13.578,0.217c1.036,0.957,1.856,2.023,1.543,3.472c-1.884,8.734-2.66,17.819-7.902,25.512
		c-1.326,1.945-2.86,3.784-4.91,4.91c-2.605,1.435-5.432,3.013-8.469,1.329c-2.942-1.629-3.606-4.576-3.632-7.705
		C833.896,255.4,833.903,254.401,833.903,253.401z"/>
</g>
</svg>
