<?xml version="1.0" encoding="utf-8"?>
<!-- Generator: Adobe Illustrator 16.0.3, SVG Export Plug-In . SVG Version: 6.00 Build 0)  -->
<!DOCTYPE svg PUBLIC "-//W3C//DTD SVG 1.1//EN" "http://www.w3.org/Graphics/SVG/1.1/DTD/svg11.dtd">
<svg version="1.1" id="Layer_1" xmlns="http://www.w3.org/2000/svg" xmlns:xlink="http://www.w3.org/1999/xlink" x="0px" y="0px"
	 width="549.191px" height="546.103px" viewBox="0 0 549.191 546.103" enable-background="new 0 0 549.191 546.103"
	 xml:space="preserve">
<g>
	<path fill-rule="evenodd" clip-rule="evenodd" fill="#049919" d="M254.191-1.006c1.667,0,3.333,0,5,0
		c1.269,1.546,3.026,0.997,4.61,1.007c6.926,0.042,13.852,0.043,20.778-0.001c1.583-0.01,3.341,0.535,4.612-1.006
		c1.334,0,2.666,0,4,0c1.883,2.181,4.595,1.546,6.906,1.769c44.563,4.276,85.914,18.149,123.153,42.941
		c70.279,46.79,111.519,112.146,123.284,195.942c0.673,4.792-0.135,9.928,2.656,14.348c0,2.667,0,5.333,0,8c-1.622,8-1.574,16,0,24
		c0,3,0,6,0,9c-2.284,1.62-1.606,4.206-1.81,6.344c-0.93,9.796-2.346,19.531-4.422,29.122
		c-11.007,50.836-34.141,95.419-70.177,132.979c-41.135,42.875-91.03,69.844-149.554,80.648c-5.906,1.091-5.906,1.129-5.906-4.667
		c-0.002-59.999,0.061-119.998-0.119-179.996c-0.014-4.749,1.421-5.718,5.833-5.66c17.997,0.234,35.999,0.025,53.997,0.163
		c3.27,0.025,4.682-0.879,5.187-4.273c3.496-23.535,7.141-47.05,10.857-70.552c0.634-4.007-0.2-5.476-4.702-5.427
		c-22.163,0.242-44.331,0.052-66.497,0.173c-3.284,0.018-4.688-0.594-4.643-4.319c0.203-16.164-0.111-32.335,0.142-48.497
		c0.359-23.026,12.71-37.201,35.391-40.366c12.906-1.802,25.963-0.572,38.949-0.62c4.034-0.016,5.43-0.907,5.372-5.205
		c-0.24-17.997-0.1-35.998-0.095-53.998c0.002-8.755,0.055-9.11-8.426-10.284c-22.783-3.155-45.644-5.927-68.69-3.484
		c-23.501,2.491-44.676,10.53-61.395,27.94c-18.626,19.396-26.205,43.391-27.094,69.573c-0.723,21.309-0.285,42.661-0.102,63.992
		c0.035,4.049-0.885,5.359-5.153,5.31c-20.164-0.233-40.332-0.029-60.497-0.176c-3.422-0.024-4.536,0.846-4.512,4.414
		c0.154,23.665,0.201,47.333-0.031,70.997c-0.042,4.293,1.576,4.829,5.202,4.804c19.999-0.139,40,0.034,59.998-0.153
		c3.85-0.036,5.027,0.889,4.998,4.905c-0.19,26.331-0.098,52.665-0.098,78.998c0,34.332-0.001,68.665,0.002,102.998
		c0,2.474,0.705,4.941-3.699,4.082c-19.481-3.801-38.689-8.563-56.891-16.58C74.224,485.73,17.805,412.567,1.86,308.313
		c-0.731-4.779,0.152-9.917-2.669-14.319c0-2,0-4,0-6c2.233-5.385,0.74-11,0.809-16.484c0.052-4.142,1.513-8.494-0.809-12.516
		c0-1.667,0-3.333,0-5c2.254-1.84,1.594-4.552,1.822-6.865c4.078-41.421,16.469-80.215,38.586-115.421
		C86.289,57.384,153.215,13.797,240.378,1.607C244.985,0.963,249.97,1.827,254.191-1.006z"/>
	<path fill-rule="evenodd" clip-rule="evenodd" fill="#70A8F1" d="M289.191-1.006c-1.271,1.541-3.029,0.996-4.612,1.006
		c-6.926,0.044-13.852,0.043-20.778,0.001c-1.583-0.01-3.341,0.539-4.61-1.007C269.191-1.006,279.191-1.006,289.191-1.006z"/>
	<path fill-rule="evenodd" clip-rule="evenodd" fill="#6FA7F1" d="M-0.809,258.994c2.322,4.021,0.861,8.374,0.809,12.516
		c-0.069,5.484,1.424,11.1-0.809,16.484C-0.809,278.327-0.809,268.661-0.809,258.994z"/>
	<path fill-rule="evenodd" clip-rule="evenodd" fill="#5A9CF2" d="M549.191,285.994c-1.574-8-1.622-16,0-24
		C549.191,269.994,549.191,277.994,549.191,285.994z"/>
</g>
</svg>
