<?xml version="1.0" encoding="utf-8"?>
<!-- Generator: Adobe Illustrator 16.0.3, SVG Export Plug-In . SVG Version: 6.00 Build 0)  -->
<!DOCTYPE svg PUBLIC "-//W3C//DTD SVG 1.1//EN" "http://www.w3.org/Graphics/SVG/1.1/DTD/svg11.dtd">
<svg version="1.1" xmlns="http://www.w3.org/2000/svg" xmlns:xlink="http://www.w3.org/1999/xlink" x="0px" y="0px"
	 width="1415.119px" height="797.037px" viewBox="0 0 1415.119 797.037" enable-background="new 0 0 1415.119 797.037"
	 xml:space="preserve">
<g id="Layer_2" display="none">
	
		<rect x="-177.819" y="-40.997" display="inline" fill-rule="evenodd" clip-rule="evenodd" fill="#A62535" width="1768.412" height="886.887"/>
</g>
<g id="Layer_1">
	<g>
		<path fill-rule="evenodd" clip-rule="evenodd" fill="#049819" d="M0.046-3.11c471.667,0,943.333,0,1415,0
			c0.003,262.482,0,524.964,0.072,787.446c0.001,3.88-0.983,7.183-3.141,10.267c-2.562,1.072-4.979,2.62-7.93,2.415
			c-2.831-0.044-5.662-0.126-8.492-0.126c-458.673-0.006-917.346-0.006-1376.019,0c-2.831,0-5.662,0.082-8.492,0.126
			c-2.951,0.203-5.363-1.361-7.93-2.419c-2.771-2.642-3.116-5.977-3.115-9.603C0.044,522.294,0.043,259.592,0.046-3.11z
			 M339.927,440.254l-0.092-0.306c-0.62-2.676-1.241-5.352-1.862-8.027c-0.041-0.675-0.081-1.349-0.122-2.022
			c-0.025-0.703-0.052-1.406-0.078-2.108l0.191-0.191l-0.094-0.254c2.315-0.136,4.632-0.388,6.947-0.39
			c39.468-0.029,78.937-0.062,118.404,0.033c2.96,0.008,4.178-0.71,4.164-3.784c-0.027-6.319,0.477-12.648,0.286-18.959
			c-0.556-18.417-3.054-36.448-11.753-53.082l-0.045-0.219c0.134-0.645-0.154-1.006-0.769-1.149l0.032,0.034
			c-1.207-3.198-2.738-6.205-5.167-8.676c-0.304-0.429-0.606-0.858-0.909-1.287c-0.229-1.266-0.952-2.156-2.078-2.741
			c-0.544-0.765-1.087-1.529-1.631-2.294l0.071-0.395l-0.406-0.128c-0.159-0.338-0.425-0.508-0.798-0.509
			c-1.293-2.252-3.054-4.053-5.252-5.429c-0.254-0.192-0.508-0.384-0.762-0.575c-4.02-4.273-8.854-7.366-14.167-9.763
			c-21.632-10.359-44.212-11.994-67.13-5.973c-30.044,7.896-49.891,27.519-60.792,56.226c-8.715,22.948-9.996,46.77-6.048,70.808
			c5.356,32.614,22.363,56.519,53.734,68.868c18.61,7.325,38.175,8.764,57.937,7.868c18.509-0.839,36.675-3.881,54.359-9.554
			c2.455-0.787,4.59-1.461,4.534-4.866c-0.174-10.66-0.141-21.324-0.06-31.985c0.024-3.225-1.168-3.44-3.929-2.558
			c-26.95,8.624-54.267,13.186-82.478,6.93c-3.05-1.218-6.101-2.436-9.15-3.653c-0.309-0.1-0.617-0.2-0.926-0.301
			c-3.962-2.711-7.923-5.421-11.884-8.131l0.014,0.011c-1.276-2.329-3.024-4.265-5.013-5.999l0.014,0.013
			c-0.658-1.871-1.733-3.473-3.146-4.855c-0.129-0.313-0.258-0.625-0.388-0.938c-0.982-2.338-1.966-4.676-2.948-7.014
			c-0.258-0.841-0.515-1.682-0.772-2.522l0.184,0.018L339.927,440.254z M792.039,374.847c4.81-5.562,10.49-10.181,16.099-14.879
			c1.77-0.912,3.548-1.808,5.308-2.739c9.932-5.259,20.483-7.776,31.734-7.159c16.635,0.914,26.456,11.07,27.784,28.748
			c1.013,13.477,0.592,26.979,0.618,40.47c0.056,28.996,0.092,57.991-0.074,86.985c-0.022,3.767,0.947,4.727,4.693,4.658
			c13.159-0.238,26.327-0.122,39.491-0.029c2.905,0.021,4.466-0.355,4.451-4.01c-0.178-44.657-0.02-89.317-0.317-133.974
			c-0.095-14.229-3.811-27.657-12.427-39.346c-11.21-15.207-26.734-22.438-45.151-24.211c-25.911-2.496-48.772,4.276-67.771,22.536
			c-2.791,2.683-5.291,5.669-8.403,9.029c-1.416-8.439-2.856-16.121-3.917-23.854c-0.358-2.613-1.381-3.238-3.785-3.219
			c-11.164,0.089-22.331,0.138-33.493-0.029c-2.965-0.045-3.672,1.04-3.616,3.75c0.135,6.662,0.031,13.33,0.031,19.995
			c-0.001,55.824,0.066,111.649-0.117,167.473c-0.016,4.904,1.35,6.081,6.097,5.942c12.32-0.359,24.663-0.328,36.987-0.035
			c4.434,0.105,5.8-0.914,5.782-5.627C791.876,461.832,792,418.339,792.039,374.847z M556.167,341.456
			c-1.52-8.991-3.023-16.665-4.012-24.404c-0.342-2.678-1.247-3.218-3.649-3.198c-11.164,0.09-22.331,0.141-33.493-0.037
			c-3.204-0.051-3.871,1.156-3.868,4.084c0.075,62.99,0.099,125.981-0.004,188.972c-0.006,3.596,1.456,4.018,4.42,3.992
			c13.163-0.112,26.331-0.19,39.491,0.032c3.892,0.066,4.975-1.002,4.96-4.973c-0.156-40.493,0.082-80.989-0.263-121.48
			c-0.061-7.125,1.831-12.27,7.159-16.906c14.658-12.755,31.146-19.821,50.82-16.818c12.463,1.903,20.028,9.947,22.417,22.275
			c1.182,6.099,1.318,12.252,1.331,18.401c0.079,38.161,0.119,76.322-0.006,114.482c-0.012,3.853,0.877,5.105,4.911,5.024
			c12.826-0.257,25.664-0.238,38.489,0.036c4.076,0.087,5.289-0.933,5.272-5.16c-0.168-41.327-0.101-82.654-0.109-123.982
			c-0.001-6.165-0.042-12.338-0.966-18.449c-2.908-19.252-11.252-35.678-28.679-45.065c-27.241-14.674-54.741-12.454-81.454,2.37
			C570.125,325.54,563.048,332.531,556.167,341.456z M1213.808,465.397c4.25-0.162,6.17-3.126,8.324-5.489
			c22.436-24.617,31.604-53.509,26.896-86.477c-4.412-30.903-20.322-54.684-46.319-71.742
			c-23.642-15.513-49.594-19.148-76.954-13.999c-40.703,7.662-74.362,41.97-80.608,82.533c-4.843,31.448,1.762,60.241,22.378,85.068
			c8.157,9.823,17.133,18.679,31.127,19.496c5.303,0.31,10.557,1.419,15.859,1.766c12.146,0.795,24.309,0.827,36.07-2.831
			c7.184-2.234,13.479-6.089,16.259-13.614c3.773-10.215-1.427-19.41-13.063-24.315c-12.774-5.385-26.582-7.137-39.611-11.648
			c-11.067-3.833-21.846-7.998-30.189-16.647c-12.579-13.04-13.844-29.254-11.359-45.737c4.933-32.737,29.696-48.104,58.149-51.764
			c25.157-3.236,49.662,0.875,73.753,8.141c2.467,0.743,3.254,1.942,3.221,4.567c-0.127,10.148-0.006,20.302,0.137,30.451
			c0.043,3.028-0.622,4.223-4.049,3.329c-11.563-3.013-23.177-5.815-35.093-7.169c-12.07-1.371-24.145-3.019-36.08,0.687
			c-7.455,2.314-13.185,6.676-14.408,14.91c-1.188,7.997,1.698,14.222,8.898,18.434c5.386,3.151,11.19,4.988,17.142,6.553
			c12.022,3.16,24.178,5.828,35.945,9.927c22.379,7.797,34.733,25.02,34.935,48.614
			C1215.214,454.099,1215.042,459.725,1213.808,465.397z M261.219,470.257c-2.223,0.457-3.85,0.746-5.454,1.13
			c-9.764,2.335-19.651,3.56-29.699,3.265c-17.225-0.506-24.456-7.804-24.8-24.973c-0.034-1.666-0.028-3.333-0.029-4.999
			c-0.011-28.83,0.052-57.659-0.121-86.488c-0.021-3.603,1.025-4.424,4.446-4.388c15.996,0.172,31.996-0.022,47.991,0.167
			c3.591,0.042,4.882-0.704,4.769-4.601c-0.301-10.322-0.308-20.666,0.003-30.988c0.119-3.949-1.259-4.609-4.799-4.569
			c-15.996,0.18-31.995-0.013-47.991,0.165c-3.463,0.038-4.468-0.849-4.42-4.418c0.205-15.495-0.021-30.995,0.128-46.491
			c0.032-3.296-0.943-4.254-4.218-4.212c-13.163,0.168-26.332,0.245-39.491-0.032c-4.153-0.088-4.908,1.402-4.86,5.132
			c0.194,15.162,0.013,30.328,0.173,45.491c0.036,3.359-0.753,4.652-4.394,4.531c-8.323-0.278-16.663,0.002-24.993-0.142
			c-2.565-0.044-3.439,0.625-3.404,3.321c0.147,11.163,0.151,22.331-0.001,33.494c-0.037,2.736,0.917,3.33,3.436,3.287
			c7.997-0.138,16.016,0.282,23.989-0.177c4.686-0.271,5.458,1.406,5.399,5.601c-0.227,16.328-0.134,32.661-0.083,48.992
			c0.059,18.825-0.233,37.665,0.412,56.472c0.805,23.474,12.071,38.634,34.402,46.25c23.499,8.016,47.275,5.565,70.947,0.267
			c1.528-0.342,2.708-0.888,2.697-2.907C261.185,495.813,261.219,483.188,261.219,470.257z M1024.042,412.595
			c0-31.138-0.066-62.276,0.084-93.414c0.02-3.875-0.516-5.519-4.996-5.403c-12.979,0.333-25.974,0.205-38.96,0.048
			c-3.365-0.041-4.651,0.84-4.646,4.441c0.096,62.775,0.092,125.552,0.022,188.328c-0.003,3.176,0.868,4.309,4.199,4.265
			c13.152-0.172,26.31-0.196,39.461,0.019c3.791,0.063,4.957-0.891,4.934-4.869C1023.963,474.873,1024.042,443.734,1024.042,412.595
			z M344.665,212.431c6.609,17.633,15.395,33.728,22.274,50.646c2.573,6.329,6.001,8.386,12.645,8c4.628-0.27,6.602-1.3,7.518-6.026
			c4.295-22.175,8.843-44.303,13.553-66.395c2.58-12.098,1.806-9.254-7.574-9.828c-4.658-0.285-6.224,1.489-7.048,5.853
			c-3.288,17.422-6.942,34.774-10.569,52.685c-6.453-17.342-15.303-33.211-22.003-50.006c-2.747-6.889-6.52-9.246-13.732-8.641
			c-4.078,0.342-5.757,1.333-6.533,5.324c-4.313,22.164-8.854,44.284-13.307,66.422c-2.153,10.71-2.144,10.604,8.911,10.434
			c2.787-0.043,4.315-0.729,4.879-3.579C337.25,249.25,340.9,231.195,344.665,212.431z M857.891,250.085
			c-0.654-9.366-1.396-18.727-1.938-28.1c-0.585-10.109-0.509-9.905-10.543-10.198c-3.926-0.114-5.863,1.05-7.375,4.732
			c-4.582,11.155-9.341,22.238-13.702,34.956c-1.735-10.73-3.104-20.07-4.782-29.354c-1.971-10.898-2.083-10.775-13.029-10.3
			c-3.049,0.133-3.599,1.092-3.017,3.952c3.111,15.289,5.972,30.629,9.072,45.92c1.885,9.297,2.013,9.085,11.542,9.244
			c3.811,0.064,5.543-1.246,6.796-4.814c3.189-9.081,6.856-17.994,10.304-26.985c0.443-1.155,0.938-2.212,2.369-2.13
			c1.73,0.099,1.44,1.52,1.528,2.622c0.633,7.946,1.352,15.887,1.838,23.842c0.45,7.365,0.338,7.372,7.696,7.392
			c0.666,0.002,1.348-0.088,1.996,0.02c3.883,0.644,5.935-1.108,7.705-4.58c3.765-7.381,8.106-14.467,12.192-21.685
			c6.024-10.642,12.032-21.292,18.5-32.742c-4.634,0-8.417,0.208-12.166-0.062c-3.479-0.249-5.367,1.019-6.936,4.196
			C870.301,227.438,863.754,238.406,857.891,250.085z M974.21,242.083c0.006,0,0.012,0,0.018,0c0,7.484,0.086,14.97-0.047,22.452
			c-0.046,2.584,0.779,3.451,3.407,3.432c14.636-0.107,29.274-0.15,43.909,0.01c3.195,0.035,3.818-1.077,3.789-4.014
			c-0.147-14.635-0.181-29.272-0.008-43.906c0.038-3.252-0.818-4.286-4.115-4.25c-14.303,0.156-28.609,0.167-42.912,0.003
			c-3.381-0.038-4.186,1.184-4.103,4.32C974.342,227.443,974.21,234.765,974.21,242.083z M485.879,272.882
			c8.079,0.375,14.533-2.437,19.562-7.979c9.415-10.38,13.522-22.91,12.224-36.699c-1.232-13.085-8.262-19.115-19.563-18.309
			c-3.926,0.28-7.402,1.748-10.247,4.563c-1.019,1.008-3.352,2.427-3.489,1.358c-0.851-6.619-5.746-3.21-8.85-3.881
			c-3.679-0.794-4.98,0.98-5.735,4.745c-4.985,24.866-10.469,49.632-15.461,74.497c-1.623,8.081-3.297,7.714,6.274,7.705
			c1.331-0.002,2.667-0.098,3.991-0.008c2.207,0.151,3.149-0.674,3.595-2.989c1.439-7.489,3.236-14.91,4.812-22.375
			c0.603-2.859,1.757-4.26,4.688-2.41C480.333,272.777,483.263,273.134,485.879,272.882z M1222.201,214.534
			c1.721-8.449,3.387-16.362,4.934-24.3c1.436-7.369,1.349-6.964-6.146-7.513c-5.512-0.403-7.379,1.601-8.39,6.813
			c-3.849,19.849-8.305,39.579-12.272,59.406c-2.368,11.831,3.373,21.284,14.404,23.497c7.664,1.538,15.178,0.411,22.074-3.741
			c14.606-8.793,19.943-29.675,17.536-43.273c-1.632-9.217-8.536-16.503-19.64-15.668
			C1230.111,210.1,1226.583,212.376,1222.201,214.534z M543.617,216.295c1.731-8.343,3.178-15.453,4.688-22.55
			c2.426-11.403,2.447-11.316-9.077-10.848c-2.686,0.109-3.681,1.029-4.21,3.663c-4.962,24.716-10.115,49.393-15.129,74.098
			c-2.212,10.897-2.128,10.844,9.067,10.227c2.64-0.146,3.688-1.034,4.19-3.718c1.767-9.457,3.852-18.854,5.839-28.269
			c1.374-6.508,4.736-11.516,10.595-14.967c3.611-2.127,7.188-2.852,10.82-0.849c3.896,2.147,2.996,6.133,2.405,9.44
			c-1.632,9.137-3.769,18.183-5.514,27.3c-2.566,13.409-4.909,10.646,9.472,11.055c2.298,0.065,3.177-0.881,3.564-3.099
			c0.627-3.588,1.872-7.073,2.426-10.668c1.69-10.968,5.635-21.567,5.421-32.841c-0.157-8.237-5.945-13.82-14.18-14.446
			C556.712,209.272,550.402,211.6,543.617,216.295z M435.483,264.034c3.746,7.884,7.815,9.95,15.75,8.797
			c5.116-0.744,3.887-5.012,4.725-8.092c0.713-2.625-0.381-3.877-3.231-4.181c-3.115-0.333-3.794-2.252-3.126-5.404
			c2.75-12.989,5.205-26.041,7.788-39.066c0.281-1.42,1.223-2.932-0.52-4.012c-2.026-1.257-11.186,0.096-12.347,2.062
			c-1.165,1.971-1.949,1.552-3.43,0.435c-9.717-7.336-20.098-6.65-28.505,2.282c-10.928,11.61-14.09,25.952-12.013,41.173
			c1.657,12.147,10.772,17.058,22.785,14.087C428.316,270.888,431.778,267.681,435.483,264.034z M776.856,264.038
			c1.797,8.68,7.993,9.421,14.954,8.826c1.698-0.145,3.675-0.115,3.961-2.188c0.427-3.093,1.91-6.046,1.331-9.244
			c-0.054-0.3-1.142-0.581-1.752-0.586c-5.481-0.044-5.573-3.063-4.616-7.396c2.752-12.463,5.192-24.995,7.759-37.499
			c0.259-1.264,0.976-2.597-0.324-3.676c-1.616-1.343-11.3-0.237-12.433,1.679c-1.282,2.17-2.264,1.922-3.751,0.386
			c-6.998-7.229-21.583-6.032-29.297,3.194c-9.393,11.236-12.745,24.453-11.329,38.627c1.48,14.828,12.434,20.408,26.311,14.581
			C771.193,269.261,773.498,266.464,776.856,264.038z M1048.055,239.172c0,2.832-0.172,5.677,0.03,8.493
			c0.81,11.262,9.788,21.733,20.79,24.042c9.566,2.007,19.146,1.87,28.628-0.723c3.89-1.064,8.104-10.005,6.525-13.654
			c-0.785-1.813-1.884-0.709-2.884-0.482c-3.72,0.846-7.389,2.097-11.153,2.529c-16.493,1.896-28.181-3.686-27.012-22.338
			c0.063-0.996-0.033-2.006,0.064-2.997c1.559-15.704,9.992-30.668,27.961-33.692c5.869-0.987,11.583-0.023,17.313,1.055
			c1.704,0.32,3.54,1.269,4.619-1.273c3.671-8.649,2.328-11.083-6.953-12.328c-0.82-0.11-1.621-0.384-2.442-0.476
			c-16.135-1.799-30.89,0.675-42.206,13.71C1051.836,211.979,1047.751,224.834,1048.055,239.172z M930.41,270.865
			c2.21-0.798,6.518,1.882,7.318-2.347c2.625-13.846,6.549-27.452,8.13-41.478c0.84-7.448-2.179-12.669-8.465-15.418
			c-8.145-3.563-15.875-2.183-23.116,2.752c-1.214,0.827-3.509,3.078-3.892,1.259c-1.416-6.729-6.338-2.832-9.563-3.698
			c-2.83-0.761-4.108,1.003-4.646,3.714c-3.03,15.295-6.169,30.567-9.239,45.854c-1.894,9.428-1.864,9.245,7.986,9.439
			c3.739,0.074,5.272-1.115,5.918-4.759c1.562-8.816,3.42-17.583,5.292-26.341c1.204-5.637,3.433-10.742,8.335-14.283
			c4.089-2.954,8.502-5.447,13.284-2.274c4.529,3.004,2.579,7.946,1.888,11.994c-1.62,9.485-3.802,18.874-5.71,28.312
			C922.465,270.837,922.497,270.843,930.41,270.865z M1161.558,272.897c1.998,0,2.998,0.025,3.996-0.004
			c10.845-0.322,22.11-6.05,24.708-18.353c2.329-11.029,4.667-22.058,7.077-33.069c2.102-9.604,2.139-9.333-7.388-9.707
			c-4.38-0.172-6.036,1.312-6.817,5.472c-2.111,11.237-4.598,22.405-6.973,33.592c-1.176,5.541-5.934,9.599-11.541,9.95
			c-6.354,0.398-10.203-3.606-9.087-9.852c1.723-9.637,3.496-19.274,5.63-28.826c2.313-10.352,2.501-10.152-8.043-10.32
			c-3.446-0.056-5.018,0.858-5.665,4.365c-2.197,11.905-4.796,23.737-7.016,35.639c-1.829,9.803,3.619,17.797,13.228,20.242
			C1156.626,272.779,1159.562,272.941,1161.558,272.897z M705.544,270.883c5.996,0,11.994,0.077,17.989-0.017
			c11.153-0.174,8.125,1.172,10.636-9.148c0.816-3.357-0.354-3.945-3.357-3.908c-10.326,0.128-20.655-0.006-30.981,0.103
			c-2.554,0.026-3.506-0.396-2.877-3.303c3.969-18.326,7.64-36.718,11.655-55.034c2.384-10.872,2.585-10.662-8.463-10.77
			c-3.57-0.034-5.141,1.203-5.727,4.548c-0.774,4.413-1.789,8.783-2.692,13.174c-4.148,20.155-8.283,40.313-12.452,60.465
			c-0.577,2.791,0.294,3.977,3.283,3.928C690.218,270.797,697.882,270.879,705.544,270.883z M627.864,182.874
			c-7.396,0.009-7.473-0.008-9.024,7.42c-3.627,17.354-7.205,34.719-10.734,52.094c-1.283,6.317-3.325,12.501-3.143,19.085
			c0.199,7.181,2.88,10.534,9.844,11.348c2.785,0.325,5.716,0.422,8.455-0.072c5.36-0.966,3.292-6.092,4.521-9.307
			c1.025-2.682-1.641-2.697-3.373-2.897c-3.982-0.461-4.763-2.624-3.991-6.274c4.625-21.886,9.117-43.799,13.671-65.699
			c1.185-5.699,1.213-5.693-4.729-5.701C628.862,182.868,628.363,182.869,627.864,182.874z M654.583,182.887
			c-7.223,0.025-7.14,0.043-8.717,7.686c-3.081,14.929-6.485,29.795-9.325,44.769c-1.724,9.087-5.07,17.933-4.567,27.389
			c0.334,6.293,4.103,9.858,10.606,10.145c9.958,0.438,11.035-0.29,12.288-8.419c0.347-2.252,0.707-4.189-2.967-3.765
			c-3.97,0.458-5.241-1.939-4.463-5.717c4.649-22.556,9.162-45.14,13.971-67.661c0.739-3.464,0.132-4.686-3.335-4.438
			C656.917,182.958,655.748,182.888,654.583,182.887z M1124.359,272.899c7.958-0.019,7.939-0.022,9.442-8.036
			c0.467-2.492,0.332-4.275-2.994-4.118c-4.486,0.212-5.265-2.418-4.472-6.207c4.691-22.426,9.27-44.877,14.094-67.273
			c0.738-3.427,0.079-4.7-3.406-4.424c-1.491,0.118-3.039,0.255-4.491-0.006c-5.159-0.925-6.722,1.618-7.602,6.337
			c-2.586,13.868-5.864,27.606-8.52,41.464c-1.811,9.45-4.754,18.721-5.345,28.361
			C1110.424,269.458,1113.972,272.923,1124.359,272.899z M585.424,270.866c8.83-0.212,6.837,1.145,8.667-7.158
			c2.996-13.583,5.817-27.204,8.669-40.818c2.951-14.092,3.498-10.448-9.525-11.035c-2.594-0.117-3.544,1.244-3.993,3.417
			c-3.58,17.349-7.127,34.704-10.781,52.036c-0.58,2.75,0.343,3.709,2.977,3.563C582.762,270.795,584.095,270.856,585.424,270.866z
			 M600.933,197.891c1.96-1.213,6.354,2.244,7.493-2.197c1.085-4.225,3.901-9.34,1.896-12.77c-1.711-2.924-7.35-0.639-11.225-1.041
			c-0.163-0.018-0.331,0.018-0.496,0.008c-1.961-0.12-3.083,0.744-3.445,2.722c-0.594,3.243-1.268,6.473-1.935,9.702
			c-0.521,2.523,0.333,3.793,3.051,3.593C597.587,197.812,598.917,197.891,600.933,197.891z"/>
		<path fill-rule="evenodd" clip-rule="evenodd" fill="#FBFDFB" d="M438.207,327.796c0.254,0.191,0.508,0.383,0.762,0.575
			c1.249,2.295,0.469,6.553,5.252,5.429c0.373,0.001,0.639,0.171,0.798,0.51c-0.019,0.26,0.093,0.434,0.335,0.521
			c0.544,0.765,1.087,1.529,1.631,2.294c-0.006,1.442,0.187,2.736,2.078,2.741c0.303,0.429,0.605,0.858,0.908,1.287
			c0.86,3.405,1.437,6.979,5.168,8.676l-0.032-0.034c0.256,0.383,0.513,0.767,0.769,1.149l0.045,0.219
			c-1.394,5.152,2.182,9.3,3.708,13.466c4.403,12.017,6.063,24.267,6.38,36.827c0.146,5.776-0.014,11.552-0.592,17.365
			c-0.667,6.703-0.335,7.053-6.834,7.055c-36.436,0.008-72.871,0.009-109.307,0.002c-1.326,0-3.022,0.403-3.913-0.247
			c-3.34-2.439-5.282-0.046-7.491,1.714l0.094,0.254l-0.191,0.191c-0.654,0.125-1.353,0.319-1.327,1.112
			c0.026,0.806,0.748,0.923,1.405,0.996c0.041,0.674,0.081,1.348,0.122,2.022c-2.272,3.347,0.612,5.497,1.862,8.027l0.092,0.306
			l0.042,0.153c0.258,0.841,0.515,1.682,0.772,2.522c-0.43,2.932-2.96,6.746,2.948,7.014c0.13,0.313,0.259,0.625,0.388,0.937
			c0.03,2.278-0.48,4.907,3.146,4.856c0,0-0.014-0.013-0.015-0.013c-0.291,3.64,1.58,5.473,5.014,5.999l-0.014-0.011
			c1.346,6.145,3.277,7.466,11.884,8.131c0.309,0.101,0.617,0.201,0.926,0.301c2.186,3.383,5.4,4.19,9.15,3.653
			c28.211,6.256,55.527,1.694,82.478-6.93c2.761-0.883,3.953-0.667,3.929,2.558c-0.081,10.661-0.114,21.325,0.06,31.985
			c0.056,3.405-2.079,4.079-4.534,4.866c-17.685,5.673-35.851,8.715-54.359,9.554c-19.762,0.896-39.326-0.543-57.937-7.868
			c-31.371-12.35-48.378-36.254-53.734-68.868c-3.948-24.038-2.667-47.859,6.048-70.808c10.901-28.707,30.748-48.33,60.792-56.226
			c22.918-6.021,45.498-4.387,67.13,5.973c0.098,1.128-0.413,2.696,0.665,3.255C429.138,323.587,433.696,325.648,438.207,327.796z
			 M378.707,388.908c0,0.01,0,0.021,0,0.03c11.499,0,22.998,0.021,34.496-0.022c1.843-0.007,4.07,0.673,3.955-2.753
			c-0.94-27.853-21.145-44.697-47.291-37.549c-17.914,4.897-25.567,18.847-29.23,35.823c-0.755,3.498-0.346,4.651,3.577,4.563
			C355.706,388.741,367.208,388.908,378.707,388.908z"/>
		<path fill-rule="evenodd" clip-rule="evenodd" fill="#FBFDFB" d="M556.167,341.456c6.882-8.925,13.959-15.916,22.769-20.805
			c26.713-14.824,54.213-17.044,81.454-2.37c17.427,9.388,25.771,25.813,28.679,45.065c0.924,6.111,0.965,12.284,0.966,18.449
			c0.009,41.328-0.059,82.655,0.109,123.982c0.017,4.228-1.196,5.247-5.272,5.16c-12.825-0.274-25.663-0.293-38.489-0.036
			c-4.034,0.081-4.923-1.172-4.911-5.024c0.125-38.16,0.085-76.321,0.006-114.482c-0.013-6.149-0.149-12.303-1.331-18.401
			c-2.389-12.328-9.954-20.372-22.417-22.275c-19.674-3.003-36.162,4.063-50.82,16.818c-5.328,4.637-7.22,9.781-7.159,16.906
			c0.345,40.491,0.106,80.987,0.263,121.48c0.015,3.971-1.068,5.039-4.96,4.973c-13.16-0.223-26.328-0.145-39.491-0.032
			c-2.964,0.025-4.426-0.396-4.42-3.992c0.103-62.99,0.079-125.981,0.004-188.972c-0.003-2.928,0.664-4.135,3.868-4.084
			c11.162,0.178,22.329,0.127,33.493,0.037c2.402-0.02,3.308,0.521,3.649,3.198C553.143,324.791,554.647,332.464,556.167,341.456z"
			/>
		<path fill-rule="evenodd" clip-rule="evenodd" fill="#FBFDFB" d="M792.039,374.847c-0.039,43.492-0.162,86.984,0.003,130.476
			c0.018,4.713-1.349,5.732-5.782,5.627c-12.324-0.293-24.667-0.324-36.987,0.035c-4.747,0.139-6.112-1.038-6.097-5.942
			c0.184-55.823,0.116-111.648,0.117-167.473c0-6.665,0.104-13.333-0.031-19.995c-0.056-2.71,0.651-3.795,3.616-3.75
			c11.162,0.167,22.329,0.118,33.493,0.029c2.404-0.02,3.427,0.605,3.785,3.219c1.061,7.733,2.501,15.415,3.917,23.854
			c3.112-3.36,5.612-6.347,8.403-9.029c18.999-18.26,41.86-25.032,67.771-22.536c18.417,1.773,33.941,9.004,45.151,24.211
			c8.616,11.688,12.332,25.117,12.427,39.346c0.298,44.656,0.14,89.316,0.317,133.974c0.015,3.654-1.546,4.03-4.451,4.01
			c-13.164-0.093-26.332-0.209-39.491,0.029c-3.746,0.068-4.716-0.892-4.693-4.658c0.166-28.994,0.13-57.989,0.074-86.985
			c-0.026-13.491,0.395-26.993-0.618-40.47c-1.328-17.678-11.149-27.834-27.784-28.748c-11.251-0.617-21.803,1.9-31.734,7.159
			c-1.76,0.932-3.538,1.827-5.308,2.739c-2.813-1.534-5.917-0.467-6.835,1.676c-1.619,3.779-5.611,4.938-7.449,8.297
			C792.977,371.542,791.873,372.915,792.039,374.847z"/>
		<path fill-rule="evenodd" clip-rule="evenodd" fill="#FCF002" d="M1213.808,465.397c1.234-5.672,1.406-11.298,1.358-16.958
			c-0.201-23.595-12.556-40.817-34.935-48.614c-11.768-4.099-23.923-6.767-35.945-9.927c-5.951-1.564-11.756-3.401-17.142-6.553
			c-7.2-4.212-10.087-10.437-8.898-18.434c1.224-8.234,6.953-12.596,14.408-14.91c11.936-3.705,24.01-2.058,36.08-0.687
			c11.916,1.354,23.53,4.156,35.093,7.169c3.427,0.894,4.092-0.301,4.049-3.329c-0.143-10.149-0.264-20.303-0.137-30.451
			c0.033-2.625-0.754-3.824-3.221-4.567c-24.091-7.266-48.596-11.377-73.753-8.141c-28.453,3.66-53.217,19.026-58.149,51.764
			c-2.484,16.483-1.22,32.697,11.359,45.737c8.344,8.649,19.122,12.814,30.189,16.647c13.029,4.512,26.837,6.264,39.611,11.648
			c11.637,4.905,16.837,14.101,13.063,24.315c-2.78,7.525-9.075,11.38-16.259,13.614c-11.762,3.658-23.925,3.626-36.07,2.831
			c-5.303-0.347-10.557-1.456-15.859-1.766c-13.994-0.817-22.97-9.673-31.127-19.496c-20.616-24.827-27.221-53.62-22.378-85.068
			c6.246-40.563,39.905-74.871,80.608-82.533c27.36-5.149,53.313-1.514,76.954,13.999c25.997,17.059,41.907,40.839,46.319,71.742
			c4.707,32.968-4.461,61.859-26.896,86.477C1219.978,462.271,1218.058,465.235,1213.808,465.397z"/>
		<path fill-rule="evenodd" clip-rule="evenodd" fill="#FBFDFB" d="M261.219,470.257c0,12.931-0.034,25.556,0.035,38.18
			c0.011,2.02-1.169,2.565-2.697,2.907c-23.672,5.299-47.448,7.749-70.947-0.267c-22.331-7.616-33.597-22.776-34.402-46.25
			c-0.646-18.807-0.354-37.646-0.412-56.472c-0.051-16.331-0.145-32.664,0.083-48.992c0.058-4.194-0.713-5.871-5.399-5.601
			c-7.973,0.459-15.992,0.039-23.989,0.177c-2.52,0.043-3.473-0.551-3.436-3.287c0.152-11.163,0.149-22.331,0.001-33.494
			c-0.036-2.696,0.839-3.365,3.404-3.321c8.33,0.144,16.67-0.137,24.993,0.142c3.641,0.121,4.429-1.172,4.394-4.531
			c-0.161-15.163,0.021-30.329-0.173-45.491c-0.048-3.729,0.707-5.22,4.86-5.132c13.159,0.277,26.329,0.2,39.491,0.032
			c3.275-0.042,4.25,0.916,4.218,4.212c-0.15,15.496,0.076,30.996-0.128,46.491c-0.047,3.569,0.957,4.456,4.42,4.418
			c15.996-0.178,31.995,0.015,47.991-0.165c3.54-0.04,4.918,0.62,4.799,4.569c-0.311,10.322-0.304,20.666-0.003,30.988
			c0.113,3.896-1.178,4.643-4.769,4.601c-15.995-0.189-31.995,0.005-47.991-0.167c-3.421-0.036-4.468,0.785-4.446,4.388
			c0.173,28.829,0.11,57.658,0.121,86.488c0,1.666-0.005,3.333,0.029,4.999c0.344,17.169,7.576,24.467,24.8,24.973
			c10.048,0.295,19.936-0.93,29.699-3.265C257.37,471.003,258.997,470.714,261.219,470.257z"/>
		<path fill-rule="evenodd" clip-rule="evenodd" fill="#FEFEFE" d="M1024.042,412.595c0,31.139-0.079,62.277,0.099,93.414
			c0.023,3.979-1.143,4.932-4.934,4.869c-13.151-0.215-26.309-0.19-39.461-0.019c-3.331,0.044-4.202-1.089-4.199-4.265
			c0.069-62.776,0.073-125.553-0.022-188.328c-0.006-3.602,1.28-4.482,4.646-4.441c12.986,0.157,25.981,0.285,38.96-0.048
			c4.48-0.115,5.016,1.528,4.996,5.403C1023.976,350.319,1024.042,381.458,1024.042,412.595z"/>
		<path fill-rule="evenodd" clip-rule="evenodd" fill="#050703" d="M344.665,212.431c-3.765,18.764-7.414,36.818-10.987,54.888
			c-0.563,2.85-2.092,3.536-4.879,3.579c-11.055,0.171-11.064,0.276-8.911-10.434c4.452-22.138,8.994-44.258,13.307-66.422
			c0.776-3.991,2.455-4.982,6.533-5.324c7.213-0.605,10.985,1.752,13.732,8.641c6.7,16.795,15.55,32.664,22.003,50.006
			c3.627-17.91,7.281-35.263,10.569-52.685c0.824-4.363,2.39-6.138,7.048-5.853c9.38,0.574,10.154-2.27,7.574,9.828
			c-4.71,22.092-9.258,44.22-13.553,66.395c-0.916,4.727-2.89,5.757-7.518,6.026c-6.644,0.386-10.071-1.671-12.645-8
			C360.059,246.159,351.274,230.064,344.665,212.431z"/>
		<path fill-rule="evenodd" clip-rule="evenodd" fill="#050703" d="M857.891,250.085c5.863-11.68,12.41-22.647,18.051-34.074
			c1.568-3.178,3.457-4.445,6.936-4.196c3.749,0.27,7.532,0.062,12.166,0.062c-6.468,11.45-12.476,22.101-18.5,32.742
			c-4.086,7.218-8.428,14.304-12.192,21.685c-1.771,3.472-3.822,5.224-7.705,4.58c-0.648-0.107-1.33-0.018-1.996-0.02
			c-7.358-0.02-7.246-0.026-7.696-7.392c-0.486-7.955-1.205-15.896-1.838-23.842c-0.088-1.103,0.202-2.523-1.528-2.622
			c-1.432-0.082-1.926,0.975-2.369,2.13c-3.447,8.991-7.114,17.904-10.304,26.985c-1.253,3.568-2.985,4.879-6.796,4.814
			c-9.529-0.159-9.657,0.053-11.542-9.244c-3.101-15.291-5.961-30.631-9.072-45.92c-0.582-2.86-0.032-3.819,3.017-3.952
			c10.946-0.476,11.059-0.599,13.029,10.3c1.679,9.284,3.047,18.624,4.782,29.354c4.361-12.718,9.12-23.801,13.702-34.956
			c1.512-3.683,3.449-4.847,7.375-4.732c10.034,0.293,9.958,0.089,10.543,10.198C856.495,231.359,857.237,240.719,857.891,250.085z"
			/>
		<path fill-rule="evenodd" clip-rule="evenodd" fill="#FBFDFB" d="M974.21,242.083c0-7.318,0.132-14.641-0.062-21.953
			c-0.083-3.137,0.722-4.358,4.103-4.32c14.303,0.164,28.609,0.153,42.912-0.003c3.297-0.036,4.153,0.998,4.115,4.25
			c-0.173,14.634-0.14,29.271,0.008,43.906c0.029,2.937-0.594,4.049-3.789,4.014c-14.635-0.16-29.273-0.117-43.909-0.01
			c-2.628,0.02-3.453-0.848-3.407-3.432c0.133-7.482,0.047-14.968,0.047-22.452C974.222,242.083,974.216,242.083,974.21,242.083z"/>
		<path fill-rule="evenodd" clip-rule="evenodd" fill="#050703" d="M485.879,272.882c-2.616,0.252-5.546-0.105-8.201-1.782
			c-2.931-1.85-4.085-0.449-4.688,2.41c-1.575,7.465-3.372,14.886-4.812,22.375c-0.445,2.315-1.388,3.141-3.595,2.989
			c-1.324-0.09-2.66,0.006-3.991,0.008c-9.571,0.009-7.897,0.376-6.274-7.705c4.992-24.865,10.476-49.631,15.461-74.497
			c0.755-3.765,2.057-5.539,5.735-4.745c3.104,0.671,7.999-2.738,8.85,3.881c0.138,1.068,2.471-0.351,3.489-1.358
			c2.845-2.814,6.321-4.282,10.247-4.563c11.302-0.807,18.331,5.224,19.563,18.309c1.299,13.789-2.809,26.319-12.224,36.699
			C500.413,270.446,493.958,273.257,485.879,272.882z M502.964,234.513c0.171-6.702-1.377-11.053-4.157-12.069
			c-4.112-1.505-7.393,0.73-10.493,3.035c-2.876,2.138-4.624,5.176-6.108,8.353c-3.199,6.846-3.699,14.379-5.487,21.586
			c-0.661,2.662,1.296,3.247,2.742,3.985c4.833,2.466,9.681,1.695,13.749-2.13C500.198,250.702,502.038,242.002,502.964,234.513z"/>
		<path fill-rule="evenodd" clip-rule="evenodd" fill="#050703" d="M1222.201,214.534c4.383-2.157,7.91-4.434,12.5-4.779
			c11.104-0.835,18.008,6.451,19.64,15.668c2.407,13.599-2.93,34.48-17.536,43.273c-6.896,4.152-14.41,5.279-22.074,3.741
			c-11.031-2.213-16.772-11.666-14.404-23.497c3.968-19.827,8.424-39.558,12.272-59.406c1.011-5.212,2.878-7.216,8.39-6.813
			c7.495,0.549,7.582,0.144,6.146,7.513C1225.587,198.171,1223.921,206.084,1222.201,214.534z M1240.095,233.131
			c0.334-4.559-0.921-8.633-5.132-10.538c-4.511-2.041-8.34,0.407-11.595,3.556c-0.945,0.913-1.875,1.929-2.509,3.066
			c-4.314,7.74-5.653,16.25-5.754,24.921c-0.056,4.747,3.39,7.255,8.016,6.498c2.804-0.458,5.275-1.508,7.434-3.635
			C1237.273,250.381,1239.261,242.002,1240.095,233.131z"/>
		<path fill-rule="evenodd" clip-rule="evenodd" fill="#050703" d="M543.617,216.295c6.785-4.695,13.096-7.023,20.378-6.471
			c8.234,0.626,14.022,6.209,14.18,14.446c0.214,11.273-3.73,21.873-5.421,32.841c-0.554,3.595-1.799,7.08-2.426,10.668
			c-0.388,2.218-1.267,3.164-3.564,3.099c-14.381-0.409-12.038,2.354-9.472-11.055c1.745-9.117,3.882-18.163,5.514-27.3
			c0.591-3.308,1.491-7.293-2.405-9.44c-3.633-2.003-7.209-1.278-10.82,0.849c-5.858,3.451-9.221,8.459-10.595,14.967
			c-1.987,9.415-4.072,18.812-5.839,28.269c-0.502,2.684-1.551,3.572-4.19,3.718c-11.195,0.617-11.279,0.671-9.067-10.227
			c5.014-24.705,10.167-49.382,15.129-74.098c0.529-2.634,1.524-3.554,4.21-3.663c11.524-0.469,11.503-0.556,9.077,10.848
			C546.794,200.842,545.348,207.953,543.617,216.295z"/>
		<path fill-rule="evenodd" clip-rule="evenodd" fill="#050703" d="M435.483,264.034c-3.705,3.647-7.167,6.854-12.123,8.08
			c-12.013,2.971-21.128-1.939-22.785-14.087c-2.077-15.221,1.085-29.563,12.013-41.173c8.407-8.933,18.788-9.618,28.505-2.282
			c1.48,1.117,2.265,1.536,3.43-0.435c1.161-1.966,10.32-3.318,12.347-2.062c1.742,1.08,0.801,2.592,0.52,4.012
			c-2.583,13.025-5.038,26.077-7.788,39.066c-0.668,3.152,0.011,5.071,3.126,5.404c2.851,0.304,3.944,1.556,3.231,4.181
			c-0.838,3.08,0.392,7.348-4.725,8.092C443.298,273.984,439.229,271.917,435.483,264.034z M415.055,249.465
			c0,1.162-0.073,2.329,0.012,3.485c0.569,7.698,5.386,9.945,11.923,5.688c3.765-2.452,6.366-5.724,7.937-9.906
			c2.104-5.607,2.959-11.539,4.569-17.26c1.365-4.848-0.577-7.115-4.692-8.748c-4.077-1.616-7.481-0.594-10.481,2.277
			C417.352,231.672,415.714,240.393,415.055,249.465z"/>
		<path fill-rule="evenodd" clip-rule="evenodd" fill="#050703" d="M776.856,264.038c-3.358,2.427-5.663,5.224-9.187,6.703
			c-13.877,5.827-24.83,0.247-26.311-14.581c-1.416-14.174,1.937-27.391,11.329-38.627c7.714-9.227,22.299-10.423,29.297-3.194
			c1.487,1.536,2.469,1.784,3.751-0.386c1.133-1.916,10.816-3.021,12.433-1.679c1.3,1.079,0.583,2.412,0.324,3.676
			c-2.566,12.504-5.007,25.036-7.759,37.499c-0.957,4.333-0.865,7.353,4.616,7.396c0.61,0.005,1.698,0.286,1.752,0.586
			c0.579,3.198-0.904,6.151-1.331,9.244c-0.286,2.073-2.263,2.044-3.961,2.188C784.849,273.458,778.653,272.717,776.856,264.038z
			 M756.067,249.127c0,1.333-0.075,2.671,0.013,3.998c0.442,6.703,4.524,9.242,10.589,6.362c4.764-2.263,7.503-6.448,9.397-11.206
			c2.414-6.061,3.335-12.513,4.808-18.818c0.451-1.932-0.061-3.535-1.673-4.878c-4.216-3.51-9.468-3.488-13.578,0.21
			C758.382,231.309,756.617,239.983,756.067,249.127z"/>
		<path fill-rule="evenodd" clip-rule="evenodd" fill="#050703" d="M1048.055,239.172c-0.304-14.338,3.781-27.193,13.28-38.135
			c11.316-13.035,26.071-15.509,42.206-13.71c0.821,0.092,1.622,0.365,2.442,0.476c9.281,1.245,10.624,3.679,6.953,12.328
			c-1.079,2.542-2.915,1.594-4.619,1.273c-5.729-1.078-11.443-2.042-17.313-1.055c-17.969,3.024-26.402,17.988-27.961,33.692
			c-0.098,0.991-0.002,2.001-0.064,2.997c-1.169,18.652,10.519,24.233,27.012,22.338c3.765-0.433,7.434-1.684,11.153-2.529
			c1-0.227,2.099-1.331,2.884,0.482c1.579,3.649-2.636,12.59-6.525,13.654c-9.482,2.593-19.062,2.729-28.628,0.723
			c-11.002-2.309-19.98-12.78-20.79-24.042C1047.883,244.849,1048.055,242.004,1048.055,239.172z"/>
		<path fill-rule="evenodd" clip-rule="evenodd" fill="#050703" d="M930.41,270.865c-7.913-0.021-7.944-0.027-6.479-7.273
			c1.908-9.438,4.09-18.826,5.71-28.312c0.691-4.048,2.642-8.99-1.888-11.994c-4.782-3.173-9.195-0.68-13.284,2.274
			c-4.902,3.541-7.131,8.646-8.335,14.283c-1.872,8.758-3.73,17.524-5.292,26.341c-0.646,3.644-2.179,4.833-5.918,4.759
			c-9.851-0.194-9.88-0.012-7.986-9.439c3.07-15.287,6.209-30.56,9.239-45.854c0.537-2.711,1.815-4.475,4.646-3.714
			c3.225,0.866,8.146-3.03,9.563,3.698c0.383,1.819,2.678-0.432,3.892-1.259c7.241-4.935,14.972-6.314,23.116-2.752
			c6.286,2.749,9.305,7.97,8.465,15.418c-1.581,14.025-5.505,27.632-8.13,41.478C936.927,272.747,932.62,270.067,930.41,270.865z"/>
		<path fill-rule="evenodd" clip-rule="evenodd" fill="#050703" d="M1161.558,272.897c-1.996,0.044-4.932-0.118-7.891-0.871
			c-9.608-2.445-15.057-10.439-13.228-20.242c2.22-11.901,4.818-23.733,7.016-35.639c0.647-3.507,2.219-4.421,5.665-4.365
			c10.544,0.168,10.355-0.031,8.043,10.32c-2.134,9.552-3.907,19.189-5.63,28.826c-1.116,6.245,2.732,10.25,9.087,9.852
			c5.607-0.352,10.365-4.409,11.541-9.95c2.375-11.187,4.861-22.354,6.973-33.592c0.781-4.16,2.438-5.644,6.817-5.472
			c9.526,0.374,9.489,0.104,7.388,9.707c-2.41,11.012-4.748,22.04-7.077,33.069c-2.598,12.303-13.863,18.03-24.708,18.353
			C1164.556,272.922,1163.556,272.897,1161.558,272.897z"/>
		<path fill-rule="evenodd" clip-rule="evenodd" fill="#050703" d="M705.544,270.881c-7.662-0.002-15.326-0.084-22.986,0.039
			c-2.989,0.049-3.86-1.137-3.283-3.928c4.169-20.151,8.304-40.31,12.452-60.465c0.903-4.391,1.918-8.761,2.692-13.174
			c0.586-3.345,2.156-4.582,5.727-4.548c11.048,0.107,10.847-0.103,8.463,10.77c-4.016,18.316-7.687,36.708-11.655,55.034
			c-0.629,2.906,0.323,3.329,2.877,3.303c10.326-0.108,20.655,0.025,30.981-0.103c3.004-0.037,4.174,0.551,3.357,3.908
			c-2.511,10.32,0.518,8.975-10.636,9.148C717.539,270.96,711.541,270.883,705.544,270.881z"/>
		<path fill-rule="evenodd" clip-rule="evenodd" fill="#050703" d="M627.864,182.872c0.499-0.003,0.998-0.004,1.497-0.003
			c5.941,0.008,5.913,0.002,4.729,5.701c-4.554,21.9-9.046,43.813-13.671,65.699c-0.771,3.65,0.009,5.813,3.991,6.274
			c1.732,0.2,4.398,0.216,3.373,2.897c-1.229,3.215,0.839,8.341-4.521,9.307c-2.739,0.494-5.67,0.397-8.455,0.072
			c-6.964-0.813-9.645-4.167-9.844-11.348c-0.183-6.584,1.859-12.768,3.143-19.085c3.529-17.375,7.107-34.739,10.734-52.094
			C620.391,182.866,620.467,182.882,627.864,182.872z"/>
		<path fill-rule="evenodd" clip-rule="evenodd" fill="#050703" d="M654.583,182.888c1.164,0,2.333,0.07,3.491-0.013
			c3.467-0.248,4.074,0.974,3.335,4.438c-4.809,22.521-9.321,45.105-13.971,67.661c-0.778,3.777,0.493,6.175,4.463,5.717
			c3.674-0.425,3.313,1.513,2.967,3.765c-1.253,8.129-2.33,8.856-12.288,8.419c-6.504-0.286-10.272-3.852-10.606-10.145
			c-0.503-9.456,2.844-18.302,4.567-27.389c2.84-14.974,6.244-29.84,9.325-44.769C647.444,182.93,647.361,182.913,654.583,182.888z"
			/>
		<path fill-rule="evenodd" clip-rule="evenodd" fill="#050703" d="M1124.359,272.899c-10.387,0.024-13.935-3.44-13.293-13.902
			c0.591-9.641,3.534-18.911,5.345-28.361c2.655-13.857,5.934-27.596,8.52-41.464c0.88-4.719,2.442-7.262,7.602-6.337
			c1.452,0.261,3,0.124,4.491,0.006c3.485-0.276,4.145,0.997,3.406,4.424c-4.824,22.396-9.402,44.848-14.094,67.273
			c-0.793,3.789-0.015,6.419,4.472,6.207c3.326-0.157,3.461,1.626,2.994,4.118C1132.298,272.876,1132.317,272.88,1124.359,272.899z"
			/>
		<path fill-rule="evenodd" clip-rule="evenodd" fill="#050703" d="M585.424,270.861c-1.329-0.005-2.662-0.065-3.987,0.009
			c-2.634,0.146-3.557-0.813-2.977-3.563c3.654-17.332,7.201-34.688,10.781-52.036c0.449-2.173,1.399-3.534,3.993-3.417
			c13.023,0.587,12.477-3.057,9.525,11.035c-2.852,13.614-5.673,27.235-8.669,40.818
			C592.261,272.01,594.254,270.654,585.424,270.861z"/>
		<path fill-rule="evenodd" clip-rule="evenodd" fill="#E5E5E5" d="M337.871,427.345c2.209-1.76,4.151-4.153,7.491-1.714
			c0.891,0.65,2.587,0.247,3.913,0.247c36.436,0.007,72.871,0.006,109.307-0.002c6.499-0.002,6.167-0.352,6.834-7.055
			c0.578-5.813,0.737-11.589,0.592-17.365c-0.317-12.561-1.977-24.811-6.38-36.827c-1.526-4.166-5.102-8.313-3.708-13.466
			c8.699,16.634,11.197,34.665,11.753,53.082c0.19,6.311-0.313,12.64-0.286,18.959c0.014,3.074-1.204,3.792-4.164,3.784
			c-39.468-0.095-78.937-0.063-118.404-0.033C342.502,426.958,340.186,427.209,337.871,427.345z"/>
		<path fill-rule="evenodd" clip-rule="evenodd" fill="#050703" d="M600.933,197.891c-2.017,0-3.346-0.079-4.661,0.017
			c-2.718,0.2-3.571-1.069-3.051-3.593c0.667-3.229,1.341-6.459,1.935-9.702c0.362-1.978,1.484-2.842,3.445-2.722
			c0.165,0.01,0.333-0.025,0.496-0.008c3.875,0.402,9.514-1.883,11.225,1.041c2.006,3.43-0.811,8.545-1.896,12.77
			C607.287,200.135,602.893,196.678,600.933,197.891z"/>
		<path fill-rule="evenodd" clip-rule="evenodd" fill="#E5E5E5" d="M792.039,374.847c-0.166-1.933,0.938-3.305,1.814-4.906
			c1.838-3.358,5.83-4.518,7.449-8.297c0.918-2.143,4.022-3.21,6.835-1.676C802.529,364.667,796.848,369.286,792.039,374.847z"/>
		<path fill-rule="evenodd" clip-rule="evenodd" fill="#E5E5E5" d="M438.207,327.796c-4.511-2.148-9.068-4.209-13.502-6.508
			c-1.078-0.559-0.567-2.127-0.665-3.255C429.353,320.43,434.187,323.523,438.207,327.796z"/>
		<path fill-rule="evenodd" clip-rule="evenodd" fill="#E5E5E5" d="M364.092,469.843c-8.606-0.665-10.538-1.986-11.884-8.131
			C356.169,464.422,360.13,467.132,364.092,469.843z"/>
		<path fill-rule="evenodd" clip-rule="evenodd" fill="#E5E5E5" d="M343.69,449.944c-5.908-0.268-3.378-4.082-2.948-7.014
			C341.724,445.268,342.708,447.606,343.69,449.944z"/>
		<path fill-rule="evenodd" clip-rule="evenodd" fill="#E5E5E5" d="M374.168,473.797c-3.75,0.537-6.965-0.271-9.15-3.653
			C368.068,471.362,371.119,472.58,374.168,473.797z"/>
		<path fill-rule="evenodd" clip-rule="evenodd" fill="#E5E5E5" d="M455.138,349.83c-3.731-1.696-4.308-5.271-5.168-8.676
			C452.4,343.625,453.931,346.631,455.138,349.83z"/>
		<path fill-rule="evenodd" clip-rule="evenodd" fill="#E5E5E5" d="M444.22,333.8c-4.783,1.124-4.003-3.134-5.252-5.429
			C441.167,329.748,442.927,331.548,444.22,333.8z"/>
		<path fill-rule="evenodd" clip-rule="evenodd" fill="#E5E5E5" d="M352.222,461.723c-3.434-0.526-5.305-2.359-5.014-5.999
			C349.198,457.458,350.946,459.394,352.222,461.723z"/>
		<path fill-rule="evenodd" clip-rule="evenodd" fill="#E5E5E5" d="M339.835,439.949c-1.25-2.53-4.135-4.681-1.862-8.027
			C338.594,434.597,339.215,437.273,339.835,439.949z"/>
		<path fill-rule="evenodd" clip-rule="evenodd" fill="#E5E5E5" d="M347.223,455.737c-3.626,0.051-3.115-2.578-3.146-4.856
			C345.49,452.264,346.565,453.866,347.223,455.737z"/>
		<path fill-rule="evenodd" clip-rule="evenodd" fill="#E5E5E5" d="M449.062,339.867c-1.892-0.005-2.084-1.299-2.078-2.741
			C448.11,337.71,448.833,338.601,449.062,339.867z"/>
		<path fill-rule="evenodd" clip-rule="evenodd" fill="#E5E5E5" d="M337.851,429.899c-0.657-0.073-1.379-0.19-1.405-0.996
			c-0.025-0.793,0.673-0.987,1.327-1.112C337.799,428.493,337.826,429.196,337.851,429.899z"/>
		<polygon fill-rule="evenodd" clip-rule="evenodd" fill="#E5E5E5" points="339.969,440.408 339.927,440.254 340.153,440.425 		"/>
		<path fill-rule="evenodd" clip-rule="evenodd" fill="#E5E5E5" d="M445.353,334.832c-0.242-0.088-0.354-0.262-0.335-0.521
			c0-0.001,0.406,0.127,0.406,0.127L445.353,334.832z"/>
		<path fill-rule="evenodd" clip-rule="evenodd" fill="#E5E5E5" d="M455.875,350.945c-0.256-0.383-0.513-0.767-0.769-1.149
			C455.72,349.939,456.008,350.3,455.875,350.945z"/>
		<path fill-rule="evenodd" clip-rule="evenodd" fill="#049819" d="M378.707,388.908c-11.498,0-23.001-0.167-34.493,0.093
			c-3.923,0.088-4.332-1.065-3.577-4.563c3.663-16.977,11.316-30.926,29.23-35.823c26.146-7.148,46.351,9.696,47.291,37.549
			c0.115,3.426-2.112,2.746-3.955,2.753c-11.498,0.044-22.997,0.022-34.496,0.022C378.707,388.928,378.707,388.917,378.707,388.908z
			"/>
		<path fill-rule="evenodd" clip-rule="evenodd" fill="#049819" d="M502.964,234.513c-0.927,7.489-2.767,16.188-9.755,22.76
			c-4.068,3.825-8.916,4.596-13.749,2.13c-1.446-0.738-3.403-1.323-2.742-3.985c1.788-7.207,2.288-14.74,5.487-21.586
			c1.484-3.177,3.232-6.215,6.108-8.353c3.101-2.305,6.381-4.54,10.493-3.035C501.587,223.46,503.135,227.811,502.964,234.513z"/>
		<path fill-rule="evenodd" clip-rule="evenodd" fill="#049819" d="M1240.095,233.131c-0.834,8.871-2.822,17.25-9.54,23.868
			c-2.158,2.127-4.63,3.177-7.434,3.635c-4.626,0.757-8.071-1.751-8.016-6.498c0.101-8.671,1.439-17.181,5.754-24.921
			c0.634-1.138,1.563-2.153,2.509-3.066c3.255-3.148,7.084-5.597,11.595-3.556C1239.174,224.499,1240.429,228.573,1240.095,233.131z
			"/>
		<path fill-rule="evenodd" clip-rule="evenodd" fill="#049819" d="M415.055,249.465c0.659-9.072,2.297-17.793,9.267-24.463
			c3-2.871,6.404-3.894,10.481-2.277c4.115,1.633,6.058,3.9,4.692,8.748c-1.61,5.721-2.465,11.652-4.569,17.26
			c-1.57,4.183-4.172,7.454-7.937,9.906c-6.537,4.257-11.354,2.01-11.923-5.688C414.982,251.794,415.055,250.627,415.055,249.465z"
			/>
		<path fill-rule="evenodd" clip-rule="evenodd" fill="#049819" d="M756.067,249.127c0.55-9.145,2.315-17.818,9.556-24.332
			c4.11-3.698,9.362-3.72,13.578-0.21c1.612,1.343,2.124,2.946,1.673,4.878c-1.473,6.306-2.394,12.758-4.808,18.818
			c-1.895,4.758-4.634,8.943-9.397,11.206c-6.064,2.88-10.146,0.341-10.589-6.362C755.992,251.798,756.067,250.46,756.067,249.127z"
			/>
	</g>
</g>
</svg>
